#N canvas 1585 82 1348 804 10;
#X msg 416 201 0;
#X symbolatom 327 23 10 0 0 0 - - -;
#X obj 324 46 sel H O OH NH2 -;
#X obj 458 44 t b b b;
#X obj 460 194 t f f;
#X obj 315 235 t b b a b;
#X obj 335 549 clip~ -0.6 0.6;
#X obj 257 473 bp~ 1 1;
#X obj 335 473 bp~ 1 1;
#X obj 402 474 bp~ 1 1;
#X obj 472 474 bp~ 1 1;
#X obj 335 494 *~ 0.6;
#X obj 402 495 *~ 0.4;
#X obj 472 495 *~ 0.4;
#X obj 335 585 *~ 3;
#X obj 327 75 t b b;
#X obj 363 76 t b b;
#X obj 401 76 t b b;
#X obj 479 78 t b b;
#X obj 441 78 t b b;
#X floatatom 364 293 5 0 0 0 - - -;
#X floatatom 380 582 5 0 0 0 - - -;
#X text 424 581 volume seperate control;
#X obj 366 270 unpack f f f f f f f;
#X msg 330 100 0 359 426 1748 3000 123 1.5;
#X msg 530 73 0 0 0 0 0 0 0;
#X obj 162 557 else/vu~;
#X obj 145 592 vu 15 120 empty empty -1 -8 0 10 -66577 -1 1 0;
#X obj 257 497 *~ 0.8;
#X obj 147 270 pink~;
#X obj 148 401 *~ 0.2;
#X obj 335 528 *~ 80;
#X msg 568 216 1 220 300 410 600 100 4;
#X obj 163 317 hip~ 300;
#X obj 749 265 t b b a b;
#X obj 769 579 clip~ -0.6 0.6;
#X obj 691 503 bp~ 1 1;
#X obj 769 503 bp~ 1 1;
#X obj 836 504 bp~ 1 1;
#X obj 906 504 bp~ 1 1;
#X obj 769 524 *~ 0.6;
#X obj 836 525 *~ 0.4;
#X obj 769 615 *~ 3;
#X floatatom 798 323 5 0 0 0 - - -;
#X floatatom 814 612 5 0 0 0 - - -;
#X text 858 611 volume seperate control;
#X obj 800 300 unpack f f f f f f f;
#X obj 596 587 else/vu~;
#X obj 579 622 vu 15 120 empty empty -1 -8 0 10 -66577 -1 1 0;
#X obj 691 527 *~ 0.8;
#X obj 769 558 *~ 80;
#X msg 779 80 0 0 0 0 0 0 0;
#X msg 547 155 2 60 120 200 360.1 400 8;
#X obj 906 525 *~ 0.2;
#X msg 354 130 1 50 100 200 280 100 6;
#X msg 377 156 2 48 80 160 220.1 100 7;
#X obj 1025 455 *~;
#X obj 1040 430 pink~;
#X obj 1025 274 noise~;
#X obj 1025 304 >~ 0.998;
#X obj 1025 378 *~;
#X obj 1215 209 sel 0 1 2;
#X msg 1227 289 0;
#X msg 1193 247 1;
#X obj 1087 273 brown~;
#X obj 1151 274 pink~;
#X obj 1087 378 *~;
#X obj 1148 376 *~;
#X obj 1042 357 line;
#X msg 1042 337 \$1 10;
#X obj 1104 356 line;
#X msg 1104 336 \$1 10;
#X obj 1166 357 line;
#X msg 1166 337 \$1 10;
#X msg 1244 315 1;
#X msg 1272 315 0;
#X msg 1275 292 1;
#X msg 1303 292 0;
#X obj 1151 303 >~ 0.5998;
#X obj 1087 305 >~ 0.9996;
#X msg 753 32 0 359 426 1748 3000 123 1.5;
#X msg 947 110 1 220 300 410 600 150 4;
#X obj 582 431 *~ 0.8;
#X msg 834 189 2 68 120 200 360.1 200 5;
#X msg 796 151 2 50 80 160 220.1 100 5;
#X obj 1409 272 t b b a b;
#X obj 1429 586 clip~ -0.6 0.6;
#X obj 1359 511 bp~ 1 1;
#X obj 1429 510 bp~ 1 1;
#X obj 1496 511 bp~ 1 1;
#X obj 1566 511 bp~ 1 1;
#X obj 1429 531 *~ 0.6;
#X obj 1496 532 *~ 0.4;
#X obj 1429 622 *~ 3;
#X floatatom 1458 330 5 0 0 0 - - -;
#X floatatom 1474 619 5 0 0 0 - - -;
#X text 1518 618 volume seperate control;
#X obj 1460 307 unpack f f f f f f f;
#X obj 1429 565 *~ 80;
#X msg 1439 87 0 0 0 0 0 0 0;
#X obj 1566 532 *~ 0.2;
#X obj 1685 462 *~;
#X obj 1700 437 pink~;
#X obj 1685 281 noise~;
#X obj 1685 311 >~ 0.998;
#X obj 1685 385 *~;
#X obj 1875 216 sel 0 1 2;
#X msg 1887 296 0;
#X msg 1853 254 1;
#X obj 1747 280 brown~;
#X obj 1811 281 pink~;
#X obj 1747 385 *~;
#X obj 1808 383 *~;
#X obj 1702 364 line;
#X msg 1702 344 \$1 10;
#X obj 1764 363 line;
#X msg 1764 343 \$1 10;
#X obj 1826 364 line;
#X msg 1826 344 \$1 10;
#X msg 1904 322 1;
#X msg 1932 322 0;
#X msg 1935 299 1;
#X msg 1963 299 0;
#X obj 1811 310 >~ 0.5998;
#X obj 1747 312 >~ 0.9996;
#X msg 1607 117 1 220 300 410 600 150 4;
#X obj 1436 397 *~ 0.8;
#X msg 1494 196 2 68 120 200 360.1 200 5;
#X msg 1456 158 2 50 80 160 220.1 100 5;
#X msg 1426 130 1 50 100 200 280.1 100 4;
#X msg 1524 58 0 359 440 1848 3000 123 1.5;
#X msg 1413 39 0 320 406 1647 2677 123 1.5;
#X floatatom 1069 232 10 0 0 0 - - -;
#X msg 1045 148 1 220 333 457 633 150 4;
#X obj 337 614 dac~ 7;
#X obj 771 644 dac~ 3;
#X obj 1433 652 dac~ 3;
#X floatatom 1037 209 10 0 0 0 - - -;
#X msg 864 51 0 359 440 1848 3000 123 2;
#X floatatom 1124 200 10 0 0 0 - - -;
#X msg 766 122 1 50 100 200 280.1 100 4.5;
#X obj 2098 253 t b b a b;
#X obj 2118 567 clip~ -0.6 0.6;
#X obj 2060 491 bp~ 1 1;
#X obj 2118 491 bp~ 1 1;
#X obj 2185 492 bp~ 1 1;
#X obj 2255 492 bp~ 1 1;
#X obj 2118 512 *~ 0.6;
#X obj 2185 513 *~ 0.4;
#X obj 2118 603 *~ 3;
#X floatatom 2147 311 5 0 0 0 - - -;
#X floatatom 2163 600 5 0 0 0 - - -;
#X text 2207 599 volume seperate control;
#X obj 2149 288 unpack f f f f f f f;
#X obj 2118 546 *~ 80;
#X msg 2128 68 0 0 0 0 0 0 0;
#X obj 2255 513 *~ 0.2;
#X obj 2374 443 *~;
#X obj 2389 418 pink~;
#X obj 2374 262 noise~;
#X obj 2374 292 >~ 0.998;
#X obj 2374 366 *~;
#X obj 2564 197 sel 0 1 2;
#X msg 2576 277 0;
#X msg 2542 235 1;
#X obj 2436 261 brown~;
#X obj 2500 262 pink~;
#X obj 2436 366 *~;
#X obj 2497 364 *~;
#X obj 2391 345 line;
#X msg 2391 325 \$1 10;
#X obj 2453 344 line;
#X msg 2453 324 \$1 10;
#X obj 2515 345 line;
#X msg 2515 325 \$1 10;
#X msg 2593 303 1;
#X msg 2621 303 0;
#X msg 2624 280 1;
#X msg 2652 280 0;
#X obj 2500 291 >~ 0.5998;
#X obj 2436 293 >~ 0.9996;
#X msg 2296 98 1 220 300 410 600 150 4;
#X obj 2125 378 *~ 0.8;
#X msg 2183 177 2 68 120 200 360.1 200 5;
#X msg 2145 139 2 50 80 160 220.1 100 5;
#X msg 2115 111 1 50 100 200 280.1 100 4;
#X msg 2213 39 0 359 440 1848 3000 123 1.5;
#X msg 2102 20 0 320 406 1647 2677 123 1.5;
#X obj 2122 633 dac~ 3;
#X floatatom 2433 219 10 0 0 0 - - -;
#X floatatom 2382 195 10 0 0 0 - - -;
#X floatatom 2500 172 10 0 0 0 - - -;
#X obj 1359 532 *~ 0.8;
#X obj 2060 512 *~ 0.8;
#X connect 0 0 4 0;
#X connect 1 0 2 0;
#X connect 2 0 15 0;
#X connect 2 1 16 0;
#X connect 2 2 17 0;
#X connect 2 3 19 0;
#X connect 2 4 3 0;
#X connect 2 5 18 0;
#X connect 3 0 0 0;
#X connect 3 2 25 0;
#X connect 5 1 0 0;
#X connect 5 2 23 0;
#X connect 6 0 14 0;
#X connect 7 0 28 0;
#X connect 8 0 11 0;
#X connect 9 0 12 0;
#X connect 10 0 13 0;
#X connect 11 0 31 0;
#X connect 12 0 31 0;
#X connect 13 0 31 0;
#X connect 14 0 26 0;
#X connect 14 0 134 0;
#X connect 15 0 24 0;
#X connect 16 0 54 0;
#X connect 17 0 55 0;
#X connect 18 0 32 0;
#X connect 19 0 52 0;
#X connect 21 0 14 1;
#X connect 23 0 20 0;
#X connect 23 1 7 1;
#X connect 23 2 8 1;
#X connect 23 3 9 1;
#X connect 23 4 10 1;
#X connect 23 5 7 2;
#X connect 23 5 8 2;
#X connect 23 5 9 2;
#X connect 23 5 10 2;
#X connect 23 6 21 0;
#X connect 24 0 5 0;
#X connect 25 0 23 0;
#X connect 26 0 27 0;
#X connect 28 0 31 0;
#X connect 29 0 33 0;
#X connect 30 0 7 0;
#X connect 30 0 8 0;
#X connect 30 0 9 0;
#X connect 30 0 10 0;
#X connect 31 0 6 0;
#X connect 32 0 5 0;
#X connect 33 0 30 0;
#X connect 34 2 46 0;
#X connect 35 0 42 0;
#X connect 36 0 49 0;
#X connect 37 0 40 0;
#X connect 38 0 41 0;
#X connect 39 0 53 0;
#X connect 40 0 50 0;
#X connect 41 0 50 0;
#X connect 42 0 47 0;
#X connect 42 0 135 0;
#X connect 43 0 61 0;
#X connect 44 0 42 1;
#X connect 46 0 43 0;
#X connect 46 1 36 1;
#X connect 46 2 37 1;
#X connect 46 3 38 1;
#X connect 46 4 39 1;
#X connect 46 5 36 2;
#X connect 46 5 37 2;
#X connect 46 5 38 2;
#X connect 46 5 39 2;
#X connect 46 6 44 0;
#X connect 47 0 48 0;
#X connect 49 0 50 0;
#X connect 50 0 35 0;
#X connect 51 0 34 0;
#X connect 52 0 5 0;
#X connect 53 0 50 0;
#X connect 54 0 5 0;
#X connect 55 0 5 0;
#X connect 56 0 82 0;
#X connect 57 0 56 1;
#X connect 58 0 59 0;
#X connect 59 0 60 0;
#X connect 60 0 56 0;
#X connect 61 0 63 0;
#X connect 61 0 62 0;
#X connect 61 1 74 0;
#X connect 61 1 75 0;
#X connect 61 2 76 0;
#X connect 61 2 77 0;
#X connect 62 0 71 0;
#X connect 62 0 73 0;
#X connect 63 0 69 0;
#X connect 64 0 79 0;
#X connect 65 0 78 0;
#X connect 66 0 56 0;
#X connect 67 0 56 0;
#X connect 68 0 60 1;
#X connect 69 0 68 0;
#X connect 70 0 66 1;
#X connect 71 0 70 0;
#X connect 72 0 67 1;
#X connect 73 0 72 0;
#X connect 74 0 71 0;
#X connect 75 0 69 0;
#X connect 75 0 73 0;
#X connect 76 0 73 0;
#X connect 77 0 71 0;
#X connect 77 0 69 0;
#X connect 78 0 67 0;
#X connect 79 0 66 0;
#X connect 80 0 34 0;
#X connect 81 0 34 0;
#X connect 82 0 36 0;
#X connect 82 0 37 0;
#X connect 82 0 38 0;
#X connect 82 0 39 0;
#X connect 83 0 34 0;
#X connect 84 0 34 0;
#X connect 85 2 97 0;
#X connect 86 0 93 0;
#X connect 87 0 192 0;
#X connect 88 0 91 0;
#X connect 89 0 92 0;
#X connect 90 0 100 0;
#X connect 91 0 98 0;
#X connect 92 0 98 0;
#X connect 93 0 136 0;
#X connect 94 0 106 0;
#X connect 95 0 93 1;
#X connect 97 0 94 0;
#X connect 97 1 87 1;
#X connect 97 2 88 1;
#X connect 97 3 89 1;
#X connect 97 4 90 1;
#X connect 97 5 87 2;
#X connect 97 5 88 2;
#X connect 97 5 89 2;
#X connect 97 5 90 2;
#X connect 97 6 95 0;
#X connect 98 0 86 0;
#X connect 99 0 85 0;
#X connect 100 0 98 0;
#X connect 101 0 126 0;
#X connect 102 0 101 1;
#X connect 103 0 104 0;
#X connect 104 0 105 0;
#X connect 105 0 101 0;
#X connect 106 0 108 0;
#X connect 106 0 107 0;
#X connect 106 1 119 0;
#X connect 106 1 120 0;
#X connect 106 2 121 0;
#X connect 106 2 122 0;
#X connect 107 0 116 0;
#X connect 107 0 118 0;
#X connect 108 0 114 0;
#X connect 109 0 124 0;
#X connect 110 0 123 0;
#X connect 111 0 101 0;
#X connect 112 0 101 0;
#X connect 113 0 105 1;
#X connect 114 0 113 0;
#X connect 115 0 111 1;
#X connect 116 0 115 0;
#X connect 117 0 112 1;
#X connect 118 0 117 0;
#X connect 119 0 116 0;
#X connect 120 0 114 0;
#X connect 120 0 118 0;
#X connect 121 0 118 0;
#X connect 122 0 116 0;
#X connect 122 0 114 0;
#X connect 123 0 112 0;
#X connect 124 0 111 0;
#X connect 125 0 85 0;
#X connect 126 0 87 0;
#X connect 126 0 88 0;
#X connect 126 0 89 0;
#X connect 126 0 90 0;
#X connect 127 0 85 0;
#X connect 128 0 85 0;
#X connect 129 0 85 0;
#X connect 130 0 85 0;
#X connect 131 0 85 0;
#X connect 132 0 79 1;
#X connect 133 0 34 0;
#X connect 137 0 59 1;
#X connect 138 0 34 0;
#X connect 139 0 78 1;
#X connect 140 0 34 0;
#X connect 141 2 153 0;
#X connect 142 0 149 0;
#X connect 143 0 193 0;
#X connect 144 0 147 0;
#X connect 145 0 148 0;
#X connect 146 0 156 0;
#X connect 147 0 154 0;
#X connect 148 0 154 0;
#X connect 149 0 188 0;
#X connect 150 0 162 0;
#X connect 151 0 149 1;
#X connect 153 0 150 0;
#X connect 153 1 143 1;
#X connect 153 2 144 1;
#X connect 153 3 145 1;
#X connect 153 4 146 1;
#X connect 153 5 143 2;
#X connect 153 5 144 2;
#X connect 153 5 145 2;
#X connect 153 5 146 2;
#X connect 153 6 151 0;
#X connect 154 0 142 0;
#X connect 155 0 141 0;
#X connect 156 0 154 0;
#X connect 157 0 182 0;
#X connect 158 0 157 1;
#X connect 159 0 160 0;
#X connect 160 0 161 0;
#X connect 161 0 157 0;
#X connect 162 0 164 0;
#X connect 162 0 163 0;
#X connect 162 1 175 0;
#X connect 162 1 176 0;
#X connect 162 2 177 0;
#X connect 162 2 178 0;
#X connect 163 0 172 0;
#X connect 163 0 174 0;
#X connect 164 0 170 0;
#X connect 165 0 180 0;
#X connect 166 0 179 0;
#X connect 167 0 157 0;
#X connect 168 0 157 0;
#X connect 169 0 161 1;
#X connect 170 0 169 0;
#X connect 171 0 167 1;
#X connect 172 0 171 0;
#X connect 173 0 168 1;
#X connect 174 0 173 0;
#X connect 175 0 172 0;
#X connect 176 0 170 0;
#X connect 176 0 174 0;
#X connect 177 0 174 0;
#X connect 178 0 172 0;
#X connect 178 0 170 0;
#X connect 179 0 168 0;
#X connect 180 0 167 0;
#X connect 181 0 141 0;
#X connect 182 0 143 0;
#X connect 182 0 144 0;
#X connect 182 0 145 0;
#X connect 182 0 146 0;
#X connect 183 0 141 0;
#X connect 184 0 141 0;
#X connect 185 0 141 0;
#X connect 186 0 141 0;
#X connect 187 0 141 0;
#X connect 189 0 180 1;
#X connect 190 0 160 1;
#X connect 191 0 179 1;
#X connect 192 0 98 0;
#X connect 193 0 154 0;
