#N canvas 87 17 2000 792 10;
#X obj 68 277 else/vu~;
#X obj 68 301 vu 15 120 empty empty -1 -8 0 10 -66577 -1 1 0;
#X obj 426 279 t b b a b;
#X obj 446 593 clip~ -0.6 0.6;
#X obj 368 517 bp~ 1 1;
#X obj 446 517 bp~ 1 1;
#X obj 513 518 bp~ 1 1;
#X obj 583 518 bp~ 1 1;
#X obj 446 538 *~ 0.6;
#X obj 513 539 *~ 0.4;
#X obj 446 629 *~ 3;
#X floatatom 475 337 5 0 0 0 - - -;
#X floatatom 491 626 5 0 0 0 - - -;
#X text 535 625 volume seperate control;
#X obj 477 314 unpack f f f f f f f;
#X obj 384 648 else/vu~;
#X obj 367 683 vu 15 120 empty empty -1 -8 0 10 -66577 -1 1 0;
#X obj 368 541 *~ 0.8;
#X obj 446 572 *~ 80;
#X msg 456 94 0 0 0 0 0 0 0;
#X obj 583 539 *~ 0.2;
#X obj 702 469 *~;
#X obj 717 444 pink~;
#X obj 702 288 noise~;
#X obj 702 392 *~;
#X obj 892 223 sel 0 1 2;
#X msg 904 303 0;
#X msg 870 261 1;
#X obj 764 287 brown~;
#X obj 828 288 pink~;
#X obj 764 392 *~;
#X obj 825 390 *~;
#X obj 719 371 line;
#X msg 719 351 \$1 10;
#X obj 781 370 line;
#X msg 781 350 \$1 10;
#X obj 843 371 line;
#X msg 843 351 \$1 10;
#X msg 921 329 1;
#X msg 949 329 0;
#X msg 952 306 1;
#X msg 980 306 0;
#X obj 368 455 *~ 0.8;
#X msg 506 250 2 68 120 200 360.1 200 5;
#X msg 454 163 2 50 80 160 220.1 100 5;
#X obj 1086 286 t b b a b;
#X obj 1152 601 clip~ -0.6 0.6;
#X obj 1082 526 bp~ 1 1;
#X obj 1152 525 bp~ 1 1;
#X obj 1219 526 bp~ 1 1;
#X obj 1289 526 bp~ 1 1;
#X obj 1152 546 *~ 0.6;
#X obj 1219 547 *~ 0.4;
#X obj 1139 658 *~ 3;
#X floatatom 1135 344 5 0 0 0 - - -;
#X floatatom 1197 633 5 0 0 0 - - -;
#X text 1241 633 volume seperate control;
#X obj 1137 321 unpack f f f f f f f;
#X obj 1152 580 *~ 80;
#X msg 1117 180 0 0 0 0 0 0 0;
#X obj 1289 547 *~ 0.2;
#X obj 1362 476 *~;
#X obj 1377 451 pink~;
#X obj 1362 295 noise~;
#X obj 1362 325 >~ 0.998;
#X obj 1362 399 *~;
#X obj 1552 230 sel 0 1 2;
#X msg 1564 310 0;
#X msg 1530 268 1;
#X obj 1424 294 brown~;
#X obj 1488 295 pink~;
#X obj 1424 399 *~;
#X obj 1485 397 *~;
#X obj 1379 378 line;
#X msg 1379 358 \$1 10;
#X obj 1441 377 line;
#X msg 1441 357 \$1 10;
#X obj 1503 378 line;
#X msg 1503 358 \$1 10;
#X msg 1581 336 1;
#X msg 1609 336 0;
#X msg 1612 313 1;
#X msg 1640 313 0;
#X obj 1488 324 >~ 0.5998;
#X obj 1424 326 >~ 0.9996;
#X obj 1102 472 *~ 0.8;
#X msg 1120 246 2 68 120 200 360.1 200 5;
#X msg 1115 224 2 50 80 160 220.1 100 5;
#X floatatom 746 246 10 0 0 0 - - -;
#X obj 448 658 dac~ 3;
#X floatatom 707 220 10 0 0 0 - - -;
#X msg 541 65 0 359 440 1848 3000 123 2;
#X floatatom 823 212 10 0 0 0 - - -;
#X obj 1775 267 t b b a b;
#X obj 1795 581 clip~ -0.6 0.6;
#X obj 1737 505 bp~ 1 1;
#X obj 1795 505 bp~ 1 1;
#X obj 1862 506 bp~ 1 1;
#X obj 1932 506 bp~ 1 1;
#X obj 1795 526 *~ 0.6;
#X obj 1862 527 *~ 0.4;
#X obj 1795 647 *~ 3;
#X floatatom 1824 325 5 0 0 0 - - -;
#X floatatom 1840 614 5 0 0 0 - - -;
#X text 1884 613 volume seperate control;
#X obj 1826 302 unpack f f f f f f f;
#X obj 1795 560 *~ 80;
#X msg 1655 104 0 0 0 0 0 0 0;
#X obj 1932 527 *~ 0.2;
#X obj 2051 457 *~;
#X obj 2066 432 pink~;
#X obj 2051 276 noise~;
#X obj 2051 380 *~;
#X obj 2241 211 sel 0 1 2;
#X msg 2253 291 0;
#X msg 2219 249 1;
#X obj 2113 275 brown~;
#X obj 2177 276 pink~;
#X obj 2113 380 *~;
#X obj 2174 378 *~;
#X obj 2068 359 line;
#X msg 2068 339 \$1 10;
#X obj 2130 358 line;
#X msg 2130 338 \$1 10;
#X obj 2192 359 line;
#X msg 2192 339 \$1 10;
#X msg 2270 317 1;
#X msg 2298 317 0;
#X msg 2301 294 1;
#X msg 2329 294 0;
#X msg 1824 120 1 220 300 410 600 150 4;
#X obj 1802 392 *~ 0.8;
#X obj 1799 677 dac~ 3;
#X floatatom 2110 233 10 0 0 0 - - -;
#X floatatom 2059 209 10 0 0 0 - - -;
#X floatatom 2177 186 10 0 0 0 - - -;
#X obj 1082 547 *~ 0.8;
#X obj 1737 526 *~ 0.8;
#X text 745 61 louder volume - less intesive;
#X msg 443 136 1 50 100 200 280.1 100 5;
#X msg 1275 120 1 220 300 410 600 150 4;
#X msg 1278 147 1 220 333 457 633 150 4;
#X msg 623 127 1 220 300 410 600 150 4.5;
#X msg 626 154 1 220 333 457 633 150 4.5;
#X msg 1831 145 1 220 333 457 633 150 4;
#X msg 1107 201 1 50 100 200 280.1 100 5;
#X obj 1198 654 * 0.9;
#X obj 764 319 >~ 0.9998;
#X obj 828 316 >~ 0.6;
#X obj 2177 305 >~ 0.5995;
#X symbolatom 182 141 10 0 0 0 - - -;
#X obj 80 495 else/vu~;
#X obj 80 519 vu 15 120 empty empty -1 -8 0 10 -66577 -1 1 0;
#N canvas 172 23 852 745 granular-sound 0;
#X obj 55 620 *~;
#X obj 70 595 pink~;
#X obj 55 439 noise~;
#X obj 55 469 >~ 0.998;
#X obj 55 543 *~;
#X obj 245 374 sel 0 1 2;
#X msg 257 454 0;
#X msg 223 412 1;
#X obj 117 438 brown~;
#X obj 181 439 pink~;
#X obj 117 543 *~;
#X obj 178 541 *~;
#X obj 72 522 line;
#X msg 72 502 \$1 10;
#X obj 134 521 line;
#X msg 134 501 \$1 10;
#X obj 196 522 line;
#X msg 196 502 \$1 10;
#X msg 274 480 1;
#X msg 302 480 0;
#X msg 305 457 1;
#X msg 333 457 0;
#X obj 181 468 >~ 0.5998;
#X obj 117 470 >~ 0.9996;
#X obj 579 611 clip~ -0.6 0.6;
#X obj 501 535 bp~ 1 1;
#X obj 579 535 bp~ 1 1;
#X obj 646 536 bp~ 1 1;
#X obj 716 536 bp~ 1 1;
#X obj 579 556 *~ 0.6;
#X obj 646 557 *~ 0.4;
#X obj 716 557 *~ 0.4;
#X obj 579 647 *~ 3;
#X floatatom 608 355 5 0 0 0 - - -;
#X floatatom 624 644 5 0 0 0 - - -;
#X text 668 643 volume seperate control;
#X obj 610 332 unpack f f f f f f f;
#X obj 501 559 *~ 0.8;
#X obj 579 590 *~ 80;
#X obj 392 463 *~ 0.8;
#X obj 598 60 inlet;
#X obj 579 668 outlet~;
#X msg 667 238 0;
#X obj 575 83 sel H O OH NH2 -;
#X obj 709 81 t b b b;
#X obj 711 231 t f f;
#X obj 540 268 t b b a b;
#X obj 578 112 t b b;
#X obj 614 113 t b b;
#X obj 652 113 t b b;
#X obj 730 115 t b b;
#X obj 692 115 t b b;
#X msg 581 137 0 359 426 1748 3000 123 1.5;
#X msg 781 110 0 0 0 0 0 0 0;
#X msg 819 253 1 220 300 410 600 100 4;
#X msg 605 167 1 50 100 200 280 100 6;
#X msg 628 193 2 50 80 160 220.1 100 7;
#X msg 798 192 2 68 120 200 360.1 400 5.5;
#X connect 0 0 39 0;
#X connect 1 0 0 1;
#X connect 2 0 3 0;
#X connect 3 0 4 0;
#X connect 4 0 0 0;
#X connect 5 0 7 0;
#X connect 5 0 6 0;
#X connect 5 1 18 0;
#X connect 5 1 19 0;
#X connect 5 2 20 0;
#X connect 5 2 21 0;
#X connect 6 0 15 0;
#X connect 6 0 17 0;
#X connect 7 0 13 0;
#X connect 8 0 23 0;
#X connect 9 0 22 0;
#X connect 10 0 0 0;
#X connect 11 0 0 0;
#X connect 12 0 4 1;
#X connect 13 0 12 0;
#X connect 14 0 10 1;
#X connect 15 0 14 0;
#X connect 16 0 11 1;
#X connect 17 0 16 0;
#X connect 18 0 15 0;
#X connect 19 0 13 0;
#X connect 19 0 17 0;
#X connect 20 0 17 0;
#X connect 21 0 15 0;
#X connect 21 0 13 0;
#X connect 22 0 11 0;
#X connect 23 0 10 0;
#X connect 24 0 32 0;
#X connect 25 0 37 0;
#X connect 26 0 29 0;
#X connect 27 0 30 0;
#X connect 28 0 31 0;
#X connect 29 0 38 0;
#X connect 30 0 38 0;
#X connect 31 0 38 0;
#X connect 32 0 41 0;
#X connect 33 0 5 0;
#X connect 34 0 32 1;
#X connect 36 0 33 0;
#X connect 36 1 25 1;
#X connect 36 2 26 1;
#X connect 36 3 27 1;
#X connect 36 4 28 1;
#X connect 36 5 25 2;
#X connect 36 5 26 2;
#X connect 36 5 27 2;
#X connect 36 5 28 2;
#X connect 36 6 34 0;
#X connect 37 0 38 0;
#X connect 38 0 24 0;
#X connect 39 0 25 0;
#X connect 39 0 26 0;
#X connect 39 0 27 0;
#X connect 39 0 28 0;
#X connect 40 0 43 0;
#X connect 42 0 45 0;
#X connect 43 0 47 0;
#X connect 43 1 48 0;
#X connect 43 2 49 0;
#X connect 43 3 51 0;
#X connect 43 4 44 0;
#X connect 43 5 50 0;
#X connect 44 0 42 0;
#X connect 44 2 53 0;
#X connect 46 1 42 0;
#X connect 46 2 36 0;
#X connect 47 0 52 0;
#X connect 48 0 55 0;
#X connect 49 0 56 0;
#X connect 50 0 54 0;
#X connect 51 0 57 0;
#X connect 52 0 46 0;
#X connect 53 0 36 0;
#X connect 54 0 46 0;
#X connect 55 0 46 0;
#X connect 56 0 46 0;
#X connect 57 0 46 0;
#X restore 158 434 pd granular-sound;
#X symbolatom 115 140 10 0 0 0 - - -;
#N canvas 68 23 852 745 granular-sound 0;
#X obj 55 620 *~;
#X obj 70 595 pink~;
#X obj 55 439 noise~;
#X obj 55 469 >~ 0.998;
#X obj 55 543 *~;
#X obj 245 374 sel 0 1 2;
#X msg 257 454 0;
#X msg 223 412 1;
#X obj 117 438 brown~;
#X obj 181 439 pink~;
#X obj 117 543 *~;
#X obj 178 541 *~;
#X obj 72 522 line;
#X msg 72 502 \$1 10;
#X obj 134 521 line;
#X msg 134 501 \$1 10;
#X obj 196 522 line;
#X msg 196 502 \$1 10;
#X msg 274 480 1;
#X msg 302 480 0;
#X msg 305 457 1;
#X msg 333 457 0;
#X obj 181 468 >~ 0.5998;
#X obj 117 470 >~ 0.9996;
#X obj 579 611 clip~ -0.6 0.6;
#X obj 501 535 bp~ 1 1;
#X obj 579 535 bp~ 1 1;
#X obj 646 536 bp~ 1 1;
#X obj 716 536 bp~ 1 1;
#X obj 579 556 *~ 0.6;
#X obj 646 557 *~ 0.4;
#X obj 716 557 *~ 0.4;
#X obj 579 647 *~ 3;
#X floatatom 608 355 5 0 0 0 - - -;
#X floatatom 624 644 5 0 0 0 - - -;
#X text 668 643 volume seperate control;
#X obj 610 332 unpack f f f f f f f;
#X obj 501 559 *~ 0.8;
#X obj 579 590 *~ 80;
#X obj 392 463 *~ 0.8;
#X obj 547 40 inlet;
#X obj 579 668 outlet~;
#X msg 616 218 0;
#X obj 524 63 sel H O OH NH2 -;
#X obj 658 61 t b b b;
#X obj 660 211 t f f;
#X obj 540 268 t b b a b;
#X obj 527 92 t b b;
#X obj 563 93 t b b;
#X obj 601 93 t b b;
#X obj 679 95 t b b;
#X obj 641 95 t b b;
#X msg 530 117 0 359 426 1748 3000 123 1.5;
#X msg 730 90 0 0 0 0 0 0 0;
#X msg 768 233 1 220 300 410 600 100 4;
#X msg 554 147 1 50 100 200 280 100 6;
#X msg 577 173 2 50 80 160 220.1 100 6;
#X msg 747 172 2 68 120 200 360.1 400 5.5;
#X connect 0 0 39 0;
#X connect 1 0 0 1;
#X connect 2 0 3 0;
#X connect 3 0 4 0;
#X connect 4 0 0 0;
#X connect 5 0 7 0;
#X connect 5 0 6 0;
#X connect 5 1 18 0;
#X connect 5 1 19 0;
#X connect 5 2 20 0;
#X connect 5 2 21 0;
#X connect 6 0 15 0;
#X connect 6 0 17 0;
#X connect 7 0 13 0;
#X connect 8 0 23 0;
#X connect 9 0 22 0;
#X connect 10 0 0 0;
#X connect 11 0 0 0;
#X connect 12 0 4 1;
#X connect 13 0 12 0;
#X connect 14 0 10 1;
#X connect 15 0 14 0;
#X connect 16 0 11 1;
#X connect 17 0 16 0;
#X connect 18 0 15 0;
#X connect 19 0 13 0;
#X connect 19 0 17 0;
#X connect 20 0 17 0;
#X connect 21 0 15 0;
#X connect 21 0 13 0;
#X connect 22 0 11 0;
#X connect 23 0 10 0;
#X connect 24 0 32 0;
#X connect 25 0 37 0;
#X connect 26 0 29 0;
#X connect 27 0 30 0;
#X connect 28 0 31 0;
#X connect 29 0 38 0;
#X connect 30 0 38 0;
#X connect 31 0 38 0;
#X connect 32 0 41 0;
#X connect 33 0 5 0;
#X connect 34 0 32 1;
#X connect 36 0 33 0;
#X connect 36 1 25 1;
#X connect 36 2 26 1;
#X connect 36 3 27 1;
#X connect 36 4 28 1;
#X connect 36 5 25 2;
#X connect 36 5 26 2;
#X connect 36 5 27 2;
#X connect 36 5 28 2;
#X connect 36 6 34 0;
#X connect 37 0 38 0;
#X connect 38 0 24 0;
#X connect 39 0 25 0;
#X connect 39 0 26 0;
#X connect 39 0 27 0;
#X connect 39 0 28 0;
#X connect 40 0 43 0;
#X connect 42 0 45 0;
#X connect 43 0 47 0;
#X connect 43 1 48 0;
#X connect 43 2 49 0;
#X connect 43 3 51 0;
#X connect 43 4 44 0;
#X connect 43 5 50 0;
#X connect 44 0 42 0;
#X connect 44 2 53 0;
#X connect 46 1 42 0;
#X connect 46 2 36 0;
#X connect 47 0 52 0;
#X connect 48 0 55 0;
#X connect 49 0 56 0;
#X connect 50 0 54 0;
#X connect 51 0 57 0;
#X connect 52 0 46 0;
#X connect 53 0 36 0;
#X connect 54 0 46 0;
#X connect 55 0 46 0;
#X connect 56 0 46 0;
#X connect 57 0 46 0;
#X restore 114 199 pd granular-sound;
#X msg 1287 179 1 220 351 487 653 150 4;
#X msg 1846 179 1 220 351 487 653 150 4;
#X obj 1840 634 * 0.67;
#X obj 2113 307 >~ 0.9993;
#X obj 144 284 dac~ 4;
#X obj 1156 696 dac~ 3;
#X msg 1090 53 0 320 406 1647 2677 123 1.5;
#X msg 430 46 0 320 406 1647 2677 123 1.5;
#X msg 1116 95 0 402 510 2073 3365 123 1.5;
#X msg 219 42 0 320 406 1647 2677 123 1.5;
#X msg 228 63 0 359 455 1848 3000 123 1.5;
#X msg 245 84 0 402 510 2073 3365 123 1.5;
#X msg 1525 3 0 320 406 1647 2677 123 1.5;
#X msg 1534 24 0 359 455 1848 3000 123 1.5;
#X msg 1551 45 0 402 510 2073 3365 123 0.8;
#X msg 1099 74 0 359 455 1848 3000 123 1.2;
#X obj 702 318 >~ 0.998;
#X obj 2051 306 >~ 0.998;
#X floatatom 1360 236 10 0 0 0 - - -;
#X obj 156 502 dac~ 1;
#X connect 0 0 1 0;
#X connect 2 2 14 0;
#X connect 3 0 10 0;
#X connect 4 0 17 0;
#X connect 5 0 8 0;
#X connect 6 0 9 0;
#X connect 7 0 20 0;
#X connect 8 0 18 0;
#X connect 9 0 18 0;
#X connect 10 0 15 0;
#X connect 10 0 89 0;
#X connect 11 0 25 0;
#X connect 12 0 10 1;
#X connect 14 0 11 0;
#X connect 14 1 4 1;
#X connect 14 2 5 1;
#X connect 14 3 6 1;
#X connect 14 4 7 1;
#X connect 14 5 4 2;
#X connect 14 5 5 2;
#X connect 14 5 6 2;
#X connect 14 5 7 2;
#X connect 14 6 12 0;
#X connect 15 0 16 0;
#X connect 17 0 18 0;
#X connect 18 0 3 0;
#X connect 19 0 2 0;
#X connect 20 0 18 0;
#X connect 21 0 42 0;
#X connect 22 0 21 1;
#X connect 23 0 172 0;
#X connect 24 0 21 0;
#X connect 25 0 27 0;
#X connect 25 0 26 0;
#X connect 25 1 38 0;
#X connect 25 1 39 0;
#X connect 25 2 40 0;
#X connect 25 2 41 0;
#X connect 26 0 35 0;
#X connect 26 0 37 0;
#X connect 27 0 33 0;
#X connect 28 0 147 0;
#X connect 29 0 148 0;
#X connect 30 0 21 0;
#X connect 31 0 21 0;
#X connect 32 0 24 1;
#X connect 33 0 32 0;
#X connect 34 0 30 1;
#X connect 35 0 34 0;
#X connect 36 0 31 1;
#X connect 37 0 36 0;
#X connect 38 0 35 0;
#X connect 39 0 33 0;
#X connect 39 0 37 0;
#X connect 40 0 37 0;
#X connect 41 0 35 0;
#X connect 41 0 33 0;
#X connect 42 0 4 0;
#X connect 42 0 5 0;
#X connect 42 0 6 0;
#X connect 42 0 7 0;
#X connect 43 0 2 0;
#X connect 44 0 2 0;
#X connect 45 2 57 0;
#X connect 46 0 53 0;
#X connect 47 0 136 0;
#X connect 48 0 51 0;
#X connect 49 0 52 0;
#X connect 50 0 60 0;
#X connect 51 0 58 0;
#X connect 52 0 58 0;
#X connect 53 0 161 0;
#X connect 54 0 66 0;
#X connect 55 0 146 0;
#X connect 57 0 54 0;
#X connect 57 1 47 1;
#X connect 57 2 48 1;
#X connect 57 3 49 1;
#X connect 57 4 50 1;
#X connect 57 5 47 2;
#X connect 57 5 48 2;
#X connect 57 5 49 2;
#X connect 57 5 50 2;
#X connect 57 6 55 0;
#X connect 58 0 46 0;
#X connect 59 0 45 0;
#X connect 60 0 58 0;
#X connect 61 0 85 0;
#X connect 62 0 61 1;
#X connect 63 0 64 0;
#X connect 64 0 65 0;
#X connect 65 0 61 0;
#X connect 66 0 68 0;
#X connect 66 0 67 0;
#X connect 66 1 79 0;
#X connect 66 1 80 0;
#X connect 66 2 81 0;
#X connect 66 2 82 0;
#X connect 67 0 76 0;
#X connect 67 0 78 0;
#X connect 68 0 74 0;
#X connect 69 0 84 0;
#X connect 70 0 83 0;
#X connect 71 0 61 0;
#X connect 72 0 61 0;
#X connect 73 0 65 1;
#X connect 74 0 73 0;
#X connect 75 0 71 1;
#X connect 76 0 75 0;
#X connect 77 0 72 1;
#X connect 78 0 77 0;
#X connect 79 0 76 0;
#X connect 80 0 74 0;
#X connect 80 0 78 0;
#X connect 81 0 78 0;
#X connect 82 0 76 0;
#X connect 82 0 74 0;
#X connect 83 0 72 0;
#X connect 84 0 71 0;
#X connect 85 0 47 0;
#X connect 85 0 48 0;
#X connect 85 0 49 0;
#X connect 85 0 50 0;
#X connect 86 0 45 0;
#X connect 87 0 45 0;
#X connect 88 0 147 1;
#X connect 90 0 172 1;
#X connect 91 0 2 0;
#X connect 92 0 148 1;
#X connect 93 2 105 0;
#X connect 94 0 101 0;
#X connect 95 0 137 0;
#X connect 96 0 99 0;
#X connect 97 0 100 0;
#X connect 98 0 108 0;
#X connect 99 0 106 0;
#X connect 100 0 106 0;
#X connect 101 0 132 0;
#X connect 102 0 113 0;
#X connect 103 0 158 0;
#X connect 105 0 102 0;
#X connect 105 1 95 1;
#X connect 105 2 96 1;
#X connect 105 3 97 1;
#X connect 105 4 98 1;
#X connect 105 5 95 2;
#X connect 105 5 96 2;
#X connect 105 5 97 2;
#X connect 105 5 98 2;
#X connect 105 6 103 0;
#X connect 106 0 94 0;
#X connect 107 0 93 0;
#X connect 108 0 106 0;
#X connect 109 0 131 0;
#X connect 110 0 109 1;
#X connect 111 0 173 0;
#X connect 112 0 109 0;
#X connect 113 0 115 0;
#X connect 113 0 114 0;
#X connect 113 1 126 0;
#X connect 113 1 127 0;
#X connect 113 2 128 0;
#X connect 113 2 129 0;
#X connect 114 0 123 0;
#X connect 114 0 125 0;
#X connect 115 0 121 0;
#X connect 116 0 159 0;
#X connect 117 0 149 0;
#X connect 118 0 109 0;
#X connect 119 0 109 0;
#X connect 120 0 112 1;
#X connect 121 0 120 0;
#X connect 122 0 118 1;
#X connect 123 0 122 0;
#X connect 124 0 119 1;
#X connect 125 0 124 0;
#X connect 126 0 123 0;
#X connect 127 0 121 0;
#X connect 127 0 125 0;
#X connect 128 0 125 0;
#X connect 129 0 123 0;
#X connect 129 0 121 0;
#X connect 130 0 93 0;
#X connect 131 0 95 0;
#X connect 131 0 96 0;
#X connect 131 0 97 0;
#X connect 131 0 98 0;
#X connect 133 0 159 1;
#X connect 134 0 173 1;
#X connect 135 0 149 1;
#X connect 136 0 58 0;
#X connect 137 0 106 0;
#X connect 139 0 2 0;
#X connect 140 0 45 0;
#X connect 141 0 45 0;
#X connect 142 0 2 0;
#X connect 143 0 2 0;
#X connect 144 0 93 0;
#X connect 145 0 45 0;
#X connect 146 0 53 1;
#X connect 147 0 30 0;
#X connect 148 0 31 0;
#X connect 149 0 119 0;
#X connect 150 0 153 0;
#X connect 151 0 152 0;
#X connect 153 0 151 0;
#X connect 153 0 175 0;
#X connect 154 0 155 0;
#X connect 155 0 0 0;
#X connect 155 0 160 0;
#X connect 156 0 45 0;
#X connect 157 0 93 0;
#X connect 158 0 101 1;
#X connect 159 0 118 0;
#X connect 162 0 45 0;
#X connect 163 0 2 0;
#X connect 164 0 45 0;
#X connect 165 0 2 0;
#X connect 166 0 2 0;
#X connect 167 0 2 0;
#X connect 168 0 93 0;
#X connect 169 0 93 0;
#X connect 170 0 93 0;
#X connect 171 0 45 0;
#X connect 172 0 24 0;
#X connect 173 0 112 0;
#X connect 174 0 64 1;
