#N canvas 88 77 1358 771 10;
#X msg 418 229 0;
#X symbolatom 329 51 10 0 0 0 - - -;
#X obj 326 74 sel H O OH NH2 -;
#X obj 460 72 t b b b;
#X obj 462 222 t f f;
#X obj 309 337 t b b a b;
#X text 797 312 1) smaller number with high frequency;
#X obj 873 620 *~ 1000;
#X obj 873 641 clip~ -0.6 0.6;
#X obj 795 565 bp~ 1 1;
#X obj 873 565 bp~ 1 1;
#X obj 940 566 bp~ 1 1;
#X obj 1010 566 bp~ 1 1;
#X obj 790 497 hip~ 200;
#X obj 795 588 *~ 0.8;
#X obj 873 586 *~ 0.6;
#X obj 940 587 *~ 0.4;
#X obj 1010 587 *~ 0.4;
#X text 487 274 220 330 460 800 100;
#X obj 873 677 *~ 3;
#X msg 462 347 0;
#X msg 491 348 1;
#X msg 522 349 2;
#X obj 468 381 s \$0-pattern;
#X obj 329 103 t b b;
#X obj 365 104 t b b;
#X obj 403 104 t b b;
#X obj 481 106 t b b;
#X obj 443 106 t b b;
#X obj 570 599 *~;
#X obj 585 574 pink~;
#X obj 570 620 *~ 0.2;
#X obj 570 418 noise~;
#X obj 570 448 >~ 0.998;
#X obj 570 522 *~;
#X obj 785 405 sel 0 1 2;
#X msg 772 433 0;
#X msg 746 431 1;
#X floatatom 902 385 5 0 0 0 - - -;
#X floatatom 918 674 5 0 0 0 - - -;
#X text 962 673 volume seperate control;
#X obj 632 417 brown~;
#X obj 696 418 pink~;
#X obj 632 522 *~;
#X obj 693 520 *~;
#X obj 587 501 line;
#X msg 587 481 \$1 10;
#X obj 649 500 line;
#X msg 649 480 \$1 10;
#X obj 711 501 line;
#X msg 711 481 \$1 10;
#X msg 789 459 1;
#X msg 817 459 0;
#X msg 820 436 1;
#X msg 848 436 0;
#X obj 904 362 unpack f f f f f f f;
#X msg 357 158 1 50 80 160 300 100 8;
#X msg 153 195 0 359 426 1748 3000 123 1.5;
#X msg 379 184 2 50 100 120 300 100 4;
#X msg 860 413 0;
#X msg 532 101 0 0 0 0 0 0 0;
#X msg 570 244 1 220 300 410 600 100 5;
#X msg 572 193 2 60 120 200 450 200 6;
#X obj 696 447 >~ 0.5998;
#X obj 632 449 >~ 0.9996;
#X obj 875 706 outlet~;
#X obj 329 26 inlet;
#X connect 0 0 4 0;
#X connect 1 0 2 0;
#X connect 2 0 24 0;
#X connect 2 1 25 0;
#X connect 2 2 26 0;
#X connect 2 3 28 0;
#X connect 2 4 3 0;
#X connect 2 5 27 0;
#X connect 3 0 0 0;
#X connect 3 2 60 0;
#X connect 5 1 0 0;
#X connect 5 2 55 0;
#X connect 7 0 8 0;
#X connect 8 0 19 0;
#X connect 9 0 14 0;
#X connect 10 0 15 0;
#X connect 11 0 16 0;
#X connect 12 0 17 0;
#X connect 13 0 9 0;
#X connect 13 0 10 0;
#X connect 13 0 11 0;
#X connect 13 0 12 0;
#X connect 14 0 7 0;
#X connect 15 0 7 0;
#X connect 16 0 7 0;
#X connect 17 0 7 0;
#X connect 19 0 65 0;
#X connect 20 0 23 0;
#X connect 21 0 23 0;
#X connect 22 0 23 0;
#X connect 24 0 57 0;
#X connect 24 1 20 0;
#X connect 25 0 56 0;
#X connect 25 1 22 0;
#X connect 26 0 58 0;
#X connect 26 1 22 0;
#X connect 27 0 61 0;
#X connect 27 1 21 0;
#X connect 28 0 62 0;
#X connect 28 1 22 0;
#X connect 29 0 31 0;
#X connect 30 0 29 1;
#X connect 31 0 13 0;
#X connect 32 0 33 0;
#X connect 33 0 34 0;
#X connect 34 0 29 0;
#X connect 35 0 37 0;
#X connect 35 0 36 0;
#X connect 35 1 51 0;
#X connect 35 1 52 0;
#X connect 35 2 53 0;
#X connect 35 2 54 0;
#X connect 35 3 59 0;
#X connect 36 0 48 0;
#X connect 36 0 50 0;
#X connect 37 0 46 0;
#X connect 38 0 35 0;
#X connect 39 0 19 1;
#X connect 41 0 64 0;
#X connect 42 0 63 0;
#X connect 43 0 29 0;
#X connect 44 0 29 0;
#X connect 45 0 34 1;
#X connect 46 0 45 0;
#X connect 47 0 43 1;
#X connect 48 0 47 0;
#X connect 49 0 44 1;
#X connect 50 0 49 0;
#X connect 51 0 48 0;
#X connect 52 0 46 0;
#X connect 52 0 50 0;
#X connect 53 0 50 0;
#X connect 54 0 48 0;
#X connect 54 0 46 0;
#X connect 55 0 38 0;
#X connect 55 1 9 1;
#X connect 55 2 10 1;
#X connect 55 3 11 1;
#X connect 55 4 12 1;
#X connect 55 5 9 2;
#X connect 55 5 10 2;
#X connect 55 5 11 2;
#X connect 55 5 12 2;
#X connect 55 6 39 0;
#X connect 56 0 5 0;
#X connect 57 0 5 0;
#X connect 58 0 5 0;
#X connect 59 0 46 0;
#X connect 59 0 48 0;
#X connect 59 0 50 0;
#X connect 60 0 55 0;
#X connect 61 0 5 0;
#X connect 62 0 5 0;
#X connect 63 0 44 0;
#X connect 64 0 43 0;
#X connect 66 0 1 0;
