#N canvas 35 73 1358 771 10;
#X msg 418 229 0;
#X symbolatom 328 56 10 0 0 0 - - -;
#X obj 326 74 sel H O OH NH2 -;
#X obj 460 72 t b b b;
#X obj 462 222 t f f;
#X obj 309 337 t b b a b;
#X text 797 312 1) smaller number with high frequency;
#X obj 873 658 *~ 1000;
#X obj 873 679 clip~ -0.6 0.6;
#X obj 795 565 bp~ 1 1;
#X obj 873 565 bp~ 1 1;
#X obj 940 566 bp~ 1 1;
#X obj 1010 566 bp~ 1 1;
#X obj 790 497 hip~ 200;
#X obj 795 626 *~ 0.8;
#X obj 873 624 *~ 0.6;
#X obj 940 625 *~ 0.4;
#X obj 1010 625 *~ 0.4;
#X text 487 274 220 330 460 800 100;
#X obj 873 715 *~ 3;
#X msg 462 347 0;
#X msg 491 348 1;
#X msg 522 349 2;
#X obj 468 381 s \$0-pattern;
#X obj 329 103 t b b;
#X obj 365 104 t b b;
#X obj 403 104 t b b;
#X obj 481 106 t b b;
#X obj 443 106 t b b;
#X obj 355 626 *~;
#X obj 370 601 pink~;
#X obj 355 647 *~ 0.2;
#X obj 355 445 noise~;
#X obj 355 475 >~ 0.998;
#X obj 355 549 *~;
#X obj 570 432 sel 0 1 2;
#X msg 557 460 0;
#X msg 531 458 1;
#X floatatom 902 385 5 0 0 0 - - -;
#X floatatom 918 712 5 0 0 0 - - -;
#X text 962 711 volume seperate control;
#X obj 417 444 brown~;
#X obj 481 445 pink~;
#X obj 417 549 *~;
#X obj 478 547 *~;
#X obj 372 528 line;
#X msg 372 508 \$1 10;
#X obj 434 527 line;
#X msg 434 507 \$1 10;
#X obj 496 528 line;
#X msg 496 508 \$1 10;
#X msg 574 486 1;
#X msg 602 486 0;
#X msg 605 463 1;
#X msg 633 463 0;
#X obj 904 362 unpack f f f f f f f;
#X msg 357 158 1 50 80 160 300 100 8;
#X msg 153 195 0 359 426 1748 3000 123 1.5;
#X msg 379 184 2 50 100 120 300 100 4;
#X msg 645 440 0;
#X msg 532 101 0 0 0 0 0 0 0;
#X msg 570 244 1 220 300 410 600 100 5;
#X msg 572 193 2 60 120 200 450 200 6;
#X obj 481 474 >~ 0.5998;
#X obj 417 476 >~ 0.9996;
#X obj 875 744 outlet~;
#X obj 329 14 inlet;
#X obj 329 36 unpack s f;
#X floatatom 719 71 5 0 0 0 - - -;
#X floatatom 1167 430 5 0 0 0 - - -;
#X obj 1167 453 osc~;
#X obj 1167 516 *~;
#X floatatom 1187 497 5 0 0 0 - - -;
#X obj 1156 602 snapshot~;
#X floatatom 1156 623 5 0 0 0 - - -;
#X obj 1187 564 metro 5;
#X obj 1197 538 tgl 15 0 empty empty empty 17 7 0 10 -262144 -1 -1
1 1;
#X obj 852 494 +;
#X obj 1066 312 *;
#X obj 1214 520 loadbang;
#X msg 827 242 6;
#X msg 827 175 25;
#X msg 423 15 H 3;
#X msg 456 15 C 2;
#X obj 1139 293 + 1;
#X msg 497 11 H 0;
#X obj 1137 263 * 3;
#X msg 795 173 18;
#X text 1220 491 different depth-freq;
#X text 1211 430 different vibrato-;
#X obj 831 434 *;
#X obj 897 493 +;
#X obj 898 458 *;
#X obj 941 491 +;
#X obj 942 456 *;
#X obj 1059 505 +;
#X obj 1060 470 *;
#X obj 967 748 dac~;
#X floatatom 436 408 5 0 0 0 - - -;
#X obj 691 547 else/vu~;
#X obj 641 603 vu 15 120 empty empty -1 -8 0 10 -66577 -1 1 0;
#X floatatom 834 459 5 0 0 0 - - -;
#X connect 0 0 4 0;
#X connect 1 0 2 0;
#X connect 2 0 24 0;
#X connect 2 1 25 0;
#X connect 2 2 26 0;
#X connect 2 3 28 0;
#X connect 2 4 3 0;
#X connect 2 5 27 0;
#X connect 3 0 0 0;
#X connect 3 2 60 0;
#X connect 5 1 0 0;
#X connect 5 2 55 0;
#X connect 7 0 8 0;
#X connect 8 0 19 0;
#X connect 9 0 14 0;
#X connect 10 0 15 0;
#X connect 11 0 16 0;
#X connect 12 0 17 0;
#X connect 13 0 9 0;
#X connect 13 0 10 0;
#X connect 13 0 11 0;
#X connect 13 0 12 0;
#X connect 14 0 7 0;
#X connect 15 0 7 0;
#X connect 16 0 7 0;
#X connect 17 0 7 0;
#X connect 19 0 65 0;
#X connect 19 0 97 0;
#X connect 19 0 99 0;
#X connect 19 0 97 1;
#X connect 20 0 23 0;
#X connect 21 0 23 0;
#X connect 22 0 23 0;
#X connect 24 0 57 0;
#X connect 24 0 81 0;
#X connect 24 1 20 0;
#X connect 25 0 56 0;
#X connect 25 0 80 0;
#X connect 25 1 22 0;
#X connect 26 0 58 0;
#X connect 26 0 80 0;
#X connect 26 1 22 0;
#X connect 27 0 61 0;
#X connect 27 0 87 0;
#X connect 27 1 21 0;
#X connect 28 0 62 0;
#X connect 28 0 80 0;
#X connect 28 1 22 0;
#X connect 29 0 31 0;
#X connect 30 0 29 1;
#X connect 31 0 13 0;
#X connect 32 0 33 0;
#X connect 33 0 34 0;
#X connect 34 0 29 0;
#X connect 35 0 37 0;
#X connect 35 0 36 0;
#X connect 35 1 51 0;
#X connect 35 1 52 0;
#X connect 35 2 53 0;
#X connect 35 2 54 0;
#X connect 35 3 59 0;
#X connect 36 0 48 0;
#X connect 36 0 50 0;
#X connect 37 0 46 0;
#X connect 38 0 35 0;
#X connect 39 0 19 1;
#X connect 41 0 64 0;
#X connect 42 0 63 0;
#X connect 43 0 29 0;
#X connect 44 0 29 0;
#X connect 45 0 34 1;
#X connect 46 0 45 0;
#X connect 47 0 43 1;
#X connect 48 0 47 0;
#X connect 49 0 44 1;
#X connect 50 0 49 0;
#X connect 51 0 48 0;
#X connect 52 0 46 0;
#X connect 52 0 50 0;
#X connect 53 0 50 0;
#X connect 54 0 48 0;
#X connect 54 0 46 0;
#X connect 55 0 38 0;
#X connect 55 1 77 1;
#X connect 55 1 90 1;
#X connect 55 2 92 1;
#X connect 55 2 91 1;
#X connect 55 3 94 1;
#X connect 55 3 93 1;
#X connect 55 4 96 1;
#X connect 55 4 95 1;
#X connect 55 5 9 2;
#X connect 55 5 10 2;
#X connect 55 5 11 2;
#X connect 55 5 12 2;
#X connect 55 6 39 0;
#X connect 56 0 5 0;
#X connect 57 0 5 0;
#X connect 58 0 5 0;
#X connect 59 0 46 0;
#X connect 59 0 48 0;
#X connect 59 0 50 0;
#X connect 60 0 55 0;
#X connect 61 0 5 0;
#X connect 62 0 5 0;
#X connect 63 0 44 0;
#X connect 64 0 43 0;
#X connect 66 0 67 0;
#X connect 67 0 1 0;
#X connect 67 1 68 0;
#X connect 68 0 78 1;
#X connect 68 0 86 0;
#X connect 69 0 70 0;
#X connect 70 0 71 0;
#X connect 71 0 73 0;
#X connect 72 0 71 1;
#X connect 73 0 74 0;
#X connect 74 0 90 0;
#X connect 74 0 96 0;
#X connect 74 0 94 0;
#X connect 74 0 92 0;
#X connect 75 0 73 0;
#X connect 76 0 75 0;
#X connect 77 0 9 1;
#X connect 78 0 72 0;
#X connect 79 0 76 0;
#X connect 80 0 78 0;
#X connect 81 0 78 0;
#X connect 82 0 67 0;
#X connect 83 0 67 0;
#X connect 84 0 69 0;
#X connect 85 0 67 0;
#X connect 86 0 84 0;
#X connect 87 0 78 0;
#X connect 90 0 101 0;
#X connect 91 0 10 1;
#X connect 92 0 91 0;
#X connect 93 0 11 1;
#X connect 94 0 93 0;
#X connect 95 0 12 1;
#X connect 96 0 95 0;
#X connect 98 0 64 1;
#X connect 99 0 100 0;
#X connect 99 1 100 1;
#X connect 101 0 77 0;
