#N canvas 242 178 1145 651 10;
#X obj 67 107 noise~;
#X obj 278 119 noise~;
#X obj 280 222 *~;
#X obj 117 282 *~ 0.5;
#X obj 98 323 dac~;
#X msg 356 111 1;
#X msg 155 86 1;
#X obj 78 222 *~;
#X obj 261 64 bng 15 250 50 0 empty empty empty 17 7 0 10 -262144 -1
-1;
#X obj 34 14 tgl 15 0 empty empty empty 17 7 0 10 -262144 -1 -1 0 1
;
#X msg 34 34 \; pd dsp \$1;
#X obj 5 145 *~ 0.02;
#X obj 278 151 bp~ 800 50;
#X obj 342 185 else/adsr~ 200 50 0 500;
#X obj 123 177 else/adsr~ 50 200 0 400;
#X obj 65 152 bp~ 800 5;
#X obj 590 149 noise~;
#X obj 801 161 noise~;
#X obj 803 264 *~;
#X obj 640 324 *~ 0.5;
#X obj 621 365 dac~;
#X msg 879 153 1;
#X msg 678 128 1;
#X obj 601 264 *~;
#X obj 784 106 bng 15 250 50 0 empty empty empty 17 7 0 10 -262144
-1 -1;
#X obj 528 187 *~ 0.02;
#X obj 588 194 bp~ 1000 20;
#X obj 801 193 bp~ 1000 80;
#X obj 865 227 else/adsr~ 100 200 0 200;
#X obj 646 219 else/adsr~ 50 50 0 200;
#X connect 0 0 11 0;
#X connect 0 0 15 0;
#X connect 1 0 12 0;
#X connect 2 0 3 0;
#X connect 3 0 4 0;
#X connect 3 0 4 1;
#X connect 5 0 13 0;
#X connect 6 0 14 0;
#X connect 7 0 3 0;
#X connect 8 0 6 0;
#X connect 8 0 5 0;
#X connect 9 0 10 0;
#X connect 12 0 2 0;
#X connect 13 0 2 1;
#X connect 14 0 7 1;
#X connect 15 0 7 0;
#X connect 16 0 25 0;
#X connect 16 0 26 0;
#X connect 17 0 27 0;
#X connect 18 0 19 0;
#X connect 19 0 20 0;
#X connect 19 0 20 1;
#X connect 21 0 28 0;
#X connect 22 0 29 0;
#X connect 23 0 19 0;
#X connect 24 0 22 0;
#X connect 24 0 21 0;
#X connect 26 0 23 0;
#X connect 27 0 18 0;
#X connect 28 0 18 1;
#X connect 29 0 23 1;
