#N canvas 691 154 749 652 10;
#X obj 112 224 noise~;
#X obj 150 510 dac~ 1 2;
#X obj 159 313 bp~ 440 5;
#X floatatom 184 271 5 0 0 0 - - -;
#X floatatom 210 294 5 0 0 0 - - -;
#X obj 266 313 bp~ 440 5;
#X floatatom 291 275 5 0 0 0 - - -;
#X floatatom 317 293 5 0 0 0 - - -;
#X obj 368 315 bp~ 440 5;
#X floatatom 393 277 5 0 0 0 - - -;
#X floatatom 419 295 5 0 0 0 - - -;
#X obj 452 319 bp~ 440 5;
#X floatatom 477 281 5 0 0 0 - - -;
#X floatatom 503 299 5 0 0 0 - - -;
#X obj 291 252 * 2;
#X obj 587 462 vcf~;
#X obj 587 488 lop~;
#X obj 393 252 * 3;
#X obj 477 255 * 4;
#X obj 187 145 hsl 100 20 200 2000 0 0 empty empty empty -2 -8 0 10
-262144 -1 -1 9900 1;
#X floatatom 184 173 5 0 0 0 - - -;
#X obj 362 145 hsl 100 20 1 80 1 0 empty empty empty -2 -8 0 10 -262144
-1 -1 9900 1;
#X floatatom 359 173 5 0 0 0 - - -;
#X obj 359 214 + 1;
#X obj 176 407 *~ 0.5;
#X obj 359 193 / 4;
#X floatatom 216 384 5 0 0 0 - - -;
#X obj 258 410 *~ 0.5;
#X floatatom 297 385 5 0 0 0 - - -;
#X obj 351 412 *~ 0.5;
#X floatatom 390 387 5 0 0 0 - - -;
#X obj 431 411 *~ 0.5;
#X floatatom 470 386 5 0 0 0 - - -;
#X obj 298 364 / 2;
#X obj 390 366 / 3;
#X obj 469 367 / 4;
#X obj 514 139 hsl 100 20 0 0.6 0 0 empty empty empty -2 -8 0 10 -262144
-1 -1 5100 1;
#X floatatom 510 181 5 0 0 0 - - -;
#X obj 177 448 *~ 0.5;
#X obj 30 40 unpack f f f;
#X obj 184 37 inlet;
#X obj 482 42 inlet;
#X obj 194 537 outlet~;
#X text 546 183 volume;
#X text 217 173 fudamental frequency;
#X text 403 172 Q;
#X obj 411 579 vline~;
#X connect 0 0 2 0;
#X connect 2 0 24 0;
#X connect 3 0 2 1;
#X connect 4 0 2 2;
#X connect 5 0 27 0;
#X connect 6 0 5 1;
#X connect 7 0 5 2;
#X connect 8 0 29 0;
#X connect 9 0 8 1;
#X connect 10 0 8 2;
#X connect 11 0 31 0;
#X connect 12 0 11 1;
#X connect 13 0 11 2;
#X connect 14 0 6 0;
#X connect 17 0 9 0;
#X connect 18 0 12 0;
#X connect 19 0 20 0;
#X connect 20 0 3 0;
#X connect 20 0 14 0;
#X connect 20 0 17 0;
#X connect 20 0 18 0;
#X connect 21 0 22 0;
#X connect 22 0 4 0;
#X connect 22 0 7 0;
#X connect 22 0 10 0;
#X connect 22 0 13 0;
#X connect 22 0 25 0;
#X connect 24 0 38 0;
#X connect 25 0 23 0;
#X connect 26 0 24 1;
#X connect 27 0 38 0;
#X connect 28 0 27 1;
#X connect 29 0 38 0;
#X connect 30 0 29 1;
#X connect 31 0 38 0;
#X connect 32 0 31 1;
#X connect 33 0 28 0;
#X connect 34 0 30 0;
#X connect 35 0 32 0;
#X connect 36 0 37 0;
#X connect 37 0 26 0;
#X connect 37 0 33 0;
#X connect 37 0 34 0;
#X connect 37 0 35 0;
#X connect 38 0 42 0;
#X connect 38 0 1 0;
#X connect 38 0 1 1;
