#N canvas -283 75 1358 781 10;
#X obj 259 179 bng 15 250 50 0 empty empty empty 17 7 0 10 -262144
-1 -1;
#X obj 260 369 sel 0;
#X obj 259 199 t b b;
#X floatatom 259 279 5 0 0 0 - - -;
#X msg 259 230 1;
#X obj 258 258 +;
#X obj 287 231 f;
#X obj 257 115 tgl 15 0 empty empty empty 17 7 0 10 -262144 -1 -1 0
1;
#X floatatom 259 317 5 0 0 0 - - -;
#X msg 257 76 1;
#X msg 416 201 0;
#X symbolatom 330 49 10 0 0 0 - - -;
#X obj 1247 639 noise~;
#X obj 1247 668 bp~ 1400 8;
#X obj 1247 689 bp~ 1400 8;
#X obj 53 97 inlet;
#X obj 53 132 unpack s s;
#X obj 53 254 sel L B R T;
#X symbolatom 53 214 10 0 0 0 - - -;
#X symbolatom 110 153 10 0 0 0 - - -;
#X obj 105 697 *~;
#X floatatom 120 590 5 0 0 0 - - -;
#X obj 156 698 *~;
#X floatatom 171 589 5 0 0 0 - - -;
#X obj 207 697 *~;
#X floatatom 222 588 5 0 0 0 - - -;
#X obj 257 695 *~;
#X floatatom 272 587 5 0 0 0 - - -;
#X msg 137 540 1 0 0 0;
#X obj 137 564 unpack f f f f;
#X msg 174 499 0 0 1 0;
#X obj 120 635 line;
#X obj 171 634 line;
#X obj 222 633 line;
#X obj 272 632 line;
#X msg 171 611 \$1 100;
#X msg 120 612 \$1 100;
#X msg 222 610 \$1 100;
#X msg 272 609 \$1 100;
#X obj 17 614 catch~ \$0-audio;
#X obj 112 210 s \$0-element;
#X obj 330 24 r \$0-element;
#X obj 1337 640 unpack f f;
#X floatatom 1337 669 5 0 0 0 - - -;
#X floatatom 1394 669 5 0 0 0 - - -;
#X obj 109 172 symbol;
#X obj 53 234 t b s;
#X obj 53 338 s \$0-L;
#X obj 68 318 s \$0-B;
#X obj 84 299 s \$0-R;
#X obj 100 279 s \$0-T;
#X obj 296 290 r \$0-L;
#X obj 328 267 r \$0-B;
#X obj 359 289 r \$0-R;
#X obj 390 267 r \$0-T;
#X obj 329 73 sel H O OH NH2 -;
#X obj 137 451 r \$0-L;
#X obj 151 473 r \$0-B;
#X obj 182 451 r \$0-R;
#X obj 199 472 r \$0-T;
#X text 281 654 speaker control;
#X obj 1337 570 r \$0-L;
#X obj 1366 547 r \$0-B;
#X obj 1397 569 r \$0-R;
#X obj 1428 547 r \$0-T;
#X obj 1249 554 sel H;
#X obj 1249 529 r \$0-element;
#X obj 1257 37 r \$0-element;
#X obj 1350 159 s2l;
#X msg 1377 136 symbol;
#X obj 1350 109 t s b;
#X obj 1257 74 sel H O OH NH2 -;
#X obj 1350 186 unpack s f;
#X msg 1312 243 0;
#X obj 1312 224 bng 15 250 50 0 empty empty empty 17 7 0 10 -262144
-1 -1;
#X msg 1295 596 0 10;
#X msg 296 319 1;
#X msg 328 319 2;
#X msg 359 318 3;
#X msg 390 318 0;
#X floatatom 1407 208 5 0 0 0 - - -;
#X obj 1384 322 bng 15 250 50 0 empty empty empty 17 7 0 10 -262144
-1 -1;
#X obj 1332 336 bp~ 800 10;
#X obj 1420 353 unpack f f;
#X obj 1407 229 sel 0 1 2 3 4;
#X obj 1329 435 throw~ \$0-audio;
#X obj 1332 371 bp~ 800 10;
#X obj 1350 234 sel C;
#X obj 1265 292 noise~;
#X obj 1332 410 *~;
#X msg 1367 395 0 50;
#X obj 1367 416 line~;
#X msg 1407 397 0.8;
#X msg 1396 615 2300 8;
#X msg 1362 590 2250 8;
#X msg 1405 299 200 10;
#X msg 1435 272 210 10;
#X msg 1475 299 220 10;
#X msg 1444 328 230 10;
#X msg 1249 596 0.3;
#X msg 1337 615 2200 8;
#X msg 1422 592 2350 8;
#X msg 356 387 0 10;
#X obj 260 398 bng 15 250 50 0 empty empty empty 17 7 0 10 -262144
-1 -1;
#X msg 530 73 0 0 0, f 6;
#X msg 287 74 0;
#X obj 490 38 t b b b;
#X obj 460 194 t f f;
#X obj 332 195 t b b a b;
#X obj 67 772 throw~ K1;
#X obj 128 772 throw~ K2;
#X obj 191 773 throw~ K3;
#X obj 255 773 throw~ K4;
#X msg 151 521 0 1 0 0;
#X msg 199 541 0 0 0 1;
#X text 797 312 1) smaller number with high frequency;
#X obj 740 705 throw~ \$0-audio;
#X obj 260 418 s \$0-bang;
#X obj 621 164 r \$0-bang;
#X msg 708 124 addcomma;
#X msg 636 246 1 \, 0 600;
#X msg 707 170 add2 0 600;
#X obj 706 56 t b a b b;
#X msg 841 188 1200 800 500 50 20 200;
#X msg 821 142 1000 400 200 80 100 50;
#X msg 807 116 1200 500 300 160 50 100;
#X msg 823 169 1000 400 400 80 120 100;
#X obj 59 652 *~ 0.8;
#X obj 768 735 dac~;
#X msg 797 97 600 120 100 500 200 1000;
#X obj 625 355 vline~;
#N canvas 82 123 998 646 regular-roll 0;
#X obj 210 254 rzero~ 0.9;
#X obj 134 127 phasor~ 1;
#X obj 134 200 wrap~;
#X obj 187 200 wrap~;
#X obj 238 200 wrap~;
#X obj 291 199 wrap~;
#X obj 204 127 unpack f f f f f f f f;
#X obj 210 277 outlet~;
#X obj 134 59 inlet~ speed;
#X obj 134 180 *~;
#X obj 187 180 *~;
#X obj 238 180 *~;
#X obj 291 179 *~;
#X obj 134 221 *~;
#X obj 187 221 *~;
#X obj 238 221 *~;
#X obj 291 221 *~;
#X obj 400 276 tabwrite~ \$0-roll;
#N canvas 0 22 450 278 (subpatch) 0;
#X array \$0-roll 256 float 3;
#A 0 0.0114621 0.0114621 0.0114621 0.0114621 0.0114621 0.0114621 0.0114621
0.0114621 0.0114621 0.0114621 0.0114621 0.0114621 0.0114621 0.0114621
0.0114621 0.0114621 0.0114621 0.0114621 0.0114621 0.0114621 0.0114621
0.0114621 0.0114621 0.0114621 0.0114621 0.0114621 0.0114621 0.0114621
0.0114621 0.0114621 0.0114621 0.0114621 0.0114621 0.0114621 0.0114621
0.0114621 0.0114621 0.0114621 0.0114621 0.0114621 0.0114621 0.0114621
0.0114621 0.0114621 0.0114621 0.0114621 0.0114621 0.0114621 0.0114621
0.0114621 0.0114621 0.0114621 0.0114621 0.0114621 0.0114621 0.0114621
0.0114621 0.0114621 0.0114621 0.0114621 0.0114621 0.0114621 0.0114621
0.0114621 0.0114621 0.0114621 0.0114621 0.0114621 0.0114621 0.0114621
0.0114621 0.0114621 0.0114621 0.0114621 0.0114621 0.0114621 0.0114621
0.0114621 0.0114621 0.0114621 0.0114621 0.0114621 0.0114621 0.0114621
0.0114621 0.0114621 0.0114621 0.0114621 0.0114621 0.0114621 0.0114621
0.0114621 0.0114621 0.0114621 0.0114621 0.0114621 0.0114621 0.0114621
0.0114621 0.0114621 0.0114621 0.0114621 0.0114621 0.0114621 0.0114621
0.0114621 0.0114621 0.0114621 0.0114621 0.0114621 0.0114621 0.0114621
0.0114621 0.0114621 0.0114621 0.0114621 0.0114621 0.0114621 0.0114621
0.0114621 0.0114621 0.0114621 0.0114621 0.0114621 0.0114621 0.0114621
0.0114621 0.0114621 0.0114621 0.0114621 0.0114621 0.0114621 0.0114621
0.0114621 0.0114621 0.0114621 0.0114621 0.0114621 0.0114621 0.0114621
0.0114621 0.0114621 0.0114621 0.0114621 0.0114621 0.0114621 0.0114621
0.0114621 0.0114621 0.0114621 0.0114621 0.0114621 0.0114621 0.0114621
0.0114621 0.0114621 0.0114621 0.0114621 0.0114621 0.0114621 0.0114621
0.0114621 0.0114621 0.0114621 0.0114621 0.0114621 0.0114621 0.0114621
0.0114621 0.0114621 0.0114621 0.0114621 0.0114621 0.0114621 0.0114621
0.0114621 0.0114621 0.0114621 0.0114621 0.0114621 0.0114621 0.0114621
0.0114621 0.0114621 0.0114621 0.0114621 0.0114621 0.0114621 0.0114621
0.0114621 0.0114621 0.0114621 0.0114621 0.0114621 0.0114621 0.0114621
0.0114621 0.0114621 0.0114621 0.0114621 0.0114621 0.0114621 0.0114621
0.0114621 0.0114621 0.0114621 0.0114621 0.0114621 0.0114621 0.0114621
0.0114621 0.0114621 0.0114621 0.0114621 0.0114621 0.0114621 0.0114621
0.0114621 0.0114621 0.0114621 0.0114621 0.0114621 0.0114621 0.0114621
0.0114621 0.0114621 0.0114621 0.0114621 0.0114621 0.0114621 0.0114621
0.0114621 0.0114621 0.0114621 0.0114621 0.0114621 0.0114621 0.0114621
0.0114621 0.0114621 0.0114621 0.0114621 0.0114621 0.0114621 0.0114621
0.0114621 0.0114621 0.0114621 0.0114621 0.0114621 0.0114621 0.0114621
0.0114621 0.0114621 0.0114621 0.0114621;
#X coords 0 1 256 -1 200 140 1;
#X restore 516 131 graph;
#X obj 35 110 vline~;
#X obj 404 190 tgl 15 0 empty empty empty 17 7 0 10 -262144 -1 -1 0
1;
#X obj 404 210 metro 100;
#X msg 33 81 1 \, 0 2000;
#X text 379 34 roll pattern \,;
#X obj 222 5 inlet roll;
#X obj 222 26 sel 0 1 2 3 4;
#X msg 252 104 0.5 0.1 1 0.05 1.2 0.02 2.4 0.012;
#X msg 214 60 2 0.1 3 0.05 4.2 0.02 5.6 0.012;
#X msg 225 85 1 0.1 2 0.05 3.4 0.02 4 0.012;
#X connect 0 0 7 0;
#X connect 0 0 17 0;
#X connect 1 0 9 0;
#X connect 1 0 10 0;
#X connect 1 0 11 0;
#X connect 1 0 12 0;
#X connect 2 0 13 0;
#X connect 3 0 14 0;
#X connect 4 0 15 0;
#X connect 5 0 16 0;
#X connect 6 0 9 1;
#X connect 6 1 13 1;
#X connect 6 2 10 1;
#X connect 6 3 14 1;
#X connect 6 4 11 1;
#X connect 6 5 15 1;
#X connect 6 6 12 1;
#X connect 6 7 16 1;
#X connect 8 0 1 0;
#X connect 9 0 2 0;
#X connect 10 0 3 0;
#X connect 11 0 4 0;
#X connect 12 0 5 0;
#X connect 13 0 0 0;
#X connect 14 0 0 0;
#X connect 15 0 0 0;
#X connect 16 0 0 0;
#X connect 20 0 21 0;
#X connect 21 0 17 0;
#X connect 22 0 19 0;
#X connect 24 0 25 0;
#X connect 25 0 27 0;
#X connect 25 1 28 0;
#X connect 25 2 26 0;
#X connect 26 0 6 0;
#X connect 27 0 6 0;
#X connect 28 0 6 0;
#X restore 674 549 pd regular-roll;
#X obj 640 607 *~;
#X obj 632 550 sqrt~;
#X obj 873 620 *~ 1000;
#X obj 873 641 clip~ -0.6 0.6;
#X obj 795 565 bp~ 1 1;
#X obj 873 565 bp~ 1 1;
#X obj 940 566 bp~ 1 1;
#X obj 1010 566 bp~ 1 1;
#X obj 790 497 hip~ 200;
#X obj 625 376 *~ 0.5;
#X obj 625 397 -~ 0.25;
#X obj 625 418 cos~;
#X obj 625 439 lop~ 0.1;
#X obj 625 460 *~ 5;
#X obj 632 515 *~ 0.5;
#X obj 873 665 *~ 2;
#X obj 795 588 *~ 0.8;
#X obj 873 586 *~ 0.6;
#X obj 940 587 *~ 0.4;
#X obj 1010 587 *~ 0.4;
#X msg 958 366 60 100 200 600 40;
#X obj 259 299 mod 6;
#X msg 706 28 set add2 1 \$1;
#X msg 705 81 set 0;
#X obj 813 360 unpack f f f f f f;
#X floatatom 714 501 5 0 0 0 - - -;
#X msg 711 467 0;
#X msg 740 468 1;
#X msg 771 469 2;
#X symbolatom 707 411 10 0 0 0 - - -;
#X obj 707 386 r \$0-element;
#X obj 706 435 sel H O OH NH2 -;
#X msg 827 74 500 359 426 1748 3000 123;
#X msg 330 100 500 359 426 1748 3000 123;
#X msg 1008 401;
#X msg 366 148 800 50 80 160 300 80;
#X msg 384 168 1000 60 120 220 600 80;
#X msg 401 125 800 50 100 120 300 100;
#X obj 259 156 metro 600;
#X msg 455 224 500 220 300 400 550 150;
#X text 485 246 220 330 460 800 100;
#X connect 0 0 2 0;
#X connect 1 0 103 0;
#X connect 1 1 102 0;
#X connect 2 0 4 0;
#X connect 2 1 6 0;
#X connect 3 0 6 1;
#X connect 3 0 153 0;
#X connect 4 0 5 0;
#X connect 5 0 3 0;
#X connect 6 0 5 1;
#X connect 7 0 170 0;
#X connect 8 0 1 0;
#X connect 9 0 7 0;
#X connect 10 0 107 0;
#X connect 11 0 55 0;
#X connect 12 0 13 0;
#X connect 13 0 14 0;
#X connect 15 0 16 0;
#X connect 16 0 18 0;
#X connect 16 1 19 0;
#X connect 17 0 47 0;
#X connect 17 1 48 0;
#X connect 17 2 49 0;
#X connect 17 3 50 0;
#X connect 18 0 46 0;
#X connect 19 0 45 1;
#X connect 20 0 109 0;
#X connect 21 0 36 0;
#X connect 22 0 110 0;
#X connect 23 0 35 0;
#X connect 24 0 111 0;
#X connect 25 0 37 0;
#X connect 26 0 112 0;
#X connect 27 0 38 0;
#X connect 28 0 29 0;
#X connect 29 0 21 0;
#X connect 29 1 23 0;
#X connect 29 2 25 0;
#X connect 29 3 27 0;
#X connect 30 0 29 0;
#X connect 31 0 20 1;
#X connect 32 0 22 1;
#X connect 33 0 24 1;
#X connect 34 0 26 1;
#X connect 35 0 32 0;
#X connect 36 0 31 0;
#X connect 37 0 33 0;
#X connect 38 0 34 0;
#X connect 39 0 127 0;
#X connect 41 0 11 0;
#X connect 42 0 43 0;
#X connect 42 1 44 0;
#X connect 43 0 13 1;
#X connect 43 0 14 1;
#X connect 44 0 13 2;
#X connect 44 0 14 2;
#X connect 45 0 40 0;
#X connect 46 0 45 0;
#X connect 46 1 17 0;
#X connect 51 0 76 0;
#X connect 52 0 77 0;
#X connect 53 0 78 0;
#X connect 54 0 79 0;
#X connect 55 0 165 0;
#X connect 55 1 167 0;
#X connect 55 2 169 0;
#X connect 55 3 168 0;
#X connect 55 4 106 0;
#X connect 55 5 171 0;
#X connect 56 0 28 0;
#X connect 57 0 113 0;
#X connect 58 0 30 0;
#X connect 59 0 114 0;
#X connect 61 0 100 0;
#X connect 62 0 94 0;
#X connect 63 0 93 0;
#X connect 64 0 101 0;
#X connect 65 0 99 0;
#X connect 65 1 75 0;
#X connect 66 0 65 0;
#X connect 67 0 71 0;
#X connect 68 0 72 0;
#X connect 69 0 68 1;
#X connect 70 0 68 0;
#X connect 70 1 69 0;
#X connect 71 0 74 0;
#X connect 71 1 74 0;
#X connect 71 2 74 0;
#X connect 71 3 74 0;
#X connect 71 4 74 0;
#X connect 71 5 70 0;
#X connect 72 0 87 0;
#X connect 72 1 80 0;
#X connect 73 0 91 0;
#X connect 74 0 73 0;
#X connect 76 0 1 1;
#X connect 77 0 1 1;
#X connect 78 0 1 1;
#X connect 79 0 1 1;
#X connect 80 0 84 0;
#X connect 82 0 86 0;
#X connect 83 0 82 1;
#X connect 83 0 86 1;
#X connect 83 1 82 2;
#X connect 83 1 86 2;
#X connect 84 0 95 0;
#X connect 84 1 96 0;
#X connect 84 2 98 0;
#X connect 84 3 97 0;
#X connect 84 4 95 0;
#X connect 86 0 89 0;
#X connect 87 0 92 0;
#X connect 87 1 90 0;
#X connect 89 0 85 0;
#X connect 90 0 91 0;
#X connect 91 0 89 1;
#X connect 92 0 91 0;
#X connect 93 0 42 0;
#X connect 94 0 42 0;
#X connect 95 0 83 0;
#X connect 96 0 83 0;
#X connect 97 0 83 0;
#X connect 98 0 83 0;
#X connect 100 0 42 0;
#X connect 101 0 42 0;
#X connect 103 0 117 0;
#X connect 105 0 7 0;
#X connect 106 0 10 0;
#X connect 106 1 105 0;
#X connect 106 2 104 0;
#X connect 107 0 8 0;
#X connect 107 1 3 0;
#X connect 108 0 9 0;
#X connect 108 1 10 0;
#X connect 108 2 156 0;
#X connect 108 3 105 0;
#X connect 113 0 29 0;
#X connect 114 0 29 0;
#X connect 118 0 120 0;
#X connect 119 0 120 0;
#X connect 120 0 130 0;
#X connect 121 0 120 0;
#X connect 122 0 121 0;
#X connect 122 1 121 0;
#X connect 122 2 119 0;
#X connect 122 3 155 0;
#X connect 123 0 156 0;
#X connect 124 0 156 0;
#X connect 125 0 156 0;
#X connect 126 0 156 0;
#X connect 127 0 20 0;
#X connect 127 0 22 0;
#X connect 127 0 24 0;
#X connect 127 0 26 0;
#X connect 129 0 156 0;
#X connect 130 0 141 0;
#X connect 131 0 132 1;
#X connect 132 0 140 0;
#X connect 133 0 132 0;
#X connect 134 0 135 0;
#X connect 135 0 147 0;
#X connect 136 0 148 0;
#X connect 137 0 149 0;
#X connect 138 0 150 0;
#X connect 139 0 151 0;
#X connect 140 0 136 0;
#X connect 140 0 137 0;
#X connect 140 0 138 0;
#X connect 140 0 139 0;
#X connect 141 0 142 0;
#X connect 142 0 143 0;
#X connect 143 0 144 0;
#X connect 144 0 145 0;
#X connect 145 0 131 0;
#X connect 145 0 146 0;
#X connect 146 0 133 0;
#X connect 147 0 116 0;
#X connect 147 0 128 0;
#X connect 148 0 134 0;
#X connect 149 0 134 0;
#X connect 150 0 134 0;
#X connect 151 0 134 0;
#X connect 153 0 8 0;
#X connect 154 0 122 0;
#X connect 155 0 120 0;
#X connect 156 0 154 0;
#X connect 156 1 136 1;
#X connect 156 2 137 1;
#X connect 156 3 138 1;
#X connect 156 4 139 1;
#X connect 156 5 136 2;
#X connect 156 5 137 2;
#X connect 156 5 138 2;
#X connect 156 5 139 2;
#X connect 157 0 131 1;
#X connect 158 0 157 0;
#X connect 159 0 157 0;
#X connect 160 0 157 0;
#X connect 161 0 163 0;
#X connect 162 0 161 0;
#X connect 163 0 158 0;
#X connect 163 1 160 0;
#X connect 163 2 160 0;
#X connect 163 3 160 0;
#X connect 163 5 159 0;
#X connect 164 0 156 0;
#X connect 165 0 108 0;
#X connect 167 0 108 0;
#X connect 168 0 108 0;
#X connect 169 0 108 0;
#X connect 170 0 0 0;
#X connect 171 0 108 0;
