#N canvas 167 23 1183 814 10;
#X obj 239 302 bng 15 250 50 0 empty empty empty 17 7 0 10 -262144
-1 -1;
#X obj 257 115 tgl 15 0 empty empty empty 17 7 0 10 -262144 -1 -1 1
1;
#X msg 253 73 1;
#X msg 416 201 0;
#X symbolatom 330 49 10 0 0 0 - - -;
#X obj 53 97 inlet;
#X obj 53 132 unpack s s;
#X obj 53 254 sel L B R T;
#X symbolatom 53 214 10 0 0 0 - - -;
#X symbolatom 110 153 10 0 0 0 - - -;
#X obj 105 697 *~;
#X floatatom 120 590 5 0 0 0 - - -;
#X obj 156 698 *~;
#X floatatom 171 589 5 0 0 0 - - -;
#X obj 207 697 *~;
#X floatatom 222 588 5 0 0 0 - - -;
#X obj 257 695 *~;
#X floatatom 272 587 5 0 0 0 - - -;
#X msg 137 540 1 0 0 0;
#X obj 137 564 unpack f f f f;
#X msg 174 499 0 0 1 0;
#X obj 120 635 line;
#X obj 171 634 line;
#X obj 222 633 line;
#X obj 272 632 line;
#X msg 171 611 \$1 100;
#X msg 120 612 \$1 100;
#X msg 222 610 \$1 100;
#X msg 272 609 \$1 100;
#X obj 17 614 catch~ \$0-audio;
#X obj 112 210 s \$0-element;
#X obj 330 24 r \$0-element;
#X obj 109 172 symbol;
#X obj 53 234 t b s;
#X obj 53 338 s \$0-L;
#X obj 68 318 s \$0-B;
#X obj 84 299 s \$0-R;
#X obj 100 279 s \$0-T;
#X obj 334 69 sel H O OH NH2 -, f 24;
#X obj 137 451 r \$0-L;
#X obj 151 473 r \$0-B;
#X obj 182 451 r \$0-R;
#X obj 199 472 r \$0-T;
#X text 281 654 speaker control;
#X msg 356 387 0 10;
#X msg 530 73 0 0 0, f 6;
#X msg 287 74 0;
#X obj 484 33 t b b b;
#X obj 460 194 t f f;
#X obj 308 201 t b b a b;
#X obj 67 772 throw~ K1;
#X obj 128 772 throw~ K2;
#X obj 191 773 throw~ K3;
#X obj 255 773 throw~ K4;
#X msg 151 521 0 1 0 0;
#X msg 199 541 0 0 0 1;
#X obj 640 434 vline~;
#X obj 653 494 pow~;
#X obj 653 470 sig~ 2.71828;
#X obj 652 583 +~ 80;
#X obj 615 702 *~;
#X obj 616 472 *~;
#X obj 653 644 +~;
#X obj 636 322 metro 500;
#X obj 698 620 *~;
#X obj 636 375 f;
#X msg 640 412 1 1 0 \, 0 \$1 1;
#X obj 652 344 * 200;
#X obj 698 575 osc~ 120;
#X obj 742 718 *~;
#X obj 666 242 line;
#X obj 757 469 sig~;
#X obj 653 546 *~;
#X obj 714 596 *~ 70;
#X obj 636 219 t b a;
#X obj 678 522 *~ 130;
#X obj 694 268 * 300;
#X floatatom 593 397 5 0 0 0 - - -;
#X floatatom 740 246 5 0 0 0 - - -;
#X text 729 622 FM;
#X text 766 497 1->0;
#X text 649 604 340->80;
#X floatatom 757 311 5 0 0 0 - - -;
#X floatatom 779 589 5 0 0 0 - - -;
#X floatatom 804 521 5 0 0 0 - - -;
#X floatatom 805 554 5 0 0 0 - - -;
#X text 846 520 2);
#X text 846 557 3);
#X text 822 589 4);
#X text 797 312 1) smaller number with high frequency;
#X obj 743 758 throw~ \$0-audio;
#X obj 260 418 s \$0-bang;
#X obj 621 164 r \$0-bang;
#X msg 705 81 set 1;
#X msg 708 124 addcomma;
#X msg 636 197 1 \, 0 1000;
#X msg 707 170 add2 0 1000;
#X obj 706 56 t b a b b;
#X msg 706 28 set add2 0 \$1;
#X obj 759 213 unpack f f f f f f;
#X msg 841 188 1200 800 500 50 20 200;
#X msg 821 142 1000 400 200 80 100 50;
#X msg 807 116 1200 500 300 160 50 100;
#X msg 823 169 1000 400 400 80 120 100;
#X obj 59 652 *~ 0.8;
#X msg 797 97 600 120 100 500 200 1000;
#X msg 828 74 600 120 130 500 200 800;
#X obj 240 279 metro 2000;
#X obj 743 737 *~ 0.7;
#X msg 425 128 1000 800 400 80 100 50;
#X msg 454 232 1200 400 200 160 50 100;
#X msg 356 148 1000 450 200 80 120 100;
#X obj 301 230 t f b;
#X obj 329 293 f;
#X msg 348 250 800;
#X msg 400 246 1800;
#X msg 440 255 2400;
#X floatatom 329 314 5 0 0 0 - - -;
#X obj 316 100 t b b;
#X obj 355 94 t b b;
#X obj 395 99 t b b;
#X obj 430 91 t b b;
#X obj 478 96 t b b;
#X obj 196 201 bng 15 250 50 0 empty empty empty 17 7 0 10 -262144
-1 -1;
#X obj 412 725 dac~ 1;
#X floatatom 1214 261 5 0 0 0 - - -;
#X obj 1214 284 osc~;
#X obj 1214 347 *~;
#X floatatom 1234 328 5 0 0 0 - - -;
#X obj 1113 143 *;
#X obj 1186 124 + 1;
#X obj 1184 94 * 3;
#X msg 1119 89 18;
#X msg 1081 94 6;
#X floatatom 1184 66 5 0 0 0 - - -;
#X msg 324 121 600 120 100 500 500 50;
#X msg 384 168 1200 800 500 50 50 200;
#X floatatom 830 611 5 0 0 0 - - -;
#X obj 515 611 brown~;
#X floatatom 784 699 5 0 0 0 - - -;
#X obj 889 687 env~;
#X floatatom 889 708 5 0 0 0 - - -;
#X obj 649 673 vcf~ 25;
#X obj 515 632 hip~ 200;
#X connect 0 0 91 0;
#X connect 1 0 107 0;
#X connect 2 0 1 0;
#X connect 3 0 48 0;
#X connect 4 0 38 0;
#X connect 5 0 6 0;
#X connect 6 0 8 0;
#X connect 6 1 9 0;
#X connect 7 0 34 0;
#X connect 7 1 35 0;
#X connect 7 2 36 0;
#X connect 7 3 37 0;
#X connect 8 0 33 0;
#X connect 9 0 32 1;
#X connect 10 0 50 0;
#X connect 11 0 26 0;
#X connect 12 0 51 0;
#X connect 12 0 124 0;
#X connect 13 0 25 0;
#X connect 14 0 52 0;
#X connect 15 0 27 0;
#X connect 16 0 53 0;
#X connect 17 0 28 0;
#X connect 18 0 19 0;
#X connect 19 0 11 0;
#X connect 19 1 13 0;
#X connect 19 2 15 0;
#X connect 19 3 17 0;
#X connect 20 0 19 0;
#X connect 21 0 10 1;
#X connect 22 0 12 1;
#X connect 23 0 14 1;
#X connect 24 0 16 1;
#X connect 25 0 22 0;
#X connect 26 0 21 0;
#X connect 27 0 23 0;
#X connect 28 0 24 0;
#X connect 29 0 104 0;
#X connect 31 0 4 0;
#X connect 32 0 30 0;
#X connect 33 0 32 0;
#X connect 33 1 7 0;
#X connect 38 0 118 0;
#X connect 38 1 119 0;
#X connect 38 2 120 0;
#X connect 38 3 121 0;
#X connect 38 4 47 0;
#X connect 38 5 122 0;
#X connect 39 0 18 0;
#X connect 40 0 54 0;
#X connect 41 0 20 0;
#X connect 42 0 55 0;
#X connect 46 0 1 0;
#X connect 47 0 3 0;
#X connect 47 1 46 0;
#X connect 47 2 45 0;
#X connect 49 0 112 0;
#X connect 49 1 3 0;
#X connect 49 2 99 0;
#X connect 49 3 46 0;
#X connect 54 0 19 0;
#X connect 55 0 19 0;
#X connect 56 0 57 1;
#X connect 56 0 61 0;
#X connect 56 0 61 1;
#X connect 57 0 72 0;
#X connect 58 0 57 0;
#X connect 59 0 62 0;
#X connect 60 0 69 0;
#X connect 61 0 60 0;
#X connect 62 0 142 1;
#X connect 63 0 65 0;
#X connect 64 0 62 1;
#X connect 65 0 66 0;
#X connect 65 0 77 0;
#X connect 66 0 56 0;
#X connect 67 0 65 1;
#X connect 68 0 64 0;
#X connect 69 0 108 0;
#X connect 70 0 67 0;
#X connect 70 0 71 0;
#X connect 70 0 76 0;
#X connect 71 0 73 0;
#X connect 71 0 69 1;
#X connect 71 0 75 0;
#X connect 72 0 59 0;
#X connect 73 0 64 1;
#X connect 74 0 63 0;
#X connect 74 1 70 0;
#X connect 75 0 72 1;
#X connect 76 0 63 1;
#X connect 78 0 76 1;
#X connect 82 0 67 1;
#X connect 83 0 73 1;
#X connect 84 0 75 1;
#X connect 85 0 68 1;
#X connect 92 0 95 0;
#X connect 93 0 95 0;
#X connect 94 0 95 0;
#X connect 95 0 74 0;
#X connect 96 0 95 0;
#X connect 97 0 96 0;
#X connect 97 1 96 0;
#X connect 97 2 94 0;
#X connect 97 3 93 0;
#X connect 98 0 97 0;
#X connect 99 0 98 0;
#X connect 99 1 78 0;
#X connect 99 2 82 0;
#X connect 99 3 84 0;
#X connect 99 4 85 0;
#X connect 99 5 83 0;
#X connect 100 0 99 0;
#X connect 101 0 99 0;
#X connect 102 0 99 0;
#X connect 103 0 99 0;
#X connect 104 0 10 0;
#X connect 104 0 12 0;
#X connect 104 0 14 0;
#X connect 104 0 16 0;
#X connect 105 0 99 0;
#X connect 106 0 99 0;
#X connect 107 0 0 0;
#X connect 108 0 90 0;
#X connect 108 0 140 0;
#X connect 109 0 49 0;
#X connect 110 0 49 0;
#X connect 111 0 49 0;
#X connect 112 0 2 0;
#X connect 112 1 113 0;
#X connect 113 0 117 0;
#X connect 114 0 113 1;
#X connect 115 0 113 1;
#X connect 116 0 113 1;
#X connect 117 0 107 1;
#X connect 118 0 135 0;
#X connect 118 1 114 0;
#X connect 119 0 111 0;
#X connect 119 1 116 0;
#X connect 120 0 109 0;
#X connect 120 1 116 0;
#X connect 121 0 136 0;
#X connect 121 1 115 0;
#X connect 122 0 110 0;
#X connect 122 1 115 0;
#X connect 125 0 126 0;
#X connect 126 0 127 0;
#X connect 128 0 127 1;
#X connect 129 0 128 0;
#X connect 130 0 125 0;
#X connect 131 0 130 0;
#X connect 132 0 129 1;
#X connect 133 0 129 0;
#X connect 134 0 131 0;
#X connect 135 0 49 0;
#X connect 136 0 49 0;
#X connect 138 0 143 0;
#X connect 139 0 108 1;
#X connect 140 0 141 0;
#X connect 142 0 60 1;
#X connect 143 0 142 0;
