#N canvas 564 124 1400 814 10;
#X obj 259 179 bng 15 250 50 0 empty empty empty 17 7 0 10 -262144
-1 -1;
#X obj 251 375 sel 0;
#X obj 259 199 t b b;
#X floatatom 259 279 5 0 0 0 - - -;
#X obj 259 299 mod 4;
#X msg 259 230 1;
#X obj 258 258 +;
#X obj 287 231 f;
#X obj 257 115 tgl 15 0 empty empty empty 17 7 0 10 -262144 -1 -1 0
1;
#X floatatom 259 317 5 0 0 0 - - -;
#X msg 257 76 1;
#X msg 460 173 0;
#X symbolatom 330 49 10 0 0 0 - - -;
#X obj 741 131 noise~;
#X obj 741 160 bp~ 1400 8;
#X obj 741 181 bp~ 1400 8;
#X obj 234 518 *~;
#X obj 58 14 tgl 15 0 empty empty empty 17 7 0 10 -262144 -1 -1 0 1
;
#X msg 58 34 \; pd dsp \$1;
#X obj 53 97 inlet;
#X obj 53 132 unpack s s;
#X obj 53 254 sel L B R T;
#X symbolatom 53 214 10 0 0 0 - - -;
#X symbolatom 110 153 10 0 0 0 - - -;
#X obj 445 533 *~;
#X floatatom 460 426 5 0 0 0 - - -;
#X obj 496 534 *~;
#X floatatom 511 425 5 0 0 0 - - -;
#X obj 547 533 *~;
#X floatatom 562 424 5 0 0 0 - - -;
#X obj 597 531 *~;
#X floatatom 612 423 5 0 0 0 - - -;
#X msg 477 376 1 0 0 0;
#X obj 477 400 unpack f f f f;
#X msg 514 335 0 0 1 0;
#X obj 460 471 line;
#X obj 511 470 line;
#X obj 562 469 line;
#X obj 612 468 line;
#X msg 511 447 \$1 100;
#X msg 460 448 \$1 100;
#X msg 562 446 \$1 100;
#X msg 612 445 \$1 100;
#X obj 741 287 throw~ \$0-audio;
#X obj 219 500 catch~ \$0-audio;
#X obj 112 210 s \$0-element;
#X obj 330 24 r \$0-element;
#X obj 831 132 unpack f f;
#X floatatom 831 161 5 0 0 0 - - -;
#X floatatom 888 161 5 0 0 0 - - -;
#X obj 109 172 symbol;
#X obj 53 234 t b s;
#X obj 53 338 s \$0-L;
#X obj 68 318 s \$0-B;
#X obj 84 299 s \$0-R;
#X obj 100 279 s \$0-T;
#X obj 296 290 r \$0-L;
#X obj 328 267 r \$0-B;
#X obj 359 289 r \$0-R;
#X obj 390 267 r \$0-T;
#X obj 329 73 sel H O OH NH2 -;
#X obj 741 262 *~;
#X obj 477 287 r \$0-L;
#X obj 491 309 r \$0-B;
#X obj 522 287 r \$0-R;
#X obj 539 308 r \$0-T;
#X text 621 490 speaker control;
#X obj 831 62 r \$0-L;
#X obj 860 39 r \$0-B;
#X obj 891 61 r \$0-R;
#X obj 922 39 r \$0-T;
#X obj 743 46 sel H;
#X obj 743 21 r \$0-element;
#X obj 1555 19 r \$0-element;
#X obj 741 335 r \$0-element;
#X obj 1752 640 r \$0-element;
#X obj 1720 22 r \$0-element;
#X obj 834 457 s2l;
#X msg 861 434 symbol;
#X obj 834 407 t s b;
#X obj 741 372 sel H O OH NH2 -;
#X obj 834 484 unpack s f;
#X msg 796 541 0;
#X obj 796 522 bng 15 250 50 0 empty empty empty 17 7 0 10 -262144
-1 -1;
#X floatatom 1523 113 5 0 0 0 - - -;
#X obj 1577 130 * -1;
#X obj 1602 151 phasor~;
#X msg 1609 129 0;
#X msg 1641 128 0.5;
#X obj 1609 80 bng 15 250 50 0 empty empty empty 17 7 0 10 -262144
-1 -1;
#X obj 1523 190 +~;
#X obj 1523 211 -~ 1;
#X obj 1523 280 *~ 0.1;
#X obj 1556 257 line;
#X msg 1556 238 0.1 50;
#X obj 1556 58 sel O;
#X obj 1556 80 t b b;
#X obj 1523 151 phasor~ 200;
#X obj 1732 266 throw~ \$0-audio;
#X obj 1523 304 throw~ \$0-audio;
#X obj 1732 240 *~ 0.1;
#X obj 1750 77 sel OH;
#X msg 1751 184 0.1 50;
#X msg 1783 157 0 50;
#X obj 1751 205 line;
#X obj 1732 113 phasor~ 150;
#X obj 1752 678 sel NH2;
#X obj 1642 795 throw~ \$0-audio;
#X msg 1583 220 0 10;
#X msg 789 88 0 10;
#X obj 784 238 line;
#X msg 296 319 1;
#X msg 328 319 2;
#X msg 359 318 3;
#X msg 390 318 0;
#X text 325 494 rhythm control;
#X obj 1614 524 *~ 2;
#X obj 1662 670 +~;
#X obj 1593 631 *~;
#X obj 1715 567 *~;
#X obj 1643 746 cos~;
#X obj 1643 721 -~;
#X obj 1713 542 min~ 1;
#X obj 1592 566 max~ 1;
#X obj 1645 589 -~;
#X obj 1614 504 phasor~ 120;
#X floatatom 1720 460 5 0 0 0 - - -;
#X obj 1720 484 / 100;
#X obj 1800 581 *~;
#X floatatom 1800 399 5 0 0 0 - - -;
#X floatatom 1615 468 5 0 0 0 - - -;
#X obj 1800 461 *;
#X obj 1800 441 t b f;
#X obj 1800 481 phasor~;
#X obj 1800 501 *~ -1;
#X obj 1800 541 min~;
#X obj 1800 521 +~ 1;
#X obj 1800 561 *~ 4;
#X obj 1662 697 -~ 1;
#X obj 1646 566 sig~ 2;
#X obj 1800 601 +~ 1;
#X obj 1800 419 / 100;
#X msg 1751 420 200;
#X msg 1615 433 100;
#X msg 1720 433 50;
#X obj 1616 408 loadbang;
#X msg 1744 726 0;
#X msg 1798 725 0.2;
#X obj 1643 775 *~;
#X floatatom 891 506 5 0 0 0 - - -;
#X obj 868 620 bng 15 250 50 0 empty empty empty 17 7 0 10 -262144
-1 -1;
#X obj 816 634 bp~ 800 10;
#X obj 904 651 unpack f f;
#X obj 891 527 sel 0 1 2 3 4;
#X obj 813 733 throw~ \$0-audio;
#X obj 834 532 sel C;
#X obj 817 596 noise~;
#X obj 816 708 *~;
#X msg 851 693 0 50;
#X obj 851 714 line~;
#X msg 890 107 2300 8;
#X msg 856 82 2250 8;
#X msg 831 107 2200 8;
#X msg 916 84 2350 8;
#X obj 251 473 vline~;
#X msg 347 393 0 10;
#X obj 251 413 list, f 7;
#X obj 251 394 bng 15 250 50 0 empty empty empty 17 7 0 10 -262144
-1 -1;
#X msg 251 432 \$1 \, 0 \$2 \$3;
#X msg 330 100 1 20 0;
#X msg 456 122 1 100 400;
#X msg 404 101 0 0 0, f 6;
#X msg 287 74 0;
#X obj 459 36 t b b b;
#X obj 460 194 t f f;
#X obj 331 145 t b b a b;
#X obj 407 608 throw~ K1;
#X obj 468 608 throw~ K2;
#X obj 531 609 throw~ K3;
#X obj 595 609 throw~ K4;
#X obj 259 156 metro 600;
#X msg 491 357 0 1 0 0;
#X msg 539 377 0 0 0 1;
#X obj 1075 134 noise~;
#X obj 1075 290 throw~ \$0-audio;
#X obj 1075 265 *~;
#X obj 1077 24 r \$0-element;
#X msg 1123 91 0 10;
#X obj 1118 241 line;
#X obj 1077 49 sel O;
#X obj 1077 454 noise~;
#X obj 1077 610 throw~ \$0-audio;
#X obj 1077 585 *~;
#X obj 1079 344 r \$0-element;
#X msg 1125 411 0 10;
#X obj 1120 561 line;
#X obj 1079 369 sel OH;
#X obj 1208 454 noise~;
#X obj 1208 610 throw~ \$0-audio;
#X obj 1208 585 *~;
#X obj 1210 344 r \$0-element;
#X msg 1256 411 0 10;
#X obj 1251 561 line;
#X obj 1210 369 sel NH2;
#X obj 1074 163 bp~ 240 8;
#X obj 1074 184 bp~ 240 8;
#X msg 743 88 0.3;
#X obj 1077 483 bp~ 200 11;
#X obj 816 668 bp~ 800 8;
#X msg 889 597 610 8;
#X msg 919 569 600 8;
#X msg 959 597 620 8;
#X msg 928 625 630 8;
#X msg 355 119 1 150 450;
#X msg 891 695 0.6;
#X msg 1077 91 0.6;
#X msg 1079 411 0.3;
#X msg 1210 411 0.3;
#X obj 1208 482 bp~ 400 10;
#X obj 1207 504 bp~ 400 8;
#X obj 1076 504 bp~ 200 8;
#X connect 0 0 2 0;
#X connect 1 0 167 0;
#X connect 1 1 165 0;
#X connect 2 0 5 0;
#X connect 2 1 7 0;
#X connect 3 0 4 0;
#X connect 3 0 7 1;
#X connect 4 0 9 0;
#X connect 5 0 6 0;
#X connect 6 0 3 0;
#X connect 7 0 6 1;
#X connect 8 0 180 0;
#X connect 9 0 1 0;
#X connect 10 0 8 0;
#X connect 11 0 174 0;
#X connect 12 0 60 0;
#X connect 13 0 14 0;
#X connect 14 0 15 0;
#X connect 15 0 61 0;
#X connect 16 0 24 0;
#X connect 16 0 26 0;
#X connect 16 0 28 0;
#X connect 16 0 30 0;
#X connect 17 0 18 0;
#X connect 19 0 20 0;
#X connect 20 0 22 0;
#X connect 20 1 23 0;
#X connect 21 0 52 0;
#X connect 21 1 53 0;
#X connect 21 2 54 0;
#X connect 21 3 55 0;
#X connect 22 0 51 0;
#X connect 23 0 50 1;
#X connect 24 0 176 0;
#X connect 25 0 40 0;
#X connect 26 0 177 0;
#X connect 27 0 39 0;
#X connect 28 0 178 0;
#X connect 29 0 41 0;
#X connect 30 0 179 0;
#X connect 31 0 42 0;
#X connect 32 0 33 0;
#X connect 33 0 25 0;
#X connect 33 1 27 0;
#X connect 33 2 29 0;
#X connect 33 3 31 0;
#X connect 34 0 33 0;
#X connect 35 0 24 1;
#X connect 36 0 26 1;
#X connect 37 0 28 1;
#X connect 38 0 30 1;
#X connect 39 0 36 0;
#X connect 40 0 35 0;
#X connect 41 0 37 0;
#X connect 42 0 38 0;
#X connect 44 0 16 0;
#X connect 46 0 12 0;
#X connect 47 0 48 0;
#X connect 47 1 49 0;
#X connect 48 0 14 1;
#X connect 48 0 15 1;
#X connect 49 0 14 2;
#X connect 49 0 15 2;
#X connect 50 0 45 0;
#X connect 51 0 50 0;
#X connect 51 1 21 0;
#X connect 56 0 111 0;
#X connect 57 0 112 0;
#X connect 58 0 113 0;
#X connect 59 0 114 0;
#X connect 60 0 169 0;
#X connect 60 1 213 0;
#X connect 60 2 170 0;
#X connect 60 3 213 0;
#X connect 60 4 173 0;
#X connect 60 5 170 0;
#X connect 61 0 43 0;
#X connect 62 0 32 0;
#X connect 63 0 181 0;
#X connect 64 0 34 0;
#X connect 65 0 182 0;
#X connect 67 0 162 0;
#X connect 68 0 161 0;
#X connect 69 0 160 0;
#X connect 70 0 163 0;
#X connect 71 0 206 0;
#X connect 71 1 109 0;
#X connect 72 0 71 0;
#X connect 73 0 95 0;
#X connect 74 0 80 0;
#X connect 75 0 106 0;
#X connect 76 0 101 0;
#X connect 77 0 81 0;
#X connect 78 0 77 1;
#X connect 79 0 77 0;
#X connect 79 1 78 0;
#X connect 80 0 83 0;
#X connect 80 1 83 0;
#X connect 80 2 83 0;
#X connect 80 3 83 0;
#X connect 80 4 83 0;
#X connect 80 5 79 0;
#X connect 81 0 155 0;
#X connect 81 1 149 0;
#X connect 82 0 159 0;
#X connect 83 0 82 0;
#X connect 84 0 85 0;
#X connect 84 0 97 0;
#X connect 85 0 86 0;
#X connect 86 0 90 1;
#X connect 87 0 97 1;
#X connect 88 0 86 1;
#X connect 89 0 87 0;
#X connect 89 0 88 0;
#X connect 90 0 91 0;
#X connect 91 0 92 0;
#X connect 93 0 92 1;
#X connect 94 0 93 0;
#X connect 95 0 96 0;
#X connect 95 1 108 0;
#X connect 96 0 94 0;
#X connect 96 1 89 0;
#X connect 97 0 90 0;
#X connect 101 0 102 0;
#X connect 101 1 103 0;
#X connect 102 0 104 0;
#X connect 103 0 104 0;
#X connect 104 0 100 1;
#X connect 105 0 100 0;
#X connect 106 0 147 0;
#X connect 106 1 146 0;
#X connect 108 0 93 0;
#X connect 109 0 110 0;
#X connect 110 0 61 1;
#X connect 111 0 1 1;
#X connect 112 0 1 1;
#X connect 113 0 1 1;
#X connect 114 0 1 1;
#X connect 116 0 122 0;
#X connect 116 0 123 0;
#X connect 117 0 138 0;
#X connect 118 0 117 0;
#X connect 119 0 117 1;
#X connect 120 0 148 0;
#X connect 121 0 120 0;
#X connect 122 0 119 0;
#X connect 123 0 118 0;
#X connect 124 0 118 1;
#X connect 124 0 121 0;
#X connect 125 0 116 0;
#X connect 126 0 127 0;
#X connect 127 0 128 1;
#X connect 128 0 140 0;
#X connect 129 0 141 0;
#X connect 130 0 125 0;
#X connect 130 0 131 0;
#X connect 131 0 133 0;
#X connect 132 0 131 0;
#X connect 132 1 131 1;
#X connect 133 0 134 0;
#X connect 133 0 135 1;
#X connect 134 0 136 0;
#X connect 135 0 137 0;
#X connect 136 0 135 0;
#X connect 137 0 128 0;
#X connect 138 0 121 1;
#X connect 139 0 124 0;
#X connect 140 0 119 1;
#X connect 140 0 124 1;
#X connect 141 0 132 0;
#X connect 142 0 141 0;
#X connect 143 0 130 0;
#X connect 144 0 126 0;
#X connect 145 0 143 0;
#X connect 145 0 142 0;
#X connect 145 0 144 0;
#X connect 146 0 148 1;
#X connect 147 0 148 1;
#X connect 149 0 153 0;
#X connect 151 0 208 0;
#X connect 152 0 151 1;
#X connect 152 0 208 1;
#X connect 152 1 151 2;
#X connect 152 1 208 2;
#X connect 153 0 209 0;
#X connect 153 1 210 0;
#X connect 153 2 212 0;
#X connect 153 3 211 0;
#X connect 153 4 209 0;
#X connect 155 0 214 0;
#X connect 155 1 158 0;
#X connect 156 0 151 0;
#X connect 157 0 154 0;
#X connect 158 0 159 0;
#X connect 159 0 157 1;
#X connect 160 0 47 0;
#X connect 161 0 47 0;
#X connect 162 0 47 0;
#X connect 163 0 47 0;
#X connect 164 0 16 1;
#X connect 165 0 164 0;
#X connect 166 0 168 0;
#X connect 167 0 166 0;
#X connect 168 0 164 0;
#X connect 169 0 175 0;
#X connect 170 0 175 0;
#X connect 171 0 166 1;
#X connect 172 0 8 0;
#X connect 173 0 11 0;
#X connect 173 1 172 0;
#X connect 173 2 171 0;
#X connect 174 0 9 0;
#X connect 174 1 3 0;
#X connect 175 0 10 0;
#X connect 175 1 11 0;
#X connect 175 2 166 1;
#X connect 175 3 172 0;
#X connect 180 0 0 0;
#X connect 181 0 33 0;
#X connect 182 0 33 0;
#X connect 183 0 204 0;
#X connect 185 0 184 0;
#X connect 186 0 189 0;
#X connect 187 0 188 0;
#X connect 188 0 185 1;
#X connect 189 0 215 0;
#X connect 189 1 187 0;
#X connect 190 0 207 0;
#X connect 192 0 191 0;
#X connect 193 0 196 0;
#X connect 194 0 195 0;
#X connect 195 0 192 1;
#X connect 196 0 216 0;
#X connect 196 1 194 0;
#X connect 197 0 218 0;
#X connect 199 0 198 0;
#X connect 200 0 203 0;
#X connect 201 0 202 0;
#X connect 202 0 199 1;
#X connect 203 0 217 0;
#X connect 203 1 201 0;
#X connect 204 0 205 0;
#X connect 205 0 185 0;
#X connect 206 0 61 1;
#X connect 207 0 220 0;
#X connect 208 0 157 0;
#X connect 209 0 152 0;
#X connect 210 0 152 0;
#X connect 211 0 152 0;
#X connect 212 0 152 0;
#X connect 213 0 175 0;
#X connect 214 0 159 0;
#X connect 215 0 185 1;
#X connect 216 0 192 1;
#X connect 217 0 199 1;
#X connect 218 0 219 0;
#X connect 219 0 199 0;
#X connect 220 0 192 0;
