#N canvas 325 84 1115 753 10;
#X obj 259 179 bng 15 250 50 0 empty empty empty 17 7 0 10 -262144
-1 -1;
#X obj 285 369 sel 0;
#X obj 259 199 t b b;
#X floatatom 259 279 5 0 0 0 - - -;
#X msg 259 230 1;
#X obj 258 258 +;
#X obj 287 231 f;
#X obj 257 115 tgl 15 0 empty empty empty 17 7 0 10 -262144 -1 -1 0
1;
#X floatatom 259 317 5 0 0 0 - - -;
#X msg 257 76 1;
#X msg 416 215 0;
#X symbolatom 330 49 10 0 0 0 - - -;
#X obj 1247 639 noise~;
#X obj 1247 668 bp~ 1400 8;
#X obj 1247 689 bp~ 1400 8;
#X obj 58 14 tgl 15 0 empty empty empty 17 7 0 10 -262144 -1 -1 0 1
;
#X msg 58 34 \; pd dsp \$1;
#X obj 53 97 inlet;
#X obj 53 132 unpack s s;
#X obj 53 254 sel L B R T;
#X symbolatom 53 214 10 0 0 0 - - -;
#X symbolatom 110 153 10 0 0 0 - - -;
#X obj 105 697 *~;
#X floatatom 120 590 5 0 0 0 - - -;
#X obj 156 698 *~;
#X floatatom 171 589 5 0 0 0 - - -;
#X obj 207 697 *~;
#X floatatom 222 588 5 0 0 0 - - -;
#X obj 257 695 *~;
#X floatatom 272 587 5 0 0 0 - - -;
#X msg 137 540 1 0 0 0;
#X obj 137 564 unpack f f f f;
#X msg 174 499 0 0 1 0;
#X obj 120 635 line;
#X obj 171 634 line;
#X obj 222 633 line;
#X obj 272 632 line;
#X msg 171 611 \$1 100;
#X msg 120 612 \$1 100;
#X msg 222 610 \$1 100;
#X msg 272 609 \$1 100;
#X obj 17 614 catch~ \$0-audio;
#X obj 112 210 s \$0-element;
#X obj 330 24 r \$0-element;
#X obj 1337 640 unpack f f;
#X floatatom 1337 669 5 0 0 0 - - -;
#X floatatom 1394 669 5 0 0 0 - - -;
#X obj 109 172 symbol;
#X obj 53 234 t b s;
#X obj 53 338 s \$0-L;
#X obj 68 318 s \$0-B;
#X obj 84 299 s \$0-R;
#X obj 100 279 s \$0-T;
#X obj 296 290 r \$0-L;
#X obj 328 267 r \$0-B;
#X obj 359 289 r \$0-R;
#X obj 390 267 r \$0-T;
#X obj 329 73 sel H O OH NH2 -;
#X obj 137 451 r \$0-L;
#X obj 151 473 r \$0-B;
#X obj 182 451 r \$0-R;
#X obj 199 472 r \$0-T;
#X text 281 654 speaker control;
#X obj 1337 570 r \$0-L;
#X obj 1366 547 r \$0-B;
#X obj 1397 569 r \$0-R;
#X obj 1428 547 r \$0-T;
#X obj 1249 554 sel H;
#X obj 1249 529 r \$0-element;
#X obj 1257 37 r \$0-element;
#X obj 1350 159 s2l;
#X msg 1377 136 symbol;
#X obj 1350 109 t s b;
#X obj 1257 74 sel H O OH NH2 -;
#X obj 1350 186 unpack s f;
#X msg 1312 243 0;
#X obj 1312 224 bng 15 250 50 0 empty empty empty 17 7 0 10 -262144
-1 -1;
#X msg 1295 596 0 10;
#X msg 296 319 1;
#X msg 328 319 2;
#X msg 359 318 3;
#X msg 390 318 0;
#X floatatom 1407 208 5 0 0 0 - - -;
#X obj 1384 322 bng 15 250 50 0 empty empty empty 17 7 0 10 -262144
-1 -1;
#X obj 1332 336 bp~ 800 10;
#X obj 1420 353 unpack f f;
#X obj 1407 229 sel 0 1 2 3 4;
#X obj 1329 435 throw~ \$0-audio;
#X obj 1332 371 bp~ 800 10;
#X obj 1350 234 sel C;
#X obj 1265 292 noise~;
#X obj 1332 410 *~;
#X msg 1367 395 0 50;
#X obj 1367 416 line~;
#X msg 1407 397 0.8;
#X msg 1396 615 2300 8;
#X msg 1362 590 2250 8;
#X msg 1405 299 200 10;
#X msg 1435 272 210 10;
#X msg 1475 299 220 10;
#X msg 1444 328 230 10;
#X msg 1249 596 0.3;
#X msg 1337 615 2200 8;
#X msg 1422 592 2350 8;
#X msg 356 387 0 10;
#X obj 260 398 bng 15 250 50 0 empty empty empty 17 7 0 10 -262144
-1 -1;
#X msg 530 73 0 0 0, f 6;
#X msg 287 74 0;
#X obj 478 25 t b b b;
#X obj 460 208 t f f;
#X obj 67 772 throw~ K1;
#X obj 128 772 throw~ K2;
#X obj 191 773 throw~ K3;
#X obj 255 773 throw~ K4;
#X msg 151 521 0 1 0 0;
#X msg 199 541 0 0 0 1;
#X obj 637 381 vline~;
#X obj 650 441 pow~;
#X obj 650 417 sig~ 2.71828;
#X obj 650 627 osc~;
#X obj 649 530 +~ 80;
#X obj 612 649 *~;
#X obj 613 419 *~;
#X obj 650 591 +~;
#X obj 636 292 metro 500;
#X obj 695 567 *~;
#X obj 636 335 f;
#X msg 637 359 1 1 0 \, 0 \$1 1;
#X obj 652 314 * 200;
#X obj 695 522 osc~ 120;
#X obj 739 665 *~;
#X obj 666 242 line;
#X obj 754 416 sig~;
#X obj 650 493 *~;
#X obj 711 543 *~ 70;
#X obj 636 219 t b a;
#X obj 675 469 *~ 130;
#X obj 694 268 * 300;
#X floatatom 593 357 5 0 0 0 - - -;
#X floatatom 740 246 5 0 0 0 - - -;
#X text 726 569 FM;
#X text 763 444 1->0;
#X text 646 551 340->80;
#X floatatom 757 311 5 0 0 0 - - -;
#X floatatom 776 536 5 0 0 0 - - -;
#X floatatom 801 468 5 0 0 0 - - -;
#X floatatom 802 501 5 0 0 0 - - -;
#X text 843 467 2);
#X text 843 504 3);
#X text 819 536 4);
#X text 797 312 1) smaller number with high frequency;
#X obj 740 705 throw~ \$0-audio;
#X obj 260 418 s \$0-bang;
#X obj 621 164 r \$0-bang;
#X msg 705 81 set 1;
#X msg 708 124 addcomma;
#X msg 636 197 1 \, 0 1200;
#X msg 707 170 add2 0 1200;
#X obj 706 56 t b a b b;
#X msg 706 28 set add2 0 \$1;
#X obj 759 213 unpack f f f f f f;
#X msg 841 188 1200 800 500 50 20 200;
#X msg 821 142 1000 400 200 80 100 50;
#X msg 807 116 1200 500 300 160 50 100;
#X msg 823 169 1000 400 400 80 120 100;
#X msg 330 100 600 120 100 500 200 50;
#X msg 384 168 1200 800 500 50 20 200;
#X obj 59 652 *~ 0.8;
#X obj 768 735 dac~;
#X msg 797 97 600 120 100 500 200 1000;
#X msg 828 74 600 120 130 500 200 800;
#X obj 237 298 mod 6;
#X msg 350 126 1000 450 200 80 120 100;
#X obj 740 684 *~ 0.7;
#X obj 260 156 metro 2400;
#X obj 330 208 t b b a f b;
#X obj 371 229 * 2;
#X floatatom 300 136 5 0 0 0 - - -;
#X msg 381 147 1300 800 400 80 100 50;
#X msg 454 246 1000 400 200 160 50 100;
#X connect 0 0 2 0;
#X connect 0 0 105 0;
#X connect 1 1 104 0;
#X connect 2 0 4 0;
#X connect 2 1 6 0;
#X connect 3 0 6 1;
#X connect 3 0 171 0;
#X connect 4 0 5 0;
#X connect 5 0 3 0;
#X connect 6 0 5 1;
#X connect 7 0 174 0;
#X connect 8 0 1 0;
#X connect 9 0 7 0;
#X connect 10 0 109 0;
#X connect 11 0 57 0;
#X connect 12 0 13 0;
#X connect 13 0 14 0;
#X connect 15 0 16 0;
#X connect 17 0 18 0;
#X connect 18 0 20 0;
#X connect 18 1 21 0;
#X connect 19 0 49 0;
#X connect 19 1 50 0;
#X connect 19 2 51 0;
#X connect 19 3 52 0;
#X connect 20 0 48 0;
#X connect 21 0 47 1;
#X connect 22 0 110 0;
#X connect 23 0 38 0;
#X connect 24 0 111 0;
#X connect 25 0 37 0;
#X connect 26 0 112 0;
#X connect 27 0 39 0;
#X connect 28 0 113 0;
#X connect 29 0 40 0;
#X connect 30 0 31 0;
#X connect 31 0 23 0;
#X connect 31 1 25 0;
#X connect 31 2 27 0;
#X connect 31 3 29 0;
#X connect 32 0 31 0;
#X connect 33 0 22 1;
#X connect 34 0 24 1;
#X connect 35 0 26 1;
#X connect 36 0 28 1;
#X connect 37 0 34 0;
#X connect 38 0 33 0;
#X connect 39 0 35 0;
#X connect 40 0 36 0;
#X connect 41 0 167 0;
#X connect 43 0 11 0;
#X connect 44 0 45 0;
#X connect 44 1 46 0;
#X connect 45 0 13 1;
#X connect 45 0 14 1;
#X connect 46 0 13 2;
#X connect 46 0 14 2;
#X connect 47 0 42 0;
#X connect 48 0 47 0;
#X connect 48 1 19 0;
#X connect 53 0 78 0;
#X connect 54 0 79 0;
#X connect 55 0 80 0;
#X connect 56 0 81 0;
#X connect 57 0 165 0;
#X connect 57 1 172 0;
#X connect 57 2 178 0;
#X connect 57 3 166 0;
#X connect 57 4 108 0;
#X connect 57 5 179 0;
#X connect 58 0 30 0;
#X connect 59 0 114 0;
#X connect 60 0 32 0;
#X connect 61 0 115 0;
#X connect 63 0 102 0;
#X connect 64 0 96 0;
#X connect 65 0 95 0;
#X connect 66 0 103 0;
#X connect 67 0 101 0;
#X connect 67 1 77 0;
#X connect 68 0 67 0;
#X connect 69 0 73 0;
#X connect 70 0 74 0;
#X connect 71 0 70 1;
#X connect 72 0 70 0;
#X connect 72 1 71 0;
#X connect 73 0 76 0;
#X connect 73 1 76 0;
#X connect 73 2 76 0;
#X connect 73 3 76 0;
#X connect 73 4 76 0;
#X connect 73 5 72 0;
#X connect 74 0 89 0;
#X connect 74 1 82 0;
#X connect 75 0 93 0;
#X connect 76 0 75 0;
#X connect 78 0 1 1;
#X connect 79 0 1 1;
#X connect 80 0 1 1;
#X connect 81 0 1 1;
#X connect 82 0 86 0;
#X connect 84 0 88 0;
#X connect 85 0 84 1;
#X connect 85 0 88 1;
#X connect 85 1 84 2;
#X connect 85 1 88 2;
#X connect 86 0 97 0;
#X connect 86 1 98 0;
#X connect 86 2 100 0;
#X connect 86 3 99 0;
#X connect 86 4 97 0;
#X connect 88 0 91 0;
#X connect 89 0 94 0;
#X connect 89 1 92 0;
#X connect 91 0 87 0;
#X connect 92 0 93 0;
#X connect 93 0 91 1;
#X connect 94 0 93 0;
#X connect 95 0 44 0;
#X connect 96 0 44 0;
#X connect 97 0 85 0;
#X connect 98 0 85 0;
#X connect 99 0 85 0;
#X connect 100 0 85 0;
#X connect 102 0 44 0;
#X connect 103 0 44 0;
#X connect 105 0 152 0;
#X connect 107 0 7 0;
#X connect 108 0 10 0;
#X connect 108 1 107 0;
#X connect 108 2 106 0;
#X connect 109 0 8 0;
#X connect 109 1 3 0;
#X connect 114 0 31 0;
#X connect 115 0 31 0;
#X connect 116 0 117 1;
#X connect 116 0 122 0;
#X connect 116 0 122 1;
#X connect 117 0 133 0;
#X connect 118 0 117 0;
#X connect 119 0 121 1;
#X connect 120 0 123 0;
#X connect 121 0 130 0;
#X connect 122 0 121 0;
#X connect 123 0 119 0;
#X connect 124 0 126 0;
#X connect 125 0 123 1;
#X connect 126 0 127 0;
#X connect 126 0 138 0;
#X connect 127 0 116 0;
#X connect 128 0 126 1;
#X connect 129 0 125 0;
#X connect 130 0 173 0;
#X connect 131 0 128 0;
#X connect 131 0 132 0;
#X connect 131 0 137 0;
#X connect 132 0 134 0;
#X connect 132 0 130 1;
#X connect 132 0 136 0;
#X connect 133 0 120 0;
#X connect 134 0 125 1;
#X connect 135 0 124 0;
#X connect 135 1 131 0;
#X connect 136 0 133 1;
#X connect 137 0 124 1;
#X connect 139 0 137 1;
#X connect 143 0 128 1;
#X connect 144 0 134 1;
#X connect 145 0 136 1;
#X connect 146 0 129 1;
#X connect 153 0 156 0;
#X connect 154 0 156 0;
#X connect 155 0 156 0;
#X connect 156 0 135 0;
#X connect 157 0 156 0;
#X connect 158 0 157 0;
#X connect 158 1 157 0;
#X connect 158 2 155 0;
#X connect 158 3 154 0;
#X connect 159 0 158 0;
#X connect 160 0 159 0;
#X connect 160 1 139 0;
#X connect 160 2 143 0;
#X connect 160 3 145 0;
#X connect 160 4 146 0;
#X connect 160 5 144 0;
#X connect 161 0 160 0;
#X connect 162 0 160 0;
#X connect 163 0 160 0;
#X connect 164 0 160 0;
#X connect 165 0 175 0;
#X connect 166 0 175 0;
#X connect 167 0 22 0;
#X connect 167 0 24 0;
#X connect 167 0 26 0;
#X connect 167 0 28 0;
#X connect 169 0 160 0;
#X connect 170 0 160 0;
#X connect 171 0 8 0;
#X connect 172 0 175 0;
#X connect 173 0 151 0;
#X connect 174 0 0 0;
#X connect 175 0 9 0;
#X connect 175 1 10 0;
#X connect 175 2 160 0;
#X connect 175 3 176 0;
#X connect 175 4 107 0;
#X connect 176 0 177 0;
#X connect 177 0 174 1;
#X connect 178 0 175 0;
#X connect 179 0 175 0;
