#N canvas 158 40 1154 766 10;
#X obj 257 203 metro 200;
#X obj 257 226 bng 15 250 50 0 empty empty empty 17 7 0 10 -262144
-1 -1;
#X obj 257 400 sel 0;
#X obj 257 246 t b b;
#X floatatom 257 326 5 0 0 0 - - -, f 5;
#X obj 257 346 mod 4;
#X msg 257 277 1;
#X obj 256 305 +;
#X obj 285 278 f;
#X obj 257 177 tgl 15 0 empty empty empty 17 7 0 10 -262144 -1 -1 1
1;
#X floatatom 257 364 5 0 0 0 - - -, f 5;
#X msg 419 154 0, f 2;
#X msg 330 213 1;
#X obj 329 192 t b b f;
#X msg 359 214 0;
#X symbolatom 330 49 10 0 0 0 - - -, f 10;
#X obj 741 131 noise~;
#X obj 741 160 bp~ 1400 8;
#X obj 741 181 bp~ 1400 8;
#X obj 228 526 *~;
#X msg 316 475 1 20;
#X obj 58 14 tgl 15 0 empty empty empty 17 7 0 10 -262144 -1 -1 0 1
;
#X msg 58 34 \; pd dsp \$1;
#X obj 53 97 inlet;
#X obj 53 132 unpack s s;
#X obj 53 254 sel L B R T;
#X symbolatom 53 214 10 0 0 0 - - -, f 10;
#X symbolatom 110 153 10 0 0 0 - - -, f 10;
#X obj 429 545 *~;
#X floatatom 444 438 5 0 0 0 - - -, f 5;
#X obj 481 547 *~;
#X floatatom 495 437 5 0 0 0 - - -, f 5;
#X obj 531 545 *~;
#X floatatom 546 436 5 0 0 0 - - -, f 5;
#X obj 581 543 *~;
#X floatatom 596 435 5 0 0 0 - - -, f 5;
#X msg 461 388 1 0 0 0;
#X obj 461 412 unpack f f f f;
#X msg 498 347 0 0 1 0;
#X obj 444 483 line;
#X obj 495 482 line;
#X obj 546 481 line;
#X obj 596 480 line;
#X msg 495 459 \$1 100;
#X msg 444 460 \$1 100;
#X msg 546 458 \$1 100;
#X msg 596 457 \$1 100;
#X msg 523 389 0 0.7 0 0.3;
#X msg 475 369 0 0.3 0 0.7;
#X obj 741 287 throw~ \$0-audio;
#X obj 213 508 catch~ \$0-audio;
#X obj 112 210 s \$0-element;
#X obj 330 24 r \$0-element;
#X obj 831 132 unpack f f;
#X floatatom 831 161 5 0 0 0 - - -, f 5;
#X floatatom 888 161 5 0 0 0 - - -, f 5;
#X obj 109 172 symbol;
#X obj 53 234 t b s;
#X obj 53 338 s \$0-L;
#X obj 68 318 s \$0-B;
#X obj 84 299 s \$0-R;
#X obj 100 279 s \$0-T;
#X obj 294 337 r \$0-L;
#X obj 326 314 r \$0-B;
#X obj 357 336 r \$0-R;
#X obj 388 314 r \$0-T;
#X obj 330 72 sel H O OH NH2 -;
#X obj 741 262 *~;
#X obj 461 299 r \$0-L;
#X obj 475 321 r \$0-B;
#X obj 506 299 r \$0-R;
#X obj 523 320 r \$0-T;
#X text 605 502 speaker control;
#X obj 831 62 r \$0-L;
#X obj 860 39 r \$0-B;
#X obj 891 61 r \$0-R;
#X obj 922 39 r \$0-T;
#X obj 743 46 sel H;
#X obj 743 21 r \$0-element;
#X obj 1057 22 r \$0-element;
#X obj 741 335 r \$0-element;
#X obj 1221 638 r \$0-element;
#X obj 1222 25 r \$0-element;
#X obj 834 457 s2l;
#X msg 861 434 symbol;
#X obj 834 407 t s b;
#X obj 741 372 sel H O OH NH2 -;
#X obj 834 484 unpack s f;
#X msg 796 541 0;
#X obj 796 522 bng 15 250 50 0 empty empty empty 17 7 0 10 -262144
-1 -1;
#X floatatom 1025 116 5 0 0 0 - - -, f 5;
#X obj 1079 133 * -1;
#X obj 1104 154 phasor~;
#X msg 1111 132 0;
#X msg 1143 131 0.5;
#X obj 1111 83 bng 15 250 50 0 empty empty empty 17 7 0 10 -262144
-1 -1;
#X obj 1025 193 +~;
#X obj 1025 214 -~ 1;
#X obj 1025 283 *~ 0.1;
#X obj 1058 260 line;
#X msg 1058 241 0.1 50;
#X obj 1058 61 sel O;
#X obj 1058 83 t b b;
#X obj 1025 154 phasor~ 200;
#X obj 1234 314 throw~ \$0-audio;
#X obj 1025 307 throw~ \$0-audio;
#X obj 1234 243 *~ 0.1;
#X obj 1252 80 sel OH;
#X msg 1253 187 0.1 50;
#X msg 1285 160 0 50;
#X obj 1253 208 line;
#X obj 1234 116 phasor~ 150;
#X obj 1221 676 sel NH2;
#X msg 1544 478 710 1100 2640;
#X obj 1544 508 unpack f f f;
#X obj 1560 602 bp~ 1 34;
#X obj 1529 553 bp~ 1 34;
#X obj 1543 579 bp~ 1 34;
#X obj 1547 638 clip~ -1 1;
#X obj 1444 465 sig~ 1;
#X obj 1444 605 /~;
#X obj 1460 486 sig~ 50;
#X obj 1460 507 osc~;
#X obj 1460 528 *~ 24;
#X obj 1460 549 *~;
#X obj 1460 574 +~ 1;
#X obj 1444 626 -~ 0.5;
#X obj 1547 662 *~ 0.5;
#X msg 1582 491 0 0 0;
#X obj 1111 793 throw~ \$0-audio;
#X msg 1085 223 0 10;
#X msg 789 88 0 10;
#X obj 784 238 line;
#X msg 294 366 1;
#X msg 326 366 2;
#X msg 357 365 3;
#X msg 388 365 0;
#X text 319 502 rhythm control;
#X obj 1083 522 *~ 2;
#X obj 1131 668 +~;
#X obj 1062 629 *~;
#X obj 1184 565 *~;
#X obj 1112 744 cos~;
#X obj 1112 719 -~;
#X obj 1182 540 min~ 1;
#X obj 1061 564 max~ 1;
#X obj 1114 587 -~;
#X obj 1083 502 phasor~ 120;
#X floatatom 1189 458 5 0 0 0 - - -, f 5;
#X obj 1189 482 / 100;
#X obj 1269 579 *~;
#X floatatom 1269 397 5 0 0 0 - - -, f 5;
#X floatatom 1084 466 5 0 0 0 - - -, f 5;
#X obj 1269 459 *;
#X obj 1269 439 t b f;
#X obj 1269 479 phasor~;
#X obj 1269 499 *~ -1;
#X obj 1269 539 min~;
#X obj 1269 519 +~ 1;
#X obj 1269 559 *~ 4;
#X obj 1131 695 -~ 1;
#X obj 1115 564 sig~ 2;
#X obj 1269 599 +~ 1;
#X obj 1269 417 / 100;
#X msg 1220 418 200;
#X msg 1084 431 100;
#X msg 1189 431 50;
#X obj 1085 406 loadbang;
#X msg 1213 724 0;
#X obj 1112 773 *~;
#X floatatom 891 506 5 0 0 0 - - -, f 5;
#X obj 868 620 bng 15 250 50 0 empty empty empty 17 7 0 10 -262144
-1 -1;
#X obj 816 634 bp~ 800 10;
#X obj 904 651 unpack f f;
#X obj 891 527 sel 0 1 2 3 4;
#X obj 813 733 throw~ \$0-audio;
#X floatatom 703 703 5 0 0 0 - - -, f 5;
#X obj 646 712 sel C;
#X obj 680 817 bng 15 250 50 0 empty empty empty 17 7 0 10 -262144
-1 -1;
#X obj 629 793 readsf~;
#X obj 629 818 *~ 0.9;
#X obj 661 933 spigot;
#X obj 646 740 t b b;
#X msg 700 863 1;
#X obj 692 909 tgl 15 0 empty empty empty 17 7 0 10 -262144 -1 -1 0
1;
#X msg 629 764 open lib/1.wav \, 1;
#X obj 629 851 bp~ 800 10;
#X obj 736 932 unpack f f;
#X msg 734 905 1300 8;
#X msg 788 909 900 4;
#X obj 703 724 sel 0 1 2 3 4;
#X msg 743 879 1100 8;
#X msg 834 909 1300 15;
#X obj 816 669 bp~ 800 10;
#X obj 834 532 sel C;
#X obj 817 596 noise~;
#X obj 816 708 *~;
#X msg 851 693 0 50;
#X obj 851 714 line~;
#X msg 891 695 0.8;
#X msg 890 107 2300 8;
#X msg 856 82 2250 8;
#X msg 957 584 200 10;
#X msg 908 603 210 10;
#X msg 892 579 220 10;
#X msg 928 626 230 10;
#X msg 743 88 0.3;
#X msg 831 107 2200 8;
#X msg 916 84 2350 8;
#X msg 332 154 100;
#X obj 256 482 vline~;
#X msg 353 418 0 10;
#X obj 257 436 list, f 7;
#X obj 257 419 bng 15 250 50 0 empty empty empty 17 7 0 10 -262144
-1 -1;
#X msg 360 151 800;
#X msg 389 155 600;
#X msg 441 152 800;
#X obj 333 98 t b b;
#X obj 350 122 t b b;
#X obj 388 102 t b b;
#X msg 257 457 \$1 \, 0 \$2 \$3;
#X msg 376 242 1 20 0;
#X msg 261 611 1 100 400;
#X obj 232 667 list;
#X obj 232 642 bng 15 250 50 0 empty empty empty 17 7 0 10 -262144
-1 -1;
#X msg 232 688 \$1 \, 0 \$2 \$3;
#X obj 232 709 print;
#X obj 431 95 t b b;
#X obj 403 126 t b b;
#X msg 463 213 0 0 0;
#X msg 490 241 1 200 500;
#X msg 422 240 0.5 250 400;
#X msg 1267 723 0.1;
#X obj 413 579 throw~ K1;
#X obj 474 579 throw~ K2;
#X obj 537 580 throw~ K3;
#X obj 601 580 throw~ K4;
#X connect 0 0 1 0;
#X connect 1 0 3 0;
#X connect 2 0 213 0;
#X connect 2 1 211 0;
#X connect 3 0 6 0;
#X connect 3 1 8 0;
#X connect 4 0 5 0;
#X connect 4 0 8 1;
#X connect 5 0 10 0;
#X connect 6 0 7 0;
#X connect 7 0 4 0;
#X connect 8 0 7 1;
#X connect 9 0 0 0;
#X connect 10 0 2 0;
#X connect 11 0 9 0;
#X connect 11 0 4 0;
#X connect 11 0 10 0;
#X connect 12 0 9 0;
#X connect 13 0 12 0;
#X connect 13 1 14 0;
#X connect 13 2 0 1;
#X connect 14 0 4 0;
#X connect 14 0 10 0;
#X connect 15 0 66 0;
#X connect 16 0 17 0;
#X connect 17 0 18 0;
#X connect 18 0 67 0;
#X connect 19 0 28 0;
#X connect 19 0 30 0;
#X connect 19 0 32 0;
#X connect 19 0 34 0;
#X connect 21 0 22 0;
#X connect 23 0 24 0;
#X connect 24 0 26 0;
#X connect 24 1 27 0;
#X connect 25 0 58 0;
#X connect 25 1 59 0;
#X connect 25 2 60 0;
#X connect 25 3 61 0;
#X connect 26 0 57 0;
#X connect 27 0 56 1;
#X connect 28 0 233 0;
#X connect 29 0 44 0;
#X connect 30 0 234 0;
#X connect 31 0 43 0;
#X connect 32 0 235 0;
#X connect 33 0 45 0;
#X connect 34 0 236 0;
#X connect 35 0 46 0;
#X connect 36 0 37 0;
#X connect 37 0 29 0;
#X connect 37 1 31 0;
#X connect 37 2 33 0;
#X connect 37 3 35 0;
#X connect 38 0 37 0;
#X connect 39 0 28 1;
#X connect 40 0 30 1;
#X connect 41 0 32 1;
#X connect 42 0 34 1;
#X connect 43 0 40 0;
#X connect 44 0 39 0;
#X connect 45 0 41 0;
#X connect 46 0 42 0;
#X connect 47 0 37 0;
#X connect 48 0 37 0;
#X connect 50 0 19 0;
#X connect 52 0 15 0;
#X connect 53 0 54 0;
#X connect 53 1 55 0;
#X connect 54 0 17 1;
#X connect 54 0 18 1;
#X connect 55 0 17 2;
#X connect 55 0 18 2;
#X connect 56 0 51 0;
#X connect 57 0 56 0;
#X connect 57 1 25 0;
#X connect 62 0 133 0;
#X connect 63 0 134 0;
#X connect 64 0 135 0;
#X connect 65 0 136 0;
#X connect 66 0 217 0;
#X connect 66 1 218 0;
#X connect 66 2 218 0;
#X connect 66 3 219 0;
#X connect 66 4 228 0;
#X connect 66 5 227 0;
#X connect 67 0 49 0;
#X connect 68 0 36 0;
#X connect 69 0 48 0;
#X connect 70 0 38 0;
#X connect 71 0 47 0;
#X connect 73 0 207 0;
#X connect 74 0 201 0;
#X connect 75 0 200 0;
#X connect 76 0 208 0;
#X connect 77 0 206 0;
#X connect 77 1 131 0;
#X connect 78 0 77 0;
#X connect 79 0 101 0;
#X connect 80 0 86 0;
#X connect 81 0 112 0;
#X connect 82 0 107 0;
#X connect 83 0 87 0;
#X connect 84 0 83 1;
#X connect 85 0 83 0;
#X connect 85 1 84 0;
#X connect 86 0 89 0;
#X connect 86 1 89 0;
#X connect 86 2 89 0;
#X connect 86 3 89 0;
#X connect 86 4 89 0;
#X connect 86 5 85 0;
#X connect 87 0 194 0;
#X connect 87 1 170 0;
#X connect 88 0 198 0;
#X connect 89 0 88 0;
#X connect 90 0 91 0;
#X connect 90 0 103 0;
#X connect 91 0 92 0;
#X connect 92 0 96 1;
#X connect 93 0 103 1;
#X connect 94 0 92 1;
#X connect 95 0 93 0;
#X connect 95 0 94 0;
#X connect 96 0 97 0;
#X connect 97 0 98 0;
#X connect 98 0 105 0;
#X connect 99 0 98 1;
#X connect 100 0 99 0;
#X connect 101 0 102 0;
#X connect 101 1 130 0;
#X connect 102 0 100 0;
#X connect 102 1 95 0;
#X connect 103 0 96 0;
#X connect 106 0 104 0;
#X connect 107 0 108 0;
#X connect 107 1 109 0;
#X connect 108 0 110 0;
#X connect 109 0 110 0;
#X connect 110 0 106 1;
#X connect 111 0 106 0;
#X connect 112 0 232 0;
#X connect 112 1 168 0;
#X connect 113 0 114 0;
#X connect 114 0 116 1;
#X connect 114 1 117 1;
#X connect 114 2 115 1;
#X connect 115 0 118 0;
#X connect 116 0 118 0;
#X connect 117 0 118 0;
#X connect 118 0 127 0;
#X connect 119 0 120 0;
#X connect 120 0 126 0;
#X connect 121 0 122 0;
#X connect 122 0 123 0;
#X connect 123 0 124 0;
#X connect 123 0 124 1;
#X connect 124 0 125 0;
#X connect 125 0 120 1;
#X connect 126 0 116 0;
#X connect 126 0 117 0;
#X connect 126 0 115 0;
#X connect 128 0 114 0;
#X connect 130 0 99 0;
#X connect 131 0 132 0;
#X connect 132 0 67 1;
#X connect 133 0 2 1;
#X connect 134 0 2 1;
#X connect 135 0 2 1;
#X connect 136 0 2 1;
#X connect 138 0 144 0;
#X connect 138 0 145 0;
#X connect 139 0 160 0;
#X connect 140 0 139 0;
#X connect 141 0 139 1;
#X connect 142 0 169 0;
#X connect 143 0 142 0;
#X connect 144 0 141 0;
#X connect 145 0 140 0;
#X connect 146 0 140 1;
#X connect 146 0 143 0;
#X connect 147 0 138 0;
#X connect 148 0 149 0;
#X connect 149 0 150 1;
#X connect 150 0 162 0;
#X connect 151 0 163 0;
#X connect 152 0 147 0;
#X connect 152 0 153 0;
#X connect 153 0 155 0;
#X connect 154 0 153 0;
#X connect 154 1 153 1;
#X connect 155 0 156 0;
#X connect 155 0 157 1;
#X connect 156 0 158 0;
#X connect 157 0 159 0;
#X connect 158 0 157 0;
#X connect 159 0 150 0;
#X connect 160 0 143 1;
#X connect 161 0 146 0;
#X connect 162 0 141 1;
#X connect 162 0 146 1;
#X connect 163 0 154 0;
#X connect 164 0 163 0;
#X connect 165 0 152 0;
#X connect 166 0 148 0;
#X connect 167 0 165 0;
#X connect 167 0 164 0;
#X connect 167 0 166 0;
#X connect 168 0 169 1;
#X connect 169 0 129 0;
#X connect 170 0 174 0;
#X connect 172 0 193 0;
#X connect 173 0 172 1;
#X connect 173 0 193 1;
#X connect 173 1 172 2;
#X connect 173 1 193 2;
#X connect 174 0 204 0;
#X connect 174 1 205 0;
#X connect 174 2 205 0;
#X connect 174 3 202 0;
#X connect 174 4 203 0;
#X connect 176 0 190 0;
#X connect 177 0 182 0;
#X connect 178 0 181 0;
#X connect 179 0 180 0;
#X connect 179 1 178 0;
#X connect 180 0 186 0;
#X connect 181 0 185 0;
#X connect 182 0 185 0;
#X connect 182 1 183 0;
#X connect 183 0 184 0;
#X connect 184 0 181 1;
#X connect 185 0 179 0;
#X connect 187 0 186 1;
#X connect 187 1 186 2;
#X connect 188 0 187 0;
#X connect 189 0 187 0;
#X connect 190 0 188 0;
#X connect 190 1 189 0;
#X connect 190 2 189 0;
#X connect 190 3 192 0;
#X connect 190 4 191 0;
#X connect 191 0 187 0;
#X connect 192 0 187 0;
#X connect 193 0 196 0;
#X connect 194 0 199 0;
#X connect 194 1 197 0;
#X connect 195 0 172 0;
#X connect 196 0 175 0;
#X connect 197 0 198 0;
#X connect 198 0 196 1;
#X connect 199 0 198 0;
#X connect 200 0 53 0;
#X connect 201 0 53 0;
#X connect 202 0 173 0;
#X connect 203 0 173 0;
#X connect 204 0 173 0;
#X connect 205 0 173 0;
#X connect 206 0 67 1;
#X connect 207 0 53 0;
#X connect 208 0 53 0;
#X connect 209 0 13 0;
#X connect 210 0 19 1;
#X connect 211 0 210 0;
#X connect 212 0 220 0;
#X connect 213 0 212 0;
#X connect 214 0 13 0;
#X connect 215 0 13 0;
#X connect 215 0 231 0;
#X connect 216 0 13 0;
#X connect 217 0 209 0;
#X connect 217 1 221 0;
#X connect 218 0 214 0;
#X connect 218 1 231 0;
#X connect 219 0 215 0;
#X connect 220 0 210 0;
#X connect 221 0 212 1;
#X connect 222 0 223 1;
#X connect 223 0 225 0;
#X connect 224 0 223 0;
#X connect 225 0 226 0;
#X connect 227 0 216 0;
#X connect 227 1 230 0;
#X connect 228 0 11 0;
#X connect 228 1 229 0;
#X connect 229 0 212 1;
#X connect 230 0 212 1;
#X connect 231 0 212 1;
#X connect 232 0 169 1;
