#N canvas 286 71 1154 766 10;
#X obj 257 203 metro 200;
#X obj 257 226 bng 15 250 50 0 empty empty empty 17 7 0 10 -262144
-1 -1;
#X obj 257 400 sel 0;
#X obj 257 246 t b b;
#X floatatom 257 326 5 0 0 0 - - -;
#X obj 257 346 mod 4;
#X msg 257 277 1;
#X obj 256 305 +;
#X obj 285 278 f;
#X obj 257 177 tgl 15 0 empty empty empty 17 7 0 10 -262144 -1 -1 0
1;
#X floatatom 257 364 5 0 0 0 - - -;
#X msg 419 154 0, f 2;
#X msg 330 213 1;
#X obj 329 192 t b b f;
#X msg 359 214 0;
#X symbolatom 330 49 10 0 0 0 - - -;
#X obj 228 526 *~;
#X msg 316 475 1 20;
#X obj 58 14 tgl 15 0 empty empty empty 17 7 0 10 -262144 -1 -1 0 1
;
#X msg 58 34 \; pd dsp \$1;
#X obj 53 97 inlet;
#X obj 53 132 unpack s s;
#X obj 53 254 sel L B R T;
#X symbolatom 53 214 10 0 0 0 - - -;
#X symbolatom 110 153 10 0 0 0 - - -;
#X obj 429 545 *~;
#X floatatom 444 438 5 0 0 0 - - -;
#X obj 481 547 *~;
#X floatatom 495 437 5 0 0 0 - - -;
#X obj 531 545 *~;
#X floatatom 546 436 5 0 0 0 - - -;
#X obj 581 543 *~;
#X floatatom 596 435 5 0 0 0 - - -;
#X msg 461 388 1 0 0 0;
#X obj 461 412 unpack f f f f;
#X msg 498 347 0 0 1 0;
#X obj 444 483 line;
#X obj 495 482 line;
#X obj 546 481 line;
#X obj 596 480 line;
#X msg 495 459 \$1 100;
#X msg 444 460 \$1 100;
#X msg 546 458 \$1 100;
#X msg 596 457 \$1 100;
#X obj 213 508 catch~ \$0-audio;
#X obj 112 210 s \$0-element;
#X obj 330 24 r \$0-element;
#X obj 109 172 symbol;
#X obj 53 234 t b s;
#X obj 53 338 s \$0-L;
#X obj 68 318 s \$0-B;
#X obj 84 299 s \$0-R;
#X obj 100 279 s \$0-T;
#X obj 294 337 r \$0-L;
#X obj 326 314 r \$0-B;
#X obj 357 336 r \$0-R;
#X obj 388 314 r \$0-T;
#X obj 330 72 sel H O OH NH2 -;
#X obj 461 299 r \$0-L;
#X obj 475 321 r \$0-B;
#X obj 506 299 r \$0-R;
#X obj 523 320 r \$0-T;
#X msg 1544 478 710 1100 2640;
#X obj 1544 508 unpack f f f;
#X obj 1560 602 bp~ 1 34;
#X obj 1529 553 bp~ 1 34;
#X obj 1543 579 bp~ 1 34;
#X obj 1547 638 clip~ -1 1;
#X obj 1444 465 sig~ 1;
#X obj 1444 605 /~;
#X obj 1460 486 sig~ 50;
#X obj 1460 507 osc~;
#X obj 1460 528 *~ 24;
#X obj 1460 549 *~;
#X obj 1460 574 +~ 1;
#X obj 1444 626 -~ 0.5;
#X obj 1547 662 *~ 0.5;
#X msg 1582 491 0 0 0;
#X msg 294 366 1;
#X msg 326 366 2;
#X msg 357 365 3;
#X msg 388 365 0;
#X text 319 502 rhythm control;
#X msg 332 154 100;
#X obj 256 482 vline~;
#X msg 353 418 0 10;
#X obj 257 436 list, f 7;
#X obj 257 419 bng 15 250 50 0 empty empty empty 17 7 0 10 -262144
-1 -1;
#X msg 360 151 800;
#X msg 389 155 600;
#X msg 441 152 800;
#X obj 333 98 t b b;
#X obj 350 122 t b b;
#X obj 388 102 t b b;
#X msg 257 457 \$1 \, 0 \$2 \$3;
#X msg 376 242 1 20 0;
#X msg 261 611 1 100 400;
#X obj 232 667 list;
#X obj 232 642 bng 15 250 50 0 empty empty empty 17 7 0 10 -262144
-1 -1;
#X msg 232 688 \$1 \, 0 \$2 \$3;
#X obj 232 709 print;
#X obj 431 95 t b b;
#X obj 403 126 t b b;
#X msg 463 213 0 0 0;
#X msg 490 241 1 200 500;
#X msg 422 240 0.5 250 400;
#X obj 413 579 throw~ K1;
#X obj 474 579 throw~ K2;
#X obj 537 580 throw~ K3;
#X obj 601 580 throw~ K4;
#X msg 475 369 0 1 0 0;
#X msg 524 389 0 0 0 1;
#X obj 741 131 noise~;
#X obj 741 160 bp~ 1400 8;
#X obj 741 181 bp~ 1400 8;
#X obj 741 287 throw~ \$0-audio;
#X obj 831 132 unpack f f;
#X floatatom 831 161 5 0 0 0 - - -;
#X floatatom 888 161 5 0 0 0 - - -;
#X obj 741 262 *~;
#X obj 831 62 r \$0-L;
#X obj 860 39 r \$0-B;
#X obj 891 61 r \$0-R;
#X obj 922 39 r \$0-T;
#X obj 743 46 sel H;
#X obj 743 21 r \$0-element;
#X obj 741 335 r \$0-element;
#X obj 834 457 s2l;
#X msg 861 434 symbol;
#X obj 834 407 t s b;
#X obj 741 372 sel H O OH NH2 -;
#X obj 834 484 unpack s f;
#X msg 796 541 0;
#X obj 796 522 bng 15 250 50 0 empty empty empty 17 7 0 10 -262144
-1 -1;
#X msg 789 88 0 10;
#X obj 784 238 line;
#X floatatom 891 506 5 0 0 0 - - -;
#X obj 868 620 bng 15 250 50 0 empty empty empty 17 7 0 10 -262144
-1 -1;
#X obj 816 634 bp~ 800 10;
#X obj 904 651 unpack f f;
#X obj 891 527 sel 0 1 2 3 4;
#X obj 813 733 throw~ \$0-audio;
#X obj 834 532 sel C;
#X obj 817 596 noise~;
#X obj 816 708 *~;
#X msg 851 693 0 50;
#X obj 851 714 line~;
#X msg 890 107 2300 8;
#X msg 856 82 2250 8;
#X msg 831 107 2200 8;
#X msg 916 84 2350 8;
#X obj 1075 134 noise~;
#X obj 1075 290 throw~ \$0-audio;
#X obj 1075 265 *~;
#X obj 1077 24 r \$0-element;
#X msg 1123 91 0 10;
#X obj 1118 241 line;
#X obj 1077 49 sel O;
#X obj 1077 454 noise~;
#X obj 1077 610 throw~ \$0-audio;
#X obj 1077 585 *~;
#X obj 1079 344 r \$0-element;
#X msg 1125 411 0 10;
#X obj 1120 561 line;
#X obj 1079 369 sel OH;
#X obj 1208 454 noise~;
#X obj 1208 610 throw~ \$0-audio;
#X obj 1208 585 *~;
#X obj 1210 344 r \$0-element;
#X msg 1256 411 0 10;
#X obj 1251 561 line;
#X obj 1210 369 sel NH2;
#X obj 1074 163 bp~ 240 8;
#X obj 1074 184 bp~ 240 8;
#X msg 743 88 0.3;
#X obj 1077 483 bp~ 200 11;
#X obj 816 668 bp~ 800 8;
#X msg 889 597 610 8;
#X msg 919 569 600 8;
#X msg 959 597 620 8;
#X msg 928 625 630 8;
#X msg 891 695 0.6;
#X msg 1077 91 0.6;
#X obj 1208 482 bp~ 400 10;
#X obj 1207 504 bp~ 400 8;
#X obj 1076 504 bp~ 200 8;
#X msg 1210 411 0.5;
#X msg 1079 411 0.8;
#X connect 0 0 1 0;
#X connect 1 0 3 0;
#X connect 2 0 87 0;
#X connect 2 1 85 0;
#X connect 3 0 6 0;
#X connect 3 1 8 0;
#X connect 4 0 5 0;
#X connect 4 0 8 1;
#X connect 5 0 10 0;
#X connect 6 0 7 0;
#X connect 7 0 4 0;
#X connect 8 0 7 1;
#X connect 9 0 0 0;
#X connect 10 0 2 0;
#X connect 11 0 9 0;
#X connect 11 0 4 0;
#X connect 11 0 10 0;
#X connect 12 0 9 0;
#X connect 13 0 12 0;
#X connect 13 1 14 0;
#X connect 13 2 0 1;
#X connect 14 0 4 0;
#X connect 14 0 10 0;
#X connect 15 0 57 0;
#X connect 16 0 25 0;
#X connect 16 0 27 0;
#X connect 16 0 29 0;
#X connect 16 0 31 0;
#X connect 18 0 19 0;
#X connect 20 0 21 0;
#X connect 21 0 23 0;
#X connect 21 1 24 0;
#X connect 22 0 49 0;
#X connect 22 1 50 0;
#X connect 22 2 51 0;
#X connect 22 3 52 0;
#X connect 23 0 48 0;
#X connect 24 0 47 1;
#X connect 25 0 106 0;
#X connect 26 0 41 0;
#X connect 27 0 107 0;
#X connect 28 0 40 0;
#X connect 29 0 108 0;
#X connect 30 0 42 0;
#X connect 31 0 109 0;
#X connect 32 0 43 0;
#X connect 33 0 34 0;
#X connect 34 0 26 0;
#X connect 34 1 28 0;
#X connect 34 2 30 0;
#X connect 34 3 32 0;
#X connect 35 0 34 0;
#X connect 36 0 25 1;
#X connect 37 0 27 1;
#X connect 38 0 29 1;
#X connect 39 0 31 1;
#X connect 40 0 37 0;
#X connect 41 0 36 0;
#X connect 42 0 38 0;
#X connect 43 0 39 0;
#X connect 44 0 16 0;
#X connect 46 0 15 0;
#X connect 47 0 45 0;
#X connect 48 0 47 0;
#X connect 48 1 22 0;
#X connect 53 0 78 0;
#X connect 54 0 79 0;
#X connect 55 0 80 0;
#X connect 56 0 81 0;
#X connect 57 0 91 0;
#X connect 57 1 92 0;
#X connect 57 2 92 0;
#X connect 57 3 93 0;
#X connect 57 4 102 0;
#X connect 57 5 101 0;
#X connect 58 0 33 0;
#X connect 59 0 110 0;
#X connect 60 0 35 0;
#X connect 61 0 111 0;
#X connect 62 0 63 0;
#X connect 63 0 65 1;
#X connect 63 1 66 1;
#X connect 63 2 64 1;
#X connect 64 0 67 0;
#X connect 65 0 67 0;
#X connect 66 0 67 0;
#X connect 67 0 76 0;
#X connect 68 0 69 0;
#X connect 69 0 75 0;
#X connect 70 0 71 0;
#X connect 71 0 72 0;
#X connect 72 0 73 0;
#X connect 72 0 73 1;
#X connect 73 0 74 0;
#X connect 74 0 69 1;
#X connect 75 0 65 0;
#X connect 75 0 66 0;
#X connect 75 0 64 0;
#X connect 77 0 63 0;
#X connect 78 0 2 1;
#X connect 79 0 2 1;
#X connect 80 0 2 1;
#X connect 81 0 2 1;
#X connect 83 0 13 0;
#X connect 84 0 16 1;
#X connect 85 0 84 0;
#X connect 86 0 94 0;
#X connect 87 0 86 0;
#X connect 88 0 13 0;
#X connect 89 0 13 0;
#X connect 89 0 105 0;
#X connect 90 0 13 0;
#X connect 91 0 83 0;
#X connect 91 1 95 0;
#X connect 92 0 88 0;
#X connect 92 1 105 0;
#X connect 93 0 89 0;
#X connect 94 0 84 0;
#X connect 95 0 86 1;
#X connect 96 0 97 1;
#X connect 97 0 99 0;
#X connect 98 0 97 0;
#X connect 99 0 100 0;
#X connect 101 0 90 0;
#X connect 101 1 104 0;
#X connect 102 0 11 0;
#X connect 102 1 103 0;
#X connect 103 0 86 1;
#X connect 104 0 86 1;
#X connect 105 0 86 1;
#X connect 110 0 34 0;
#X connect 111 0 34 0;
#X connect 112 0 113 0;
#X connect 113 0 114 0;
#X connect 114 0 119 0;
#X connect 116 0 117 0;
#X connect 116 1 118 0;
#X connect 117 0 113 1;
#X connect 117 0 114 1;
#X connect 118 0 113 2;
#X connect 118 0 114 2;
#X connect 119 0 115 0;
#X connect 120 0 149 0;
#X connect 121 0 148 0;
#X connect 122 0 147 0;
#X connect 123 0 150 0;
#X connect 124 0 174 0;
#X connect 124 1 134 0;
#X connect 125 0 124 0;
#X connect 126 0 130 0;
#X connect 127 0 131 0;
#X connect 128 0 127 1;
#X connect 129 0 127 0;
#X connect 129 1 128 0;
#X connect 130 0 133 0;
#X connect 130 1 133 0;
#X connect 130 2 133 0;
#X connect 130 3 133 0;
#X connect 130 4 133 0;
#X connect 130 5 129 0;
#X connect 131 0 142 0;
#X connect 131 1 136 0;
#X connect 132 0 146 0;
#X connect 133 0 132 0;
#X connect 134 0 135 0;
#X connect 135 0 119 1;
#X connect 136 0 140 0;
#X connect 138 0 176 0;
#X connect 139 0 138 1;
#X connect 139 0 176 1;
#X connect 139 1 138 2;
#X connect 139 1 176 2;
#X connect 140 0 177 0;
#X connect 140 1 178 0;
#X connect 140 2 180 0;
#X connect 140 3 179 0;
#X connect 140 4 177 0;
#X connect 142 0 181 0;
#X connect 142 1 145 0;
#X connect 143 0 138 0;
#X connect 144 0 141 0;
#X connect 145 0 146 0;
#X connect 146 0 144 1;
#X connect 147 0 116 0;
#X connect 148 0 116 0;
#X connect 149 0 116 0;
#X connect 150 0 116 0;
#X connect 151 0 172 0;
#X connect 153 0 152 0;
#X connect 154 0 157 0;
#X connect 155 0 156 0;
#X connect 156 0 153 1;
#X connect 157 0 182 0;
#X connect 157 1 155 0;
#X connect 158 0 175 0;
#X connect 160 0 159 0;
#X connect 161 0 164 0;
#X connect 162 0 163 0;
#X connect 163 0 160 1;
#X connect 164 0 187 0;
#X connect 164 1 162 0;
#X connect 165 0 183 0;
#X connect 167 0 166 0;
#X connect 168 0 171 0;
#X connect 169 0 170 0;
#X connect 170 0 167 1;
#X connect 171 0 186 0;
#X connect 171 1 169 0;
#X connect 172 0 173 0;
#X connect 173 0 153 0;
#X connect 174 0 119 1;
#X connect 175 0 185 0;
#X connect 176 0 144 0;
#X connect 177 0 139 0;
#X connect 178 0 139 0;
#X connect 179 0 139 0;
#X connect 180 0 139 0;
#X connect 181 0 146 0;
#X connect 182 0 153 1;
#X connect 183 0 184 0;
#X connect 184 0 167 0;
#X connect 185 0 160 0;
#X connect 186 0 167 1;
#X connect 187 0 160 1;
