#N canvas 615 53 877 780 10;
#X obj 259 179 bng 15 250 50 0 empty empty empty 17 7 0 10 -262144
-1 -1;
#X obj 259 347 sel 0;
#X obj 259 199 t b b;
#X floatatom 259 279 5 0 0 0 - - -;
#X obj 259 299 mod 4;
#X msg 259 230 1;
#X obj 258 258 +;
#X obj 287 231 f;
#X obj 257 115 tgl 15 0 empty empty empty 17 7 0 10 -262144 -1 -1 0
1;
#X floatatom 259 317 5 0 0 0 - - -;
#X msg 257 76 1;
#X msg 460 173 0;
#X symbolatom 329 44 10 0 0 0 - - -;
#X obj 58 14 tgl 15 0 empty empty empty 17 7 0 10 -262144 -1 -1 0 1
;
#X msg 58 34 \; pd dsp \$1;
#X obj 53 97 inlet;
#X obj 53 132 unpack s s;
#X obj 53 254 sel L B R T;
#X symbolatom 53 214 10 0 0 0 - - -;
#X symbolatom 110 153 10 0 0 0 - - -;
#X obj 445 533 *~;
#X floatatom 460 426 5 0 0 0 - - -;
#X obj 496 534 *~;
#X floatatom 511 425 5 0 0 0 - - -;
#X obj 547 533 *~;
#X floatatom 562 424 5 0 0 0 - - -;
#X obj 597 531 *~;
#X floatatom 612 423 5 0 0 0 - - -;
#X msg 477 376 1 0 0 0;
#X obj 477 400 unpack f f f f;
#X msg 514 335 0 0 1 0;
#X obj 460 471 line;
#X obj 511 470 line;
#X obj 562 469 line;
#X obj 612 468 line;
#X msg 511 447 \$1 100;
#X msg 460 448 \$1 100;
#X msg 562 446 \$1 100;
#X msg 612 445 \$1 100;
#X obj 811 501 throw~ \$0-audio;
#X obj 219 500 catch~ \$0-audio;
#X obj 112 210 s \$0-element;
#X obj 330 24 r \$0-element;
#X obj 109 172 symbol;
#X obj 53 234 t b s;
#X obj 53 338 s \$0-L;
#X obj 68 318 s \$0-B;
#X obj 84 299 s \$0-R;
#X obj 100 279 s \$0-T;
#X obj 296 290 r \$0-L;
#X obj 328 267 r \$0-B;
#X obj 359 289 r \$0-R;
#X obj 390 267 r \$0-T;
#X obj 329 73 sel H O OH NH2 -;
#X obj 477 287 r \$0-L;
#X obj 491 309 r \$0-B;
#X obj 522 287 r \$0-R;
#X obj 539 308 r \$0-T;
#X text 621 490 speaker control;
#X obj 718 51 r \$0-element;
#X obj 1156 362 r \$0-element;
#X obj 1249 484 s2l;
#X msg 1276 461 symbol;
#X obj 1249 434 t s b;
#X obj 1156 399 sel H O OH NH2 -;
#X obj 1249 511 unpack s f;
#X msg 1211 568 0;
#X obj 1211 549 bng 15 250 50 0 empty empty empty 17 7 0 10 -262144
-1 -1;
#X msg 296 319 1;
#X msg 328 319 2;
#X msg 359 318 3;
#X msg 390 318 0;
#X text 325 494 rhythm control;
#X floatatom 1306 533 5 0 0 0 - - -;
#X obj 1283 647 bng 15 250 50 0 empty empty empty 17 7 0 10 -262144
-1 -1;
#X obj 1231 661 bp~ 800 10;
#X obj 1287 698 unpack f f;
#X obj 1306 554 sel 0 1 2 3 4;
#X obj 1199 716 bp~ 800 10;
#X obj 1249 559 sel C;
#X obj 1232 623 noise~;
#X obj 1199 755 *~;
#X msg 1234 740 0 50;
#X obj 1234 761 line~;
#X msg 1274 742 0.8;
#X msg 1304 624 200 10;
#X msg 1334 597 210 10;
#X msg 1374 624 220 10;
#X msg 1343 653 230 10;
#X obj 252 470 vline~;
#X msg 347 393 0 10;
#X obj 252 409 list, f 7;
#X obj 252 377 bng 15 250 50 0 empty empty empty 17 7 0 10 -262144
-1 -1;
#X msg 251 434 \$1 \, 0 \$2 \$3;
#X msg 456 122 1 100 400;
#X msg 404 101 0 0 0, f 6;
#X msg 287 74 0;
#X obj 446 41 t b b b;
#X obj 460 194 t f f;
#X obj 331 179 t b b a b;
#X obj 407 608 throw~ K1;
#X obj 468 608 throw~ K2;
#X obj 531 609 throw~ K3;
#X obj 595 609 throw~ K4;
#X msg 491 357 0 1 0 0;
#X msg 539 377 0 0 0 1;
#X msg 311 106 1 600 0;
#X obj 645 230 noise~;
#X obj 700 262 *~;
#X obj 872 231 mtof;
#X obj 817 198 t b b f;
#X obj 902 334 sig~;
#X text 914 230 converts midi notes to hz;
#X obj 698 416 delwrite~ \$0-buffH 1000;
#X obj 817 177 f;
#X obj 700 157 r \$0-bang;
#X obj 186 397 s \$0-bang;
#X obj 717 73 sel H O OH NH2 -;
#X msg 968 109 0 0;
#X obj 259 156 metro 800;
#X obj 901 459 *~ 0.5;
#X obj 234 518 *~;
#X obj 61 453 tgl 15 0 empty empty empty 17 7 0 10 -262144 -1 -1 0
1;
#X obj 55 515 bng 15 250 50 0 empty empty empty 17 7 0 10 -262144 -1
-1;
#X floatatom 103 576 5 0 0 0 - - -;
#X msg 104 624 0;
#X msg 138 625 1;
#X obj 99 542 counter 0 3;
#X obj 105 596 sel 3 0;
#X msg 62 429 1;
#X obj 144 428 gate 2;
#X obj 56 484 metro 150;
#X msg 162 361 1;
#X msg 195 362 2;
#X obj 201 122 sel H;
#X msg 355 119 0.8 200 300;
#X msg 12 566 0.8 0 \, 0 10 120;
#X obj 902 379 *~ 0.9;
#X obj 902 358 delread4~ \$0-buffH;
#X obj 902 400 lop~ 5000;
#X obj 701 208 bng 15 250 50 0 empty empty empty 17 7 0 10 -262144
-1 -1;
#X floatatom 851 336 5 0 0 0 - - -;
#X obj 871 315 /;
#X msg 871 278 1000;
#X obj 872 253 t b f;
#X obj 701 228 else/adsr~ 1.2 1 0 0;
#X obj 819 144 unpack f f f;
#X msg 717 109 66 3 0.6;
#X msg 780 109 25 45 200;
#X msg 839 109 28 45 200;
#X msg 1000 106 51 100 200;
#X msg 896 109 42 100 350;
#X connect 0 0 2 0;
#X connect 1 0 92 0;
#X connect 1 1 90 0;
#X connect 2 0 5 0;
#X connect 2 1 7 0;
#X connect 3 0 4 0;
#X connect 3 0 7 1;
#X connect 4 0 9 0;
#X connect 5 0 6 0;
#X connect 6 0 3 0;
#X connect 7 0 6 1;
#X connect 8 0 119 0;
#X connect 9 0 1 0;
#X connect 10 0 8 0;
#X connect 11 0 98 0;
#X connect 12 0 53 0;
#X connect 12 0 134 0;
#X connect 13 0 14 0;
#X connect 15 0 16 0;
#X connect 16 0 18 0;
#X connect 16 1 19 0;
#X connect 17 0 45 0;
#X connect 17 1 46 0;
#X connect 17 2 47 0;
#X connect 17 3 48 0;
#X connect 18 0 44 0;
#X connect 19 0 43 1;
#X connect 20 0 100 0;
#X connect 21 0 36 0;
#X connect 22 0 101 0;
#X connect 23 0 35 0;
#X connect 24 0 102 0;
#X connect 25 0 37 0;
#X connect 26 0 103 0;
#X connect 27 0 38 0;
#X connect 28 0 29 0;
#X connect 29 0 21 0;
#X connect 29 1 23 0;
#X connect 29 2 25 0;
#X connect 29 3 27 0;
#X connect 30 0 29 0;
#X connect 31 0 20 1;
#X connect 32 0 22 1;
#X connect 33 0 24 1;
#X connect 34 0 26 1;
#X connect 35 0 32 0;
#X connect 36 0 31 0;
#X connect 37 0 33 0;
#X connect 38 0 34 0;
#X connect 40 0 121 0;
#X connect 42 0 12 0;
#X connect 43 0 41 0;
#X connect 44 0 43 0;
#X connect 44 1 17 0;
#X connect 49 0 68 0;
#X connect 50 0 69 0;
#X connect 51 0 70 0;
#X connect 52 0 71 0;
#X connect 53 0 106 0;
#X connect 53 1 135 0;
#X connect 53 2 135 0;
#X connect 53 3 135 0;
#X connect 53 4 97 0;
#X connect 53 5 94 0;
#X connect 54 0 28 0;
#X connect 55 0 104 0;
#X connect 56 0 30 0;
#X connect 57 0 105 0;
#X connect 59 0 117 0;
#X connect 60 0 64 0;
#X connect 61 0 65 0;
#X connect 62 0 61 1;
#X connect 63 0 61 0;
#X connect 63 1 62 0;
#X connect 64 0 67 0;
#X connect 64 1 67 0;
#X connect 64 2 67 0;
#X connect 64 3 67 0;
#X connect 64 4 67 0;
#X connect 64 5 63 0;
#X connect 65 0 79 0;
#X connect 65 1 73 0;
#X connect 66 0 83 0;
#X connect 67 0 66 0;
#X connect 68 0 1 1;
#X connect 69 0 1 1;
#X connect 70 0 1 1;
#X connect 71 0 1 1;
#X connect 73 0 77 0;
#X connect 75 0 78 0;
#X connect 76 0 75 1;
#X connect 76 0 78 1;
#X connect 76 1 75 2;
#X connect 76 1 78 2;
#X connect 77 0 85 0;
#X connect 77 1 86 0;
#X connect 77 2 88 0;
#X connect 77 3 87 0;
#X connect 77 4 85 0;
#X connect 78 0 81 0;
#X connect 79 0 84 0;
#X connect 79 1 82 0;
#X connect 80 0 75 0;
#X connect 82 0 83 0;
#X connect 83 0 81 1;
#X connect 84 0 83 0;
#X connect 85 0 76 0;
#X connect 86 0 76 0;
#X connect 87 0 76 0;
#X connect 88 0 76 0;
#X connect 89 0 121 1;
#X connect 90 0 89 0;
#X connect 91 0 93 0;
#X connect 92 0 116 0;
#X connect 92 0 130 1;
#X connect 93 0 89 0;
#X connect 94 0 99 0;
#X connect 95 0 91 1;
#X connect 96 0 8 0;
#X connect 97 0 11 0;
#X connect 97 1 96 0;
#X connect 97 2 95 0;
#X connect 98 0 9 0;
#X connect 98 1 3 0;
#X connect 99 0 10 0;
#X connect 99 1 11 0;
#X connect 99 2 91 1;
#X connect 99 3 96 0;
#X connect 104 0 29 0;
#X connect 105 0 29 0;
#X connect 106 0 99 0;
#X connect 107 0 108 0;
#X connect 108 0 113 0;
#X connect 109 0 144 0;
#X connect 110 2 109 0;
#X connect 111 0 138 0;
#X connect 114 0 110 0;
#X connect 115 0 114 0;
#X connect 115 0 140 0;
#X connect 117 0 147 0;
#X connect 117 1 148 0;
#X connect 117 2 149 0;
#X connect 117 3 151 0;
#X connect 117 4 118 0;
#X connect 117 5 150 0;
#X connect 118 0 146 0;
#X connect 119 0 0 0;
#X connect 120 0 39 0;
#X connect 121 0 20 0;
#X connect 121 0 22 0;
#X connect 121 0 24 0;
#X connect 121 0 26 0;
#X connect 122 0 131 0;
#X connect 123 0 127 0;
#X connect 123 0 136 0;
#X connect 124 0 128 0;
#X connect 125 0 122 0;
#X connect 126 0 122 0;
#X connect 127 0 124 0;
#X connect 128 0 125 0;
#X connect 128 1 126 0;
#X connect 129 0 122 0;
#X connect 130 0 129 0;
#X connect 130 1 91 0;
#X connect 131 0 123 0;
#X connect 132 0 130 0;
#X connect 133 0 130 0;
#X connect 134 0 132 0;
#X connect 134 1 133 0;
#X connect 135 0 99 0;
#X connect 136 0 89 0;
#X connect 137 0 139 0;
#X connect 138 0 137 0;
#X connect 139 0 113 0;
#X connect 139 0 120 0;
#X connect 140 0 145 0;
#X connect 142 0 141 0;
#X connect 142 0 111 0;
#X connect 143 0 142 0;
#X connect 144 0 143 0;
#X connect 144 1 142 1;
#X connect 145 0 108 1;
#X connect 146 0 114 1;
#X connect 146 1 145 1;
#X connect 146 2 145 2;
#X connect 147 0 146 0;
#X connect 148 0 146 0;
#X connect 149 0 146 0;
#X connect 150 0 146 0;
#X connect 151 0 146 0;
