#N canvas -273 43 1108 771 10;
#X obj 259 179 bng 15 250 50 0 empty empty empty 17 7 0 10 -262144
-1 -1;
#X obj 260 369 sel 0;
#X obj 259 199 t b b;
#X floatatom 259 279 5 0 0 0 - - -;
#X msg 259 230 1;
#X obj 258 258 +;
#X obj 287 231 f;
#X obj 257 115 tgl 15 0 empty empty empty 17 7 0 10 -262144 -1 -1 0
1;
#X floatatom 259 317 5 0 0 0 - - -;
#X msg 257 76 1;
#X msg 416 201 0;
#X symbolatom 327 23 10 0 0 0 - - -;
#X obj 1247 639 noise~;
#X obj 1247 668 bp~ 1400 8;
#X obj 1247 689 bp~ 1400 8;
#X obj 53 97 inlet;
#X obj 53 132 unpack s s;
#X obj 53 254 sel L B R T;
#X symbolatom 53 214 10 0 0 0 - - -;
#X symbolatom 110 153 10 0 0 0 - - -;
#X obj 105 697 *~;
#X floatatom 120 590 5 0 0 0 - - -;
#X obj 156 698 *~;
#X floatatom 171 589 5 0 0 0 - - -;
#X obj 207 697 *~;
#X floatatom 222 588 5 0 0 0 - - -;
#X obj 257 695 *~;
#X floatatom 272 587 5 0 0 0 - - -;
#X msg 137 540 1 0 0 0;
#X obj 137 564 unpack f f f f;
#X msg 174 499 0 0 1 0;
#X obj 120 635 line;
#X obj 171 634 line;
#X obj 222 633 line;
#X obj 272 632 line;
#X msg 171 611 \$1 100;
#X msg 120 612 \$1 100;
#X msg 222 610 \$1 100;
#X msg 272 609 \$1 100;
#X obj 17 614 catch~ \$0-audio;
#X obj 112 210 s \$0-element;
#X obj 327 -2 r \$0-element;
#X obj 1337 640 unpack f f;
#X floatatom 1337 669 5 0 0 0 - - -;
#X floatatom 1394 669 5 0 0 0 - - -;
#X obj 109 172 symbol;
#X obj 53 234 t b s;
#X obj 53 338 s \$0-L;
#X obj 68 318 s \$0-B;
#X obj 84 299 s \$0-R;
#X obj 100 279 s \$0-T;
#X obj 296 290 r \$0-L;
#X obj 328 267 r \$0-B;
#X obj 359 289 r \$0-R;
#X obj 390 267 r \$0-T;
#X obj 324 46 sel H O OH NH2 -;
#X obj 137 451 r \$0-L;
#X obj 151 473 r \$0-B;
#X obj 182 451 r \$0-R;
#X obj 199 472 r \$0-T;
#X text 281 654 speaker control;
#X obj 1337 570 r \$0-L;
#X obj 1366 547 r \$0-B;
#X obj 1397 569 r \$0-R;
#X obj 1428 547 r \$0-T;
#X obj 1249 554 sel H;
#X obj 1249 529 r \$0-element;
#X obj 1257 37 r \$0-element;
#X obj 1350 159 s2l;
#X msg 1377 136 symbol;
#X obj 1350 109 t s b;
#X obj 1257 74 sel H O OH NH2 -;
#X obj 1350 186 unpack s f;
#X msg 1312 243 0;
#X obj 1312 224 bng 15 250 50 0 empty empty empty 17 7 0 10 -262144
-1 -1;
#X msg 1295 596 0 10;
#X msg 296 319 1;
#X msg 328 319 2;
#X msg 359 318 3;
#X msg 390 318 0;
#X floatatom 1407 208 5 0 0 0 - - -;
#X obj 1407 229 sel 0 1 2 3 4;
#X obj 1329 435 throw~ \$0-audio;
#X obj 1350 234 sel C;
#X msg 1396 615 2300 8;
#X msg 1362 590 2250 8;
#X msg 1405 299 200 10;
#X msg 1435 272 210 10;
#X msg 1475 299 220 10;
#X msg 1444 328 230 10;
#X msg 1249 596 0.3;
#X msg 1337 615 2200 8;
#X msg 1422 592 2350 8;
#X msg 356 387 0 10;
#X obj 260 398 bng 15 250 50 0 empty empty empty 17 7 0 10 -262144
-1 -1;
#X msg 287 74 0;
#X obj 458 44 t b b b;
#X obj 460 194 t f f;
#X obj 332 195 t b b a b;
#X obj 67 772 throw~ K1;
#X obj 128 772 throw~ K2;
#X obj 191 773 throw~ K3;
#X obj 255 773 throw~ K4;
#X msg 151 521 0 1 0 0;
#X msg 199 541 0 0 0 1;
#X text 797 312 1) smaller number with high frequency;
#X obj 740 705 throw~ \$0-audio;
#X obj 260 418 s \$0-bang;
#X obj 59 652 *~ 0.8;
#X obj 873 620 *~ 1000;
#X obj 873 641 clip~ -0.6 0.6;
#X obj 795 565 bp~ 1 1;
#X obj 873 565 bp~ 1 1;
#X obj 940 566 bp~ 1 1;
#X obj 1010 566 bp~ 1 1;
#X obj 790 497 hip~ 200;
#X obj 795 588 *~ 0.8;
#X obj 873 586 *~ 0.6;
#X obj 940 587 *~ 0.4;
#X obj 1010 587 *~ 0.4;
#X msg 958 196 60 100 200 600 40;
#X text 485 246 220 330 460 800 100;
#X obj 259 299 mod 8;
#X obj 873 677 *~ 3;
#X msg 460 319 0;
#X msg 489 320 1;
#X msg 520 321 2;
#X obj 466 353 s \$0-pattern;
#X obj 327 75 t b b;
#X obj 363 76 t b b;
#X obj 401 76 t b b;
#X obj 479 78 t b b;
#X obj 441 78 t b b;
#X obj 236 142 metro 4000;
#X obj 570 599 *~;
#X obj 585 574 pink~;
#X obj 570 620 *~ 0.2;
#X obj 570 418 noise~;
#X obj 570 448 >~ 0.998;
#X obj 570 522 *~;
#X obj 760 353 sel 0 1 2;
#X msg 772 433 0;
#X msg 738 391 1;
#X floatatom 902 385 5 0 0 0 - - -;
#X floatatom 918 674 5 0 0 0 - - -;
#X text 962 673 volume seperate control;
#X obj 632 417 brown~;
#X obj 696 418 pink~;
#X obj 632 522 *~;
#X obj 693 520 *~;
#X obj 875 706 dac~;
#X obj 438 543 gate 2;
#X obj 587 501 line;
#X msg 587 481 \$1 10;
#X obj 649 500 line;
#X msg 649 480 \$1 10;
#X obj 711 501 line;
#X msg 711 481 \$1 10;
#X msg 789 459 1;
#X msg 817 459 0;
#X msg 820 436 1;
#X msg 848 436 0;
#X obj 904 362 unpack f f f f f f f;
#X msg 355 130 1 50 80 160 300 100 8;
#X msg 330 100 0 359 426 1748 3000 123 1.5;
#X msg 377 156 2 50 100 120 300 100 4;
#X msg 860 413 0;
#X msg 530 73 0 0 0 0 0 0 0;
#X msg 568 216 1 220 300 410 600 100 5;
#X msg 570 165 2 60 120 200 450 200 6;
#X obj 696 447 >~ 0.5998;
#X obj 632 449 >~ 0.9996;
#X connect 0 0 2 0;
#X connect 1 0 94 0;
#X connect 1 1 93 0;
#X connect 2 0 4 0;
#X connect 2 1 6 0;
#X connect 3 0 6 1;
#X connect 3 0 122 0;
#X connect 4 0 5 0;
#X connect 5 0 3 0;
#X connect 6 0 5 1;
#X connect 7 0 133 0;
#X connect 8 0 1 0;
#X connect 9 0 7 0;
#X connect 10 0 97 0;
#X connect 11 0 55 0;
#X connect 12 0 13 0;
#X connect 13 0 14 0;
#X connect 15 0 16 0;
#X connect 16 0 18 0;
#X connect 16 1 19 0;
#X connect 17 0 47 0;
#X connect 17 1 48 0;
#X connect 17 2 49 0;
#X connect 17 3 50 0;
#X connect 18 0 46 0;
#X connect 19 0 45 1;
#X connect 20 0 99 0;
#X connect 21 0 36 0;
#X connect 22 0 100 0;
#X connect 23 0 35 0;
#X connect 24 0 101 0;
#X connect 25 0 37 0;
#X connect 26 0 102 0;
#X connect 27 0 38 0;
#X connect 28 0 29 0;
#X connect 29 0 21 0;
#X connect 29 1 23 0;
#X connect 29 2 25 0;
#X connect 29 3 27 0;
#X connect 30 0 29 0;
#X connect 31 0 20 1;
#X connect 32 0 22 1;
#X connect 33 0 24 1;
#X connect 34 0 26 1;
#X connect 35 0 32 0;
#X connect 36 0 31 0;
#X connect 37 0 33 0;
#X connect 38 0 34 0;
#X connect 39 0 108 0;
#X connect 41 0 11 0;
#X connect 42 0 43 0;
#X connect 42 1 44 0;
#X connect 43 0 13 1;
#X connect 43 0 14 1;
#X connect 44 0 13 2;
#X connect 44 0 14 2;
#X connect 45 0 40 0;
#X connect 46 0 45 0;
#X connect 46 1 17 0;
#X connect 51 0 76 0;
#X connect 52 0 77 0;
#X connect 53 0 78 0;
#X connect 54 0 79 0;
#X connect 55 0 128 0;
#X connect 55 1 129 0;
#X connect 55 2 130 0;
#X connect 55 3 132 0;
#X connect 55 4 96 0;
#X connect 55 5 131 0;
#X connect 56 0 28 0;
#X connect 57 0 103 0;
#X connect 58 0 30 0;
#X connect 59 0 104 0;
#X connect 61 0 91 0;
#X connect 62 0 85 0;
#X connect 63 0 84 0;
#X connect 64 0 92 0;
#X connect 65 0 90 0;
#X connect 65 1 75 0;
#X connect 66 0 65 0;
#X connect 67 0 71 0;
#X connect 68 0 72 0;
#X connect 69 0 68 1;
#X connect 70 0 68 0;
#X connect 70 1 69 0;
#X connect 71 0 74 0;
#X connect 71 1 74 0;
#X connect 71 2 74 0;
#X connect 71 3 74 0;
#X connect 71 4 74 0;
#X connect 71 5 70 0;
#X connect 72 0 83 0;
#X connect 72 1 80 0;
#X connect 74 0 73 0;
#X connect 76 0 1 1;
#X connect 77 0 1 1;
#X connect 78 0 1 1;
#X connect 79 0 1 1;
#X connect 80 0 81 0;
#X connect 81 0 86 0;
#X connect 81 1 87 0;
#X connect 81 2 89 0;
#X connect 81 3 88 0;
#X connect 81 4 86 0;
#X connect 84 0 42 0;
#X connect 85 0 42 0;
#X connect 91 0 42 0;
#X connect 92 0 42 0;
#X connect 94 0 107 0;
#X connect 95 0 7 0;
#X connect 96 0 10 0;
#X connect 96 1 95 0;
#X connect 96 2 167 0;
#X connect 97 0 8 0;
#X connect 97 1 3 0;
#X connect 98 0 9 0;
#X connect 98 1 10 0;
#X connect 98 2 162 0;
#X connect 98 3 95 0;
#X connect 103 0 29 0;
#X connect 104 0 29 0;
#X connect 108 0 20 0;
#X connect 108 0 22 0;
#X connect 108 0 24 0;
#X connect 108 0 26 0;
#X connect 109 0 110 0;
#X connect 110 0 123 0;
#X connect 111 0 116 0;
#X connect 112 0 117 0;
#X connect 113 0 118 0;
#X connect 114 0 119 0;
#X connect 115 0 111 0;
#X connect 115 0 112 0;
#X connect 115 0 113 0;
#X connect 115 0 114 0;
#X connect 116 0 109 0;
#X connect 117 0 109 0;
#X connect 118 0 109 0;
#X connect 119 0 109 0;
#X connect 122 0 8 0;
#X connect 123 0 106 0;
#X connect 124 0 127 0;
#X connect 125 0 127 0;
#X connect 126 0 127 0;
#X connect 128 0 164 0;
#X connect 128 1 124 0;
#X connect 129 0 163 0;
#X connect 129 1 126 0;
#X connect 130 0 165 0;
#X connect 130 1 126 0;
#X connect 131 0 168 0;
#X connect 131 1 125 0;
#X connect 132 0 169 0;
#X connect 132 1 126 0;
#X connect 134 0 136 0;
#X connect 135 0 134 1;
#X connect 136 0 115 0;
#X connect 137 0 138 0;
#X connect 138 0 139 0;
#X connect 139 0 134 0;
#X connect 140 0 142 0;
#X connect 140 0 141 0;
#X connect 140 1 158 0;
#X connect 140 1 159 0;
#X connect 140 2 160 0;
#X connect 140 2 161 0;
#X connect 140 3 166 0;
#X connect 141 0 155 0;
#X connect 141 0 157 0;
#X connect 142 0 153 0;
#X connect 143 0 140 0;
#X connect 144 0 123 1;
#X connect 146 0 171 0;
#X connect 147 0 170 0;
#X connect 148 0 134 0;
#X connect 149 0 134 0;
#X connect 152 0 139 1;
#X connect 153 0 152 0;
#X connect 154 0 148 1;
#X connect 155 0 154 0;
#X connect 156 0 149 1;
#X connect 157 0 156 0;
#X connect 158 0 155 0;
#X connect 159 0 153 0;
#X connect 159 0 157 0;
#X connect 160 0 157 0;
#X connect 161 0 155 0;
#X connect 161 0 153 0;
#X connect 162 0 143 0;
#X connect 162 1 111 1;
#X connect 162 2 112 1;
#X connect 162 3 113 1;
#X connect 162 4 114 1;
#X connect 162 5 111 2;
#X connect 162 5 112 2;
#X connect 162 5 113 2;
#X connect 162 5 114 2;
#X connect 162 6 144 0;
#X connect 163 0 98 0;
#X connect 164 0 98 0;
#X connect 165 0 98 0;
#X connect 166 0 153 0;
#X connect 166 0 155 0;
#X connect 166 0 157 0;
#X connect 167 0 162 0;
#X connect 168 0 98 0;
#X connect 169 0 98 0;
#X connect 170 0 149 0;
#X connect 171 0 148 0;
