#N canvas 538 23 881 814 10;
#X obj 58 14 tgl 15 0 empty empty empty 17 7 0 10 -262144 -1 -1 0 1
;
#X msg 58 34 \; pd dsp \$1;
#X obj 53 97 inlet;
#X obj 53 132 unpack s s;
#X obj 53 254 sel L B R T;
#X symbolatom 53 214 10 0 0 0 - - -, f 10;
#X symbolatom 110 153 10 0 0 0 - - -, f 10;
#X obj 314 785 *~;
#X floatatom 329 678 5 0 0 0 - - -, f 5;
#X obj 365 786 *~;
#X floatatom 380 677 5 0 0 0 - - -, f 5;
#X obj 416 785 *~;
#X floatatom 431 676 5 0 0 0 - - -, f 5;
#X obj 466 783 *~;
#X floatatom 481 675 5 0 0 0 - - -, f 5;
#X msg 346 628 1 0 0 0;
#X obj 346 652 unpack f f f f;
#X msg 383 587 0 0 1 0;
#X obj 329 723 line;
#X obj 380 722 line;
#X obj 431 721 line;
#X obj 481 720 line;
#X msg 380 699 \$1 100;
#X msg 329 700 \$1 100;
#X msg 431 698 \$1 100;
#X msg 481 697 \$1 100;
#X msg 408 629 0 0.7 0 0.3;
#X msg 360 609 0 0.3 0 0.7;
#X obj 741 287 throw~ \$0-audio;
#X obj 129 237 s \$0-element;
#X obj 126 199 symbol;
#X obj 53 234 t b s;
#X obj 53 338 s \$0-L;
#X obj 68 318 s \$0-B;
#X obj 84 299 s \$0-R;
#X obj 100 279 s \$0-T;
#X obj 741 262 *~;
#X obj 346 539 r \$0-L;
#X obj 360 561 r \$0-B;
#X obj 391 539 r \$0-R;
#X obj 408 560 r \$0-T;
#X text 490 742 speaker control;
#X obj 831 62 r \$0-L;
#X obj 860 39 r \$0-B;
#X obj 891 61 r \$0-R;
#X obj 922 39 r \$0-T;
#X obj 697 42 sel H;
#X obj 697 17 r \$0-element;
#X obj 741 335 r \$0-element;
#X obj 834 457 s2l;
#X msg 861 434 symbol;
#X obj 741 372 sel H O OH NH2 -;
#X obj 834 484 unpack s f;
#X msg 796 541 0;
#X obj 796 522 bng 15 250 50 0 empty empty empty 17 7 0 10 -262144
-1 -1;
#X msg 776 108 0 10;
#X obj 784 238 line;
#X text 325 494 rhythm control;
#X floatatom 928 501 5 0 0 0 - - -, f 5;
#X obj 928 522 sel 0 1 2 3 4;
#X obj 820 836 throw~ \$0-audio;
#X obj 834 532 sel C;
#X obj 823 801 *~;
#X msg 856 740 0 50;
#X obj 856 778 line~;
#X msg 896 742 0.8;
#X obj 276 860 throw~ K1;
#X obj 337 860 throw~ K2;
#X obj 400 861 throw~ K3;
#X obj 464 861 throw~ K4;
#X obj 625 200 readsf~;
#X obj 747 69 t b b;
#X msg 754 162 0;
#X obj 746 88 delay 10;
#X obj 686 63 t b b;
#X msg 697 84 0.7;
#X obj 829 158 f;
#X msg 831 129 1;
#X msg 864 128 2;
#X msg 897 128 3;
#X msg 929 127 4;
#X msg 623 117 1;
#X obj 835 561 t b b;
#X obj 854 582 t b b;
#X obj 764 776 readsf~;
#X obj 737 643 f;
#X msg 922 581 1;
#X msg 953 582 2;
#X msg 982 582 3;
#X msg 1013 585 4;
#X obj 1085 316 throw~ \$0-audio;
#X obj 1085 291 *~;
#X obj 1074 33 r \$0-element;
#X msg 1174 127 0 10;
#X obj 1172 275 line;
#X obj 1080 233 readsf~;
#X obj 1135 88 t b b;
#X msg 1144 154 0;
#X obj 1134 107 delay 10;
#X obj 1074 82 t b b;
#X msg 1085 103 0.7;
#X obj 1074 58 sel O;
#X msg 622 162;
#X msg 622 141 set open lib/H\$1.wav \, 1;
#X obj 552 108 bng 15 250 50 0 empty empty empty 17 7 0 10 -262144
-1 -1;
#X obj 735 107 t b b;
#X msg 735 129 set;
#X obj 553 85 r \$0-bang-sample;
#X obj 1134 128 t b b;
#X msg 1075 148 set;
#X msg 1080 176 set open lib/O1.wav \, 1;
#X msg 986 249;
#X obj 969 175 bng 15 250 50 0 empty empty empty 17 7 0 10 -262144
-1 -1;
#X obj 969 149 r \$0-bang-sample;
#X obj 1371 326 throw~ \$0-audio;
#X obj 1371 301 *~;
#X obj 1360 43 r \$0-element;
#X msg 1460 137 0 10;
#X obj 1458 285 line;
#X obj 1366 243 readsf~;
#X obj 1421 98 t b b;
#X msg 1430 164 0;
#X obj 1420 117 delay 10;
#X obj 1360 92 t b b;
#X msg 1371 113 0.7;
#X obj 1420 138 t b b;
#X msg 1326 159 set;
#X msg 1272 259;
#X obj 1247 146 bng 15 250 50 0 empty empty empty 17 7 0 10 -262144
-1 -1;
#X obj 1247 120 r \$0-bang-sample;
#X msg 1366 186 set open lib/O2.wav \, 1;
#X obj 1360 68 sel OH;
#X obj 1285 723 throw~ \$0-audio;
#X obj 1285 698 *~;
#X obj 1274 440 r \$0-element;
#X msg 1374 534 0 10;
#X obj 1372 682 line;
#X obj 1280 640 readsf~;
#X obj 1335 495 t b b;
#X msg 1344 561 0;
#X obj 1334 514 delay 10;
#X obj 1274 489 t b b;
#X msg 1285 510 0.7;
#X obj 1334 535 t b b;
#X msg 1228 553 set;
#X msg 1188 610;
#X obj 1124 508 bng 15 250 50 0 empty empty empty 17 7 0 10 -262144
-1 -1;
#X obj 1124 482 r \$0-bang-sample;
#X obj 1274 465 sel NH2;
#X msg 1280 583 set open lib/N1.wav \, 1;
#X msg 678 746 open lib/C2.wav;
#X msg 734 694 set open lib/C\$1.wav \, 1;
#X obj 840 652 delay 50;
#X obj 837 673 t b b;
#X msg 806 730 0;
#X msg 776 718 set;
#X obj 606 665 bng 15 250 50 0 empty empty empty 17 7 0 10 -262144
-1 -1;
#X obj 601 615 r \$0-bang-sample;
#X obj 280 456 s \$0-bang-sample;
#X obj 233 535 catch~ \$0-audio;
#X obj 606 685 t b b;
#X msg 665 708 1;
#X obj 834 407 t s b;
#X obj 1124 528 t b b;
#X msg 1124 549 1;
#X obj 1247 166 t b b;
#X msg 1247 187 1;
#X obj 969 195 t b b;
#X msg 969 216 1;
#X obj 552 128 t b b;
#X msg 552 149 1;
#X symbolatom 189 196 10 0 0 0 - - -, f 10;
#X obj 625 221 dac~;
#X obj 280 200 metro 200;
#X obj 280 223 bng 15 250 50 0 empty empty empty 17 7 0 10 -262144
-1 -1;
#X obj 280 397 sel 0;
#X obj 280 243 t b b;
#X floatatom 280 323 5 0 0 0 - - -, f 5;
#X obj 280 343 mod 4;
#X msg 280 274 1;
#X obj 279 302 +;
#X obj 308 275 f;
#X obj 280 174 tgl 15 0 empty empty empty 17 7 0 10 -262144 -1 -1 0
1;
#X floatatom 280 361 5 0 0 0 - - -, f 5;
#X msg 442 151 0, f 2;
#X msg 353 210 1;
#X obj 352 189 t b b f;
#X msg 382 211 0;
#X symbolatom 353 46 10 0 0 0 - - -, f 10;
#X obj 353 21 r \$0-element;
#X obj 317 334 r \$0-L;
#X obj 349 311 r \$0-B;
#X obj 380 333 r \$0-R;
#X obj 411 311 r \$0-T;
#X obj 353 69 sel H O OH NH2 -;
#X msg 317 363 1;
#X msg 349 363 2;
#X msg 380 362 3;
#X msg 411 362 0;
#X msg 355 151 100;
#X msg 376 415 0 10;
#X obj 280 416 bng 15 250 50 0 empty empty empty 17 7 0 10 -262144
-1 -1;
#X msg 383 148 800;
#X msg 412 152 600;
#X msg 464 149 800;
#X obj 356 95 t b b;
#X obj 373 119 t b b;
#X obj 411 99 t b b;
#X msg 399 239 1 20 0;
#X obj 454 92 t b b;
#X obj 426 123 t b b;
#X msg 486 210 0 0 0;
#X msg 513 238 1 200 500;
#X msg 445 237 0.5 250 400;
#X connect 0 0 1 0;
#X connect 2 0 3 0;
#X connect 3 0 5 0;
#X connect 3 1 6 0;
#X connect 4 0 32 0;
#X connect 4 1 33 0;
#X connect 4 2 34 0;
#X connect 4 3 35 0;
#X connect 5 0 31 0;
#X connect 6 0 30 1;
#X connect 7 0 66 0;
#X connect 8 0 23 0;
#X connect 9 0 67 0;
#X connect 10 0 22 0;
#X connect 11 0 68 0;
#X connect 12 0 24 0;
#X connect 13 0 69 0;
#X connect 14 0 25 0;
#X connect 15 0 16 0;
#X connect 16 0 8 0;
#X connect 16 1 10 0;
#X connect 16 2 12 0;
#X connect 16 3 14 0;
#X connect 17 0 16 0;
#X connect 18 0 7 1;
#X connect 19 0 9 1;
#X connect 20 0 11 1;
#X connect 21 0 13 1;
#X connect 22 0 19 0;
#X connect 23 0 18 0;
#X connect 24 0 20 0;
#X connect 25 0 21 0;
#X connect 26 0 16 0;
#X connect 27 0 16 0;
#X connect 30 0 29 0;
#X connect 31 0 30 0;
#X connect 31 1 4 0;
#X connect 36 0 28 0;
#X connect 37 0 15 0;
#X connect 38 0 27 0;
#X connect 39 0 17 0;
#X connect 40 0 26 0;
#X connect 42 0 77 0;
#X connect 43 0 78 0;
#X connect 44 0 79 0;
#X connect 45 0 80 0;
#X connect 46 0 74 0;
#X connect 46 1 71 0;
#X connect 47 0 46 0;
#X connect 48 0 51 0;
#X connect 49 0 52 0;
#X connect 50 0 49 1;
#X connect 51 0 54 0;
#X connect 51 1 54 0;
#X connect 51 2 54 0;
#X connect 51 3 54 0;
#X connect 51 4 54 0;
#X connect 51 5 162 0;
#X connect 52 0 61 0;
#X connect 52 1 58 0;
#X connect 53 0 64 0;
#X connect 53 0 84 0;
#X connect 54 0 53 0;
#X connect 55 0 56 0;
#X connect 56 0 36 1;
#X connect 58 0 59 0;
#X connect 59 0 86 0;
#X connect 59 1 87 0;
#X connect 59 2 88 0;
#X connect 59 3 89 0;
#X connect 59 4 86 0;
#X connect 61 0 82 0;
#X connect 61 1 83 0;
#X connect 62 0 60 0;
#X connect 63 0 64 0;
#X connect 64 0 62 1;
#X connect 65 0 64 0;
#X connect 70 0 36 0;
#X connect 70 0 172 0;
#X connect 71 0 73 0;
#X connect 71 1 55 0;
#X connect 72 0 70 0;
#X connect 73 0 105 0;
#X connect 74 0 76 0;
#X connect 74 0 81 0;
#X connect 74 1 75 0;
#X connect 75 0 36 1;
#X connect 77 0 76 1;
#X connect 78 0 76 1;
#X connect 79 0 76 1;
#X connect 80 0 76 1;
#X connect 81 0 103 0;
#X connect 82 0 85 0;
#X connect 82 1 65 0;
#X connect 83 0 152 0;
#X connect 83 1 63 0;
#X connect 84 0 62 0;
#X connect 85 0 151 0;
#X connect 86 0 85 1;
#X connect 87 0 85 1;
#X connect 88 0 85 1;
#X connect 89 0 85 1;
#X connect 91 0 90 0;
#X connect 92 0 101 0;
#X connect 93 0 94 0;
#X connect 94 0 91 1;
#X connect 95 0 91 0;
#X connect 96 0 98 0;
#X connect 96 1 93 0;
#X connect 97 0 95 0;
#X connect 98 0 108 0;
#X connect 99 0 110 0;
#X connect 99 1 100 0;
#X connect 100 0 91 1;
#X connect 101 0 99 0;
#X connect 101 1 96 0;
#X connect 102 0 70 0;
#X connect 103 0 102 0;
#X connect 104 0 169 0;
#X connect 105 0 106 0;
#X connect 105 1 72 0;
#X connect 106 0 102 0;
#X connect 107 0 104 0;
#X connect 108 0 109 0;
#X connect 108 1 97 0;
#X connect 109 0 111 0;
#X connect 110 0 111 0;
#X connect 111 0 95 0;
#X connect 112 0 167 0;
#X connect 113 0 112 0;
#X connect 115 0 114 0;
#X connect 116 0 131 0;
#X connect 117 0 118 0;
#X connect 118 0 115 1;
#X connect 119 0 115 0;
#X connect 120 0 122 0;
#X connect 120 1 117 0;
#X connect 121 0 119 0;
#X connect 122 0 125 0;
#X connect 123 0 130 0;
#X connect 123 1 124 0;
#X connect 124 0 115 1;
#X connect 125 0 126 0;
#X connect 125 1 121 0;
#X connect 126 0 127 0;
#X connect 127 0 119 0;
#X connect 128 0 165 0;
#X connect 129 0 128 0;
#X connect 130 0 127 0;
#X connect 131 0 123 0;
#X connect 131 1 120 0;
#X connect 133 0 132 0;
#X connect 134 0 148 0;
#X connect 135 0 136 0;
#X connect 136 0 133 1;
#X connect 137 0 133 0;
#X connect 138 0 140 0;
#X connect 138 1 135 0;
#X connect 139 0 137 0;
#X connect 140 0 143 0;
#X connect 141 0 149 0;
#X connect 141 1 142 0;
#X connect 142 0 133 1;
#X connect 143 0 144 0;
#X connect 143 1 139 0;
#X connect 144 0 145 0;
#X connect 145 0 137 0;
#X connect 146 0 163 0;
#X connect 147 0 146 0;
#X connect 148 0 141 0;
#X connect 148 1 138 0;
#X connect 149 0 145 0;
#X connect 150 0 84 0;
#X connect 151 0 150 0;
#X connect 152 0 153 0;
#X connect 153 0 155 0;
#X connect 153 1 154 0;
#X connect 154 0 84 0;
#X connect 155 0 150 0;
#X connect 156 0 160 0;
#X connect 157 0 156 0;
#X connect 159 0 7 0;
#X connect 159 0 9 0;
#X connect 159 0 11 0;
#X connect 159 0 13 0;
#X connect 160 0 161 0;
#X connect 160 1 150 0;
#X connect 161 0 84 0;
#X connect 162 0 49 0;
#X connect 162 1 50 0;
#X connect 163 0 164 0;
#X connect 163 1 145 0;
#X connect 164 0 137 0;
#X connect 165 0 166 0;
#X connect 165 1 127 0;
#X connect 166 0 119 0;
#X connect 167 0 168 0;
#X connect 167 1 111 0;
#X connect 168 0 95 0;
#X connect 169 0 170 0;
#X connect 169 1 102 0;
#X connect 170 0 70 0;
#X connect 171 0 29 0;
#X connect 173 0 174 0;
#X connect 174 0 176 0;
#X connect 175 0 201 0;
#X connect 175 1 200 0;
#X connect 176 0 179 0;
#X connect 176 1 181 0;
#X connect 177 0 178 0;
#X connect 177 0 181 1;
#X connect 178 0 183 0;
#X connect 179 0 180 0;
#X connect 180 0 177 0;
#X connect 181 0 180 1;
#X connect 182 0 173 0;
#X connect 183 0 175 0;
#X connect 184 0 182 0;
#X connect 184 0 177 0;
#X connect 184 0 183 0;
#X connect 185 0 182 0;
#X connect 186 0 185 0;
#X connect 186 1 187 0;
#X connect 186 2 173 1;
#X connect 187 0 177 0;
#X connect 187 0 183 0;
#X connect 188 0 194 0;
#X connect 189 0 188 0;
#X connect 190 0 195 0;
#X connect 191 0 196 0;
#X connect 192 0 197 0;
#X connect 193 0 198 0;
#X connect 194 0 205 0;
#X connect 194 1 206 0;
#X connect 194 2 206 0;
#X connect 194 3 207 0;
#X connect 194 4 210 0;
#X connect 194 5 209 0;
#X connect 195 0 175 1;
#X connect 196 0 175 1;
#X connect 197 0 175 1;
#X connect 198 0 175 1;
#X connect 199 0 186 0;
#X connect 201 0 158 0;
#X connect 202 0 186 0;
#X connect 203 0 186 0;
#X connect 203 0 213 0;
#X connect 204 0 186 0;
#X connect 205 0 199 0;
#X connect 205 1 208 0;
#X connect 206 0 202 0;
#X connect 206 1 213 0;
#X connect 207 0 203 0;
#X connect 209 0 204 0;
#X connect 209 1 212 0;
#X connect 210 0 184 0;
#X connect 210 1 211 0;
