#N canvas 92 110 1384 735 10;
#X obj 466 141 multi_sources;
#X obj 487 84 unpack s f;
#X symbolatom 466 112 10 0 0 0 - - -;
#X obj 466 222 *~;
#X msg 555 334 wet \$1;
#X obj 558 307 hsl 30 20 0 1 0 0 empty empty empty -2 -8 0 10 -262144
-1 -1 1015 1;
#X obj 467 338 freeverb~;
#X obj 558 354 hsl 30 20 0 1 0 0 empty empty empty -2 -8 0 10 -262144
-1 -1 1015 1;
#X msg 555 379 dry \$1;
#X obj 557 398 hsl 30 20 0 1 0 0 empty empty empty -2 -8 0 10 -262144
-1 -1 0 1;
#X msg 554 421 roomsize \$1;
#X text 498 42 standing on C0 of Valine;
#X obj 457 410 throw~ SL;
#X obj 489 585 catch~ SL;
#X obj 556 584 catch~ SB;
#X obj 623 585 catch~ SR;
#X obj 690 584 catch~ ST;
#X text 525 662 7 8 3 4;
#X obj 494 636 dac~ 1 8 2 4;
#X obj 558 160 dbtorms;
#X floatatom 558 185 10 0 0 0 - - -;
#X obj 558 205 * 0.8;
#X obj 557 111 t f f;
#X text 512 15 element & distance;
#X obj 495 223 line~;
#X obj 611 288 line;
#X obj 620 333 line;
#X msg 646 307 \$1 500;
#X msg 558 225 \$1 500;
#X floatatom 642 224 5 0 0 0 - - -;
#X obj 557 139 expr 106-$f1*6;
#X obj 617 252 expr -0.1+$f1*0.15;
#X obj 198 138 multi_sources;
#X obj 227 80 unpack s f;
#X symbolatom 221 109 10 0 0 0 - - -;
#X obj 198 219 *~;
#X msg 287 331 wet \$1;
#X obj 290 304 hsl 30 20 0 1 0 0 empty empty empty -2 -8 0 10 -262144
-1 -1 580 1;
#X obj 221 334 freeverb~;
#X obj 290 351 hsl 30 20 0 1 0 0 empty empty empty -2 -8 0 10 -262144
-1 -1 1740 1;
#X msg 287 376 dry \$1;
#X obj 289 395 hsl 30 20 0 1 0 0 empty empty empty -2 -8 0 10 -262144
-1 -1 0 1;
#X msg 286 418 roomsize \$1;
#X obj 290 157 dbtorms;
#X floatatom 290 182 10 0 0 0 - - -;
#X obj 290 202 * 0.8;
#X obj 289 108 t f f;
#X obj 227 220 line~;
#X obj 343 285 line;
#X obj 352 330 line;
#X msg 378 304 \$1 500;
#X msg 290 222 \$1 500;
#X floatatom 374 221 5 0 0 0 - - -;
#X obj 289 136 expr 106-$f1*6;
#X obj 349 249 expr -0.1+$f1*0.15;
#X msg 198 59 C 2;
#X obj -55 139 multi_sources;
#X obj -24 87 unpack s f;
#X obj -55 220 *~;
#X msg 34 332 wet \$1;
#X obj 37 305 hsl 30 20 0 1 0 0 empty empty empty -2 -8 0 10 -262144
-1 -1 145 1;
#X obj -40 339 freeverb~;
#X obj 37 352 hsl 30 20 0 1 0 0 empty empty empty -2 -8 0 10 -262144
-1 -1 2465 1;
#X msg 34 377 dry \$1;
#X obj 36 396 hsl 30 20 0 1 0 0 empty empty empty -2 -8 0 10 -262144
-1 -1 0 1;
#X msg 33 419 roomsize \$1;
#X obj -54 369 throw~ SL;
#X obj 37 158 dbtorms;
#X floatatom 37 183 10 0 0 0 - - -;
#X obj 37 203 * 0.8;
#X obj 36 109 t f f;
#X obj -26 221 line~;
#X obj 90 286 line;
#X obj 99 331 line;
#X msg 125 305 \$1 500;
#X msg 37 223 \$1 500;
#X floatatom 121 222 5 0 0 0 - - -;
#X obj 36 137 expr 106-$f1*6;
#X obj 96 250 expr -0.1+$f1*0.15;
#X obj 803 140 multi_sources;
#X obj 803 83 unpack s f;
#X symbolatom 818 111 10 0 0 0 - - -;
#X obj 803 221 *~;
#X msg 892 333 wet \$1;
#X obj 895 306 hsl 30 20 0 1 0 0 empty empty empty -2 -8 0 10 -262144
-1 -1 1015 1;
#X obj 803 332 freeverb~;
#X obj 895 353 hsl 30 20 0 1 0 0 empty empty empty -2 -8 0 10 -262144
-1 -1 1160 1;
#X msg 892 378 dry \$1;
#X obj 894 397 hsl 30 20 0 1 0 0 empty empty empty -2 -8 0 10 -262144
-1 -1 0 1;
#X msg 891 420 roomsize \$1;
#X obj 895 159 dbtorms;
#X floatatom 895 184 10 0 0 0 - - -;
#X obj 895 204 * 0.8;
#X obj 894 110 t f f;
#X obj 832 222 line~;
#X obj 948 287 line;
#X obj 957 332 line;
#X msg 983 306 \$1 500;
#X msg 895 224 \$1 500;
#X floatatom 979 223 5 0 0 0 - - -;
#X obj 894 138 expr 106-$f1*6;
#X obj 954 251 expr -0.1+$f1*0.15;
#X obj 982 284 expr 1-$f1*0.2;
#X obj 804 370 throw~ SR;
#X obj 1124 139 multi_sources;
#X obj 1124 82 unpack s f;
#X symbolatom 1124 110 10 0 0 0 - - -;
#X obj 1124 220 *~;
#X msg 1213 332 wet \$1;
#X obj 1216 305 hsl 30 20 0 1 0 0 empty empty empty -2 -8 0 10 -262144
-1 -1 145 1;
#X obj 1125 328 freeverb~;
#X obj 1216 352 hsl 30 20 0 1 0 0 empty empty empty -2 -8 0 10 -262144
-1 -1 2320 1;
#X msg 1213 377 dry \$1;
#X obj 1215 396 hsl 30 20 0 1 0 0 empty empty empty -2 -8 0 10 -262144
-1 -1 0 1;
#X msg 1212 419 roomsize \$1;
#X obj 1216 158 dbtorms;
#X floatatom 1216 183 10 0 0 0 - - -;
#X obj 1216 203 * 0.8;
#X obj 1215 109 t f f;
#X obj 1153 221 line~;
#X obj 1269 286 line;
#X obj 1278 331 line;
#X msg 1304 305 \$1 500;
#X msg 1216 223 \$1 500;
#X floatatom 1300 222 5 0 0 0 - - -;
#X obj 1215 137 expr 106-$f1*6;
#X obj 1275 250 expr -0.1+$f1*0.15;
#X obj 1303 283 expr 1-$f1*0.2;
#X obj 1125 369 throw~ ST;
#X msg 1104 50 O 1;
#X obj 645 285 expr 1.1-$f1*0.25;
#X obj 377 282 expr 1.1-$f1*0.25;
#X obj 124 283 expr 1.1-$f1*0.25;
#X msg -17 32 H 4;
#X msg 350 85 0;
#X msg 610 92 0;
#X msg 101 77 0;
#X obj 813 620 rev3~;
#X symbolatom -29 110 10 0 0 0 - - -;
#X msg -55 44 C 1;
#X msg 803 62 OH 3;
#X msg 974 111 0;
#X msg 1297 108 0;
#X obj 199 411 throw~ SR;
#X msg 466 63 C 3;
#X connect 0 0 3 0;
#X connect 1 0 2 0;
#X connect 1 1 22 0;
#X connect 3 0 6 0;
#X connect 3 0 12 0;
#X connect 4 0 6 0;
#X connect 5 0 4 0;
#X connect 7 0 8 0;
#X connect 8 0 6 0;
#X connect 9 0 10 0;
#X connect 10 0 6 0;
#X connect 13 0 18 0;
#X connect 14 0 18 1;
#X connect 15 0 18 2;
#X connect 16 0 18 3;
#X connect 19 0 20 0;
#X connect 20 0 21 0;
#X connect 21 0 28 0;
#X connect 22 0 30 0;
#X connect 22 1 29 0;
#X connect 24 0 3 1;
#X connect 25 0 5 0;
#X connect 26 0 7 0;
#X connect 27 0 26 0;
#X connect 28 0 24 0;
#X connect 29 0 31 0;
#X connect 29 0 130 0;
#X connect 30 0 19 0;
#X connect 31 0 25 0;
#X connect 32 0 35 0;
#X connect 33 0 34 0;
#X connect 33 1 46 0;
#X connect 35 0 38 0;
#X connect 35 0 143 0;
#X connect 36 0 38 0;
#X connect 37 0 36 0;
#X connect 39 0 40 0;
#X connect 40 0 38 0;
#X connect 41 0 42 0;
#X connect 42 0 38 0;
#X connect 43 0 44 0;
#X connect 44 0 45 0;
#X connect 45 0 51 0;
#X connect 46 0 53 0;
#X connect 46 1 52 0;
#X connect 47 0 35 1;
#X connect 48 0 37 0;
#X connect 49 0 39 0;
#X connect 50 0 49 0;
#X connect 51 0 47 0;
#X connect 52 0 54 0;
#X connect 52 0 131 0;
#X connect 53 0 43 0;
#X connect 54 0 48 0;
#X connect 55 0 33 0;
#X connect 55 0 32 0;
#X connect 56 0 58 0;
#X connect 57 0 138 0;
#X connect 57 1 70 0;
#X connect 58 0 61 0;
#X connect 58 0 66 0;
#X connect 59 0 61 0;
#X connect 60 0 59 0;
#X connect 62 0 63 0;
#X connect 63 0 61 0;
#X connect 64 0 65 0;
#X connect 65 0 61 0;
#X connect 67 0 68 0;
#X connect 68 0 69 0;
#X connect 69 0 75 0;
#X connect 70 0 77 0;
#X connect 70 1 76 0;
#X connect 71 0 58 1;
#X connect 72 0 60 0;
#X connect 73 0 62 0;
#X connect 74 0 73 0;
#X connect 75 0 71 0;
#X connect 76 0 78 0;
#X connect 76 0 132 0;
#X connect 77 0 67 0;
#X connect 78 0 72 0;
#X connect 79 0 82 0;
#X connect 80 0 81 0;
#X connect 80 1 93 0;
#X connect 82 0 85 0;
#X connect 82 0 103 0;
#X connect 83 0 85 0;
#X connect 84 0 83 0;
#X connect 86 0 87 0;
#X connect 87 0 85 0;
#X connect 88 0 89 0;
#X connect 89 0 85 0;
#X connect 90 0 91 0;
#X connect 91 0 92 0;
#X connect 92 0 98 0;
#X connect 93 0 100 0;
#X connect 93 1 99 0;
#X connect 94 0 82 1;
#X connect 95 0 84 0;
#X connect 96 0 86 0;
#X connect 97 0 96 0;
#X connect 98 0 94 0;
#X connect 99 0 101 0;
#X connect 99 0 102 0;
#X connect 100 0 90 0;
#X connect 101 0 95 0;
#X connect 102 0 97 0;
#X connect 104 0 107 0;
#X connect 105 0 106 0;
#X connect 105 1 118 0;
#X connect 107 0 110 0;
#X connect 107 0 128 0;
#X connect 108 0 110 0;
#X connect 109 0 108 0;
#X connect 111 0 112 0;
#X connect 112 0 110 0;
#X connect 113 0 114 0;
#X connect 114 0 110 0;
#X connect 115 0 116 0;
#X connect 116 0 117 0;
#X connect 117 0 123 0;
#X connect 118 0 125 0;
#X connect 118 1 124 0;
#X connect 119 0 107 1;
#X connect 120 0 109 0;
#X connect 121 0 111 0;
#X connect 122 0 121 0;
#X connect 123 0 119 0;
#X connect 124 0 126 0;
#X connect 124 0 127 0;
#X connect 125 0 115 0;
#X connect 126 0 120 0;
#X connect 127 0 122 0;
#X connect 129 0 105 0;
#X connect 129 0 104 0;
#X connect 130 0 27 0;
#X connect 131 0 50 0;
#X connect 132 0 74 0;
#X connect 133 0 57 0;
#X connect 134 0 44 0;
#X connect 135 0 20 0;
#X connect 136 0 68 0;
#X connect 139 0 57 0;
#X connect 139 0 56 0;
#X connect 140 0 80 0;
#X connect 140 0 79 0;
#X connect 141 0 91 0;
#X connect 142 0 116 0;
#X connect 144 0 1 0;
#X connect 144 0 0 0;
