#N canvas 180 38 976 778 10;
#X obj 113 87 noise~;
#X obj 112 241 *~;
#X obj 135 216 line~;
#X msg 188 205 \$1 50;
#X obj 191 184 hsl 128 15 0 1 0 0 empty empty empty -2 -8 0 10 -262144
-1 -1 5700 1;
#X obj 197 44 hsl 128 15 50 5000 1 0 empty empty empty -2 -8 0 10 -262144
-1 -1 4100 1;
#X floatatom 182 64 8 0 0 0 - - -, f 8;
#X obj 310 114 bng 15 250 50 0 empty empty empty 17 7 0 10 -262144
-1 -1;
#X obj 344 66 tgl 15 0 empty empty empty 17 7 0 10 -262144 -1 -1 1
1;
#X obj 487 132 metro 200;
#X obj 487 155 bng 15 250 50 0 empty empty empty 17 7 0 10 -262144
-1 -1;
#X obj 487 329 sel 0;
#X obj 487 175 t b b;
#X floatatom 487 255 5 0 0 0 - - -, f 5;
#X obj 487 275 mod 4;
#X msg 487 206 1;
#X obj 486 234 +;
#X obj 515 207 f;
#X obj 487 106 tgl 15 0 empty empty empty 17 7 0 10 -262144 -1 -1 1
1;
#X floatatom 487 293 5 0 0 0 - - -, f 5;
#X msg 665 93 0, f 2;
#X msg 563 136 1;
#X obj 563 115 t b b f;
#X msg 592 137 0;
#X symbolatom 560 40 10 0 0 0 - - -, f 10;
#X obj 457 424 *~;
#X obj 487 391 line;
#X obj 658 445 *~;
#X floatatom 673 338 5 0 0 0 - - -, f 5;
#X obj 709 446 *~;
#X floatatom 724 337 5 0 0 0 - - -, f 5;
#X obj 760 445 *~;
#X floatatom 775 336 5 0 0 0 - - -, f 5;
#X obj 810 443 *~;
#X floatatom 825 335 5 0 0 0 - - -, f 5;
#X msg 690 288 1 0 0 0;
#X obj 690 312 unpack f f f f;
#X msg 727 247 0 0 1 0;
#X obj 673 383 line;
#X obj 724 382 line;
#X obj 775 381 line;
#X obj 825 380 line;
#X msg 724 359 \$1 100;
#X msg 673 360 \$1 100;
#X msg 775 358 \$1 100;
#X msg 825 357 \$1 100;
#X obj 684 485 dac~ 1 2 2 1;
#X msg 752 289 0 0.7 0 0.3;
#X msg 704 269 0 0.3 0 0.7;
#X obj 383 400 catch~ \$0-audio;
#X obj 560 15 r \$0-element;
#X obj 524 266 r \$0-L;
#X obj 556 243 r \$0-B;
#X obj 587 265 r \$0-R;
#X obj 618 243 r \$0-T;
#X obj 563 67 sel H O OH NH2 -;
#X msg 563 92 200;
#X msg 592 92 800;
#X msg 619 93 600;
#X obj 690 199 r \$0-L;
#X obj 704 221 r \$0-B;
#X obj 735 199 r \$0-R;
#X obj 752 220 r \$0-T;
#X text 548 399 rythm control;
#X text 834 402 speaker control;
#X floatatom 487 410 5 0 0 0 - - -, f 5;
#X msg 693 94 1000;
#X msg 524 295 1;
#X msg 556 295 2;
#X msg 587 294 3;
#X msg 618 294 0;
#X obj 112 269 throw~ \$0-audio;
#X msg 534 346 0 100;
#X obj 356 310 hsl 50 15 0 1 0 0 empty empty empty -2 -8 0 10 -262144
-1 -1 0 1;
#X obj 305 330 *~;
#X obj 308 284 hsl 50 15 0 10 0 0 empty empty empty -2 -8 0 10 -262144
-1 -1 0 1;
#X obj 305 309 osc~ 2;
#X msg 459 365 1 \, 0 100;
#X obj 59 473 *~ 2;
#X obj 103 658 +~;
#X obj 34 619 *~;
#X obj 156 555 *~;
#X obj 84 734 cos~;
#X obj 84 763 *~ 0.2;
#X obj 84 709 -~;
#X obj 158 491 min~ 1;
#X obj 33 554 max~ 1;
#X obj 86 577 -~;
#X obj 59 453 phasor~ 120;
#X floatatom 320 412 5 0 0 0 - - -, f 5;
#X obj 320 436 / 100;
#X obj 241 569 *~;
#X floatatom 241 387 5 0 0 0 - - -, f 5;
#X floatatom 60 417 5 0 0 0 - - -, f 5;
#X obj 241 449 *;
#X obj 241 429 t b f;
#X obj 241 469 phasor~;
#X obj 241 489 *~ -1;
#X obj 241 529 min~;
#X obj 241 509 +~ 1;
#X obj 241 549 *~ 4;
#X obj 103 685 -~ 1;
#X obj 87 554 sig~ 2;
#X obj 241 589 +~ 1;
#X obj 241 407 / 100;
#X obj 83 787 throw~ \$0-audio;
#X msg 198 369 200;
#X msg 60 382 100;
#X msg 322 385 50;
#X obj 119 314 dac~ 1;
#X obj 310 91 metro 1000;
#X msg 527 373 1 20;
#X msg 296 146 1 \, 0 100;
#X msg 135 740 0;
#X msg 170 736 0.2;
#X obj 113 108 bp~ 500 8;
#X obj 113 129 bp~ 500 8;
#X connect 0 0 115 0;
#X connect 1 0 71 0;
#X connect 1 0 109 0;
#X connect 2 0 1 1;
#X connect 3 0 2 0;
#X connect 4 0 3 0;
#X connect 5 0 6 0;
#X connect 6 0 115 1;
#X connect 6 0 116 1;
#X connect 7 0 112 0;
#X connect 8 0 110 0;
#X connect 9 0 10 0;
#X connect 10 0 12 0;
#X connect 11 0 77 0;
#X connect 11 0 111 0;
#X connect 11 1 72 0;
#X connect 12 0 15 0;
#X connect 12 1 17 0;
#X connect 13 0 14 0;
#X connect 13 0 17 1;
#X connect 14 0 19 0;
#X connect 15 0 16 0;
#X connect 16 0 13 0;
#X connect 17 0 16 1;
#X connect 18 0 9 0;
#X connect 19 0 11 0;
#X connect 20 0 18 0;
#X connect 20 0 13 0;
#X connect 20 0 26 0;
#X connect 20 0 19 0;
#X connect 21 0 18 0;
#X connect 22 0 21 0;
#X connect 22 1 23 0;
#X connect 22 2 9 1;
#X connect 23 0 13 0;
#X connect 23 0 19 0;
#X connect 24 0 55 0;
#X connect 25 0 27 0;
#X connect 25 0 29 0;
#X connect 25 0 31 0;
#X connect 25 0 33 0;
#X connect 26 0 65 0;
#X connect 27 0 46 0;
#X connect 28 0 43 0;
#X connect 29 0 46 1;
#X connect 30 0 42 0;
#X connect 31 0 46 2;
#X connect 32 0 44 0;
#X connect 33 0 46 3;
#X connect 34 0 45 0;
#X connect 35 0 36 0;
#X connect 36 0 28 0;
#X connect 36 1 30 0;
#X connect 36 2 32 0;
#X connect 36 3 34 0;
#X connect 37 0 36 0;
#X connect 38 0 27 1;
#X connect 39 0 29 1;
#X connect 40 0 31 1;
#X connect 41 0 33 1;
#X connect 42 0 39 0;
#X connect 43 0 38 0;
#X connect 44 0 40 0;
#X connect 45 0 41 0;
#X connect 47 0 36 0;
#X connect 48 0 36 0;
#X connect 49 0 25 0;
#X connect 50 0 24 0;
#X connect 51 0 67 0;
#X connect 52 0 68 0;
#X connect 53 0 69 0;
#X connect 54 0 70 0;
#X connect 55 0 56 0;
#X connect 55 1 57 0;
#X connect 55 2 57 0;
#X connect 55 3 58 0;
#X connect 55 4 20 0;
#X connect 55 5 66 0;
#X connect 56 0 22 0;
#X connect 57 0 22 0;
#X connect 58 0 22 0;
#X connect 59 0 35 0;
#X connect 60 0 48 0;
#X connect 61 0 37 0;
#X connect 62 0 47 0;
#X connect 65 0 25 1;
#X connect 66 0 22 0;
#X connect 67 0 11 1;
#X connect 68 0 11 1;
#X connect 69 0 11 1;
#X connect 70 0 11 1;
#X connect 73 0 74 1;
#X connect 75 0 76 0;
#X connect 76 0 74 0;
#X connect 77 0 26 0;
#X connect 78 0 85 0;
#X connect 78 0 86 0;
#X connect 79 0 101 0;
#X connect 80 0 79 0;
#X connect 81 0 79 1;
#X connect 82 0 83 0;
#X connect 83 0 105 0;
#X connect 84 0 82 0;
#X connect 85 0 81 0;
#X connect 86 0 80 0;
#X connect 87 0 80 1;
#X connect 87 0 84 0;
#X connect 88 0 78 0;
#X connect 89 0 90 0;
#X connect 90 0 91 1;
#X connect 91 0 103 0;
#X connect 92 0 104 0;
#X connect 93 0 88 0;
#X connect 93 0 94 0;
#X connect 94 0 96 0;
#X connect 95 0 94 0;
#X connect 95 1 94 1;
#X connect 96 0 97 0;
#X connect 96 0 98 1;
#X connect 97 0 99 0;
#X connect 98 0 100 0;
#X connect 99 0 98 0;
#X connect 100 0 91 0;
#X connect 101 0 84 1;
#X connect 102 0 87 0;
#X connect 103 0 81 1;
#X connect 103 0 87 1;
#X connect 104 0 95 0;
#X connect 106 0 104 0;
#X connect 107 0 93 0;
#X connect 108 0 89 0;
#X connect 110 0 7 0;
#X connect 112 0 2 0;
#X connect 113 0 83 1;
#X connect 114 0 83 1;
#X connect 115 0 116 0;
#X connect 116 0 1 0;
