#N canvas 2094 -62 1680 949 10;
#X obj 21 342 text define -k AminoElement;
#A set 0 - \; 1 C \; 2 C \; 3 O \; 4 O \; 5 NH2 \; 6 C \; 7 H \; 8
H \; 9 C \; 10 H \; 11 O \; 12 O \; 13 H \; 14 H \; 15 H \; 16 H;
#X obj 22 151 text define -k AminoNumber;
#A set 1 2 0 3 4 \; 2 5 6 1 7 \; 6 8 9 10 2 \; 9 0 11 12 6 \; 3 1 0
13 0 \; 5 14 0 2 15 \; 12 9 0 16 0;
#X obj 456 89 text get AminoNumber 1 4;
#X msg 52 114 write AminoNumber-aspartic.text;
#X msg 22 71 read AminoNumber-aspartic.text;
#X msg 35 301 write AminoElement-aspartic.text;
#X msg 22 259 read AminoElement-aspartic.text;
#X floatatom 417 36 5 0 0 0 - - -;
#X obj 456 122 unpack f f f f, f 23;
#X floatatom 456 156 5 0 0 0 - - -;
#X floatatom 501 156 5 0 0 0 - - -;
#X floatatom 546 156 5 0 0 0 - - -;
#X floatatom 591 156 5 0 0 0 - - -;
#X obj 1037 241 text get AminoElement 1 1;
#X symbolatom 1037 263 10 0 0 0 - - -;
#X obj 1048 41 keyname;
#X obj 1047 62 sel 1;
#X obj 1048 83 t b b;
#X obj 1058 112 symbol;
#X obj 1037 152 sel Left Down Right Up, f 43;
#X obj 1037 173 bng 15 250 50 0 empty empty empty 17 7 0 10 -262144
-1 -1;
#X obj 1048 189 r Left;
#X obj 1037 216 f;
#X obj 1037 283 sel C;
#X obj 1037 306 f;
#X obj 469 184 s Left;
#X obj 528 185 s Bottom;
#X obj 596 185 s Right;
#X obj 660 184 s Top;
#X floatatom 1036 411 5 0 0 0 - - -;
#X obj 417 12 r step;
#X obj 1070 552 s step;
#X obj 1102 264 text get AminoElement 1 1;
#X symbolatom 1102 289 10 0 0 0 - - -;
#X obj 1101 177 bng 15 250 50 0 empty empty empty 17 7 0 10 -262144
-1 -1;
#X obj 1102 218 f;
#X obj 1102 309 sel C;
#X obj 1102 333 f;
#X obj 1116 194 r Bottom;
#X obj 1173 286 text get AminoElement 1 1;
#X symbolatom 1174 304 10 0 0 0 - - -;
#X obj 1173 173 bng 15 250 50 0 empty empty empty 17 7 0 10 -262144
-1 -1;
#X obj 1173 216 f;
#X obj 1174 324 sel C;
#X obj 1174 344 f;
#X obj 1187 193 r Right;
#X obj 1238 243 text get AminoElement 1 1;
#X symbolatom 1240 308 10 0 0 0 - - -;
#X obj 1238 176 bng 15 250 50 0 empty empty empty 17 7 0 10 -262144
-1 -1;
#X obj 1238 219 f;
#X obj 1240 327 sel C;
#X obj 1240 347 f;
#X obj 1253 197 r Top;
#X floatatom 1037 327 5 0 0 0 - - -;
#X floatatom 1102 354 5 0 0 0 - - -;
#X floatatom 1174 365 5 0 0 0 - - -;
#X floatatom 1240 368 5 0 0 0 - - -;
#X obj 1036 387 text search AminoNumber 0;
#X floatatom 1102 427 5 0 0 0 - - -;
#X obj 1102 408 text search AminoNumber 0;
#X floatatom 1174 445 5 0 0 0 - - -;
#X obj 1175 426 text search AminoNumber 0;
#X floatatom 1269 409 5 0 0 0 - - -;
#X obj 1241 387 text search AminoNumber 0;
#X msg 52 132 write AminoNumber-test.text;
#X msg 22 91 read AminoNumber-test.text;
#X obj 242 658 catch~ K2;
#X obj 305 658 catch~ K3;
#X obj 176 659 catch~ K1;
#X obj 366 658 catch~ K4;
#X msg 36 320 write AminoElement-test.text;
#X msg 22 277 read AminoElement-test.text;
#X obj 440 319 list trim;
#X obj 439 365 s clone;
#X obj 104 515 r clone;
#X obj 554 316 list trim;
#X obj 553 360 s clone;
#X obj 668 316 list trim;
#X obj 665 361 s clone;
#X obj 792 316 list trim;
#X obj 793 364 s clone;
#X obj 1435 54 r step;
#X obj 1420 91 f;
#X obj 1472 139 f;
#X obj 1478 215 ==;
#X floatatom 1478 238 5 0 0 0 - - -;
#X obj 1451 315 noise~;
#X obj 1451 338 bp~ 4000 10;
#X obj 1451 361 bp~ 4000 20;
#X obj 1499 391 vline~;
#X obj 1451 404 *~;
#X obj 1518 284 bng 15 250 50 0 empty empty empty 17 7 0 10 -262144
-1 -1;
#X obj 1478 261 sel 1;
#X obj 1421 137 t f b f;
#X obj 1541 343 list;
#X obj 1539 315 bng 15 250 50 0 empty empty empty 17 7 0 10 -262144
-1 -1;
#X msg 1570 274 0 0 150;
#X obj 1606 342 t b a;
#X obj 1576 301 t b a;
#X obj 1476 499 *~;
#X obj 1544 466 unpack f f f f;
#X obj 1506 500 *~;
#X obj 1533 501 *~;
#X obj 1563 503 *~;
#X msg 1561 400 1 0 0 0;
#X msg 1572 423 0 1 0 0;
#X msg 1623 400 0 0 1 0;
#X msg 1633 424 0 0 0 1, f 8;
#X msg 1606 319 0.3 50;
#X floatatom 523 675 5 0 0 0 - - -;
#X obj 466 605 catch~ Reverb;
#X obj 465 690 *~ 0.05;
#X obj 441 270 calculate_layer_1;
#X obj 555 271 calculate_layer_1;
#X obj 440 340 print L1;
#X obj 554 337 print B1;
#X obj 671 338 print R1;
#X obj 792 337 print T1;
#X obj 670 269 calculate_layer_1;
#X obj 794 271 calculate_layer_1;
#X obj 472 462 calculate_layer_2;
#X obj 590 462 calculate_layer_2;
#X msg 472 441 \$1 1;
#X msg 590 441 \$1 2;
#X obj 713 462 calculate_layer_2;
#X msg 713 441 \$1 3;
#X obj 829 462 calculate_layer_2;
#X msg 829 441 \$1 4;
#X obj 471 506 list trim;
#X obj 590 509 list trim;
#X obj 713 511 list trim;
#X obj 829 510 list trim;
#X obj 472 527 print L2;
#X obj 590 530 print B2;
#X obj 713 531 print R2;
#X obj 829 531 print T2;
#X obj 22 24 bng 25 250 50 0 empty empty empty 17 7 0 10 -262130 -1
-1;
#X obj 63 24 bng 25 250 50 0 empty empty empty 17 7 0 10 -204800 -1
-1;
#X obj 441 296 list append L 1;
#X obj 555 293 list append B 1;
#X obj 669 293 list append R 1;
#X obj 794 296 list append T 1;
#X obj 471 553 s clone;
#X obj 589 552 s clone;
#X obj 712 552 s clone;
#X obj 829 552 s clone;
#X text 1570 531 alarm signal;
#X obj 455 218 t f f;
#X obj 761 222 t f f;
#X obj 655 228 t f f;
#X obj 561 220 t f f;
#X obj 698 46 define_clone_arrays;
#X obj 242 184 copy_current_to_previous_clone_state;
#X obj 350 141 give_clone_offs;
#X obj 259 616 set_clone_state;
#X obj 259 589 r clone_state;
#X obj 452 386 s clone_state;
#X obj 560 386 s clone_state;
#X obj 671 386 s clone_state;
#X obj 801 386 s clone_state;
#X obj 486 577 s clone_state;
#X obj 594 577 s clone_state;
#X obj 718 576 s clone_state;
#X obj 835 577 s clone_state;
#X obj 350 162 s clone;
#X obj 255 210 print offff;
#X obj 417 65 t b b f b;
#X obj 680 84 reset_current_clone_state;
#X obj 656 63 bng 15 250 50 0 empty empty empty 17 7 0 10 -262144 -1
-1;
#X text 377 815 7 8 3 4;
#X obj 1482 528 dac~ 7 8 3 4;
#X msg 161 483 vis \$1 1;
#X floatatom 163 458 5 0 19 0 - - -;
#X msg 17 531 all -;
#X msg 1680 401 0 0 0 0;
#X obj 20 501 bng 25 250 50 0 empty empty empty 17 7 0 10 -261234 -1
-1;
#X msg 252 411 2 C L 2;
#X msg 277 471 4 H T 3;
#X msg 304 516 6 O 2;
#X msg 338 432 8 C B 2;
#X obj 473 481 list append L 2;
#X obj 590 486 list append B 2;
#X obj 713 487 list append R 2;
#X obj 829 488 list append T 2;
#X msg 249 430 3 H L 3;
#X obj 466 626 delwrite~ delay_buf 1000;
#X obj 466 653 delread4~ delay_buf;
#X floatatom 421 610 5 0 0 0 - - -;
#X obj 421 630 sig~;
#X obj 188 541 clone player-granular-structure 23;
#X msg 335 454 9 C B 1;
#X obj 20 569 clone player-granular-frequency 23;
#X msg 39 665 vis \$1 1;
#X floatatom 42 640 5 0 19 0 - - -;
#X obj 269 812 dac~ 7 8 3 4;
#X obj 20 409 keyname;
#X obj 20 435 sel 1;
#X obj 20 456 symbol;
#X obj 20 477 sel Escape;
#X obj 449 711 rev3~ 100 88 3000 30;
#X obj 501 -56 keyname;
#X obj 501 -30 sel 1;
#X obj 501 -9 symbol;
#X obj 500 34 bng 15 250 50 0 empty empty empty 17 7 0 10 -262144 -1
-1;
#X msg 500 54 0;
#X obj 618 4 tgl 25 0 empty empty empty 17 7 0 10 -261682 -1 -1 0 1
;
#X obj 562 40 spigot;
#X msg 617 -24 0;
#X text 567 669 reverb *~ 0.08-0.12;
#X obj 501 12 sel Space Escape;
#X obj 255 362 s clone;
#X msg 305 297 1 C T 1;
#X msg 294 333 1 O T 1;
#X msg 291 314 1 NH2 T 1;
#X msg 297 279 1 H T 1;
#X msg 236 333 1 -;
#X connect 2 0 8 0;
#X connect 3 0 1 0;
#X connect 4 0 1 0;
#X connect 5 0 0 0;
#X connect 6 0 0 0;
#X connect 7 0 166 0;
#X connect 8 0 9 0;
#X connect 8 1 10 0;
#X connect 8 2 11 0;
#X connect 8 3 12 0;
#X connect 9 0 25 0;
#X connect 9 0 147 0;
#X connect 10 0 26 0;
#X connect 10 0 150 0;
#X connect 11 0 27 0;
#X connect 11 0 149 0;
#X connect 12 0 28 0;
#X connect 12 0 148 0;
#X connect 13 0 14 0;
#X connect 14 0 23 0;
#X connect 15 0 16 0;
#X connect 15 1 18 1;
#X connect 16 0 17 0;
#X connect 17 0 82 0;
#X connect 17 1 18 0;
#X connect 18 0 19 0;
#X connect 19 0 20 0;
#X connect 19 1 34 0;
#X connect 19 2 41 0;
#X connect 19 3 48 0;
#X connect 19 4 174 0;
#X connect 20 0 22 0;
#X connect 20 0 104 0;
#X connect 21 0 22 1;
#X connect 21 0 24 1;
#X connect 22 0 13 0;
#X connect 23 0 24 0;
#X connect 24 0 53 0;
#X connect 29 0 31 0;
#X connect 30 0 7 0;
#X connect 32 0 33 0;
#X connect 33 0 36 0;
#X connect 34 0 35 0;
#X connect 34 0 105 0;
#X connect 35 0 32 0;
#X connect 36 0 37 0;
#X connect 37 0 54 0;
#X connect 38 0 35 1;
#X connect 38 0 37 1;
#X connect 39 0 40 0;
#X connect 40 0 43 0;
#X connect 41 0 42 0;
#X connect 41 0 106 0;
#X connect 42 0 39 0;
#X connect 43 0 44 0;
#X connect 44 0 55 0;
#X connect 45 0 42 1;
#X connect 45 0 44 1;
#X connect 46 0 47 0;
#X connect 47 0 50 0;
#X connect 48 0 49 0;
#X connect 48 0 107 0;
#X connect 49 0 46 0;
#X connect 50 0 51 0;
#X connect 51 0 56 0;
#X connect 52 0 49 1;
#X connect 52 0 51 1;
#X connect 53 0 57 0;
#X connect 54 0 59 0;
#X connect 55 0 61 0;
#X connect 56 0 63 0;
#X connect 57 0 29 0;
#X connect 58 0 31 0;
#X connect 59 0 58 0;
#X connect 60 0 31 0;
#X connect 61 0 60 0;
#X connect 62 0 31 0;
#X connect 63 0 62 0;
#X connect 64 0 1 0;
#X connect 65 0 1 0;
#X connect 66 0 194 1;
#X connect 67 0 194 2;
#X connect 68 0 194 0;
#X connect 69 0 194 3;
#X connect 70 0 0 0;
#X connect 71 0 0 0;
#X connect 72 0 73 0;
#X connect 72 0 114 0;
#X connect 72 0 156 0;
#X connect 74 0 191 0;
#X connect 75 0 76 0;
#X connect 75 0 115 0;
#X connect 75 0 157 0;
#X connect 77 0 78 0;
#X connect 77 0 116 0;
#X connect 77 0 158 0;
#X connect 79 0 80 0;
#X connect 79 0 117 0;
#X connect 79 0 159 0;
#X connect 81 0 82 1;
#X connect 82 0 93 0;
#X connect 83 0 84 0;
#X connect 84 0 85 0;
#X connect 85 0 92 0;
#X connect 86 0 87 0;
#X connect 87 0 88 0;
#X connect 88 0 90 0;
#X connect 89 0 90 1;
#X connect 90 0 99 0;
#X connect 90 0 101 0;
#X connect 90 0 102 0;
#X connect 90 0 103 0;
#X connect 91 0 108 0;
#X connect 92 0 91 0;
#X connect 93 0 83 1;
#X connect 93 1 83 0;
#X connect 93 2 84 1;
#X connect 94 0 89 0;
#X connect 95 0 94 0;
#X connect 96 0 98 0;
#X connect 97 0 95 0;
#X connect 97 0 96 0;
#X connect 97 1 94 1;
#X connect 98 0 95 0;
#X connect 98 1 94 1;
#X connect 99 0 170 0;
#X connect 100 0 99 1;
#X connect 100 1 101 1;
#X connect 100 2 102 1;
#X connect 100 3 103 1;
#X connect 101 0 170 1;
#X connect 102 0 170 2;
#X connect 103 0 170 3;
#X connect 104 0 100 0;
#X connect 105 0 100 0;
#X connect 106 0 100 0;
#X connect 107 0 100 0;
#X connect 108 0 97 0;
#X connect 109 0 111 1;
#X connect 110 0 185 0;
#X connect 111 0 199 0;
#X connect 112 0 138 0;
#X connect 113 0 139 0;
#X connect 118 0 140 0;
#X connect 119 0 141 0;
#X connect 120 0 180 0;
#X connect 121 0 181 0;
#X connect 122 0 120 0;
#X connect 123 0 121 0;
#X connect 124 0 182 0;
#X connect 125 0 124 0;
#X connect 126 0 183 0;
#X connect 127 0 126 0;
#X connect 128 0 132 0;
#X connect 128 0 142 0;
#X connect 128 0 160 0;
#X connect 129 0 133 0;
#X connect 129 0 143 0;
#X connect 129 0 161 0;
#X connect 130 0 134 0;
#X connect 130 0 144 0;
#X connect 130 0 162 0;
#X connect 131 0 135 0;
#X connect 131 0 145 0;
#X connect 131 0 163 0;
#X connect 136 0 4 0;
#X connect 136 0 6 0;
#X connect 137 0 65 0;
#X connect 137 0 71 0;
#X connect 138 0 72 0;
#X connect 139 0 75 0;
#X connect 140 0 77 0;
#X connect 141 0 79 0;
#X connect 147 0 122 0;
#X connect 147 1 112 0;
#X connect 148 0 127 0;
#X connect 148 1 119 0;
#X connect 149 0 125 0;
#X connect 149 1 118 0;
#X connect 150 0 123 0;
#X connect 150 1 113 0;
#X connect 153 0 164 0;
#X connect 153 0 165 0;
#X connect 155 0 154 0;
#X connect 166 0 152 0;
#X connect 166 1 153 0;
#X connect 166 2 2 0;
#X connect 166 3 167 0;
#X connect 168 0 167 0;
#X connect 171 0 189 0;
#X connect 172 0 171 0;
#X connect 173 0 191 0;
#X connect 173 0 189 0;
#X connect 174 0 100 0;
#X connect 175 0 173 0;
#X connect 176 0 189 0;
#X connect 177 0 189 0;
#X connect 178 0 189 0;
#X connect 179 0 189 0;
#X connect 180 0 128 0;
#X connect 181 0 129 0;
#X connect 182 0 130 0;
#X connect 183 0 131 0;
#X connect 184 0 189 0;
#X connect 186 0 111 0;
#X connect 187 0 188 0;
#X connect 188 0 186 0;
#X connect 190 0 189 0;
#X connect 192 0 191 0;
#X connect 193 0 192 0;
#X connect 195 0 196 0;
#X connect 195 1 197 1;
#X connect 196 0 197 0;
#X connect 197 0 198 0;
#X connect 198 0 175 0;
#X connect 199 0 194 0;
#X connect 199 1 194 1;
#X connect 199 2 194 2;
#X connect 199 3 194 3;
#X connect 200 0 201 0;
#X connect 200 1 202 1;
#X connect 201 0 202 0;
#X connect 202 0 209 0;
#X connect 203 0 206 0;
#X connect 204 0 7 0;
#X connect 204 0 82 1;
#X connect 205 0 206 1;
#X connect 206 0 204 0;
#X connect 207 0 205 0;
#X connect 209 0 203 0;
#X connect 209 1 207 0;
#X connect 211 0 210 0;
#X connect 212 0 210 0;
#X connect 213 0 210 0;
#X connect 214 0 210 0;
#X connect 215 0 210 0;
