#N canvas 183 22 1240 756 10;
#X obj 25 516 text define -k AminoElement;
#A set 0 - \; 1 C \; 2 C \; 3 O \; 4 O \; 5 N \; 6 C \; 7 H \; 8 H
\; 9 C \; 10 H \; 11 O \; 12 O \; 13 H \; 14 H \; 15 H \; 16 H;
#X obj 26 392 text define -k AminoNumber;
#A set 1 2 0 3 4 \; 2 5 6 1 7 \; 5 11 12 2 13 \; 7 8 2 9 10 \; 6 14
15 16 2 \; 15 0 17 18 6 \; 3 1 0 19 0 \; 11 20 0 2 21 \; 18 15 0 22
0;
#X obj 531 46 text get AminoNumber 1 4;
#X msg 56 355 write AminoNumber-aspartic.text;
#X msg 26 312 read AminoNumber-aspartic.text;
#X msg 39 475 write AminoElement-aspartic.text;
#X msg 26 433 read AminoElement-aspartic.text;
#X floatatom 492 -7 5 0 0 0 - - -;
#X obj 531 79 unpack f f f f, f 23;
#X floatatom 531 113 5 0 0 0 - - -;
#X floatatom 576 113 5 0 0 0 - - -;
#X floatatom 621 113 5 0 0 0 - - -;
#X floatatom 666 113 5 0 0 0 - - -;
#X obj 1037 241 text get AminoElement 1 1;
#X symbolatom 1037 263 10 0 0 0 - - -;
#X obj 1048 41 keyname;
#X obj 1047 62 sel 1;
#X obj 1048 83 t b b;
#X obj 1058 112 symbol;
#X obj 1037 152 sel Left Down Right Up, f 43;
#X obj 1037 173 bng 15 250 50 0 empty empty empty 17 7 0 10 -262144
-1 -1;
#X obj 1048 189 r Left;
#X obj 1037 216 f;
#X obj 1037 283 sel C;
#X obj 1037 306 f;
#X obj 544 141 s Left;
#X obj 603 142 s Bottom;
#X obj 671 142 s Right;
#X obj 735 141 s Top;
#X floatatom 1036 411 5 0 0 0 - - -;
#X obj 492 -31 r step;
#X obj 1070 552 s step;
#X obj 1102 264 text get AminoElement 1 1;
#X symbolatom 1102 289 10 0 0 0 - - -;
#X obj 1101 177 bng 15 250 50 0 empty empty empty 17 7 0 10 -262144
-1 -1;
#X obj 1102 218 f;
#X obj 1102 309 sel C;
#X obj 1102 333 f;
#X obj 1116 194 r Bottom;
#X obj 1173 286 text get AminoElement 1 1;
#X symbolatom 1174 304 10 0 0 0 - - -;
#X obj 1173 173 bng 15 250 50 0 empty empty empty 17 7 0 10 -262144
-1 -1;
#X obj 1173 216 f;
#X obj 1174 324 sel C;
#X obj 1174 344 f;
#X obj 1187 193 r Right;
#X obj 1238 243 text get AminoElement 1 1;
#X symbolatom 1240 308 10 0 0 0 - - -;
#X obj 1238 176 bng 15 250 50 0 empty empty empty 17 7 0 10 -262144
-1 -1;
#X obj 1238 219 f;
#X obj 1240 327 sel C;
#X obj 1240 347 f;
#X obj 1253 197 r Top;
#X floatatom 1037 327 5 0 0 0 - - -;
#X floatatom 1102 354 5 0 0 0 - - -;
#X floatatom 1174 365 5 0 0 0 - - -;
#X floatatom 1240 368 5 0 0 0 - - -;
#X obj 1036 387 text search AminoNumber 0;
#X floatatom 1102 427 5 0 0 0 - - -;
#X obj 1102 408 text search AminoNumber 0;
#X floatatom 1174 445 5 0 0 0 - - -;
#X obj 1175 426 text search AminoNumber 0;
#X floatatom 1269 409 5 0 0 0 - - -;
#X obj 1241 387 text search AminoNumber 0;
#X msg 56 373 write AminoNumber-test.text;
#X msg 26 332 read AminoNumber-test.text;
#X obj 605 676 catch~ K2;
#X obj 668 676 catch~ K3;
#X obj 539 677 catch~ K1;
#X obj 729 676 catch~ K4;
#X msg 40 494 write AminoElement-test.text;
#X msg 26 451 read AminoElement-test.text;
#X obj 515 276 list trim;
#X obj 514 322 s clone;
#X obj 31 -85 r clone;
#X obj 629 273 list trim;
#X obj 628 317 s clone;
#X obj 743 273 list trim;
#X obj 740 318 s clone;
#X obj 867 273 list trim;
#X obj 868 321 s clone;
#X obj 1435 54 r step;
#X obj 1420 91 f;
#X obj 1472 139 f;
#X obj 1478 215 ==;
#X floatatom 1478 238 5 0 0 0 - - -;
#X obj 1451 315 noise~;
#X obj 1451 338 bp~ 4000 10;
#X obj 1451 361 bp~ 4000 20;
#X obj 1499 391 vline~;
#X obj 1451 404 *~;
#X obj 1518 284 bng 15 250 50 0 empty empty empty 17 7 0 10 -262144
-1 -1;
#X obj 1478 261 sel 1;
#X obj 1421 137 t f b f;
#X obj 1541 343 list;
#X obj 1539 315 bng 15 250 50 0 empty empty empty 17 7 0 10 -262144
-1 -1;
#X msg 1570 274 0 0 150;
#X obj 1606 342 t b a;
#X obj 1576 301 t b a;
#X obj 1476 499 *~;
#X obj 1544 466 unpack f f f f;
#X obj 1506 500 *~;
#X obj 1533 501 *~;
#X obj 1563 503 *~;
#X msg 1561 400 1 0 0 0;
#X msg 1572 423 0 1 0 0;
#X msg 1623 400 0 0 1 0;
#X msg 1633 424 0 0 0 1, f 8;
#X msg 1606 319 0.3 50;
#X floatatom 886 693 5 0 0 0 - - -;
#X obj 829 623 catch~ Reverb;
#X obj 828 708 *~ 0.05;
#X obj 516 227 calculate_layer_1;
#X obj 630 228 calculate_layer_1;
#X obj 515 297 print L1;
#X obj 629 294 print B1;
#X obj 746 295 print R1;
#X obj 867 294 print T1;
#X obj 745 226 calculate_layer_1;
#X obj 869 228 calculate_layer_1;
#X obj 547 419 calculate_layer_2;
#X obj 665 419 calculate_layer_2;
#X msg 547 398 \$1 1;
#X msg 665 398 \$1 2;
#X obj 788 419 calculate_layer_2;
#X msg 788 398 \$1 3;
#X obj 904 419 calculate_layer_2;
#X msg 904 398 \$1 4;
#X obj 546 463 list trim;
#X obj 665 466 list trim;
#X obj 788 468 list trim;
#X obj 904 467 list trim;
#X obj 547 484 print L2;
#X obj 665 487 print B2;
#X obj 788 488 print R2;
#X obj 904 488 print T2;
#X obj 26 265 bng 25 250 50 0 empty empty empty 17 7 0 10 -262130 -1
-1;
#X obj 67 265 bng 25 250 50 0 empty empty empty 17 7 0 10 -204800 -1
-1;
#X obj 516 253 list append L 1;
#X obj 630 250 list append B 1;
#X obj 744 250 list append R 1;
#X obj 869 253 list append T 1;
#X obj 546 510 s clone;
#X obj 664 509 s clone;
#X obj 787 509 s clone;
#X obj 904 509 s clone;
#X text 1570 531 alarm signal;
#X obj 530 175 t f f;
#X obj 836 179 t f f;
#X obj 730 185 t f f;
#X obj 636 177 t f f;
#X obj 773 3 define_clone_arrays;
#X obj 317 141 copy_current_to_previous_clone_state;
#X obj 425 98 give_clone_offs;
#X obj 414 673 set_clone_state;
#X obj 414 646 r clone_state;
#X obj 527 343 s clone_state;
#X obj 635 343 s clone_state;
#X obj 746 343 s clone_state;
#X obj 876 343 s clone_state;
#X obj 539 537 s clone_state;
#X obj 647 537 s clone_state;
#X obj 771 536 s clone_state;
#X obj 888 537 s clone_state;
#X obj 425 119 s clone;
#X obj 330 167 print offff;
#X obj 492 22 t b b f b;
#X obj 755 41 reset_current_clone_state;
#X obj 731 20 bng 15 250 50 0 empty empty empty 17 7 0 10 -262144 -1
-1;
#X text 740 833 7 8 3 4;
#X obj 1482 528 dac~ 7 8 3 4;
#X msg 24 704 all -;
#X msg 1680 401 0 0 0 0;
#X obj 24 675 bng 25 250 50 0 empty empty empty 17 7 0 10 -261234 -1
-1;
#X obj 548 438 list append L 2;
#X obj 665 443 list append B 2;
#X obj 788 444 list append R 2;
#X obj 904 445 list append T 2;
#X obj 829 644 delwrite~ delay_buf 1000;
#X obj 829 671 delread4~ delay_buf;
#X floatatom 784 628 5 0 0 0 - - -;
#X obj 784 648 sig~;
#X obj 34 -34 clone player-granular-structure 23;
#X obj 31 -58 clone player-granular-frequency 23;
#X obj 24 583 keyname;
#X obj 24 609 sel 1;
#X obj 24 630 symbol;
#X obj 24 651 sel Escape;
#X obj 812 729 rev3~ 100 88 3000 30;
#X obj 576 -99 keyname;
#X obj 576 -73 sel 1;
#X obj 576 -52 symbol;
#X obj 575 -9 bng 15 250 50 0 empty empty empty 17 7 0 10 -262144 -1
-1;
#X msg 575 11 0;
#X obj 693 -39 tgl 25 0 empty empty empty 17 7 0 10 -261682 -1 -1 0
1;
#X obj 637 -3 spigot;
#X msg 692 -67 0;
#X text 930 687 reverb *~ 0.08-0.12;
#X obj 576 -31 sel Space Escape;
#X obj 118 648 s clone;
#X obj 24 725 s clone;
#X msg 115 621 vis \$1 1;
#X floatatom 115 599 5 0 19 0 - - -;
#X obj 35 -10 clone player-granular-globalchange 23;
#X obj 405 805 writesf~ 2;
#X obj 417 781 *~ 0.8;
#X obj 471 782 *~ 0.8;
#X msg 364 753 start;
#X msg 365 776 stop;
#X msg 403 720 open 3.wav;
#X obj 33 43 keyname;
#X obj 33 64 sel 1;
#X obj 33 85 symbol;
#X symbolatom 72 64 10 0 0 3 - - -;
#X obj 33 106 sel h c n o;
#X msg 33 129 1 H T 1;
#X obj 632 830 dac~ 1 2 2 1;
#X obj 32 192 s clone;
#X msg 48 147 1 C T 1;
#X msg 64 168 1 N T 1;
#X msg 80 129 1 O T 1;
#X text 89 -87 sound design;
#X text 32 27 H C N O example;
#N canvas 596 437 731 305 1-layer-Q 0;
#X msg 108 143 3 H B 1;
#X obj 107 58 bng 20 250 50 0 empty empty Q1 22 13 0 10 -232576 -1
-1;
#X obj 102 176 s clone;
#X msg 103 94 1 N T 1;
#X msg 74 118 2 O L 1;
#X msg 138 118 4 C R 1;
#X obj 264 56 bng 20 250 50 0 empty empty Q2 22 13 0 10 -203904 -1
-1;
#X obj 258 174 s clone;
#X msg 230 116 2 - L 1;
#X msg 264 141 3 O B 1;
#X msg 294 116 4 N R 1;
#X msg 259 92 1 C T 1;
#X msg 415 144 3 H B 1;
#X obj 414 59 bng 20 250 50 0 empty empty Q3 22 13 0 10 -204800 -1
-1;
#X obj 409 177 s clone;
#X msg 410 95 1 C T 1;
#X msg 381 119 2 C L 1;
#X msg 445 119 4 N R 1;
#X obj 554 59 bng 20 250 50 0 empty empty Q4 22 13 0 10 -204786 -1
-1;
#X obj 549 177 s clone;
#X msg 550 95 1 H T 1;
#X msg 521 119 2 N L 1;
#X msg 554 144 3 C B 1;
#X msg 585 119 4 O R 1;
#X connect 0 0 2 0;
#X connect 1 0 3 0;
#X connect 1 0 5 0;
#X connect 1 0 0 0;
#X connect 1 0 4 0;
#X connect 3 0 2 0;
#X connect 4 0 2 0;
#X connect 5 0 2 0;
#X connect 6 0 11 0;
#X connect 6 0 10 0;
#X connect 6 0 9 0;
#X connect 6 0 8 0;
#X connect 8 0 7 0;
#X connect 9 0 7 0;
#X connect 10 0 7 0;
#X connect 11 0 7 0;
#X connect 12 0 14 0;
#X connect 13 0 15 0;
#X connect 13 0 17 0;
#X connect 13 0 12 0;
#X connect 13 0 16 0;
#X connect 15 0 14 0;
#X connect 16 0 14 0;
#X connect 17 0 14 0;
#X connect 18 0 20 0;
#X connect 18 0 23 0;
#X connect 18 0 22 0;
#X connect 18 0 21 0;
#X connect 20 0 19 0;
#X connect 21 0 19 0;
#X connect 22 0 19 0;
#X connect 23 0 19 0;
#X restore 176 50 pd 1-layer-Q;
#N canvas 133 22 1084 525 2-layer-Q 0;
#X obj 72 59 bng 20 250 50 0 empty empty Q1 22 13 0 10 -232576 -1 -1
;
#X obj 66 169 s clone;
#X obj 374 57 bng 20 250 50 0 empty empty Q2 22 13 0 10 -203904 -1
-1;
#X obj 369 231 s clone;
#X obj 612 57 bng 20 250 50 0 empty empty Q3 22 13 0 10 -204800 -1
-1;
#X obj 614 239 s clone;
#X msg 608 93 1 C T 1;
#X msg 107 118 2 C R 1;
#X msg 36 118 1 N L 1;
#X msg 161 117 3 O R 2;
#X msg 215 118 4 H R 3;
#X msg 371 93 1 H T 2;
#X msg 357 118 2 C T 1;
#X msg 377 151 3 C B 1;
#X msg 389 181 4 O R 2;
#X obj 368 268 bng 20 250 50 0 empty empty Q2 22 13 0 10 -203904 -1
-1;
#X obj 367 434 s clone;
#X msg 388 291 1 H T 1;
#X msg 354 341 2 C B 1;
#X msg 372 364 3 C B 2;
#X msg 387 384 4 O R 3;
#X msg 527 135 2 C L 1;
#X msg 522 157 3 N L 2;
#X msg 695 132 6 H R 1;
#X msg 619 163 4 C B 1;
#X msg 627 185 5 O B 2;
#X obj 870 43 bng 20 250 50 0 empty empty Q4 22 13 0 10 -204786 -1
-1;
#X obj 872 225 s clone;
#X msg 785 121 2 C L 1;
#X msg 866 79 1 O T 1;
#X msg 780 143 3 H L 2;
#X msg 877 149 4 O B 1;
#X msg 885 171 5 H B 2;
#X msg 953 118 6 C R 1;
#X msg 956 141 7 H R 2;
#X obj 628 287 bng 20 250 50 0 empty empty Q5 22 13 0 10 -262130 -1
-1;
#X obj 630 469 s clone;
#X msg 543 365 2 C L 1;
#X msg 643 415 5 H B 2;
#X msg 714 385 7 H R 2;
#X msg 624 323 1 H T 1;
#X msg 635 393 4 C B 1;
#X msg 538 387 3 N L 2;
#X msg 711 362 6 O R 1;
#X obj 893 281 bng 20 250 50 0 empty empty Q6 22 13 0 10 -261682 -1
-1;
#X obj 895 463 s clone;
#X msg 803 381 3 H L 2;
#X msg 900 387 4 O B 1;
#X msg 908 409 5 H B 2;
#X msg 808 359 2 N L 1;
#X msg 889 317 1 C T 1;
#X msg 976 356 6 H R 1;
#X connect 0 0 7 0;
#X connect 0 0 8 0;
#X connect 0 0 9 0;
#X connect 0 0 10 0;
#X connect 2 0 11 0;
#X connect 2 0 14 0;
#X connect 2 0 13 0;
#X connect 2 0 12 0;
#X connect 4 0 6 0;
#X connect 4 0 23 0;
#X connect 4 0 24 0;
#X connect 4 0 21 0;
#X connect 4 0 22 0;
#X connect 4 0 25 0;
#X connect 6 0 5 0;
#X connect 7 0 1 0;
#X connect 8 0 1 0;
#X connect 9 0 1 0;
#X connect 10 0 1 0;
#X connect 11 0 3 0;
#X connect 12 0 3 0;
#X connect 13 0 3 0;
#X connect 14 0 3 0;
#X connect 15 0 17 0;
#X connect 15 0 20 0;
#X connect 15 0 19 0;
#X connect 15 0 18 0;
#X connect 17 0 16 0;
#X connect 18 0 16 0;
#X connect 19 0 16 0;
#X connect 20 0 16 0;
#X connect 21 0 5 0;
#X connect 22 0 5 0;
#X connect 23 0 5 0;
#X connect 24 0 5 0;
#X connect 25 0 5 0;
#X connect 26 0 29 0;
#X connect 26 0 33 0;
#X connect 26 0 31 0;
#X connect 26 0 28 0;
#X connect 26 0 30 0;
#X connect 26 0 32 0;
#X connect 26 0 34 0;
#X connect 28 0 27 0;
#X connect 29 0 27 0;
#X connect 30 0 27 0;
#X connect 31 0 27 0;
#X connect 32 0 27 0;
#X connect 33 0 27 0;
#X connect 34 0 27 0;
#X connect 35 0 40 0;
#X connect 35 0 43 0;
#X connect 35 0 41 0;
#X connect 35 0 37 0;
#X connect 35 0 42 0;
#X connect 35 0 38 0;
#X connect 35 0 39 0;
#X connect 37 0 36 0;
#X connect 38 0 36 0;
#X connect 39 0 36 0;
#X connect 40 0 36 0;
#X connect 41 0 36 0;
#X connect 42 0 36 0;
#X connect 43 0 36 0;
#X connect 44 0 50 0;
#X connect 44 0 51 0;
#X connect 44 0 47 0;
#X connect 44 0 49 0;
#X connect 44 0 46 0;
#X connect 44 0 48 0;
#X connect 46 0 45 0;
#X connect 47 0 45 0;
#X connect 48 0 45 0;
#X connect 49 0 45 0;
#X connect 50 0 45 0;
#X connect 51 0 45 0;
#X restore 175 84 pd 2-layer-Q;
#X connect 2 0 8 0;
#X connect 3 0 1 0;
#X connect 4 0 1 0;
#X connect 5 0 0 0;
#X connect 6 0 0 0;
#X connect 7 0 166 0;
#X connect 8 0 9 0;
#X connect 8 1 10 0;
#X connect 8 2 11 0;
#X connect 8 3 12 0;
#X connect 9 0 25 0;
#X connect 9 0 147 0;
#X connect 10 0 26 0;
#X connect 10 0 150 0;
#X connect 11 0 27 0;
#X connect 11 0 149 0;
#X connect 12 0 28 0;
#X connect 12 0 148 0;
#X connect 13 0 14 0;
#X connect 14 0 23 0;
#X connect 15 0 16 0;
#X connect 15 1 18 1;
#X connect 16 0 17 0;
#X connect 17 0 82 0;
#X connect 17 1 18 0;
#X connect 18 0 19 0;
#X connect 19 0 20 0;
#X connect 19 1 34 0;
#X connect 19 2 41 0;
#X connect 19 3 48 0;
#X connect 19 4 172 0;
#X connect 20 0 22 0;
#X connect 20 0 104 0;
#X connect 21 0 22 1;
#X connect 21 0 24 1;
#X connect 22 0 13 0;
#X connect 23 0 24 0;
#X connect 24 0 53 0;
#X connect 29 0 31 0;
#X connect 30 0 7 0;
#X connect 32 0 33 0;
#X connect 33 0 36 0;
#X connect 34 0 35 0;
#X connect 34 0 105 0;
#X connect 35 0 32 0;
#X connect 36 0 37 0;
#X connect 37 0 54 0;
#X connect 38 0 35 1;
#X connect 38 0 37 1;
#X connect 39 0 40 0;
#X connect 40 0 43 0;
#X connect 41 0 42 0;
#X connect 41 0 106 0;
#X connect 42 0 39 0;
#X connect 43 0 44 0;
#X connect 44 0 55 0;
#X connect 45 0 42 1;
#X connect 45 0 44 1;
#X connect 46 0 47 0;
#X connect 47 0 50 0;
#X connect 48 0 49 0;
#X connect 48 0 107 0;
#X connect 49 0 46 0;
#X connect 50 0 51 0;
#X connect 51 0 56 0;
#X connect 52 0 49 1;
#X connect 52 0 51 1;
#X connect 53 0 57 0;
#X connect 54 0 59 0;
#X connect 55 0 61 0;
#X connect 56 0 63 0;
#X connect 57 0 29 0;
#X connect 58 0 31 0;
#X connect 59 0 58 0;
#X connect 60 0 31 0;
#X connect 61 0 60 0;
#X connect 62 0 31 0;
#X connect 63 0 62 0;
#X connect 64 0 1 0;
#X connect 65 0 1 0;
#X connect 66 0 206 0;
#X connect 66 0 216 1;
#X connect 67 0 216 2;
#X connect 68 0 205 0;
#X connect 68 0 216 0;
#X connect 69 0 216 3;
#X connect 70 0 0 0;
#X connect 71 0 0 0;
#X connect 72 0 73 0;
#X connect 72 0 114 0;
#X connect 72 0 156 0;
#X connect 74 0 183 0;
#X connect 75 0 76 0;
#X connect 75 0 115 0;
#X connect 75 0 157 0;
#X connect 77 0 78 0;
#X connect 77 0 116 0;
#X connect 77 0 158 0;
#X connect 79 0 80 0;
#X connect 79 0 117 0;
#X connect 79 0 159 0;
#X connect 81 0 82 1;
#X connect 82 0 93 0;
#X connect 83 0 84 0;
#X connect 84 0 85 0;
#X connect 85 0 92 0;
#X connect 86 0 87 0;
#X connect 87 0 88 0;
#X connect 88 0 90 0;
#X connect 89 0 90 1;
#X connect 90 0 99 0;
#X connect 90 0 101 0;
#X connect 90 0 102 0;
#X connect 90 0 103 0;
#X connect 91 0 108 0;
#X connect 92 0 91 0;
#X connect 93 0 83 1;
#X connect 93 1 83 0;
#X connect 93 2 84 1;
#X connect 94 0 89 0;
#X connect 95 0 94 0;
#X connect 96 0 98 0;
#X connect 97 0 95 0;
#X connect 97 0 96 0;
#X connect 97 1 94 1;
#X connect 98 0 95 0;
#X connect 98 1 94 1;
#X connect 99 0 170 0;
#X connect 100 0 99 1;
#X connect 100 1 101 1;
#X connect 100 2 102 1;
#X connect 100 3 103 1;
#X connect 101 0 170 1;
#X connect 102 0 170 2;
#X connect 103 0 170 3;
#X connect 104 0 100 0;
#X connect 105 0 100 0;
#X connect 106 0 100 0;
#X connect 107 0 100 0;
#X connect 108 0 97 0;
#X connect 109 0 111 1;
#X connect 110 0 178 0;
#X connect 111 0 188 0;
#X connect 112 0 138 0;
#X connect 113 0 139 0;
#X connect 118 0 140 0;
#X connect 119 0 141 0;
#X connect 120 0 174 0;
#X connect 121 0 175 0;
#X connect 122 0 120 0;
#X connect 123 0 121 0;
#X connect 124 0 176 0;
#X connect 125 0 124 0;
#X connect 126 0 177 0;
#X connect 127 0 126 0;
#X connect 128 0 132 0;
#X connect 128 0 142 0;
#X connect 128 0 160 0;
#X connect 129 0 133 0;
#X connect 129 0 143 0;
#X connect 129 0 161 0;
#X connect 130 0 134 0;
#X connect 130 0 144 0;
#X connect 130 0 162 0;
#X connect 131 0 135 0;
#X connect 131 0 145 0;
#X connect 131 0 163 0;
#X connect 136 0 4 0;
#X connect 136 0 6 0;
#X connect 137 0 65 0;
#X connect 137 0 71 0;
#X connect 138 0 72 0;
#X connect 139 0 75 0;
#X connect 140 0 77 0;
#X connect 141 0 79 0;
#X connect 147 0 122 0;
#X connect 147 1 112 0;
#X connect 148 0 127 0;
#X connect 148 1 119 0;
#X connect 149 0 125 0;
#X connect 149 1 118 0;
#X connect 150 0 123 0;
#X connect 150 1 113 0;
#X connect 153 0 164 0;
#X connect 153 0 165 0;
#X connect 155 0 154 0;
#X connect 166 0 152 0;
#X connect 166 1 153 0;
#X connect 166 2 2 0;
#X connect 166 3 167 0;
#X connect 168 0 167 0;
#X connect 171 0 200 0;
#X connect 172 0 100 0;
#X connect 173 0 171 0;
#X connect 174 0 128 0;
#X connect 175 0 129 0;
#X connect 176 0 130 0;
#X connect 177 0 131 0;
#X connect 179 0 111 0;
#X connect 180 0 181 0;
#X connect 181 0 179 0;
#X connect 184 0 185 0;
#X connect 184 1 186 1;
#X connect 185 0 186 0;
#X connect 186 0 187 0;
#X connect 187 0 173 0;
#X connect 188 0 205 0;
#X connect 188 0 216 0;
#X connect 188 1 206 0;
#X connect 188 1 216 1;
#X connect 188 2 216 2;
#X connect 188 3 216 3;
#X connect 189 0 190 0;
#X connect 189 1 191 1;
#X connect 190 0 191 0;
#X connect 191 0 198 0;
#X connect 192 0 195 0;
#X connect 193 0 7 0;
#X connect 193 0 82 1;
#X connect 194 0 195 1;
#X connect 195 0 193 0;
#X connect 196 0 194 0;
#X connect 198 0 192 0;
#X connect 198 1 196 0;
#X connect 201 0 199 0;
#X connect 202 0 201 0;
#X connect 205 0 204 0;
#X connect 206 0 204 1;
#X connect 207 0 204 0;
#X connect 208 0 204 0;
#X connect 209 0 204 0;
#X connect 210 0 211 0;
#X connect 210 1 213 0;
#X connect 211 0 212 0;
#X connect 212 0 214 0;
#X connect 213 0 212 1;
#X connect 214 0 215 0;
#X connect 214 1 218 0;
#X connect 214 2 219 0;
#X connect 214 3 220 0;
#X connect 215 0 217 0;
#X connect 218 0 217 0;
#X connect 219 0 217 0;
#X connect 220 0 217 0;
