#N canvas 315 126 372 643 10;
#X obj 105 69 inlet;
#X obj 105 112 text get AminoElement 0 2;
#X obj 105 154 unpack f s;
#X floatatom 105 196 5 0 0 0 - - -;
#X symbolatom 217 200 10 0 0 0 - - -;
#X obj 107 294 f;
#X obj 105 372 pack f s;
#X obj 243 328 symbol;
#X obj 105 236 t b f b;
#X obj 217 240 t b s b b;
#X obj 85 425 outlet;
#X msg 284 278 -;
#X obj 201 425 outlet;
#X connect 0 0 1 0;
#X connect 1 0 2 0;
#X connect 1 0 10 0;
#X connect 2 0 3 0;
#X connect 2 1 4 0;
#X connect 3 0 8 0;
#X connect 4 0 9 0;
#X connect 5 0 12 0;
#X connect 6 0 10 0;
#X connect 8 0 5 0;
#X connect 8 1 5 1;
#X connect 9 0 7 0;
#X connect 9 1 7 1;
#X connect 9 2 5 0;
#X connect 9 3 11 0;
#X connect 11 0 7 0;
