#N canvas 45 23 567 467 10;
#X obj 69 110 float;
#X obj 120 110 + 1;
#X obj 110 217 array get previous_clone_instances 0 1;
#X obj 146 245 array get current_clone_instances 0 1;
#X obj 112 283 == 1;
#X obj 146 283 == 0;
#X obj 113 305 &&;
#X obj 113 328 == 1;
#X obj 122 380 float;
#X obj 110 189 t f f f;
#X obj 113 346 sel 1;
#X obj 69 128 t f f;
#X msg 69 76 0;
#X obj 69 169 sel 1;
#X obj 56 192 bng 15 250 50 0 empty empty empty 17 7 0 10 -262144 -1
-1;
#X obj 69 151 < 99;
#X obj 67 20 inlet;
#X obj 67 47 bng 15 250 50 0 empty empty empty 17 7 0 10 -262144 -1
-1;
#X obj 122 438 outlet;
#X msg 121 413 \$1 -;
#X connect 0 0 11 0;
#X connect 1 0 0 1;
#X connect 2 0 4 0;
#X connect 3 0 5 0;
#X connect 4 0 6 0;
#X connect 5 0 6 1;
#X connect 6 0 7 0;
#X connect 7 0 10 0;
#X connect 8 0 19 0;
#X connect 9 0 2 0;
#X connect 9 1 3 0;
#X connect 9 2 8 1;
#X connect 10 0 8 0;
#X connect 11 0 15 0;
#X connect 11 1 9 0;
#X connect 11 1 1 0;
#X connect 12 0 0 0;
#X connect 13 0 14 0;
#X connect 14 0 0 0;
#X connect 15 0 13 0;
#X connect 16 0 17 0;
#X connect 17 0 12 0;
#X connect 19 0 18 0;
