#N canvas 511 36 1206 960 10;
#X obj 259 179 bng 15 250 50 0 empty empty empty 17 7 0 10 -262144
-1 -1;
#X obj 260 369 sel 0;
#X obj 259 199 t b b;
#X floatatom 259 279 5 0 0 0 - - -;
#X msg 259 230 1;
#X obj 258 258 +;
#X obj 287 231 f;
#X obj 257 115 tgl 15 0 empty empty empty 17 7 0 10 -262144 -1 -1 0
1;
#X floatatom 259 317 5 0 0 0 - - -;
#X msg 257 76 1;
#X msg 416 201 0;
#X symbolatom 328 -14 10 0 0 0 - - -;
#X obj 53 97 inlet;
#X obj 107 241 sel L B R T;
#X symbolatom 107 201 10 0 0 0 - - -;
#X symbolatom 12 186 10 0 0 0 - - -;
#X obj 17 693 *~;
#X floatatom 120 590 5 0 0 0 - - -;
#X obj 83 696 *~;
#X floatatom 171 589 5 0 0 0 - - -;
#X obj 155 693 *~;
#X floatatom 222 588 5 0 0 0 - - -;
#X obj 234 691 *~;
#X floatatom 272 587 5 0 0 0 - - -;
#X msg 137 540 1 0 0 0;
#X obj 137 564 unpack f f f f;
#X msg 174 499 0 0 1 0;
#X obj 120 635 line;
#X obj 171 634 line;
#X obj 222 633 line;
#X obj 272 632 line;
#X msg 171 611 \$1 100;
#X msg 120 612 \$1 100;
#X msg 222 610 \$1 100;
#X msg 272 609 \$1 100;
#X obj 17 614 catch~ \$0-audio;
#X obj 14 243 s \$0-element;
#X obj 328 -39 r \$0-element;
#X obj 107 325 s \$0-L;
#X obj 122 305 s \$0-B;
#X obj 138 286 s \$0-R;
#X obj 154 266 s \$0-T;
#X obj 296 290 r \$0-L;
#X obj 328 267 r \$0-B;
#X obj 359 289 r \$0-R;
#X obj 390 267 r \$0-T;
#X obj 325 9 sel H O OH NH2 -;
#X obj 137 451 r \$0-L;
#X obj 151 473 r \$0-B;
#X obj 182 451 r \$0-R;
#X obj 199 472 r \$0-T;
#X text 281 654 speaker control;
#X msg 296 319 1;
#X msg 328 319 2;
#X msg 359 318 3;
#X msg 390 318 0;
#X msg 356 387 0 10;
#X obj 260 398 bng 15 250 50 0 empty empty empty 17 7 0 10 -262144
-1 -1;
#X msg 287 74 0;
#X obj 466 26 t b b b;
#X obj 460 194 t f f;
#X obj 332 195 t b b a b;
#X obj 12 762 throw~ K1;
#X obj 88 764 throw~ K2;
#X obj 172 763 throw~ K3;
#X obj 244 762 throw~ K4;
#X msg 151 521 0 1 0 0;
#X msg 199 541 0 0 0 1;
#X text 882 396 1) smaller number with high frequency;
#X obj 780 929 throw~ \$0-audio;
#X obj 260 418 s \$0-bang;
#X obj 18 652 *~ 0.8;
#X obj 902 824 clip~ -0.6 0.6;
#X obj 810 737 bp~ 1 1;
#X obj 888 737 bp~ 1 1;
#X obj 955 738 bp~ 1 1;
#X obj 1025 738 bp~ 1 1;
#X obj 721 676 hip~ 200;
#X obj 888 758 *~ 0.6;
#X obj 955 759 *~ 0.4;
#X obj 1025 759 *~ 0.4;
#X text 485 246 220 330 460 800 100;
#X obj 259 299 mod 8;
#X obj 907 910 *~ 3;
#X obj 327 59 t b b;
#X obj 363 60 t b b;
#X obj 401 60 t b b;
#X obj 481 60 t b b;
#X obj 441 62 t b b;
#X obj 236 142 metro 4000;
#X obj 541 671 *~;
#X obj 541 692 *~ 0.2;
#X obj 519 491 noise~;
#X obj 517 602 *~;
#X obj 779 412 sel 0 1 2;
#X msg 779 453 0;
#X msg 750 451 1;
#X floatatom 921 444 5 0 0 0 - - -;
#X floatatom 946 852 5 0 0 0 - - -;
#X text 991 856 volume seperate control;
#X obj 603 489 brown~;
#X obj 667 490 pink~;
#X obj 603 594 *~;
#X obj 664 592 *~;
#X obj 536 574 line;
#X msg 535 555 \$1 10;
#X obj 620 572 line;
#X msg 620 552 \$1 10;
#X obj 682 573 line;
#X msg 682 553 \$1 10;
#X msg 796 477 1;
#X msg 824 477 0;
#X msg 823 526 1;
#X msg 851 526 0;
#X obj 923 421 unpack f f f f f f f;
#X msg 829 543 0;
#X obj 667 519 >~ 0.5998;
#X obj 603 521 >~ 0.9996;
#X obj 729 832 else/vu~;
#X obj 712 867 vu 15 120 empty empty -1 -8 0 10 -66577 -1 1 0;
#X obj 810 761 *~ 0.8;
#X msg 645 216 1 220 300 410 600 120 5;
#X obj 939 893 line;
#X floatatom 939 914 5 0 0 0 - - -;
#X msg 938 874 \$1 500;
#X text 992 871 comment;
#X msg 530 73 0;
#X obj 358 763 throw~ Reverb;
#X obj 53 132 unpack s s f;
#X floatatom 48 368 5 0 0 0 - - -;
#X msg 48 423 0.8;
#X obj 48 388 sel 1 2 3;
#X floatatom 551 455 8 0 0 0 - - -;
#X text 585 426 density control;
#X obj 812 68 gate 3;
#X floatatom 829 662 5 0 0 0 - - -;
#X floatatom 907 664 5 0 0 0 - - -;
#X floatatom 49 589 5 0 0 0 - - -;
#X msg 77 422 0.2;
#X msg 107 423 0.08;
#X obj 902 803 *~ 500;
#X obj 518 520 >~ 0.9985;
#X msg 325 104 0 359 426 1748 3000 123 0.8;
#X text 96 404 direct sound loudness;
#X text 1005 121 1 244 333 455 667 150 5;
#X floatatom 978 666 5 0 0 0 - - -;
#X floatatom 1052 669 5 0 0 0 - - -;
#X floatatom 1103 509 5 0 0 0 - - -;
#X floatatom 863 662 5 0 0 0 - - -;
#X floatatom 941 665 5 0 0 0 - - -;
#X floatatom 1014 667 5 0 0 0 - - -;
#X floatatom 1084 669 5 0 0 0 - - -;
#X floatatom 642 451 8 0 0 0 - - -;
#X floatatom 707 445 5 0 0 0 - - -;
#X text 999 100 1 220 300 410 600 150 5;
#X text 1012 146 1 271 367 505 739 150 5;
#X text 501 129 1 100 200 350 441 200 9;
#X obj 603 15 gate 4;
#X obj 590 -94 r \$0-L;
#X obj 604 -72 r \$0-B;
#X obj 635 -94 r \$0-R;
#X obj 652 -73 r \$0-T;
#X msg 590 -48 1;
#X msg 604 -24 2;
#X msg 624 -48 3;
#X msg 634 -26 4;
#X floatatom 603 -4 5 0 0 0 - - -;
#X obj 467 321 s \$0-density;
#X msg 450 287 0.9985;
#X obj 596 363 r \$0-density;
#X floatatom 596 384 5 0 0 0 - - -;
#X obj 582 409 f;
#X obj 652 409 f;
#X msg 363 154 1 50 80 160 220.1 100 8;
#X obj 750 472 t f b;
#X obj 796 498 t f b;
#X msg 600 34 0 320 799 1647 2677 123 1.5;
#X msg 608 55 0 352 877 1811 2941.1 123 1.5;
#X msg 627 76 0 389 967 1993 3239 123 1.5;
#X msg 643 97 0 425 1061 2191.3 3561 123 1.5;
#X msg 498 290 0.9998;
#X msg 546 287 0.9996;
#X msg 595 288 0.9993;
#X msg 544 197 1 130 271 441 553 395 51;
#X msg 355 130 1 100 201 350 461 294 33;
#X msg 813 101 1 220 305 574 881 116 8.5;
#X msg 829 122 1 244 333.1 629 971 116 8.5;
#X msg 842 147 1 271 367 691.1 1067 116 8.5;
#X obj 592 627 noise~;
#X obj 592 648 *~ 0.6;
#X connect 0 0 2 0;
#X connect 1 0 57 0;
#X connect 1 1 56 0;
#X connect 2 0 4 0;
#X connect 2 1 6 0;
#X connect 3 0 6 1;
#X connect 3 0 82 0;
#X connect 4 0 5 0;
#X connect 5 0 3 0;
#X connect 6 0 5 1;
#X connect 7 0 89 0;
#X connect 8 0 1 0;
#X connect 9 0 7 0;
#X connect 10 0 60 0;
#X connect 11 0 46 0;
#X connect 12 0 128 0;
#X connect 13 0 38 0;
#X connect 13 1 39 0;
#X connect 13 2 40 0;
#X connect 13 3 41 0;
#X connect 14 0 13 0;
#X connect 15 0 36 0;
#X connect 16 0 62 0;
#X connect 17 0 32 0;
#X connect 18 0 63 0;
#X connect 19 0 31 0;
#X connect 20 0 64 0;
#X connect 21 0 33 0;
#X connect 22 0 65 0;
#X connect 23 0 34 0;
#X connect 24 0 25 0;
#X connect 25 0 17 0;
#X connect 25 1 19 0;
#X connect 25 2 21 0;
#X connect 25 3 23 0;
#X connect 26 0 25 0;
#X connect 27 0 16 1;
#X connect 28 0 18 1;
#X connect 29 0 20 1;
#X connect 30 0 22 1;
#X connect 31 0 28 0;
#X connect 32 0 27 0;
#X connect 33 0 29 0;
#X connect 34 0 30 0;
#X connect 35 0 71 0;
#X connect 35 0 127 0;
#X connect 37 0 11 0;
#X connect 42 0 52 0;
#X connect 43 0 53 0;
#X connect 44 0 54 0;
#X connect 45 0 55 0;
#X connect 46 0 84 0;
#X connect 46 1 85 0;
#X connect 46 2 86 0;
#X connect 46 3 88 0;
#X connect 46 4 59 0;
#X connect 46 5 87 0;
#X connect 47 0 24 0;
#X connect 48 0 66 0;
#X connect 49 0 26 0;
#X connect 50 0 67 0;
#X connect 52 0 1 1;
#X connect 53 0 1 1;
#X connect 54 0 1 1;
#X connect 55 0 1 1;
#X connect 57 0 70 0;
#X connect 58 0 7 0;
#X connect 59 0 10 0;
#X connect 59 1 58 0;
#X connect 59 2 126 0;
#X connect 60 0 8 0;
#X connect 60 1 3 0;
#X connect 61 0 9 0;
#X connect 61 1 10 0;
#X connect 61 2 114 0;
#X connect 61 3 58 0;
#X connect 66 0 25 0;
#X connect 67 0 25 0;
#X connect 71 0 16 0;
#X connect 71 0 18 0;
#X connect 71 0 20 0;
#X connect 71 0 22 0;
#X connect 72 0 83 0;
#X connect 73 0 120 0;
#X connect 74 0 78 0;
#X connect 75 0 79 0;
#X connect 76 0 80 0;
#X connect 77 0 73 0;
#X connect 77 0 74 0;
#X connect 77 0 75 0;
#X connect 77 0 76 0;
#X connect 78 0 140 0;
#X connect 79 0 140 0;
#X connect 80 0 140 0;
#X connect 82 0 8 0;
#X connect 83 0 69 0;
#X connect 83 0 118 0;
#X connect 84 0 142 0;
#X connect 84 0 157 1;
#X connect 84 1 168 0;
#X connect 85 0 184 0;
#X connect 85 1 180 0;
#X connect 86 0 173 0;
#X connect 87 0 121 0;
#X connect 87 0 134 1;
#X connect 87 1 182 0;
#X connect 88 0 183 0;
#X connect 88 1 181 0;
#X connect 90 0 91 0;
#X connect 91 0 77 0;
#X connect 92 0 141 0;
#X connect 93 0 90 0;
#X connect 94 0 96 0;
#X connect 94 0 95 0;
#X connect 94 1 110 0;
#X connect 94 1 111 0;
#X connect 94 2 112 0;
#X connect 94 2 113 0;
#X connect 94 3 115 0;
#X connect 95 0 107 0;
#X connect 95 0 109 0;
#X connect 96 0 174 0;
#X connect 97 0 94 0;
#X connect 98 0 124 0;
#X connect 100 0 117 0;
#X connect 101 0 116 0;
#X connect 102 0 90 0;
#X connect 104 0 93 1;
#X connect 105 0 104 0;
#X connect 106 0 102 1;
#X connect 107 0 106 0;
#X connect 108 0 103 1;
#X connect 109 0 108 0;
#X connect 110 0 175 0;
#X connect 111 0 105 0;
#X connect 111 0 109 0;
#X connect 112 0 109 0;
#X connect 113 0 107 0;
#X connect 113 0 105 0;
#X connect 114 0 97 0;
#X connect 114 1 135 0;
#X connect 114 2 136 0;
#X connect 114 3 145 0;
#X connect 114 4 146 0;
#X connect 114 5 147 0;
#X connect 114 6 98 0;
#X connect 115 0 105 0;
#X connect 115 0 107 0;
#X connect 115 0 109 0;
#X connect 116 0 103 0;
#X connect 117 0 102 0;
#X connect 118 0 119 0;
#X connect 120 0 140 0;
#X connect 122 0 83 1;
#X connect 122 0 123 0;
#X connect 124 0 122 0;
#X connect 126 0 98 0;
#X connect 128 0 15 0;
#X connect 128 1 14 0;
#X connect 128 2 129 0;
#X connect 129 0 131 0;
#X connect 129 0 134 0;
#X connect 130 0 137 0;
#X connect 131 0 130 0;
#X connect 131 1 138 0;
#X connect 131 2 139 0;
#X connect 132 0 141 1;
#X connect 134 0 185 0;
#X connect 134 1 186 0;
#X connect 134 2 187 0;
#X connect 135 0 73 1;
#X connect 136 0 74 1;
#X connect 137 0 71 1;
#X connect 138 0 137 0;
#X connect 139 0 137 0;
#X connect 140 0 72 0;
#X connect 141 0 93 0;
#X connect 145 0 75 1;
#X connect 146 0 76 1;
#X connect 147 0 148 0;
#X connect 147 0 151 0;
#X connect 147 0 150 0;
#X connect 147 0 149 0;
#X connect 148 0 73 2;
#X connect 149 0 74 2;
#X connect 150 0 75 2;
#X connect 151 0 76 2;
#X connect 152 0 117 1;
#X connect 153 0 116 1;
#X connect 157 0 176 0;
#X connect 157 1 177 0;
#X connect 157 2 178 0;
#X connect 157 3 179 0;
#X connect 158 0 162 0;
#X connect 159 0 163 0;
#X connect 160 0 164 0;
#X connect 161 0 165 0;
#X connect 162 0 166 0;
#X connect 163 0 166 0;
#X connect 164 0 166 0;
#X connect 165 0 166 0;
#X connect 166 0 157 0;
#X connect 168 0 167 0;
#X connect 168 0 132 0;
#X connect 169 0 170 0;
#X connect 170 0 171 1;
#X connect 170 0 172 1;
#X connect 174 0 105 0;
#X connect 174 1 171 0;
#X connect 175 0 107 0;
#X connect 175 1 172 0;
#X connect 176 0 61 0;
#X connect 177 0 61 0;
#X connect 178 0 61 0;
#X connect 179 0 61 0;
#X connect 180 0 167 0;
#X connect 180 0 152 0;
#X connect 181 0 167 0;
#X connect 181 0 152 0;
#X connect 182 0 152 0;
#X connect 183 0 61 0;
#X connect 184 0 61 0;
#X connect 185 0 61 0;
#X connect 186 0 61 0;
#X connect 187 0 61 0;
#X connect 188 0 189 0;
#X connect 189 0 90 1;
