#N canvas 0 23 1190 779 10;
#X floatatom 120 319 5 0 0 0 - - -;
#X msg 174 121 \$1 -;
#X floatatom 172 77 5 0 0 0 - - -;
#X obj 119 152 unpack 0 s;
#X obj 164 194 sel -;
#X msg 164 218 0;
#X msg 198 217 1;
#X obj 119 288 float;
#X obj 119 199 t b f;
#X obj 120 351 array set current_clone_instances;
#X floatatom 224 76 5 0 0 0 - - -;
#X msg 226 121 \$1 C;
#X floatatom 132 242 5 0 0 0 - - -;
#X obj 119 40 inlet;
#X connect 0 0 9 0;
#X connect 1 0 3 0;
#X connect 2 0 1 0;
#X connect 3 0 8 0;
#X connect 3 1 4 0;
#X connect 4 0 5 0;
#X connect 4 1 6 0;
#X connect 5 0 7 1;
#X connect 6 0 7 1;
#X connect 7 0 0 0;
#X connect 8 0 7 0;
#X connect 8 1 9 1;
#X connect 8 1 12 0;
#X connect 10 0 11 0;
#X connect 11 0 3 0;
#X connect 13 0 3 0;
