#N canvas 3 23 1676 1005 10;
#X floatatom 360 276 5 0 0 0 - - -;
#X msg 414 78 \$1 -;
#X floatatom 412 34 5 0 0 0 - - -;
#X obj 359 109 unpack 0 s;
#X obj 404 151 sel -;
#X msg 404 175 0;
#X msg 438 174 1;
#X obj 359 245 float;
#X obj 359 156 t b f;
#X obj 360 308 array set current_clone_instances;
#X floatatom 464 33 5 0 0 0 - - -;
#X msg 466 78 \$1 C;
#X floatatom 372 199 5 0 0 0 - - -;
#X obj 25 162 float;
#X obj 76 162 + 1;
#X obj 66 269 array get previous_clone_instances 0 1;
#X obj 102 297 array get current_clone_instances 0 1;
#X obj 68 335 == 1;
#X obj 102 335 == 0;
#X obj 69 357 &&;
#X obj 69 380 == 1;
#X obj 108 439 float;
#X obj 66 241 t f f f;
#X obj 69 398 sel 1;
#X obj 25 180 t f f;
#X msg 25 128 0;
#X obj 50 46 array define previous_clone_instances 100;
#X obj 51 82 array define current_clone_instances 109;
#X obj 25 221 sel 1;
#X obj 12 244 bng 15 250 50 0 empty empty empty 17 7 0 10 -262144 -1
-1;
#X obj 25 203 < 99;
#X obj 622 63 float;
#X obj 673 63 + 1;
#X obj 668 175 array get current_clone_instances 0 1;
#X obj 622 81 t f f;
#X msg 622 29 0;
#X obj 622 122 sel 1;
#X obj 609 145 bng 15 250 50 0 empty empty empty 17 7 0 10 -262144
-1 -1;
#X obj 622 104 < 99;
#X obj 667 209 array set previous_clone_instances;
#X obj 668 144 t f f;
#X obj 108 457 print offfff;
#X connect 0 0 9 0;
#X connect 1 0 3 0;
#X connect 2 0 1 0;
#X connect 3 0 8 0;
#X connect 3 1 4 0;
#X connect 4 0 5 0;
#X connect 4 1 6 0;
#X connect 5 0 7 1;
#X connect 6 0 7 1;
#X connect 7 0 0 0;
#X connect 8 0 7 0;
#X connect 8 1 9 1;
#X connect 8 1 12 0;
#X connect 10 0 11 0;
#X connect 11 0 3 0;
#X connect 13 0 24 0;
#X connect 14 0 13 1;
#X connect 15 0 17 0;
#X connect 16 0 18 0;
#X connect 17 0 19 0;
#X connect 18 0 19 1;
#X connect 19 0 20 0;
#X connect 20 0 23 0;
#X connect 21 0 41 0;
#X connect 22 0 15 0;
#X connect 22 1 16 0;
#X connect 22 2 21 1;
#X connect 23 0 21 0;
#X connect 24 0 30 0;
#X connect 24 1 22 0;
#X connect 24 1 14 0;
#X connect 25 0 13 0;
#X connect 28 0 29 0;
#X connect 29 0 13 0;
#X connect 30 0 28 0;
#X connect 31 0 34 0;
#X connect 32 0 31 1;
#X connect 33 0 39 0;
#X connect 34 0 38 0;
#X connect 34 1 32 0;
#X connect 34 1 40 0;
#X connect 35 0 31 0;
#X connect 36 0 37 0;
#X connect 37 0 31 0;
#X connect 38 0 36 0;
#X connect 40 0 33 0;
#X connect 40 1 39 1;
