#N canvas 248 22 1032 756 12;
#X obj 36 41 r clone;
#X obj 36 68 clone player-granular-frequency 23;
#X text 87 40 sound design;
#N canvas 43 22 1237 756 (subpatch) 0;
#X obj 35 479 list trim;
#X obj 55 388 list append L 1;
#X obj 35 446 list;
#X obj 37 428 bng 15 250 50 0 empty empty empty 17 7 0 10 -262144 -1
-1;
#X obj 55 366 list prepend 1;
#X symbolatom 18 115 10 0 0 0 - - -;
#X obj 201 477 list trim;
#X obj 201 444 list;
#X obj 200 424 bng 15 250 50 0 empty empty empty 17 7 0 10 -262144
-1 -1;
#X symbolatom 94 202 10 0 0 0 - - -;
#X obj 390 491 list trim;
#X obj 390 458 list;
#X obj 389 432 bng 15 250 50 0 empty empty empty 17 7 0 10 -262144
-1 -1;
#X symbolatom 175 114 10 0 0 0 - - -;
#X obj 548 489 list trim;
#X obj 548 456 list;
#X obj 548 434 bng 15 250 50 0 empty empty empty 17 7 0 10 -262144
-1 -1;
#X symbolatom 96 43 10 0 0 0 - - -;
#X obj 222 357 list prepend 2;
#X obj 411 357 list prepend 3;
#X obj 568 363 list prepend 4;
#X obj 222 381 list append B 1;
#X obj 411 382 list append R 1;
#X obj 568 390 list append T 1;
#X obj 35 540 s clone;
#X obj 202 538 s clone;
#X obj 390 550 s clone;
#X obj 548 551 s clone;
#X obj 37 408 r play-start;
#X obj 200 403 r play-start;
#X obj 389 408 r play-start;
#X obj 549 413 r play-start;
#X msg 336 29 4000;
#X obj 336 116 delay;
#X msg 364 179 all -;
#X floatatom 208 45 5 0 0 0 - - -;
#X obj 365 202 s clone;
#X obj 336 83 t b f b b;
#X obj 336 137 t b b;
#X obj 336 158 s record-stop;
#X obj 396 108 s record-start;
#X obj 380 131 s play-start;
#X obj 35 500 print left;
#X obj 201 498 print back;
#X obj 390 512 print right;
#X obj 548 515 print top;
#X text 41 21 H C N O -;
#X connect 0 0 24 0;
#X connect 0 0 42 0;
#X connect 1 0 2 1;
#X connect 1 0 0 0;
#X connect 3 0 2 0;
#X connect 4 0 1 0;
#X connect 5 0 4 0;
#X connect 6 0 25 0;
#X connect 6 0 43 0;
#X connect 8 0 7 0;
#X connect 9 0 18 0;
#X connect 10 0 26 0;
#X connect 10 0 44 0;
#X connect 12 0 11 0;
#X connect 13 0 19 0;
#X connect 14 0 27 0;
#X connect 14 0 45 0;
#X connect 16 0 15 0;
#X connect 17 0 20 0;
#X connect 18 0 21 0;
#X connect 19 0 22 0;
#X connect 20 0 23 0;
#X connect 21 0 7 1;
#X connect 21 0 6 0;
#X connect 22 0 11 1;
#X connect 22 0 10 0;
#X connect 23 0 15 1;
#X connect 23 0 14 0;
#X connect 28 0 3 0;
#X connect 29 0 8 0;
#X connect 30 0 12 0;
#X connect 31 0 16 0;
#X connect 32 0 35 0;
#X connect 33 0 38 0;
#X connect 34 0 36 0;
#X connect 35 0 37 0;
#X connect 37 0 33 0;
#X connect 37 1 33 1;
#X connect 37 2 41 0;
#X connect 37 3 40 0;
#X connect 38 0 39 0;
#X connect 38 1 34 0;
#X coords 0 1 100 -1 250 250 1 0 0;
#X restore 32 184 graph;
#X obj 351 56 keyname;
#X obj 351 77 sel 1;
#X obj 351 98 symbol;
#X symbolatom 390 77 10 0 0 3 - - -;
#X obj 351 119 sel h c n o;
#X msg 351 142 1 H T 1;
#X obj 350 205 s clone;
#X msg 366 160 1 C T 1;
#X msg 382 181 1 N T 1;
#X msg 398 142 1 O T 1;
#X text 350 40 H C N O example;
#N canvas 345 81 935 697 1-layer-Q 0;
#X obj 192 36 bng 20 250 50 0 empty empty Q2 22 13 0 10 -232576 -1
-1;
#X obj 186 154 s clone;
#X msg 222 96 4 N R 1;
#X msg 37 476 3 H B 1;
#X obj 36 391 bng 20 250 50 0 empty empty Q9 22 13 0 10 -204800 -1
-1;
#X obj 31 509 s clone;
#X msg 32 427 1 C T 1;
#X msg 3 451 2 C L 1;
#X msg 67 451 4 N R 1;
#X obj 192 391 bng 20 250 50 0 empty empty Q10 22 13 0 10 -204800 -1
-1;
#X obj 192 509 s clone;
#X msg 193 427 1 H T 1;
#X msg 228 451 4 O R 1;
#X obj 194 205 bng 20 250 50 0 empty empty Q6 22 13 0 10 -159808 -1
-1;
#X obj 189 323 s clone;
#X obj 489 207 bng 20 250 50 0 empty empty Q8 22 13 0 10 -159808 -1
-1;
#X obj 483 325 s clone;
#X msg 489 292 3 O B 1;
#X msg 519 267 4 N R 1;
#X msg 484 243 1 C T 1;
#X msg 158 96 2 O L 1;
#X msg 190 241 1 H T 1;
#X msg 455 267 2 C L 1;
#X msg 41 289 3 H B 1;
#X obj 40 204 bng 20 250 50 0 empty empty Q5 22 13 0 10 -159808 -1
-1;
#X obj 35 322 s clone;
#X msg 7 264 2 O L 1;
#X obj 343 207 bng 20 250 50 0 empty empty Q7 22 13 0 10 -159808 -1
-1;
#X obj 337 325 s clone;
#X msg 338 243 1 C T 1;
#X msg 36 240 1 H T 1;
#X msg 71 264 4 H R 1;
#X msg 309 267 2 C L 1;
#X obj 40 35 bng 20 250 50 0 empty empty Q1 22 13 0 10 -232576 -1 -1
;
#X obj 37 153 s clone;
#X msg 73 95 4 C R 1;
#X msg 9 95 2 C L 1;
#X obj 335 38 bng 20 250 50 0 empty empty Q3 22 13 0 10 -232576 -1
-1;
#X obj 327 151 s clone;
#X obj 476 38 bng 20 250 50 0 empty empty Q4 22 13 0 10 -232576 -1
-1;
#X obj 468 151 s clone;
#X msg 301 98 2 H L 1;
#X msg 365 98 4 O R 1;
#X msg 442 98 2 N L 1;
#X msg 506 98 4 C R 1;
#X msg 161 265 2 N L 1;
#X msg 195 290 3 H B 1;
#X msg 225 265 4 C R 1;
#X msg 373 267 4 O R 1;
#X msg 343 292 3 N B 1;
#X obj 350 386 bng 20 250 50 0 empty empty Q11 22 13 0 10 -204800 -1
-1;
#X obj 345 504 s clone;
#X msg 346 422 1 C T 1;
#X obj 506 386 bng 20 250 50 0 empty empty Q12 22 13 0 10 -204800 -1
-1;
#X obj 506 504 s clone;
#X msg 478 446 2 N L 1;
#X msg 511 471 3 C B 1;
#X msg 164 451 2 H L 1;
#X msg 197 476 3 H B 1;
#X msg 351 471 3 O B 1;
#X msg 317 446 2 N L 1;
#X msg 381 446 4 C R 1;
#X msg 542 446 4 N R 1;
#X msg 507 422 1 O T 1;
#X obj 30 589 bng 20 250 50 0 empty empty Q13 22 13 0 10 -262130 -1
-1;
#X obj 25 707 s clone;
#X msg 26 625 1 C T 1;
#X msg 61 649 4 N R 1;
#X obj 186 589 bng 20 250 50 0 empty empty Q14 22 13 0 10 -262130 -1
-1;
#X obj 186 707 s clone;
#X obj 344 584 bng 20 250 50 0 empty empty Q15 22 13 0 10 -262130 -1
-1;
#X obj 339 702 s clone;
#X obj 500 584 bng 20 250 50 0 empty empty Q16 22 13 0 10 -262130 -1
-1;
#X obj 500 702 s clone;
#X msg 501 620 1 O T 1;
#X obj 643 585 bng 20 250 50 0 empty empty Q17 22 13 0 10 -262130 -1
-1;
#X obj 638 703 s clone;
#X obj 799 585 bng 20 250 50 0 empty empty Q18 22 13 0 10 -262130 -1
-1;
#X obj 799 703 s clone;
#X msg 28 677 3 C B 1;
#X msg 191 674 3 N B 1;
#X msg 222 649 4 N R 1;
#X msg 340 620 1 H T 1;
#X msg 345 669 3 H B 1;
#X msg 311 644 2 C L 1;
#X msg 158 649 2 O L 1;
#X msg 472 644 2 C L 1;
#X msg 535 644 4 C R 1;
#X msg 505 669 3 N B 1;
#X msg 639 621 1 N T 1;
#X msg 644 670 3 C B 1;
#X msg 610 645 2 H L 1;
#X msg 674 645 4 H R 1;
#X msg 800 621 1 C T 1;
#X msg 771 645 2 O L 1;
#X msg 804 670 3 O B 1;
#X msg 835 645 4 H R 1;
#X connect 0 0 2 0;
#X connect 0 0 20 0;
#X connect 2 0 1 0;
#X connect 3 0 5 0;
#X connect 4 0 6 0;
#X connect 4 0 8 0;
#X connect 4 0 3 0;
#X connect 4 0 7 0;
#X connect 6 0 5 0;
#X connect 7 0 5 0;
#X connect 8 0 5 0;
#X connect 9 0 11 0;
#X connect 9 0 12 0;
#X connect 9 0 58 0;
#X connect 9 0 57 0;
#X connect 11 0 10 0;
#X connect 12 0 10 0;
#X connect 13 0 21 0;
#X connect 13 0 47 0;
#X connect 13 0 46 0;
#X connect 13 0 45 0;
#X connect 15 0 19 0;
#X connect 15 0 18 0;
#X connect 15 0 17 0;
#X connect 15 0 22 0;
#X connect 17 0 16 0;
#X connect 18 0 16 0;
#X connect 19 0 16 0;
#X connect 20 0 1 0;
#X connect 21 0 14 0;
#X connect 22 0 16 0;
#X connect 23 0 25 0;
#X connect 24 0 30 0;
#X connect 24 0 31 0;
#X connect 24 0 23 0;
#X connect 24 0 26 0;
#X connect 26 0 25 0;
#X connect 27 0 29 0;
#X connect 27 0 48 0;
#X connect 27 0 49 0;
#X connect 27 0 32 0;
#X connect 29 0 28 0;
#X connect 30 0 25 0;
#X connect 31 0 25 0;
#X connect 32 0 28 0;
#X connect 33 0 35 0;
#X connect 33 0 36 0;
#X connect 35 0 34 0;
#X connect 36 0 34 0;
#X connect 37 0 42 0;
#X connect 37 0 41 0;
#X connect 39 0 43 0;
#X connect 39 0 44 0;
#X connect 41 0 38 0;
#X connect 42 0 38 0;
#X connect 43 0 40 0;
#X connect 44 0 40 0;
#X connect 45 0 14 0;
#X connect 46 0 14 0;
#X connect 47 0 14 0;
#X connect 48 0 28 0;
#X connect 49 0 28 0;
#X connect 50 0 52 0;
#X connect 50 0 61 0;
#X connect 50 0 59 0;
#X connect 50 0 60 0;
#X connect 52 0 51 0;
#X connect 53 0 63 0;
#X connect 53 0 62 0;
#X connect 53 0 56 0;
#X connect 53 0 55 0;
#X connect 55 0 54 0;
#X connect 56 0 54 0;
#X connect 57 0 10 0;
#X connect 58 0 10 0;
#X connect 59 0 51 0;
#X connect 60 0 51 0;
#X connect 61 0 51 0;
#X connect 62 0 54 0;
#X connect 63 0 54 0;
#X connect 64 0 66 0;
#X connect 64 0 67 0;
#X connect 64 0 79 0;
#X connect 66 0 65 0;
#X connect 67 0 65 0;
#X connect 68 0 81 0;
#X connect 68 0 80 0;
#X connect 68 0 85 0;
#X connect 70 0 82 0;
#X connect 70 0 83 0;
#X connect 70 0 84 0;
#X connect 72 0 74 0;
#X connect 72 0 87 0;
#X connect 72 0 88 0;
#X connect 72 0 86 0;
#X connect 74 0 73 0;
#X connect 75 0 89 0;
#X connect 75 0 92 0;
#X connect 75 0 90 0;
#X connect 75 0 91 0;
#X connect 77 0 93 0;
#X connect 77 0 96 0;
#X connect 77 0 95 0;
#X connect 77 0 94 0;
#X connect 79 0 65 0;
#X connect 80 0 69 0;
#X connect 81 0 69 0;
#X connect 82 0 71 0;
#X connect 83 0 71 0;
#X connect 84 0 71 0;
#X connect 85 0 69 0;
#X connect 86 0 73 0;
#X connect 87 0 73 0;
#X connect 88 0 73 0;
#X connect 89 0 76 0;
#X connect 90 0 76 0;
#X connect 91 0 76 0;
#X connect 92 0 76 0;
#X connect 93 0 78 0;
#X connect 94 0 78 0;
#X connect 95 0 78 0;
#X connect 96 0 78 0;
#X restore 522 506 pd 1-layer-Q;
#X msg 491 168 all -;
#X obj 491 139 bng 25 250 50 0 empty empty empty 17 7 0 10 -261234
-1 -1;
#X obj 491 47 keyname;
#X obj 491 73 sel 1;
#X obj 491 94 symbol;
#X obj 491 115 sel Escape;
#X obj 491 189 s clone;
#X text 470 31 escape to stop sound;
#N canvas 43 22 1001 756 conditions-layer-2 0;
#X obj 87 234 bng 20 250 50 0 empty empty Q1 22 13 0 10 -232576 -1
-1;
#X obj 108 582 s clone;
#X msg 28 439 2 C L 1;
#N canvas 316 77 964 511 (subpatch) 0;
#X symbolatom 7 130 5 0 0 0 - - -;
#X symbolatom 50 128 5 0 0 0 - - -;
#X symbolatom 163 129 5 0 0 0 - - -;
#X symbolatom 208 130 5 0 0 0 - - -;
#X symbolatom 109 52 5 0 0 0 - - -;
#X symbolatom 109 81 5 0 0 0 - - -;
#X symbolatom 111 163 5 0 0 0 - - -;
#X symbolatom 110 199 5 0 0 0 - - -;
#X obj 384 50 r graph;
#X text 447 55 reset;
#X symbolatom 375 207 10 0 0 0 - - -;
#X msg 398 75 set -;
#X text 9 11 question;
#X floatatom 13 32 5 0 0 0 - - -;
#X obj 303 13 r q-num;
#X obj 539 65 r clone;
#X obj 540 98 unpack f s s f;
#X symbolatom 521 314 10 0 0 0 - - -;
#X symbolatom 601 234 10 0 0 0 - - -;
#X floatatom 667 155 5 0 0 0 - - -;
#X obj 379 380 symbol;
#X obj 430 383 symbol;
#X obj 483 382 symbol;
#X obj 541 380 symbol;
#X obj 592 383 symbol;
#X obj 645 382 symbol;
#X obj 694 384 symbol;
#X obj 747 383 symbol;
#X obj 663 286 sel T L B R;
#X obj 600 213 symbol;
#X obj 758 284 sel T L B R;
#X obj 673 178 sel 1 2;
#X obj 649 130 f;
#X symbolatom 676 231 10 0 0 0 - - -;
#X obj 675 210 symbol;
#X obj 517 132 t b s;
#X obj 200 22 bng 15 250 50 0 empty empty empty 17 7 0 10 -262144 -1
-1;
#X connect 8 0 11 0;
#X connect 11 0 4 0;
#X connect 11 0 5 0;
#X connect 11 0 6 0;
#X connect 11 0 7 0;
#X connect 11 0 2 0;
#X connect 11 0 3 0;
#X connect 11 0 0 0;
#X connect 11 0 1 0;
#X connect 11 0 10 0;
#X connect 14 0 13 0;
#X connect 15 0 16 0;
#X connect 16 1 35 0;
#X connect 16 2 29 1;
#X connect 16 2 34 1;
#X connect 16 3 32 1;
#X connect 17 0 21 1;
#X connect 17 0 22 1;
#X connect 17 0 20 1;
#X connect 17 0 23 1;
#X connect 17 0 24 1;
#X connect 17 0 25 1;
#X connect 17 0 26 1;
#X connect 17 0 27 1;
#X connect 18 0 28 0;
#X connect 19 0 31 0;
#X connect 20 0 5 0;
#X connect 21 0 1 0;
#X connect 22 0 6 0;
#X connect 23 0 2 0;
#X connect 24 0 4 0;
#X connect 25 0 0 0;
#X connect 26 0 7 0;
#X connect 27 0 3 0;
#X connect 28 0 20 0;
#X connect 28 1 21 0;
#X connect 28 2 22 0;
#X connect 28 3 23 0;
#X connect 29 0 18 0;
#X connect 30 0 24 0;
#X connect 30 1 25 0;
#X connect 30 2 26 0;
#X connect 30 3 27 0;
#X connect 31 0 29 0;
#X connect 31 1 34 0;
#X connect 32 0 19 0;
#X connect 33 0 30 0;
#X connect 34 0 33 0;
#X connect 35 0 32 0;
#X connect 35 1 17 0;
#X connect 36 0 11 0;
#X coords 0 1 100 -1 250 250 1 0 0;
#X restore 892 674 graph;
#X msg 22 356 1;
#X obj 23 385 s q-num;
#X msg 96 388 1 H T 1;
#X msg 94 496 3 C B 1;
#X msg 28 465 6 H L 2;
#X msg 183 455 8 H R 2;
#X msg 95 522 7 C B 2;
#X msg 179 435 4 O R 1;
#X obj 447 260 bng 20 250 50 0 empty empty Q2 22 13 0 10 -261682 -1
-1;
#X obj 453 520 s clone;
#X obj 544 477 hradio 15 1 0 8 empty empty empty 0 -8 0 10 -262144
-1 -1 0;
#X obj 545 505 sel 0 1 2 3 4 5 6 7;
#X obj 368 323 s q-num;
#X msg 441 326 1 H T 1;
#X msg 439 434 3 C B 1;
#X msg 373 404 6 H L 2;
#X msg 367 294 2;
#X msg 373 377 2 N L 1;
#X msg 440 460 7 H B 2;
#X msg 524 373 4 C R 1;
#X msg 527 399 8 O R 2;
#X obj 849 295 bng 20 250 50 0 empty empty Q3 22 13 0 10 -203904 -1
-1;
#X obj 855 555 s clone;
#X obj 952 519 hradio 15 1 0 8 empty empty empty 0 -8 0 10 -262144
-1 -1 3;
#X obj 951 546 sel 0 1 2 3 4 5 6 7;
#X obj 770 358 s q-num;
#X msg 843 361 1 H T 1;
#X msg 841 469 3 C B 1;
#X msg 842 495 7 C B 2;
#X msg 769 329 3;
#X msg 934 397 4 C R 1;
#X msg 930 428 8 O R 2;
#X msg 775 412 2 N L 1;
#X msg 775 437 6 C L 2;
#X obj 114 661 bng 20 250 50 0 empty empty Q4 22 13 0 10 -262130 -1
-1;
#X obj 120 921 s clone;
#X msg 40 778 2 C L 1;
#X obj 244 893 hradio 15 1 0 8 empty empty empty 0 -8 0 10 -262144
-1 -1 1;
#X obj 243 920 sel 0 1 2 3 4 5 6 7;
#X obj 35 724 s q-num;
#X msg 106 835 3 C B 1;
#X msg 36 807 6 H L 2;
#X msg 199 800 8 H R 2;
#X msg 34 695 4;
#X obj 540 636 bng 20 250 50 0 empty empty Q5 22 13 0 10 -204786 -1
-1;
#X obj 546 896 s clone;
#X obj 659 861 hradio 15 1 0 7 empty empty empty 0 -8 0 10 -262144
-1 -1 6;
#X obj 461 699 s q-num;
#X msg 540 819 3 C B 1;
#X msg 624 772 8 H R 2;
#X msg 459 670 5;
#X msg 466 753 2 H L 1;
#X msg 552 845 7 H B 2;
#X msg 617 749 4 C R 1;
#X msg 534 702 1 C T 1;
#X msg 191 774 4 C R 1;
#X msg 116 701 5 H T 2;
#X msg 105 730 1 C T 1;
#X msg 114 865 7 H B 2;
#X msg 549 676 5 H T 2;
#X obj 118 1002 bng 20 250 50 0 empty empty Q6 22 13 0 10 -203904 -1
-1;
#X obj 124 1262 s clone;
#X msg 44 1119 2 C L 1;
#X obj 198 1236 hradio 15 1 0 5 empty empty empty 0 -8 0 10 -262144
-1 -1 4;
#X obj 39 1065 s q-num;
#X msg 204 1149 8 H R 2;
#X msg 112 1068 1 O T 1;
#X msg 42 1151 6 N L 2;
#X msg 194 1115 4 O R 1;
#X obj 539 980 bng 20 250 50 0 empty empty Q7 22 13 0 10 -261682 -1
-1;
#X obj 545 1240 s clone;
#X obj 638 1213 hradio 15 1 0 8 empty empty empty 0 -8 0 10 -262144
-1 -1 6;
#X obj 460 1043 s q-num;
#X msg 544 1036 1 H T 1;
#X msg 543 1150 3 C B 1;
#X msg 532 1180 7 H B 2;
#X msg 38 1036 6;
#X msg 459 1014 7;
#X msg 465 1097 2 C L 1;
#X msg 465 1123 6 N L 2;
#X msg 616 1093 4 O R 1;
#X msg 630 1119 8 H R 2;
#X obj 891 982 bng 20 250 50 0 empty empty Q8 22 13 0 10 -204786 -1
-1;
#X obj 897 1242 s clone;
#X obj 989 1226 hradio 15 1 0 6 empty empty empty 0 -8 0 10 -262144
-1 -1 5;
#X obj 812 1045 s q-num;
#X msg 883 1156 3 C B 1;
#X msg 883 1075 1 C T 1;
#X msg 810 1016 8;
#X msg 887 1051 5 C T 2;
#X msg 884 1182 7 N B 2;
#X msg 968 1095 4 N R 1;
#X msg 978 1130 8 C R 2;
#X obj 197 1261 sel 0 1 2 3 4;
#X obj 659 885 sel 0 1 2 3 4 5 6;
#X obj 638 1240 sel 0 1 2 3 4 5 6;
#X obj 985 1247 sel 0 1 2 3 4 5;
#X obj 555 528 t b b;
#X obj 555 552 s graph;
#X obj 229 327 bng 15 250 50 0 empty empty layer_2 20 7 0 10 -262144
-1 -1;
#X obj 171 249 bng 15 250 50 0 empty empty layer_1 20 7 0 10 -262144
-1 -1;
#X obj 335 24 inlet;
#X floatatom 335 50 5 0 0 0 question - -;
#X obj 496 20 inlet;
#X floatatom 496 44 5 0 0 1 condition - -;
#X obj 408 113 gate 2;
#X floatatom 313 109 5 0 0 0 - - -;
#X floatatom 600 108 5 0 0 0 - - -;
#X obj 320 169 sel 1 2 3 4 5 6 7 8;
#X obj 576 307 bng 15 250 50 0 empty empty layer_2 20 7 0 10 -262144
-1 -1;
#X obj 536 262 bng 15 250 50 0 empty empty layer_1 20 7 0 10 -262144
-1 -1;
#X obj 988 337 bng 15 250 50 0 empty empty layer_2 20 7 0 10 -262144
-1 -1;
#X obj 982 300 bng 15 250 50 0 empty empty layer_1 20 7 0 10 -262144
-1 -1;
#X obj 602 175 sel 1 2 3 4 5 6 7 8;
#X obj 761 145 delay 20000;
#X msg 761 169 all -;
#X obj 763 196 s clone;
#X obj 830 199 s graph;
#X obj 180 118 delay 20000;
#X msg 180 142 all -;
#X obj 182 169 s clone;
#X obj 249 172 s graph;
#X obj 222 726 bng 15 250 50 0 empty empty layer_2 20 7 0 10 -262144
-1 -1;
#X obj 190 679 bng 15 250 50 0 empty empty layer_1 20 7 0 10 -262144
-1 -1;
#X obj 659 711 bng 15 250 50 0 empty empty layer_2 20 7 0 10 -262144
-1 -1;
#X obj 646 671 bng 15 250 50 0 empty empty layer_1 20 7 0 10 -262144
-1 -1;
#X obj 295 1178 bng 15 250 50 0 empty empty layer_2 20 7 0 10 -262144
-1 -1;
#X obj 289 1141 bng 15 250 50 0 empty empty layer_1 20 7 0 10 -262144
-1 -1;
#X obj 640 1060 bng 15 250 50 0 empty empty layer_2 20 7 0 10 -262144
-1 -1;
#X obj 633 1004 bng 15 250 50 0 empty empty layer_1 20 7 0 10 -262144
-1 -1;
#X obj 1014 1059 bng 15 250 50 0 empty empty layer_2 20 7 0 10 -262144
-1 -1;
#X obj 990 1022 bng 15 250 50 0 empty empty layer_1 20 7 0 10 -262144
-1 -1;
#X obj 336 74 f;
#X obj 493 65 t b f;
#X msg 216 87 stop;
#X obj 311 133 t b f b;
#X obj 600 131 t b f b;
#X msg 756 115 stop;
#N canvas 3 91 1237 756 example 0;
#X obj 183 238 bng 20 250 50 0 empty empty example1 22 13 0 10 -203904
-1 -1;
#X obj 185 514 s clone;
#X msg 98 316 2 C L 1;
#X msg 179 274 1 C T 1;
#X msg 190 406 4 N B 1;
#X msg 198 428 5 H B 2;
#X msg 240 341 6 O R 1;
#X msg 93 338 3 C L 2;
#X obj 786 252 bng 20 250 50 0 empty empty example_3 22 13 0 10 -232576
-1 -1;
#X obj 826 500 s clone;
#X msg 736 385 2 C L 1;
#X msg 782 314 1 C T 1;
#X msg 796 289 5 O T 2;
#X obj 494 239 bng 20 250 50 0 empty empty example_2 22 13 0 10 -203904
-1 -1;
#X obj 495 515 s clone;
#X msg 554 397 3 N L 2;
#X msg 561 351 2 H L 1;
#X msg 501 267 5 O T 2;
#X msg 510 492 7 C B 2;
#X msg 501 470 4 H B 1;
#X msg 416 337 6 H R 1;
#X msg 490 290 1 H T 1;
#X msg 873 375 3 N R 1;
#X msg 827 457 4 H B 1;
#X obj 560 47 inlet;
#X obj 284 307 bng 15 250 50 0 empty empty layer_2 20 7 0 10 -262144
-1 -1;
#X obj 281 241 bng 15 250 50 0 empty empty layer_1 20 7 0 10 -262144
-1 -1;
#X obj 284 268 delay 10000;
#X obj 201 43 inlet;
#X obj 630 375 bng 15 250 50 0 empty empty layer_2 20 7 0 10 -262144
-1 -1;
#X obj 581 286 bng 15 250 50 0 empty empty layer_1 20 7 0 10 -262144
-1 -1;
#X obj 604 319 delay 10000;
#X obj 964 350 bng 15 250 50 0 empty empty layer_2 20 7 0 10 -262144
-1 -1;
#X obj 906 272 bng 15 250 50 0 empty empty layer_1 20 7 0 10 -262144
-1 -1;
#X obj 935 295 delay 10000;
#X obj 561 76 sel 13 12 11;
#X obj 201 67 sel 11 13 12;
#X connect 0 0 3 0;
#X connect 0 0 6 0;
#X connect 0 0 4 0;
#X connect 0 0 2 0;
#X connect 0 0 7 0;
#X connect 0 0 5 0;
#X connect 2 0 1 0;
#X connect 3 0 1 0;
#X connect 4 0 1 0;
#X connect 5 0 1 0;
#X connect 6 0 1 0;
#X connect 7 0 1 0;
#X connect 8 0 11 0;
#X connect 8 0 22 0;
#X connect 8 0 23 0;
#X connect 8 0 10 0;
#X connect 8 0 12 0;
#X connect 10 0 9 0;
#X connect 11 0 9 0;
#X connect 12 0 9 0;
#X connect 13 0 21 0;
#X connect 13 0 20 0;
#X connect 13 0 19 0;
#X connect 13 0 15 0;
#X connect 13 0 17 0;
#X connect 13 0 16 0;
#X connect 15 0 14 0;
#X connect 16 0 14 0;
#X connect 17 0 14 0;
#X connect 18 0 14 0;
#X connect 19 0 14 0;
#X connect 20 0 14 0;
#X connect 21 0 14 0;
#X connect 22 0 9 0;
#X connect 23 0 9 0;
#X connect 24 0 35 0;
#X connect 25 0 5 0;
#X connect 25 0 7 0;
#X connect 26 0 27 0;
#X connect 26 0 3 0;
#X connect 26 0 2 0;
#X connect 26 0 4 0;
#X connect 26 0 6 0;
#X connect 27 0 25 0;
#X connect 28 0 36 0;
#X connect 29 0 15 0;
#X connect 29 0 18 0;
#X connect 29 0 17 0;
#X connect 30 0 31 0;
#X connect 30 0 21 0;
#X connect 30 0 20 0;
#X connect 30 0 16 0;
#X connect 30 0 19 0;
#X connect 31 0 29 0;
#X connect 32 0 12 0;
#X connect 33 0 34 0;
#X connect 33 0 11 0;
#X connect 33 0 10 0;
#X connect 33 0 23 0;
#X connect 33 0 22 0;
#X connect 34 0 32 0;
#X connect 35 0 0 0;
#X connect 35 1 13 0;
#X connect 35 2 8 0;
#X connect 36 0 26 0;
#X connect 36 1 30 0;
#X connect 36 2 33 0;
#X restore 468 149 pd example;
#X obj 200 272 delay 10000;
#X obj 582 280 delay 10000;
#X obj 249 693 delay 10000;
#X obj 347 1155 delay 10000;
#X obj 699 1027 delay 10000;
#X obj 704 685 delay 10000;
#X obj 1066 1036 delay 10000;
#X obj 1040 314 delay 10000;
#X connect 0 0 11 0;
#X connect 0 0 2 0;
#X connect 0 0 9 0;
#X connect 0 0 4 0;
#X connect 0 0 6 0;
#X connect 0 0 8 0;
#X connect 0 0 7 0;
#X connect 0 0 10 0;
#X connect 2 0 1 0;
#X connect 4 0 5 0;
#X connect 6 0 1 0;
#X connect 7 0 1 0;
#X connect 8 0 1 0;
#X connect 9 0 1 0;
#X connect 10 0 1 0;
#X connect 11 0 1 0;
#X connect 12 0 23 0;
#X connect 12 0 21 0;
#X connect 12 0 24 0;
#X connect 12 0 20 0;
#X connect 12 0 17 0;
#X connect 12 0 19 0;
#X connect 12 0 18 0;
#X connect 12 0 22 0;
#X connect 14 0 15 0;
#X connect 15 0 101 0;
#X connect 15 1 24 0;
#X connect 15 2 19 0;
#X connect 15 3 18 0;
#X connect 15 4 22 0;
#X connect 15 5 17 0;
#X connect 15 6 21 0;
#X connect 17 0 13 0;
#X connect 18 0 13 0;
#X connect 19 0 13 0;
#X connect 20 0 16 0;
#X connect 21 0 13 0;
#X connect 22 0 13 0;
#X connect 23 0 13 0;
#X connect 24 0 13 0;
#X connect 25 0 34 0;
#X connect 25 0 36 0;
#X connect 25 0 35 0;
#X connect 25 0 33 0;
#X connect 25 0 30 0;
#X connect 25 0 37 0;
#X connect 25 0 31 0;
#X connect 25 0 32 0;
#X connect 27 0 28 0;
#X connect 28 0 33 0;
#X connect 28 0 36 0;
#X connect 28 1 37 0;
#X connect 28 2 30 0;
#X connect 28 3 32 0;
#X connect 28 4 35 0;
#X connect 28 5 34 0;
#X connect 28 6 31 0;
#X connect 30 0 26 0;
#X connect 31 0 26 0;
#X connect 32 0 26 0;
#X connect 33 0 29 0;
#X connect 34 0 26 0;
#X connect 35 0 26 0;
#X connect 36 0 26 0;
#X connect 37 0 26 0;
#X connect 38 0 59 0;
#X connect 38 0 40 0;
#X connect 38 0 46 0;
#X connect 38 0 47 0;
#X connect 38 0 61 0;
#X connect 38 0 45 0;
#X connect 38 0 44 0;
#X connect 38 0 62 0;
#X connect 38 0 60 0;
#X connect 40 0 39 0;
#X connect 41 0 42 0;
#X connect 42 0 47 0;
#X connect 42 0 60 0;
#X connect 42 1 45 0;
#X connect 42 2 40 0;
#X connect 42 3 44 0;
#X connect 42 4 61 0;
#X connect 42 5 59 0;
#X connect 42 6 46 0;
#X connect 42 7 62 0;
#X connect 44 0 39 0;
#X connect 45 0 39 0;
#X connect 46 0 39 0;
#X connect 47 0 43 0;
#X connect 48 0 57 0;
#X connect 48 0 55 0;
#X connect 48 0 53 0;
#X connect 48 0 54 0;
#X connect 48 0 58 0;
#X connect 48 0 52 0;
#X connect 48 0 56 0;
#X connect 48 0 63 0;
#X connect 50 0 98 0;
#X connect 52 0 49 0;
#X connect 53 0 49 0;
#X connect 54 0 51 0;
#X connect 55 0 49 0;
#X connect 56 0 49 0;
#X connect 57 0 49 0;
#X connect 58 0 49 0;
#X connect 59 0 39 0;
#X connect 60 0 39 0;
#X connect 61 0 39 0;
#X connect 62 0 39 0;
#X connect 63 0 49 0;
#X connect 64 0 72 0;
#X connect 64 0 66 0;
#X connect 64 0 69 0;
#X connect 64 0 80 0;
#X connect 64 0 70 0;
#X connect 64 0 71 0;
#X connect 66 0 65 0;
#X connect 67 0 97 0;
#X connect 69 0 65 0;
#X connect 70 0 65 0;
#X connect 71 0 65 0;
#X connect 72 0 65 0;
#X connect 73 0 82 0;
#X connect 73 0 85 0;
#X connect 73 0 81 0;
#X connect 73 0 77 0;
#X connect 73 0 83 0;
#X connect 73 0 78 0;
#X connect 73 0 79 0;
#X connect 73 0 84 0;
#X connect 75 0 99 0;
#X connect 77 0 74 0;
#X connect 78 0 74 0;
#X connect 79 0 74 0;
#X connect 80 0 68 0;
#X connect 81 0 76 0;
#X connect 82 0 74 0;
#X connect 83 0 74 0;
#X connect 84 0 74 0;
#X connect 85 0 74 0;
#X connect 86 0 95 0;
#X connect 86 0 96 0;
#X connect 86 0 92 0;
#X connect 86 0 91 0;
#X connect 86 0 90 0;
#X connect 86 0 94 0;
#X connect 86 0 93 0;
#X connect 88 0 100 0;
#X connect 90 0 87 0;
#X connect 91 0 87 0;
#X connect 92 0 89 0;
#X connect 93 0 87 0;
#X connect 94 0 87 0;
#X connect 95 0 87 0;
#X connect 96 0 87 0;
#X connect 97 0 80 0;
#X connect 97 0 72 0;
#X connect 97 1 66 0;
#X connect 97 2 71 0;
#X connect 97 3 69 0;
#X connect 97 4 70 0;
#X connect 98 0 54 0;
#X connect 98 0 58 0;
#X connect 98 1 52 0;
#X connect 98 2 55 0;
#X connect 98 3 53 0;
#X connect 98 4 57 0;
#X connect 98 5 56 0;
#X connect 98 6 63 0;
#X connect 99 0 81 0;
#X connect 99 0 83 0;
#X connect 99 1 78 0;
#X connect 99 2 79 0;
#X connect 99 3 77 0;
#X connect 99 4 84 0;
#X connect 99 5 85 0;
#X connect 99 6 82 0;
#X connect 100 0 92 0;
#X connect 100 0 95 0;
#X connect 100 1 94 0;
#X connect 100 2 90 0;
#X connect 100 3 96 0;
#X connect 100 4 91 0;
#X connect 100 5 93 0;
#X connect 101 0 23 0;
#X connect 101 0 20 0;
#X connect 101 1 102 0;
#X connect 103 0 8 0;
#X connect 103 0 10 0;
#X connect 103 0 9 0;
#X connect 104 0 6 0;
#X connect 104 0 2 0;
#X connect 104 0 7 0;
#X connect 104 0 11 0;
#X connect 104 0 143 0;
#X connect 105 0 106 0;
#X connect 106 0 136 1;
#X connect 106 0 109 1;
#X connect 107 0 108 0;
#X connect 108 0 137 0;
#X connect 108 0 109 0;
#X connect 109 0 110 0;
#X connect 109 1 111 0;
#X connect 110 0 139 0;
#X connect 111 0 140 0;
#X connect 112 0 104 0;
#X connect 112 1 114 0;
#X connect 112 2 116 0;
#X connect 112 3 127 0;
#X connect 112 4 129 0;
#X connect 112 5 131 0;
#X connect 112 6 133 0;
#X connect 112 7 135 0;
#X connect 113 0 24 0;
#X connect 113 0 22 0;
#X connect 113 0 19 0;
#X connect 114 0 17 0;
#X connect 114 0 21 0;
#X connect 114 0 18 0;
#X connect 114 0 23 0;
#X connect 114 0 144 0;
#X connect 115 0 37 0;
#X connect 115 0 32 0;
#X connect 115 0 35 0;
#X connect 116 0 30 0;
#X connect 116 0 36 0;
#X connect 116 0 31 0;
#X connect 116 0 34 0;
#X connect 116 0 150 0;
#X connect 117 0 0 0;
#X connect 117 1 12 0;
#X connect 117 2 25 0;
#X connect 117 3 38 0;
#X connect 117 4 48 0;
#X connect 117 5 64 0;
#X connect 117 6 73 0;
#X connect 117 7 86 0;
#X connect 118 0 119 0;
#X connect 119 0 120 0;
#X connect 119 0 121 0;
#X connect 122 0 123 0;
#X connect 123 0 124 0;
#X connect 123 0 125 0;
#X connect 126 0 46 0;
#X connect 126 0 62 0;
#X connect 126 0 45 0;
#X connect 126 0 60 0;
#X connect 127 0 61 0;
#X connect 127 0 40 0;
#X connect 127 0 44 0;
#X connect 127 0 59 0;
#X connect 127 0 145 0;
#X connect 128 0 53 0;
#X connect 128 0 56 0;
#X connect 128 0 63 0;
#X connect 129 0 58 0;
#X connect 129 0 55 0;
#X connect 129 0 52 0;
#X connect 129 0 57 0;
#X connect 129 0 148 0;
#X connect 130 0 69 0;
#X connect 130 0 71 0;
#X connect 131 0 70 0;
#X connect 131 0 72 0;
#X connect 131 0 66 0;
#X connect 131 0 146 0;
#X connect 132 0 83 0;
#X connect 132 0 85 0;
#X connect 132 0 79 0;
#X connect 133 0 77 0;
#X connect 133 0 82 0;
#X connect 133 0 84 0;
#X connect 133 0 78 0;
#X connect 133 0 147 0;
#X connect 134 0 93 0;
#X connect 134 0 96 0;
#X connect 134 0 94 0;
#X connect 135 0 91 0;
#X connect 135 0 95 0;
#X connect 135 0 90 0;
#X connect 135 0 149 0;
#X connect 137 0 136 0;
#X connect 138 0 122 0;
#X connect 139 0 122 0;
#X connect 139 1 112 0;
#X connect 139 1 142 0;
#X connect 139 2 138 0;
#X connect 140 0 118 0;
#X connect 140 1 117 0;
#X connect 140 1 142 1;
#X connect 140 2 141 0;
#X connect 141 0 118 0;
#X connect 143 0 103 0;
#X connect 144 0 113 0;
#X connect 145 0 126 0;
#X connect 146 0 130 0;
#X connect 147 0 132 0;
#X connect 148 0 128 0;
#X connect 149 0 134 0;
#X connect 150 0 115 0;
#X restore 672 406 pd conditions-layer-2;
#X text 315 479 training;
#X text 669 433 2 conditions;
#X msg 402 322 vis 1 1;
#X obj 37 97 clone player-density-timbre-alpha 10;
#X obj 161 562 catch~ K2;
#X obj 226 562 catch~ K3;
#X obj 93 562 catch~ K1;
#X obj 291 562 catch~ K4;
#X obj 96 709 dac~ 5 6 1 2, f 29;
#N canvas 147 163 1033 380 2-layer-Q 0;
#X obj 86 73 bng 20 250 50 0 empty empty Example 22 13 0 10 -232576
-1 -1;
#X obj 80 183 s clone;
#X obj 423 556 bng 20 250 50 0 empty empty Q10 22 13 0 10 -204800 -1
-1;
#X obj 425 738 s clone;
#X msg 68 131 2 C R 1;
#X obj 95 299 bng 20 250 50 0 empty empty Q5 22 13 0 10 -261682 -1
-1;
#X obj 94 465 s clone;
#X msg 89 396 2 C B 1;
#X msg 338 634 2 C L 1;
#X obj 130 558 bng 20 250 50 0 empty empty Q9 22 13 0 10 -204800 -1
-1;
#X obj 132 740 s clone;
#X msg 45 636 2 C L 1;
#X msg 175 131 3 C R 2;
#X obj 372 57 bng 20 250 50 0 empty empty Q1 22 15 0 10 -204800 -1
-1;
#X obj 383 186 s clone;
#X obj 542 55 bng 20 250 50 0 empty empty Q2 22 15 0 10 -204800 -1
-1;
#X obj 553 185 s clone;
#X obj 703 55 bng 20 250 50 0 empty empty Q3 22 15 0 10 -204800 -1
-1;
#X obj 714 184 s clone;
#X obj 879 50 bng 20 250 50 0 empty empty Q4 22 15 0 10 -204800 -1
-1;
#X msg 845 106 1 C L 1;
#X obj 890 179 s clone;
#X msg 519 131 1 O T 1;
#X msg 540 98 2 H T 2;
#X msg 408 111 1 N R 2;
#X msg 338 113 2 C L 1;
#X msg 669 111 1 H B 1;
#X msg 739 109 2 N L 1;
#X msg 916 104 2 C L 2;
#X obj 336 299 bng 20 250 50 0 empty empty Q6 22 13 0 10 -261682 -1
-1;
#X obj 335 465 s clone;
#X obj 559 302 bng 20 250 50 0 empty empty Q7 22 13 0 10 -261682 -1
-1;
#X obj 558 468 s clone;
#X msg 579 325 1 H T 1;
#X msg 570 391 2 C B 1;
#X obj 795 297 bng 20 250 50 0 empty empty Q8 22 13 0 10 -261682 -1
-1;
#X obj 794 463 s clone;
#X msg 792 406 2 C B 1;
#X msg 87 334 1 C T 1;
#X msg 162 366 4 N R 1;
#X msg 101 425 3 H B 2;
#X msg 314 339 1 N T 1;
#X msg 320 409 2 O B 1;
#X msg 338 432 3 H B 2;
#X msg 380 361 4 C R 1;
#X msg 392 385 5 O R 2;
#X msg 578 416 4 H B 2;
#X msg 494 372 3 H L 2;
#X msg 804 432 4 O B 2;
#X msg 800 329 1 C T 2;
#X msg 746 369 3 C L 1;
#X msg 856 366 5 C R 2;
#X msg 126 620 1 C T 1;
#X msg 140 585 5 O T 2;
#X msg 133 697 4 H B 2;
#X msg 213 633 3 N R 2;
#X obj 676 552 bng 20 250 50 0 empty empty Q11 22 13 0 10 -204800 -1
-1;
#X obj 678 734 s clone;
#X msg 591 630 2 C L 1;
#X msg 586 652 3 N L 2;
#X msg 759 627 6 H R 1;
#X obj 932 549 bng 20 250 50 0 empty empty Q12 22 13 0 10 -204800 -1
-1;
#X obj 934 731 s clone;
#X msg 842 649 3 N L 2;
#X msg 333 656 3 H L 2;
#X msg 419 592 1 C T 1;
#X msg 506 631 6 C R 1;
#X msg 430 662 4 N B 1;
#X msg 438 684 5 H B 2;
#X msg 683 659 4 O B 1;
#X msg 691 680 5 H B 2;
#X msg 672 588 1 O T 2;
#X msg 928 600 1 C T 1;
#X msg 940 686 4 C B 2;
#X msg 856 628 2 H L 1;
#X msg 1015 624 6 N R 1;
#X obj 158 1278 bng 20 250 50 0 empty empty Q1 22 13 0 10 -232576 -1
-1;
#X obj 164 1538 s clone;
#X msg 84 1395 2 C L 1;
#X obj 236 1282 hradio 15 1 0 8 empty empty empty 0 -8 0 10 -262144
-1 -1 7;
#X obj 235 1309 sel 0 1 2 3 4 5 6 7;
#X msg 78 1312 1;
#X obj 79 1341 s q-num;
#X msg 152 1344 1 H T 1;
#X msg 150 1452 3 C B 1;
#X msg 84 1421 6 H L 2;
#X msg 239 1411 8 H R 2;
#X msg 151 1478 7 C B 2;
#X msg 235 1391 4 O R 1;
#X obj 480 1278 bng 20 250 50 0 empty empty Q2 22 13 0 10 -261682 -1
-1;
#X obj 486 1538 s clone;
#X obj 558 1227 hradio 15 1 0 8 empty empty empty 0 -8 0 10 -262144
-1 -1 0;
#X obj 559 1255 sel 0 1 2 3 4 5 6 7;
#X obj 401 1341 s q-num;
#X msg 474 1344 1 H T 1;
#X msg 472 1452 3 C B 1;
#X msg 404 1416 6 H L 2;
#X msg 400 1312 2;
#X msg 406 1395 2 N L 1;
#X msg 473 1478 7 H B 2;
#X msg 557 1391 4 C R 1;
#X msg 561 1411 8 O R 2;
#X obj 816 1275 bng 20 250 50 0 empty empty Q3 22 13 0 10 -203904 -1
-1;
#X obj 822 1535 s clone;
#X obj 894 1279 hradio 15 1 0 8 empty empty empty 0 -8 0 10 -262144
-1 -1 3;
#X obj 893 1306 sel 0 1 2 3 4 5 6 7;
#X obj 737 1338 s q-num;
#X msg 810 1341 1 H T 1;
#X msg 808 1449 3 C B 1;
#X msg 809 1475 7 C B 2;
#X msg 736 1309 3;
#X msg 901 1377 4 C R 1;
#X msg 897 1408 8 O R 2;
#X msg 742 1392 2 N L 1;
#X msg 742 1417 6 C L 2;
#X obj 253 1171 counter 0 7;
#X floatatom 253 1195 5 0 0 0 - - -;
#X obj 253 1150 bng 15 250 50 0 empty empty empty 17 7 0 10 -262144
-1 -1;
#X obj 358 1206 sel 7;
#X msg 358 1231 0;
#X obj 254 1098 tgl 25 0 empty empty empty 17 7 0 10 -262144 -1 -1
0 1;
#X obj 253 1125 metro 5000;
#X obj 548 1286 t b b;
#X obj 548 1310 s graph;
#X msg 939 577 5 O T 2;
#X obj 424 822 bng 20 250 50 0 empty empty Q14 22 13 0 10 -204786 -1
-1;
#X obj 426 1004 s clone;
#X msg 339 900 2 C L 1;
#X obj 131 824 bng 20 250 50 0 empty empty Q13 22 13 0 10 -204786 -1
-1;
#X obj 133 1021 s clone;
#X obj 677 818 bng 20 250 50 0 empty empty Q15 22 13 0 10 -204786 -1
-1;
#X obj 679 1000 s clone;
#X obj 933 815 bng 20 250 50 0 empty empty Q16 22 13 0 10 -204786 -1
-1;
#X obj 935 997 s clone;
#X msg 997 921 3 N L 2;
#X msg 420 858 1 C T 1;
#X msg 431 928 4 N B 1;
#X msg 439 950 5 H B 2;
#X msg 692 960 5 H B 2;
#X msg 1011 900 2 H L 1;
#X msg 940 843 5 O T 2;
#X msg 127 886 1 N T 1;
#X msg 46 902 2 N L 1;
#X msg 140 865 5 H T 2;
#X msg 171 993 7 H B 2;
#X msg 134 963 4 N B 1;
#X msg 214 899 3 N R 1;
#X msg 220 921 8 H R 2;
#X msg 507 897 6 O R 1;
#X msg 334 922 3 C L 2;
#X msg 676 871 1 C T 1;
#X msg 701 850 8 O T 2;
#X msg 683 939 4 C B 1;
#X msg 950 974 7 C B 2;
#X msg 941 952 4 H B 1;
#X msg 855 913 6 H R 1;
#X msg 929 866 1 H T 1;
#X msg 753 897 2 C R 1;
#X msg 747 919 3 N R 2;
#X msg 613 903 6 O L 1;
#X connect 0 0 4 0;
#X connect 0 0 12 0;
#X connect 2 0 65 0;
#X connect 2 0 66 0;
#X connect 2 0 67 0;
#X connect 2 0 8 0;
#X connect 2 0 64 0;
#X connect 2 0 68 0;
#X connect 4 0 1 0;
#X connect 5 0 38 0;
#X connect 5 0 40 0;
#X connect 5 0 7 0;
#X connect 5 0 39 0;
#X connect 7 0 6 0;
#X connect 8 0 3 0;
#X connect 9 0 52 0;
#X connect 9 0 55 0;
#X connect 9 0 54 0;
#X connect 9 0 11 0;
#X connect 9 0 53 0;
#X connect 11 0 10 0;
#X connect 12 0 1 0;
#X connect 13 0 25 0;
#X connect 13 0 24 0;
#X connect 15 0 22 0;
#X connect 15 0 23 0;
#X connect 17 0 26 0;
#X connect 17 0 27 0;
#X connect 19 0 20 0;
#X connect 19 0 28 0;
#X connect 20 0 21 0;
#X connect 22 0 16 0;
#X connect 23 0 16 0;
#X connect 24 0 14 0;
#X connect 25 0 14 0;
#X connect 26 0 18 0;
#X connect 27 0 18 0;
#X connect 28 0 21 0;
#X connect 29 0 41 0;
#X connect 29 0 43 0;
#X connect 29 0 42 0;
#X connect 29 0 44 0;
#X connect 29 0 45 0;
#X connect 31 0 33 0;
#X connect 31 0 46 0;
#X connect 31 0 47 0;
#X connect 31 0 34 0;
#X connect 33 0 32 0;
#X connect 34 0 32 0;
#X connect 35 0 49 0;
#X connect 35 0 48 0;
#X connect 35 0 50 0;
#X connect 35 0 37 0;
#X connect 35 0 51 0;
#X connect 37 0 36 0;
#X connect 38 0 6 0;
#X connect 39 0 6 0;
#X connect 40 0 6 0;
#X connect 41 0 30 0;
#X connect 42 0 30 0;
#X connect 43 0 30 0;
#X connect 44 0 30 0;
#X connect 45 0 30 0;
#X connect 46 0 32 0;
#X connect 47 0 32 0;
#X connect 48 0 36 0;
#X connect 49 0 36 0;
#X connect 50 0 36 0;
#X connect 51 0 36 0;
#X connect 52 0 10 0;
#X connect 53 0 10 0;
#X connect 54 0 10 0;
#X connect 55 0 10 0;
#X connect 56 0 71 0;
#X connect 56 0 60 0;
#X connect 56 0 69 0;
#X connect 56 0 58 0;
#X connect 56 0 59 0;
#X connect 56 0 70 0;
#X connect 58 0 57 0;
#X connect 59 0 57 0;
#X connect 60 0 57 0;
#X connect 61 0 72 0;
#X connect 61 0 75 0;
#X connect 61 0 73 0;
#X connect 61 0 74 0;
#X connect 61 0 63 0;
#X connect 61 0 124 0;
#X connect 63 0 62 0;
#X connect 64 0 3 0;
#X connect 65 0 3 0;
#X connect 66 0 3 0;
#X connect 67 0 3 0;
#X connect 68 0 3 0;
#X connect 69 0 57 0;
#X connect 70 0 57 0;
#X connect 71 0 57 0;
#X connect 72 0 62 0;
#X connect 73 0 62 0;
#X connect 74 0 62 0;
#X connect 75 0 62 0;
#X connect 76 0 88 0;
#X connect 76 0 78 0;
#X connect 76 0 86 0;
#X connect 76 0 81 0;
#X connect 76 0 83 0;
#X connect 76 0 85 0;
#X connect 76 0 84 0;
#X connect 76 0 87 0;
#X connect 78 0 77 0;
#X connect 79 0 80 0;
#X connect 80 0 81 0;
#X connect 80 0 83 0;
#X connect 80 1 84 0;
#X connect 80 2 88 0;
#X connect 80 3 85 0;
#X connect 80 4 78 0;
#X connect 80 5 87 0;
#X connect 80 6 86 0;
#X connect 81 0 82 0;
#X connect 83 0 77 0;
#X connect 84 0 77 0;
#X connect 85 0 77 0;
#X connect 86 0 77 0;
#X connect 87 0 77 0;
#X connect 88 0 77 0;
#X connect 89 0 100 0;
#X connect 89 0 98 0;
#X connect 89 0 101 0;
#X connect 89 0 97 0;
#X connect 89 0 94 0;
#X connect 89 0 96 0;
#X connect 89 0 95 0;
#X connect 89 0 99 0;
#X connect 91 0 92 0;
#X connect 92 0 122 0;
#X connect 92 1 101 0;
#X connect 92 2 96 0;
#X connect 92 3 95 0;
#X connect 92 4 99 0;
#X connect 92 5 94 0;
#X connect 92 6 98 0;
#X connect 94 0 90 0;
#X connect 95 0 90 0;
#X connect 96 0 90 0;
#X connect 97 0 93 0;
#X connect 98 0 90 0;
#X connect 99 0 90 0;
#X connect 100 0 90 0;
#X connect 101 0 90 0;
#X connect 102 0 111 0;
#X connect 102 0 113 0;
#X connect 102 0 112 0;
#X connect 102 0 110 0;
#X connect 102 0 107 0;
#X connect 102 0 114 0;
#X connect 102 0 108 0;
#X connect 102 0 109 0;
#X connect 104 0 105 0;
#X connect 105 0 110 0;
#X connect 105 0 113 0;
#X connect 105 1 114 0;
#X connect 105 2 107 0;
#X connect 105 3 109 0;
#X connect 105 4 112 0;
#X connect 105 5 111 0;
#X connect 105 6 108 0;
#X connect 107 0 103 0;
#X connect 108 0 103 0;
#X connect 109 0 103 0;
#X connect 110 0 106 0;
#X connect 111 0 103 0;
#X connect 112 0 103 0;
#X connect 113 0 103 0;
#X connect 114 0 103 0;
#X connect 115 0 116 0;
#X connect 116 0 118 0;
#X connect 116 0 79 0;
#X connect 117 0 115 0;
#X connect 118 0 119 0;
#X connect 119 0 120 0;
#X connect 120 0 121 0;
#X connect 121 0 117 0;
#X connect 122 0 100 0;
#X connect 122 0 97 0;
#X connect 122 1 123 0;
#X connect 124 0 62 0;
#X connect 125 0 135 0;
#X connect 125 0 148 0;
#X connect 125 0 136 0;
#X connect 125 0 127 0;
#X connect 125 0 149 0;
#X connect 125 0 137 0;
#X connect 127 0 126 0;
#X connect 128 0 141 0;
#X connect 128 0 146 0;
#X connect 128 0 145 0;
#X connect 128 0 142 0;
#X connect 128 0 143 0;
#X connect 128 0 147 0;
#X connect 128 0 144 0;
#X connect 130 0 151 0;
#X connect 130 0 159 0;
#X connect 130 0 152 0;
#X connect 130 0 157 0;
#X connect 130 0 158 0;
#X connect 130 0 138 0;
#X connect 130 0 150 0;
#X connect 132 0 156 0;
#X connect 132 0 155 0;
#X connect 132 0 154 0;
#X connect 132 0 139 0;
#X connect 132 0 134 0;
#X connect 132 0 140 0;
#X connect 134 0 133 0;
#X connect 135 0 126 0;
#X connect 136 0 126 0;
#X connect 137 0 126 0;
#X connect 138 0 131 0;
#X connect 139 0 133 0;
#X connect 140 0 133 0;
#X connect 141 0 129 0;
#X connect 142 0 129 0;
#X connect 143 0 129 0;
#X connect 144 0 129 0;
#X connect 145 0 129 0;
#X connect 146 0 129 0;
#X connect 147 0 129 0;
#X connect 148 0 126 0;
#X connect 149 0 126 0;
#X connect 150 0 131 0;
#X connect 151 0 131 0;
#X connect 152 0 131 0;
#X connect 153 0 133 0;
#X connect 154 0 133 0;
#X connect 155 0 133 0;
#X connect 156 0 133 0;
#X connect 157 0 131 0;
#X connect 158 0 131 0;
#X connect 159 0 131 0;
#X restore 315 501 pd 2-layer-Q;
#X msg 558 191 s graph;
#X text 205 46 old design;
#X text 241 105 new design;
#X obj 37 125 clone player-density-timbre-beta 10;
#X obj 671 341 + 1;
#X floatatom 672 366 5 0 0 0 question - -;
#X floatatom 816 369 5 0 0 1 condition - -;
#X obj 682 220 mrpeach/unpackOSC;
#X obj 682 190 mrpeach/udpreceive 1212;
#X obj 679 253 route /question;
#X obj 679 277 unpack f f;
#X obj 39 618 snapshot~;
#X floatatom 39 642 5 0 0 0 - - -;
#X obj 38 584 bng 15 250 50 0 empty empty empty 17 7 0 10 -262144 -1
-1;
#X obj 364 663 rev3~ 100 88 3000 30;
#X obj 528 633 r \$0-reverb;
#X floatatom 529 660 5 0 0 0 - - -;
#X obj 383 565 catch~ Reverb;
#X obj 383 586 delwrite~ delay_buf 1000;
#X obj 384 606 delread4~ delay_buf;
#X obj 34 154 clone player-density-attack 10;
#X msg 462 234 1 O T 2;
#X msg 399 235 1 H T 2;
#X msg 414 253 1 C T 2;
#X msg 430 274 1 N T 2;
#X connect 0 0 55 0;
#X connect 4 0 5 0;
#X connect 4 1 7 0;
#X connect 5 0 6 0;
#X connect 6 0 8 0;
#X connect 7 0 6 1;
#X connect 8 0 9 0;
#X connect 8 1 11 0;
#X connect 8 2 12 0;
#X connect 8 3 13 0;
#X connect 9 0 10 0;
#X connect 11 0 10 0;
#X connect 12 0 10 0;
#X connect 13 0 10 0;
#X connect 16 0 22 0;
#X connect 17 0 16 0;
#X connect 18 0 19 0;
#X connect 18 1 20 1;
#X connect 19 0 20 0;
#X connect 20 0 21 0;
#X connect 21 0 17 0;
#X connect 27 0 10 0;
#X connect 29 0 33 1;
#X connect 30 0 33 2;
#X connect 31 0 33 0;
#X connect 31 0 46 0;
#X connect 32 0 33 3;
#X connect 39 0 40 0;
#X connect 40 0 24 0;
#X connect 41 0 24 1;
#X connect 42 0 44 0;
#X connect 43 0 42 0;
#X connect 44 0 45 0;
#X connect 45 0 39 0;
#X connect 45 1 41 0;
#X connect 46 0 47 0;
#X connect 48 0 46 0;
#X connect 49 0 33 0;
#X connect 49 1 33 1;
#X connect 49 2 33 2;
#X connect 49 3 33 3;
#X connect 50 0 51 0;
#X connect 52 0 53 0;
#X connect 54 0 49 0;
#X connect 56 0 10 0;
#X connect 57 0 10 0;
#X connect 58 0 10 0;
#X connect 59 0 10 0;
