#N canvas 0 23 852 589 10;
#X obj 139 151 float;
#X obj 190 151 + 1;
#X obj 185 263 array get current_clone_instances 0 1;
#X obj 139 169 t f f;
#X msg 139 117 0;
#X obj 139 210 sel 1;
#X obj 126 233 bng 15 250 50 0 empty empty empty 17 7 0 10 -262144
-1 -1;
#X obj 139 192 < 99;
#X obj 184 297 array set previous_clone_instances;
#X obj 185 232 t f f;
#X obj 139 81 bng 15 250 50 0 empty empty empty 17 7 0 10 -262144 -1
-1;
#X obj 139 51 inlet;
#X connect 0 0 3 0;
#X connect 1 0 0 1;
#X connect 2 0 8 0;
#X connect 3 0 7 0;
#X connect 3 1 1 0;
#X connect 3 1 9 0;
#X connect 4 0 0 0;
#X connect 5 0 6 0;
#X connect 6 0 0 0;
#X connect 7 0 5 0;
#X connect 9 0 2 0;
#X connect 9 1 8 1;
#X connect 10 0 4 0;
#X connect 11 0 10 0;
