#N canvas 19 292 1196 753 12;
#X symbolatom 328 -14 10 0 0 0 - - -;
#X obj 113 180 sel L B R T;
#X symbolatom 113 140 10 0 0 0 - - -;
#X symbolatom 18 125 10 0 0 0 - - -;
#X obj 17 693 *~;
#X floatatom 120 590 5 0 0 0 - - -;
#X obj 83 696 *~;
#X floatatom 171 589 5 0 0 0 - - -;
#X obj 155 693 *~;
#X floatatom 222 588 5 0 0 0 - - -;
#X obj 234 691 *~;
#X floatatom 272 587 5 0 0 0 - - -;
#X msg 137 540 1 0 0 0;
#X obj 137 564 unpack f f f f;
#X msg 174 499 0 0 1 0;
#X obj 120 635 line;
#X obj 171 634 line;
#X obj 222 633 line;
#X obj 272 632 line;
#X obj 15 610 catch~ \$0-audio;
#X obj 20 182 s \$0-element;
#X obj 328 -39 r \$0-element;
#X obj 113 264 s \$0-L;
#X obj 128 244 s \$0-B;
#X obj 144 225 s \$0-R;
#X obj 160 205 s \$0-T;
#X obj 137 451 r \$0-L;
#X obj 151 473 r \$0-B;
#X obj 182 451 r \$0-R;
#X obj 199 472 r \$0-T;
#X text 281 654 speaker control;
#X obj 682 75 t b b b;
#X obj 385 236 t b b a b;
#X obj 12 762 throw~ K1;
#X obj 88 764 throw~ K2;
#X obj 172 763 throw~ K3;
#X obj 244 762 throw~ K4;
#X msg 151 521 0 1 0 0;
#X msg 199 541 0 0 0 1;
#X text 1188 411 1) smaller number with high frequency;
#X obj 1157 962 throw~ \$0-audio;
#X obj 18 652 *~ 0.8;
#X obj 1187 770 bp~ 1 1;
#X obj 1265 770 bp~ 1 1;
#X obj 1332 771 bp~ 1 1;
#X obj 1402 771 bp~ 1 1;
#X obj 1265 791 *~ 0.6;
#X obj 1332 792 *~ 0.4;
#X obj 1402 792 *~ 0.4;
#X obj 1284 943 *~ 3;
#X obj 283 50 t b b;
#X obj 574 52 t b b;
#X obj 944 111 t b b;
#X obj 454 45 t b b;
#X obj 541 768 *~ 0.2;
#X obj 445 488 noise~;
#X obj 514 637 *~;
#X obj 876 439 sel 0 1 2;
#X msg 876 480 0;
#X msg 841 473 1;
#X floatatom 1227 459 5 0 0 0 - - -;
#X floatatom 1323 885 5 0 0 0 - - -;
#X text 1368 889 volume seperate control;
#X obj 591 479 brown~;
#X obj 600 629 *~;
#X obj 661 636 *~;
#X obj 533 609 line;
#X msg 532 590 \$1 10;
#X obj 617 607 line;
#X msg 617 587 \$1 10;
#X obj 709 618 line;
#X msg 709 596 \$1 10;
#X msg 893 504 1;
#X msg 921 504 0;
#X msg 912 553 1;
#X msg 948 553 0;
#X obj 1229 436 unpack f f f f f f f;
#X msg 931 608 0;
#X obj 596 506 >~ 0.9996;
#X obj 1106 865 else/vu~;
#X obj 1089 900 vu 15 120 empty empty -1 -8 0 10 -66577 -1 1 0;
#X obj 1187 794 *~ 0.8;
#X obj 1316 926 line;
#X floatatom 1316 947 5 0 0 0 - - -;
#X text 1369 904 comment;
#X msg 783 102 0;
#X obj 308 921 throw~ Reverb;
#X obj 59 71 unpack s s f;
#X floatatom 48 368 5 0 0 0 - - -;
#X obj 48 388 sel 1 2 3;
#X floatatom 503 448 8 0 0 0 - - -;
#X obj 905 212 gate 3;
#X floatatom 1152 600 5 0 0 0 - - -;
#X floatatom 1230 602 5 0 0 0 - - -;
#X floatatom 49 589 5 0 0 0 - - -;
#X obj 1279 836 *~ 500;
#X obj 444 517 >~ 0.9985;
#X text 96 404 direct sound loudness;
#X floatatom 1301 604 5 0 0 0 - - -;
#X floatatom 1375 607 5 0 0 0 - - -;
#X floatatom 1387 568 5 0 0 0 - - -;
#X floatatom 1186 600 5 0 0 0 - - -;
#X floatatom 1264 603 5 0 0 0 - - -;
#X floatatom 1337 605 5 0 0 0 - - -;
#X floatatom 1407 607 5 0 0 0 - - -;
#X floatatom 657 459 8 0 0 0 - - -;
#X msg 402 383 0.9985;
#X obj 836 498 t f b;
#X obj 893 525 t f b;
#X obj 1225 678 * 1;
#X obj 1298 680 * 1;
#X obj 1370 677 * 1;
#X obj 1445 678 * 1;
#X floatatom 1562 560 5 0 0 0 - - -;
#X text 1521 454 frequency-distance;
#X msg 1597 531 0.25;
#X msg 1635 537 0.5;
#X msg 1551 531 0.125;
#X text 1013 115 1 220 305 574 881 116 8.5;
#X text 1019 136 1 244 333.1 629 971 116 8.5;
#X text 1018 150 1 271 367 691.1 1067 116 8.5;
#X obj 1106 802 hip~ 100;
#X obj 1334 539 * 1;
#X msg 1413 454 1;
#X msg 1444 455 2;
#X floatatom 1323 515 5 0 0 0 - - -;
#X floatatom 1427 547 5 0 0 0 - - -;
#X floatatom 1326 469 5 0 0 0 - - -;
#X obj 134 109 s \$0-distance;
#X obj 32 344 r \$0-distance;
#X obj 1414 375 r \$0-distance;
#X obj 1414 396 sel 1 2 3;
#X msg 1438 507 1;
#X msg 1469 507 1.5;
#X obj 1325 490 split 140;
#X obj 1376 520 split 200;
#X obj 1378 545 * 1;
#X msg 124 424 0.1;
#X msg 1087 298 1 532 799 1178 1681 147 3.1;
#X msg 272 609 \$1 20;
#X msg 222 610 \$1 20;
#X msg 170 611 \$1 20;
#X msg 120 612 \$1 20;
#X msg 1315 907 \$1 100;
#X obj 1279 857 clip~ -0.4 0.4;
#X obj 60 38 inlet;
#X text 409 128 N: 220 331 489 694.1 395 14.1 1 330 441 733 1041.1
270 5.1;
#X floatatom 164 86 5 0 0 0 - - -;
#X msg 1063 190 1 880 1321 1947 2777 300 1.1;
#X obj 965 171 bng 15 250 50 0 empty empty empty 17 7 0 10 -262144
-1 -1;
#X msg 48 423 0.95;
#X obj 542 718 *~ 0.6;
#X msg 306 476 0.02;
#X obj 308 510 s \$0-reverb;
#X obj 309 873 *~ 0.08;
#X obj 348 754 r \$0-reverb;
#X floatatom 348 778 5 0 0 0 - - -;
#X obj 720 984 lop~ 8000;
#X floatatom 934 904 5 0 0 0 - - -;
#X obj 863 1002 *~;
#X obj 665 905 *~ 0.2;
#X obj 982 926 line;
#X msg 982 902 \$1 10;
#X floatatom 901 874 5 0 0 0 - - -;
#X floatatom 941 954 5 0 0 0 - - -;
#X obj 324 10 sel H C N O -, f 63;
#X obj 876 847 unpack f f f, f 18;
#X msg 1044 870 0;
#X msg 1003 873 0.7;
#X msg 270 79 0 1670 2642 3894 5554 800 1.02;
#X msg 608 393 0.99993;
#X msg 695 399 0.9994;
#X msg 465 387 0.99993;
#X text 866 733 0.035 0.012 2000;
#X obj 422 673 r \$0-distance;
#X floatatom 422 697 5 0 0 0 - - -;
#X obj 837 956 / 2;
#X obj 809 915 gate 2;
#X floatatom 781 957 5 0 0 0 - - -;
#X msg 86 423 0.3;
#X msg 832 769 0.04 0.2 300;
#X msg 896 808 0.02 0.05 8000;
#X msg 936 763 0.035 0.02 2000;
#X msg 568 160 1 110 165 244 347.1 345 17.2;
#X msg 355 476 0.1;
#X msg 749 809 0.05 0.2 150;
#X msg 439 112 0 220 331 489 694.1 395 6.7;
#X msg 910 247 1 880 1321 1947 2777 300 1.15;
#X msg 938 269 1 968 1454.1 2140 3058 300 1.27;
#X connect 0 0 165 0;
#X connect 1 0 22 0;
#X connect 1 1 23 0;
#X connect 1 2 24 0;
#X connect 1 3 25 0;
#X connect 2 0 1 0;
#X connect 3 0 20 0;
#X connect 4 0 33 0;
#X connect 5 0 142 0;
#X connect 6 0 34 0;
#X connect 7 0 141 0;
#X connect 8 0 35 0;
#X connect 9 0 140 0;
#X connect 10 0 36 0;
#X connect 11 0 139 0;
#X connect 12 0 13 0;
#X connect 13 0 5 0;
#X connect 13 1 7 0;
#X connect 13 2 9 0;
#X connect 13 3 11 0;
#X connect 14 0 13 0;
#X connect 15 0 4 1;
#X connect 16 0 6 1;
#X connect 17 0 8 1;
#X connect 18 0 10 1;
#X connect 19 0 41 0;
#X connect 19 0 154 0;
#X connect 21 0 0 0;
#X connect 26 0 12 0;
#X connect 27 0 37 0;
#X connect 28 0 14 0;
#X connect 29 0 38 0;
#X connect 31 2 85 0;
#X connect 32 2 76 0;
#X connect 32 3 85 0;
#X connect 37 0 13 0;
#X connect 38 0 13 0;
#X connect 41 0 4 0;
#X connect 41 0 6 0;
#X connect 41 0 8 0;
#X connect 41 0 10 0;
#X connect 42 0 81 0;
#X connect 43 0 46 0;
#X connect 44 0 47 0;
#X connect 45 0 48 0;
#X connect 46 0 95 0;
#X connect 47 0 95 0;
#X connect 48 0 95 0;
#X connect 49 0 40 0;
#X connect 49 0 79 0;
#X connect 50 0 169 0;
#X connect 50 1 106 0;
#X connect 50 1 181 0;
#X connect 51 0 183 0;
#X connect 51 1 170 0;
#X connect 51 1 185 0;
#X connect 52 0 148 0;
#X connect 52 0 149 0;
#X connect 52 1 171 0;
#X connect 52 1 182 0;
#X connect 53 0 186 0;
#X connect 53 1 180 0;
#X connect 53 1 172 0;
#X connect 54 0 121 0;
#X connect 54 0 160 0;
#X connect 55 0 96 0;
#X connect 56 0 151 0;
#X connect 57 0 59 0;
#X connect 57 0 58 0;
#X connect 57 1 72 0;
#X connect 57 1 73 0;
#X connect 57 2 74 0;
#X connect 57 2 75 0;
#X connect 57 3 77 0;
#X connect 58 0 69 0;
#X connect 58 0 71 0;
#X connect 59 0 107 0;
#X connect 60 0 57 0;
#X connect 61 0 143 0;
#X connect 63 0 78 0;
#X connect 64 0 151 0;
#X connect 65 0 151 0;
#X connect 66 0 56 1;
#X connect 67 0 66 0;
#X connect 68 0 64 1;
#X connect 69 0 68 0;
#X connect 70 0 65 1;
#X connect 71 0 70 0;
#X connect 72 0 108 0;
#X connect 73 0 67 0;
#X connect 73 0 71 0;
#X connect 74 0 71 0;
#X connect 75 0 69 0;
#X connect 75 0 67 0;
#X connect 76 0 60 0;
#X connect 76 1 92 0;
#X connect 76 2 93 0;
#X connect 76 3 98 0;
#X connect 76 4 99 0;
#X connect 76 5 127 0;
#X connect 76 6 61 0;
#X connect 77 0 67 0;
#X connect 77 0 69 0;
#X connect 77 0 71 0;
#X connect 78 0 64 0;
#X connect 79 0 80 0;
#X connect 81 0 95 0;
#X connect 82 0 49 1;
#X connect 82 0 83 0;
#X connect 85 0 61 0;
#X connect 87 0 3 0;
#X connect 87 1 2 0;
#X connect 87 2 147 0;
#X connect 88 0 89 0;
#X connect 88 0 91 0;
#X connect 89 0 150 0;
#X connect 89 1 179 0;
#X connect 89 2 137 0;
#X connect 90 0 96 1;
#X connect 91 0 187 0;
#X connect 91 1 188 0;
#X connect 91 2 138 0;
#X connect 92 0 109 0;
#X connect 93 0 110 0;
#X connect 94 0 41 1;
#X connect 95 0 144 0;
#X connect 96 0 56 0;
#X connect 98 0 111 0;
#X connect 99 0 112 0;
#X connect 100 0 101 0;
#X connect 100 0 104 0;
#X connect 100 0 103 0;
#X connect 100 0 102 0;
#X connect 101 0 42 2;
#X connect 102 0 43 2;
#X connect 103 0 44 2;
#X connect 104 0 45 2;
#X connect 105 0 78 1;
#X connect 106 0 90 0;
#X connect 107 0 67 0;
#X connect 108 0 69 0;
#X connect 109 0 42 1;
#X connect 110 0 43 1;
#X connect 111 0 44 1;
#X connect 112 0 45 1;
#X connect 113 0 109 1;
#X connect 113 0 110 1;
#X connect 113 0 111 1;
#X connect 113 0 112 1;
#X connect 115 0 113 0;
#X connect 116 0 113 0;
#X connect 117 0 113 0;
#X connect 121 0 42 0;
#X connect 121 0 43 0;
#X connect 121 0 44 0;
#X connect 121 0 45 0;
#X connect 122 0 100 0;
#X connect 123 0 122 1;
#X connect 124 0 122 1;
#X connect 125 0 122 0;
#X connect 126 0 100 0;
#X connect 127 0 134 0;
#X connect 129 0 88 0;
#X connect 130 0 131 0;
#X connect 131 0 123 0;
#X connect 131 0 132 0;
#X connect 131 1 124 0;
#X connect 131 1 133 0;
#X connect 132 0 136 1;
#X connect 133 0 136 1;
#X connect 134 0 125 0;
#X connect 134 1 135 0;
#X connect 135 0 136 0;
#X connect 135 1 126 0;
#X connect 136 0 100 0;
#X connect 137 0 94 0;
#X connect 138 0 32 0;
#X connect 139 0 18 0;
#X connect 140 0 17 0;
#X connect 141 0 16 0;
#X connect 142 0 15 0;
#X connect 143 0 82 0;
#X connect 144 0 49 0;
#X connect 145 0 87 0;
#X connect 147 0 128 0;
#X connect 149 0 91 1;
#X connect 150 0 94 0;
#X connect 150 0 152 0;
#X connect 151 0 54 0;
#X connect 152 0 153 0;
#X connect 154 0 86 0;
#X connect 155 0 156 0;
#X connect 156 0 154 1;
#X connect 157 0 159 0;
#X connect 158 0 177 1;
#X connect 159 0 95 0;
#X connect 160 0 157 0;
#X connect 161 0 164 0;
#X connect 162 0 161 0;
#X connect 163 0 160 1;
#X connect 164 0 159 1;
#X connect 165 0 50 0;
#X connect 165 1 52 0;
#X connect 165 2 53 0;
#X connect 165 3 51 0;
#X connect 165 4 31 0;
#X connect 166 0 162 0;
#X connect 166 1 163 0;
#X connect 166 2 158 0;
#X connect 167 0 162 0;
#X connect 168 0 162 0;
#X connect 169 0 32 0;
#X connect 170 0 105 0;
#X connect 171 0 105 0;
#X connect 172 0 90 0;
#X connect 174 0 175 0;
#X connect 175 0 177 0;
#X connect 176 0 178 0;
#X connect 177 0 178 0;
#X connect 177 1 176 0;
#X connect 178 0 157 1;
#X connect 179 0 94 0;
#X connect 179 0 184 0;
#X connect 180 0 166 0;
#X connect 181 0 166 0;
#X connect 182 0 166 0;
#X connect 183 0 32 0;
#X connect 184 0 153 0;
#X connect 185 0 166 0;
#X connect 186 0 32 0;
#X connect 187 0 32 0;
#X connect 188 0 32 0;
