#N canvas 77 22 1237 716 12;
#X msg 398 318 0;
#X symbolatom 328 -14 10 0 0 0 - - -;
#X obj 113 180 sel L B R T;
#X symbolatom 113 140 10 0 0 0 - - -;
#X symbolatom 18 125 10 0 0 0 - - -;
#X obj 17 693 *~;
#X floatatom 120 590 5 0 0 0 - - -;
#X obj 83 696 *~;
#X floatatom 171 589 5 0 0 0 - - -;
#X obj 155 693 *~;
#X floatatom 222 588 5 0 0 0 - - -;
#X obj 234 691 *~;
#X floatatom 272 587 5 0 0 0 - - -;
#X msg 137 540 1 0 0 0;
#X obj 137 564 unpack f f f f;
#X msg 174 499 0 0 1 0;
#X obj 120 635 line;
#X obj 171 634 line;
#X obj 222 633 line;
#X obj 272 632 line;
#X obj 15 610 catch~ \$0-audio;
#X obj 20 182 s \$0-element;
#X obj 328 -39 r \$0-element;
#X obj 113 264 s \$0-L;
#X obj 128 244 s \$0-B;
#X obj 144 225 s \$0-R;
#X obj 160 205 s \$0-T;
#X obj 137 451 r \$0-L;
#X obj 151 473 r \$0-B;
#X obj 182 451 r \$0-R;
#X obj 199 472 r \$0-T;
#X text 281 654 speaker control;
#X obj 728 69 t b b b;
#X obj 392 342 t f f;
#X obj 385 236 t b b a b;
#X obj 12 762 throw~ K1;
#X obj 88 764 throw~ K2;
#X obj 172 763 throw~ K3;
#X obj 244 762 throw~ K4;
#X msg 151 521 0 1 0 0;
#X msg 199 541 0 0 0 1;
#X text 1188 411 1) smaller number with high frequency;
#X obj 1157 962 throw~ \$0-audio;
#X obj 18 652 *~ 0.8;
#X obj 1187 770 bp~ 1 1;
#X obj 1265 770 bp~ 1 1;
#X obj 1332 771 bp~ 1 1;
#X obj 1402 771 bp~ 1 1;
#X obj 1265 791 *~ 0.6;
#X obj 1332 792 *~ 0.4;
#X obj 1402 792 *~ 0.4;
#X text 485 246 220 330 460 800 100;
#X obj 1284 943 *~ 3;
#X obj 327 59 t b b;
#X obj 451 68 t b b;
#X obj 489 32 t b b;
#X obj 937 99 t b b;
#X obj 593 57 t b b;
#X obj 541 768 *~ 0.2;
#X obj 445 488 noise~;
#X obj 514 637 *~;
#X obj 876 439 sel 0 1 2;
#X msg 876 480 0;
#X msg 841 473 1;
#X floatatom 1227 459 5 0 0 0 - - -;
#X floatatom 1323 885 5 0 0 0 - - -;
#X text 1368 889 volume seperate control;
#X obj 591 479 brown~;
#X obj 600 629 *~;
#X obj 661 636 *~;
#X obj 533 609 line;
#X msg 532 590 \$1 10;
#X obj 617 607 line;
#X msg 617 587 \$1 10;
#X obj 709 618 line;
#X msg 709 596 \$1 10;
#X msg 893 504 1;
#X msg 921 504 0;
#X msg 912 553 1;
#X msg 948 553 0;
#X obj 1229 436 unpack f f f f f f f;
#X msg 931 608 0;
#X obj 596 506 >~ 0.9996;
#X obj 1106 865 else/vu~;
#X obj 1089 900 vu 15 120 empty empty -1 -8 0 10 -66577 -1 1 0;
#X obj 1187 794 *~ 0.8;
#X obj 1316 926 line;
#X floatatom 1316 947 5 0 0 0 - - -;
#X text 1369 904 comment;
#X msg 783 102 0;
#X obj 358 763 throw~ Reverb;
#X obj 59 71 unpack s s f;
#X floatatom 48 368 5 0 0 0 - - -;
#X obj 48 388 sel 1 2 3;
#X floatatom 551 455 8 0 0 0 - - -;
#X text 585 426 density control;
#X obj 905 212 gate 3;
#X floatatom 1152 600 5 0 0 0 - - -;
#X floatatom 1230 602 5 0 0 0 - - -;
#X floatatom 49 589 5 0 0 0 - - -;
#X obj 1279 836 *~ 500;
#X obj 444 517 >~ 0.9985;
#X text 96 404 direct sound loudness;
#X floatatom 1301 604 5 0 0 0 - - -;
#X floatatom 1375 607 5 0 0 0 - - -;
#X floatatom 1387 568 5 0 0 0 - - -;
#X floatatom 1186 600 5 0 0 0 - - -;
#X floatatom 1264 603 5 0 0 0 - - -;
#X floatatom 1337 605 5 0 0 0 - - -;
#X floatatom 1407 607 5 0 0 0 - - -;
#X floatatom 634 456 8 0 0 0 - - -;
#X obj 467 321 s \$0-density;
#X msg 437 285 0.9985;
#X obj 609 335 r \$0-density;
#X floatatom 596 384 5 0 0 0 - - -;
#X obj 582 409 f;
#X obj 652 409 f;
#X obj 847 499 t f b;
#X obj 893 525 t f b;
#X obj 1225 678 * 1;
#X obj 1298 680 * 1;
#X obj 1370 677 * 1;
#X obj 1445 678 * 1;
#X floatatom 1562 560 5 0 0 0 - - -;
#X text 1521 454 frequency-distance;
#X msg 1597 531 0.25;
#X msg 1635 537 0.5;
#X msg 1551 531 0.125;
#X text 1013 115 1 220 305 574 881 116 8.5;
#X text 1019 136 1 244 333.1 629 971 116 8.5;
#X text 1018 150 1 271 367 691.1 1067 116 8.5;
#X obj 1098 709 hip~ 100;
#X obj 1334 539 * 1;
#X msg 1413 454 1;
#X msg 1444 455 2;
#X floatatom 1323 515 5 0 0 0 - - -;
#X floatatom 1427 547 5 0 0 0 - - -;
#X floatatom 1326 469 5 0 0 0 - - -;
#X obj 134 109 s \$0-distance;
#X obj 32 344 r \$0-distance;
#X obj 1414 375 r \$0-distance;
#X obj 1414 396 sel 1 2 3;
#X msg 1438 507 1;
#X msg 1469 507 1.5;
#X obj 1325 490 split 140;
#X obj 1376 520 split 200;
#X obj 1378 545 * 1;
#X obj 324 10 sel H O OH N -, f 63;
#X msg 124 424 0.1;
#X msg 1087 298 1 532 799 1178 1681 147 3.1;
#X msg 272 609 \$1 20;
#X msg 222 610 \$1 20;
#X msg 170 611 \$1 20;
#X msg 120 612 \$1 20;
#X msg 1315 907 \$1 100;
#X msg 277 99 0 880 1321 1947 2777 800 1.1;
#X obj 1279 857 clip~ -0.4 0.4;
#X msg 910 246 1 880 1321 1947 2777 300 1.1;
#X msg 937 269 1 968 1454.1 2140 3058 300 1.1;
#X obj 60 38 inlet;
#X msg 649 296 0.9996;
#X text 542 171 N: 220 331 489 694.1 395 14.1 1 330 441 733 1041.1
270 5.1;
#X floatatom 164 86 5 0 0 0 - - -;
#X msg 275 160 0 1670 2642 3894 5554 800 0.8;
#X msg 1063 190 1 880 1321 1947 2777 300 1.1;
#X obj 975 172 bng 15 250 50 0 empty empty empty 17 7 0 10 -262144
-1 -1;
#X obj 334 434 mtof;
#X msg 48 423 0.95;
#X msg 86 423 0.27;
#X obj 708 478 noise~;
#X floatatom 797 512 5 0 0 0 - - -;
#X msg 566 300 0.99991;
#X msg 623 150 1 220 331 489 694.1 395 13.2;
#X obj 699 508 lop~ 200;
#X obj 542 718 *~ 0.6;
#X obj 610 800 *~ 0.2;
#X floatatom 658 764 5 0 0 0 - - -;
#X floatatom 721 776 5 0 0 0 - - -;
#X obj 271 843 dac~;
#X obj 866 820 lop~ 8000;
#X obj 610 824 vcf~ 8000 2;
#X floatatom 816 784 5 0 0 0 - - -;
#X msg 442 126 0 110 165 244 347.1 374 18;
#X msg 498 287 0.99994;
#X msg 669 891 110 448 0.3;
#X connect 0 0 33 0;
#X connect 1 0 147 0;
#X connect 2 0 23 0;
#X connect 2 1 24 0;
#X connect 2 2 25 0;
#X connect 2 3 26 0;
#X connect 3 0 2 0;
#X connect 4 0 21 0;
#X connect 5 0 35 0;
#X connect 5 0 178 0;
#X connect 6 0 153 0;
#X connect 7 0 36 0;
#X connect 8 0 152 0;
#X connect 9 0 37 0;
#X connect 10 0 151 0;
#X connect 11 0 38 0;
#X connect 12 0 150 0;
#X connect 13 0 14 0;
#X connect 14 0 6 0;
#X connect 14 1 8 0;
#X connect 14 2 10 0;
#X connect 14 3 12 0;
#X connect 15 0 14 0;
#X connect 16 0 5 1;
#X connect 17 0 7 1;
#X connect 18 0 9 1;
#X connect 19 0 11 1;
#X connect 20 0 43 0;
#X connect 20 0 90 0;
#X connect 22 0 1 0;
#X connect 27 0 13 0;
#X connect 28 0 39 0;
#X connect 29 0 15 0;
#X connect 30 0 40 0;
#X connect 32 0 0 0;
#X connect 32 2 89 0;
#X connect 34 1 0 0;
#X connect 34 2 80 0;
#X connect 34 3 89 0;
#X connect 39 0 14 0;
#X connect 40 0 14 0;
#X connect 43 0 5 0;
#X connect 43 0 7 0;
#X connect 43 0 9 0;
#X connect 43 0 11 0;
#X connect 44 0 85 0;
#X connect 45 0 48 0;
#X connect 46 0 49 0;
#X connect 47 0 50 0;
#X connect 48 0 100 0;
#X connect 49 0 100 0;
#X connect 50 0 100 0;
#X connect 52 0 42 0;
#X connect 52 0 83 0;
#X connect 53 0 163 0;
#X connect 53 1 112 0;
#X connect 54 0 182 0;
#X connect 54 1 183 0;
#X connect 56 0 164 0;
#X connect 56 0 165 0;
#X connect 56 1 160 0;
#X connect 57 0 172 0;
#X connect 57 1 171 0;
#X connect 58 0 131 0;
#X connect 59 0 101 0;
#X connect 60 0 174 0;
#X connect 61 0 63 0;
#X connect 61 0 62 0;
#X connect 61 1 76 0;
#X connect 61 1 77 0;
#X connect 61 2 78 0;
#X connect 61 2 79 0;
#X connect 61 3 81 0;
#X connect 62 0 73 0;
#X connect 62 0 75 0;
#X connect 63 0 117 0;
#X connect 64 0 61 0;
#X connect 65 0 154 0;
#X connect 67 0 82 0;
#X connect 68 0 174 0;
#X connect 69 0 174 0;
#X connect 70 0 60 1;
#X connect 71 0 70 0;
#X connect 72 0 68 1;
#X connect 73 0 72 0;
#X connect 74 0 69 1;
#X connect 75 0 74 0;
#X connect 76 0 118 0;
#X connect 77 0 71 0;
#X connect 77 0 75 0;
#X connect 78 0 75 0;
#X connect 79 0 73 0;
#X connect 79 0 71 0;
#X connect 80 0 64 0;
#X connect 80 1 97 0;
#X connect 80 2 98 0;
#X connect 80 3 103 0;
#X connect 80 4 104 0;
#X connect 80 5 137 0;
#X connect 80 6 65 0;
#X connect 81 0 71 0;
#X connect 81 0 73 0;
#X connect 81 0 75 0;
#X connect 82 0 68 0;
#X connect 83 0 84 0;
#X connect 85 0 100 0;
#X connect 86 0 52 1;
#X connect 86 0 87 0;
#X connect 89 0 65 0;
#X connect 91 0 4 0;
#X connect 91 1 3 0;
#X connect 91 2 162 0;
#X connect 92 0 93 0;
#X connect 92 0 96 0;
#X connect 93 0 167 0;
#X connect 93 1 168 0;
#X connect 93 2 148 0;
#X connect 94 0 101 1;
#X connect 96 0 157 0;
#X connect 96 1 158 0;
#X connect 96 2 149 0;
#X connect 97 0 119 0;
#X connect 98 0 120 0;
#X connect 99 0 43 1;
#X connect 100 0 156 0;
#X connect 101 0 60 0;
#X connect 103 0 121 0;
#X connect 104 0 122 0;
#X connect 105 0 106 0;
#X connect 105 0 109 0;
#X connect 105 0 108 0;
#X connect 105 0 107 0;
#X connect 106 0 44 2;
#X connect 107 0 45 2;
#X connect 108 0 46 2;
#X connect 109 0 47 2;
#X connect 110 0 82 1;
#X connect 112 0 111 0;
#X connect 112 0 94 0;
#X connect 113 0 114 0;
#X connect 114 0 115 1;
#X connect 114 0 116 1;
#X connect 117 0 71 0;
#X connect 117 1 115 0;
#X connect 118 0 73 0;
#X connect 118 1 116 0;
#X connect 119 0 44 1;
#X connect 120 0 45 1;
#X connect 121 0 46 1;
#X connect 122 0 47 1;
#X connect 123 0 119 1;
#X connect 123 0 120 1;
#X connect 123 0 121 1;
#X connect 123 0 122 1;
#X connect 125 0 123 0;
#X connect 126 0 123 0;
#X connect 127 0 123 0;
#X connect 131 0 44 0;
#X connect 131 0 45 0;
#X connect 131 0 46 0;
#X connect 131 0 47 0;
#X connect 132 0 105 0;
#X connect 133 0 132 1;
#X connect 134 0 132 1;
#X connect 135 0 132 0;
#X connect 136 0 105 0;
#X connect 137 0 144 0;
#X connect 139 0 92 0;
#X connect 140 0 141 0;
#X connect 141 0 133 0;
#X connect 141 0 142 0;
#X connect 141 1 134 0;
#X connect 141 1 143 0;
#X connect 142 0 146 1;
#X connect 143 0 146 1;
#X connect 144 0 135 0;
#X connect 144 1 145 0;
#X connect 145 0 146 0;
#X connect 145 1 136 0;
#X connect 146 0 105 0;
#X connect 147 0 53 0;
#X connect 147 1 54 0;
#X connect 147 2 55 0;
#X connect 147 3 57 0;
#X connect 147 4 32 0;
#X connect 147 5 56 0;
#X connect 148 0 99 0;
#X connect 149 0 34 0;
#X connect 150 0 19 0;
#X connect 151 0 18 0;
#X connect 152 0 17 0;
#X connect 153 0 16 0;
#X connect 154 0 86 0;
#X connect 155 0 34 0;
#X connect 156 0 52 0;
#X connect 157 0 34 0;
#X connect 158 0 34 0;
#X connect 159 0 91 0;
#X connect 160 0 110 0;
#X connect 162 0 138 0;
#X connect 163 0 34 0;
#X connect 165 0 96 1;
#X connect 167 0 99 0;
#X connect 168 0 99 0;
#X connect 169 0 173 0;
#X connect 170 0 173 1;
#X connect 171 0 111 0;
#X connect 171 0 110 0;
#X connect 172 0 34 0;
#X connect 174 0 58 0;
#X connect 174 0 175 0;
#X connect 175 0 180 0;
#X connect 176 0 175 1;
#X connect 177 0 180 1;
#X connect 180 0 100 0;
#X connect 181 0 180 2;
#X connect 182 0 34 0;
#X connect 183 0 111 0;
#X connect 183 0 94 0;
