#N canvas -28 84 1236 740 12;
#X obj 286 303 bng 15 250 50 0 empty empty empty 17 7 0 10 -262144
-1 -1;
#X obj 287 493 sel 0;
#X obj 286 323 t b b;
#X floatatom 286 403 5 0 0 0 - - -;
#X msg 286 354 1;
#X obj 285 382 +;
#X obj 314 355 f;
#X floatatom 286 441 5 0 0 0 - - -;
#X msg 398 318 0;
#X symbolatom 328 -14 10 0 0 0 - - -;
#X obj 113 180 sel L B R T;
#X symbolatom 113 140 10 0 0 0 - - -;
#X symbolatom 18 125 10 0 0 0 - - -;
#X obj 17 693 *~;
#X floatatom 120 590 5 0 0 0 - - -;
#X obj 83 696 *~;
#X floatatom 171 589 5 0 0 0 - - -;
#X obj 155 693 *~;
#X floatatom 222 588 5 0 0 0 - - -;
#X obj 234 691 *~;
#X floatatom 272 587 5 0 0 0 - - -;
#X msg 137 540 1 0 0 0;
#X obj 137 564 unpack f f f f;
#X msg 174 499 0 0 1 0;
#X obj 120 635 line;
#X obj 171 634 line;
#X obj 222 633 line;
#X obj 272 632 line;
#X obj 15 610 catch~ \$0-audio;
#X obj 20 182 s \$0-element;
#X obj 328 -39 r \$0-element;
#X obj 113 264 s \$0-L;
#X obj 128 244 s \$0-B;
#X obj 144 225 s \$0-R;
#X obj 160 205 s \$0-T;
#X obj 323 414 r \$0-L;
#X obj 355 391 r \$0-B;
#X obj 386 413 r \$0-R;
#X obj 417 391 r \$0-T;
#X obj 137 451 r \$0-L;
#X obj 151 473 r \$0-B;
#X obj 182 451 r \$0-R;
#X obj 199 472 r \$0-T;
#X text 281 654 speaker control;
#X msg 323 443 1;
#X msg 355 443 2;
#X msg 386 442 3;
#X msg 417 442 0;
#X msg 383 511 0 10;
#X obj 287 522 bng 15 250 50 0 empty empty empty 17 7 0 10 -262144
-1 -1;
#X obj 728 69 t b b b;
#X obj 392 342 t f f;
#X obj 385 236 t b b a b;
#X obj 12 762 throw~ K1;
#X obj 88 764 throw~ K2;
#X obj 172 763 throw~ K3;
#X obj 244 762 throw~ K4;
#X msg 151 521 0 1 0 0;
#X msg 199 541 0 0 0 1;
#X text 1188 411 1) smaller number with high frequency;
#X obj 1157 962 throw~ \$0-audio;
#X obj 287 542 s \$0-bang;
#X obj 18 652 *~ 0.8;
#X obj 1187 770 bp~ 1 1;
#X obj 1265 770 bp~ 1 1;
#X obj 1332 771 bp~ 1 1;
#X obj 1402 771 bp~ 1 1;
#X obj 1265 791 *~ 0.6;
#X obj 1332 792 *~ 0.4;
#X obj 1402 792 *~ 0.4;
#X text 485 246 220 330 460 800 100;
#X obj 286 423 mod 8;
#X obj 1284 943 *~ 3;
#X obj 327 59 t b b;
#X obj 451 68 t b b;
#X obj 489 32 t b b;
#X obj 937 99 t b b;
#X obj 593 57 t b b;
#X obj 541 671 *~;
#X obj 541 692 *~ 0.2;
#X obj 519 491 noise~;
#X obj 517 602 *~;
#X obj 779 412 sel 0 1 2;
#X msg 779 453 0;
#X msg 750 451 1;
#X floatatom 1227 459 5 0 0 0 - - -;
#X floatatom 1323 885 5 0 0 0 - - -;
#X text 1368 889 volume seperate control;
#X obj 603 489 brown~;
#X obj 667 490 pink~;
#X obj 603 594 *~;
#X obj 664 592 *~;
#X obj 536 574 line;
#X msg 535 555 \$1 10;
#X obj 620 572 line;
#X msg 620 552 \$1 10;
#X obj 682 573 line;
#X msg 682 553 \$1 10;
#X msg 796 477 1;
#X msg 824 477 0;
#X msg 823 526 1;
#X msg 851 526 0;
#X obj 1229 436 unpack f f f f f f f;
#X msg 829 543 0;
#X obj 667 519 >~ 0.5998;
#X obj 603 521 >~ 0.9996;
#X obj 1106 865 else/vu~;
#X obj 1089 900 vu 15 120 empty empty -1 -8 0 10 -66577 -1 1 0;
#X obj 1187 794 *~ 0.8;
#X obj 1316 926 line;
#X floatatom 1316 947 5 0 0 0 - - -;
#X text 1369 904 comment;
#X msg 783 102 0;
#X obj 358 763 throw~ Reverb;
#X obj 59 71 unpack s s f;
#X floatatom 48 368 5 0 0 0 - - -;
#X obj 48 388 sel 1 2 3;
#X floatatom 551 455 8 0 0 0 - - -;
#X text 585 426 density control;
#X obj 938 162 gate 3;
#X floatatom 1152 600 5 0 0 0 - - -;
#X floatatom 1230 602 5 0 0 0 - - -;
#X floatatom 49 589 5 0 0 0 - - -;
#X obj 1279 836 *~ 500;
#X obj 518 520 >~ 0.9985;
#X text 96 404 direct sound loudness;
#X floatatom 1301 604 5 0 0 0 - - -;
#X floatatom 1375 607 5 0 0 0 - - -;
#X floatatom 1387 568 5 0 0 0 - - -;
#X floatatom 1186 600 5 0 0 0 - - -;
#X floatatom 1264 603 5 0 0 0 - - -;
#X floatatom 1337 605 5 0 0 0 - - -;
#X floatatom 1407 607 5 0 0 0 - - -;
#X floatatom 642 451 8 0 0 0 - - -;
#X floatatom 707 445 5 0 0 0 - - -;
#X obj 467 321 s \$0-density;
#X msg 450 287 0.9985;
#X obj 596 363 r \$0-density;
#X floatatom 596 384 5 0 0 0 - - -;
#X obj 582 409 f;
#X obj 652 409 f;
#X obj 750 472 t f b;
#X obj 796 498 t f b;
#X msg 498 290 0.9998;
#X obj 592 627 noise~;
#X obj 592 648 *~ 0.6;
#X obj 1225 678 * 1;
#X obj 1298 680 * 1;
#X obj 1370 677 * 1;
#X obj 1445 678 * 1;
#X floatatom 1562 560 5 0 0 0 - - -;
#X text 1521 454 frequency-distance;
#X msg 1597 531 0.25;
#X msg 1635 537 0.5;
#X msg 1551 531 0.125;
#X text 1013 115 1 220 305 574 881 116 8.5;
#X text 1019 136 1 244 333.1 629 971 116 8.5;
#X text 1018 150 1 271 367 691.1 1067 116 8.5;
#X obj 1098 709 hip~ 100;
#X msg 640 298 0.99948;
#X obj 1334 539 * 1;
#X msg 1413 454 1;
#X msg 1444 455 2;
#X floatatom 1323 515 5 0 0 0 - - -;
#X floatatom 1427 547 5 0 0 0 - - -;
#X floatatom 1326 469 5 0 0 0 - - -;
#X obj 134 93 s \$0-distance;
#X obj 32 344 r \$0-distance;
#X obj 1414 375 r \$0-distance;
#X obj 1414 396 sel 1 2 3;
#X msg 1438 507 1;
#X msg 1469 507 1.5;
#X obj 1325 490 split 140;
#X obj 1376 520 split 200;
#X obj 1378 545 * 1;
#X msg 546 287 0.99968;
#X obj 324 10 sel H O OH N -, f 63;
#X msg 124 424 0.1;
#X msg 966 240 1 532 799 1178 1681 147 3.1;
#X msg 48 423 0.89;
#X msg 86 423 0.26;
#X msg 272 609 \$1 20;
#X msg 222 610 \$1 20;
#X msg 170 611 \$1 20;
#X msg 120 612 \$1 20;
#X msg 1315 907 \$1 100;
#X msg 69 30 H L 1;
#X floatatom 330 898 5 0 0 0 - - -;
#X obj 209 935 rev3~ 100 88 3000 30;
#X obj 271 835 catch~ Reverb;
#X obj 271 856 delwrite~ delay_buf 1000;
#X obj 272 876 delread4~ delay_buf;
#X floatatom 235 840 5 0 0 0 - - -;
#X obj 235 860 sig~;
#X obj 272 913 *~ 0.08;
#X msg 132 29 - - 0;
#X msg 188 31 C B 1;
#X text 630 195 N: 220 331 489 694.1 395 14.1;
#X obj 78 907 dac~ 5 6 1 2;
#X msg 277 99 0 880 1321 1947 2777 800 1.1;
#X msg 182 3 N T 1;
#X msg 275 159 0 1670 2642 3894 5554 800 0.9;
#X msg 232 2 O R 1;
#X msg 796 280 1 880 1321 1947 2777 300 1.1;
#X obj 1279 857 clip~ -0.4 0.4;
#X msg 605 171 1 330 441 733 1041.1 270 5.1;
#X msg 442 126 1 110 165 244 347.1 294 22.8;
#X msg 937 195 1 880 1321 1947 2777 300 1.1;
#X msg 953 215 1 968 1454.1 2140 3058 300 1.1;
#X connect 0 0 2 0;
#X connect 1 0 49 0;
#X connect 1 1 48 0;
#X connect 2 0 4 0;
#X connect 2 1 6 0;
#X connect 3 0 6 1;
#X connect 3 0 71 0;
#X connect 4 0 5 0;
#X connect 5 0 3 0;
#X connect 6 0 5 1;
#X connect 7 0 1 0;
#X connect 8 0 51 0;
#X connect 9 0 176 0;
#X connect 10 0 31 0;
#X connect 10 1 32 0;
#X connect 10 2 33 0;
#X connect 10 3 34 0;
#X connect 11 0 10 0;
#X connect 12 0 29 0;
#X connect 13 0 53 0;
#X connect 13 0 198 0;
#X connect 14 0 184 0;
#X connect 15 0 54 0;
#X connect 15 0 198 1;
#X connect 16 0 183 0;
#X connect 17 0 55 0;
#X connect 17 0 198 2;
#X connect 18 0 182 0;
#X connect 19 0 56 0;
#X connect 19 0 198 3;
#X connect 20 0 181 0;
#X connect 21 0 22 0;
#X connect 22 0 14 0;
#X connect 22 1 16 0;
#X connect 22 2 18 0;
#X connect 22 3 20 0;
#X connect 23 0 22 0;
#X connect 24 0 13 1;
#X connect 25 0 15 1;
#X connect 26 0 17 1;
#X connect 27 0 19 1;
#X connect 28 0 62 0;
#X connect 28 0 113 0;
#X connect 30 0 9 0;
#X connect 35 0 44 0;
#X connect 36 0 45 0;
#X connect 37 0 46 0;
#X connect 38 0 47 0;
#X connect 39 0 21 0;
#X connect 40 0 57 0;
#X connect 41 0 23 0;
#X connect 42 0 58 0;
#X connect 44 0 1 1;
#X connect 45 0 1 1;
#X connect 46 0 1 1;
#X connect 47 0 1 1;
#X connect 49 0 61 0;
#X connect 50 0 8 0;
#X connect 50 2 112 0;
#X connect 51 0 7 0;
#X connect 51 1 3 0;
#X connect 52 1 8 0;
#X connect 52 2 102 0;
#X connect 52 3 112 0;
#X connect 57 0 22 0;
#X connect 58 0 22 0;
#X connect 62 0 13 0;
#X connect 62 0 15 0;
#X connect 62 0 17 0;
#X connect 62 0 19 0;
#X connect 63 0 108 0;
#X connect 64 0 67 0;
#X connect 65 0 68 0;
#X connect 66 0 69 0;
#X connect 67 0 123 0;
#X connect 68 0 123 0;
#X connect 69 0 123 0;
#X connect 71 0 7 0;
#X connect 72 0 60 0;
#X connect 72 0 106 0;
#X connect 73 0 201 0;
#X connect 73 1 136 0;
#X connect 74 0 206 0;
#X connect 74 1 143 0;
#X connect 76 0 203 0;
#X connect 76 1 159 0;
#X connect 77 0 205 0;
#X connect 77 1 175 0;
#X connect 78 0 79 0;
#X connect 79 0 158 0;
#X connect 80 0 124 0;
#X connect 81 0 78 0;
#X connect 82 0 84 0;
#X connect 82 0 83 0;
#X connect 82 1 98 0;
#X connect 82 1 99 0;
#X connect 82 2 100 0;
#X connect 82 2 101 0;
#X connect 82 3 103 0;
#X connect 83 0 95 0;
#X connect 83 0 97 0;
#X connect 84 0 141 0;
#X connect 85 0 82 0;
#X connect 86 0 185 0;
#X connect 88 0 105 0;
#X connect 89 0 104 0;
#X connect 90 0 78 0;
#X connect 92 0 81 1;
#X connect 93 0 92 0;
#X connect 94 0 90 1;
#X connect 95 0 94 0;
#X connect 96 0 91 1;
#X connect 97 0 96 0;
#X connect 98 0 142 0;
#X connect 99 0 93 0;
#X connect 99 0 97 0;
#X connect 100 0 97 0;
#X connect 101 0 95 0;
#X connect 101 0 93 0;
#X connect 102 0 85 0;
#X connect 102 1 120 0;
#X connect 102 2 121 0;
#X connect 102 3 126 0;
#X connect 102 4 127 0;
#X connect 102 5 165 0;
#X connect 102 6 86 0;
#X connect 103 0 93 0;
#X connect 103 0 95 0;
#X connect 103 0 97 0;
#X connect 104 0 91 0;
#X connect 105 0 90 0;
#X connect 106 0 107 0;
#X connect 108 0 123 0;
#X connect 109 0 72 1;
#X connect 109 0 110 0;
#X connect 112 0 86 0;
#X connect 114 0 12 0;
#X connect 114 1 11 0;
#X connect 114 2 166 0;
#X connect 115 0 116 0;
#X connect 115 0 119 0;
#X connect 116 0 179 0;
#X connect 116 1 180 0;
#X connect 116 2 177 0;
#X connect 117 0 124 1;
#X connect 119 0 207 0;
#X connect 119 1 208 0;
#X connect 119 2 178 0;
#X connect 120 0 146 0;
#X connect 121 0 147 0;
#X connect 122 0 62 1;
#X connect 123 0 204 0;
#X connect 124 0 81 0;
#X connect 126 0 148 0;
#X connect 127 0 149 0;
#X connect 128 0 129 0;
#X connect 128 0 132 0;
#X connect 128 0 131 0;
#X connect 128 0 130 0;
#X connect 129 0 63 2;
#X connect 130 0 64 2;
#X connect 131 0 65 2;
#X connect 132 0 66 2;
#X connect 133 0 105 1;
#X connect 134 0 104 1;
#X connect 136 0 135 0;
#X connect 136 0 117 0;
#X connect 137 0 138 0;
#X connect 138 0 139 1;
#X connect 138 0 140 1;
#X connect 141 0 93 0;
#X connect 141 1 139 0;
#X connect 142 0 95 0;
#X connect 142 1 140 0;
#X connect 143 0 135 0;
#X connect 143 0 133 0;
#X connect 144 0 145 0;
#X connect 145 0 78 1;
#X connect 146 0 63 1;
#X connect 147 0 64 1;
#X connect 148 0 65 1;
#X connect 149 0 66 1;
#X connect 150 0 146 1;
#X connect 150 0 147 1;
#X connect 150 0 148 1;
#X connect 150 0 149 1;
#X connect 152 0 150 0;
#X connect 153 0 150 0;
#X connect 154 0 150 0;
#X connect 158 0 63 0;
#X connect 158 0 64 0;
#X connect 158 0 65 0;
#X connect 158 0 66 0;
#X connect 159 0 133 0;
#X connect 160 0 128 0;
#X connect 161 0 160 1;
#X connect 162 0 160 1;
#X connect 163 0 160 0;
#X connect 164 0 128 0;
#X connect 165 0 172 0;
#X connect 167 0 115 0;
#X connect 168 0 169 0;
#X connect 169 0 161 0;
#X connect 169 0 170 0;
#X connect 169 1 162 0;
#X connect 169 1 171 0;
#X connect 170 0 174 1;
#X connect 171 0 174 1;
#X connect 172 0 163 0;
#X connect 172 1 173 0;
#X connect 173 0 174 0;
#X connect 173 1 164 0;
#X connect 174 0 128 0;
#X connect 175 0 135 0;
#X connect 175 0 133 0;
#X connect 176 0 73 0;
#X connect 176 1 74 0;
#X connect 176 2 75 0;
#X connect 176 3 77 0;
#X connect 176 4 50 0;
#X connect 176 5 76 0;
#X connect 177 0 122 0;
#X connect 178 0 52 0;
#X connect 179 0 122 0;
#X connect 180 0 122 0;
#X connect 181 0 27 0;
#X connect 182 0 26 0;
#X connect 183 0 25 0;
#X connect 184 0 24 0;
#X connect 185 0 109 0;
#X connect 186 0 114 0;
#X connect 187 0 194 1;
#X connect 188 0 198 0;
#X connect 188 1 198 1;
#X connect 188 2 198 2;
#X connect 188 3 198 3;
#X connect 189 0 190 0;
#X connect 191 0 194 0;
#X connect 192 0 193 0;
#X connect 193 0 191 0;
#X connect 194 0 188 0;
#X connect 195 0 114 0;
#X connect 196 0 114 0;
#X connect 199 0 52 0;
#X connect 200 0 114 0;
#X connect 201 0 52 0;
#X connect 202 0 114 0;
#X connect 203 0 52 0;
#X connect 204 0 72 0;
#X connect 205 0 52 0;
#X connect 206 0 52 0;
#X connect 207 0 52 0;
#X connect 208 0 52 0;
