#N canvas 456 168 611 522 12;
#X obj 94 431 *~ 0.01;
#X obj 97 380 osc~ 440;
#X obj 137 516 *~;
#X floatatom 266 345 5 0 0 0 - - -;
#X obj 291 513 *~;
#X floatatom 317 344 5 0 0 0 - - -;
#X obj 363 510 *~;
#X floatatom 368 343 5 0 0 0 - - -;
#X obj 442 508 *~;
#X floatatom 418 342 5 0 0 0 - - -;
#X msg 283 295 1 0 0 0;
#X obj 283 319 unpack f f f f;
#X msg 320 254 0 0 1 0;
#X obj 266 390 line;
#X obj 317 389 line;
#X obj 368 388 line;
#X obj 418 387 line;
#X msg 297 276 0 1 0 0;
#X msg 345 296 0 0 0 1;
#X msg 418 364 \$1 20;
#X msg 368 365 \$1 20;
#X msg 316 366 \$1 20;
#X msg 266 367 \$1 20;
#X obj 287 57 metro 1000;
#X obj 287 34 tgl 15 0 empty empty empty 17 7 0 10 -262144 -1 -1 0
1;
#X obj 286 96 counter 0 3;
#X floatatom 286 120 5 0 0 0 - - -;
#X obj 286 143 sel 0 1 2 3;
#X obj 152 572 dac~ 1 2 6 5, f 41;
#X obj 212 469 *~ 0.01;
#X floatatom 261 441 5 0 0 0 - - -;
#X obj 332 478 *~ 0.01;
#X floatatom 381 450 5 0 0 0 - - -;
#X obj 423 477 *~ 0.01;
#X floatatom 472 449 5 0 0 0 - - -;
#X connect 0 0 2 0;
#X connect 1 0 0 0;
#X connect 1 0 29 0;
#X connect 1 0 31 0;
#X connect 1 0 33 0;
#X connect 2 0 28 0;
#X connect 3 0 22 0;
#X connect 4 0 28 1;
#X connect 5 0 21 0;
#X connect 6 0 28 2;
#X connect 7 0 20 0;
#X connect 8 0 28 3;
#X connect 9 0 19 0;
#X connect 10 0 11 0;
#X connect 11 0 3 0;
#X connect 11 1 5 0;
#X connect 11 2 7 0;
#X connect 11 3 9 0;
#X connect 12 0 11 0;
#X connect 13 0 2 1;
#X connect 14 0 4 1;
#X connect 15 0 6 1;
#X connect 16 0 8 1;
#X connect 17 0 11 0;
#X connect 18 0 11 0;
#X connect 19 0 16 0;
#X connect 20 0 15 0;
#X connect 21 0 14 0;
#X connect 22 0 13 0;
#X connect 23 0 25 0;
#X connect 24 0 23 0;
#X connect 25 0 26 0;
#X connect 26 0 27 0;
#X connect 27 0 10 0;
#X connect 27 1 17 0;
#X connect 27 2 12 0;
#X connect 27 3 18 0;
#X connect 29 0 4 0;
#X connect 30 0 29 1;
#X connect 31 0 6 0;
#X connect 32 0 31 1;
#X connect 33 0 8 0;
#X connect 34 0 33 1;
