#N canvas 1106 46 334 666 10;
#X obj 62 35 inlet;
#X obj 61 99 text search AminoNumber 0;
#X floatatom 61 127 5 0 0 0 - - -;
#X floatatom 130 127 5 0 0 0 - - -;
#X obj 60 182 text get AminoNumber 1 1;
#X obj 62 56 unpack;
#X floatatom 60 203 5 0 0 0 - - -;
#X obj 60 235 text get AminoElement 0 2;
#X obj 60 277 unpack f s;
#X floatatom 60 319 5 0 0 0 - - -;
#X symbolatom 172 323 10 0 0 0 - - -;
#X obj 62 417 f;
#X obj 60 495 pack f s;
#X obj 176 451 symbol;
#X obj 60 359 t b f b;
#X obj 172 363 t b s b b;
#X obj 31 547 outlet;
#X msg 236 387 -;
#X obj 203 35 inlet;
#X floatatom 203 56 5 0 0 0 - - -;
#X obj 227 286 f;
#X connect 0 0 5 0;
#X connect 1 0 2 0;
#X connect 2 0 4 0;
#X connect 3 0 4 1;
#X connect 4 0 6 0;
#X connect 5 0 1 0;
#X connect 5 1 3 0;
#X connect 6 0 7 0;
#X connect 7 0 8 0;
#X connect 7 0 16 0;
#X connect 8 0 9 0;
#X connect 8 1 10 0;
#X connect 9 0 14 0;
#X connect 10 0 15 0;
#X connect 11 0 12 0;
#X connect 13 0 12 1;
#X connect 14 0 11 0;
#X connect 14 1 11 1;
#X connect 15 0 13 0;
#X connect 15 1 13 1;
#X connect 15 2 11 0;
#X connect 15 3 17 0;
#X connect 17 0 13 0;
#X connect 18 0 19 0;
#X connect 19 0 20 1;
