#N canvas 140 30 1395 856 10;
#X msg 416 201 0;
#X symbolatom 328 -14 10 0 0 0 - - -;
#X obj 53 97 inlet;
#X obj 107 241 sel L B R T;
#X symbolatom 107 201 10 0 0 0 - - -;
#X symbolatom 12 186 10 0 0 0 - - -;
#X obj 17 693 *~;
#X floatatom 120 590 5 0 0 0 - - -;
#X obj 83 696 *~;
#X floatatom 171 589 5 0 0 0 - - -;
#X obj 155 693 *~;
#X floatatom 222 588 5 0 0 0 - - -;
#X obj 234 691 *~;
#X floatatom 272 587 5 0 0 0 - - -;
#X msg 137 540 1 0 0 0;
#X obj 137 564 unpack f f f f;
#X msg 174 499 0 0 1 0;
#X obj 120 635 line;
#X obj 171 634 line;
#X obj 222 633 line;
#X obj 272 632 line;
#X msg 171 611 \$1 100;
#X msg 120 612 \$1 100;
#X msg 222 610 \$1 100;
#X msg 272 609 \$1 100;
#X obj 17 614 catch~ \$0-audio;
#X obj 14 243 s \$0-element;
#X obj 328 -39 r \$0-element;
#X obj 107 325 s \$0-L;
#X obj 122 305 s \$0-B;
#X obj 138 286 s \$0-R;
#X obj 154 266 s \$0-T;
#X obj 137 451 r \$0-L;
#X obj 151 473 r \$0-B;
#X obj 182 451 r \$0-R;
#X obj 199 472 r \$0-T;
#X text 281 654 speaker control;
#X obj 439 36 t b b b;
#X obj 460 194 t f f;
#X obj 312 303 t b b a b;
#X obj 12 762 throw~ K1;
#X obj 88 764 throw~ K2;
#X obj 172 763 throw~ K3;
#X obj 244 762 throw~ K4;
#X msg 151 521 0 1 0 0;
#X msg 199 541 0 0 0 1;
#X obj 780 929 throw~ \$0-audio;
#X obj 18 652 *~ 0.8;
#X obj 902 824 clip~ -0.6 0.6;
#X obj 810 737 bp~ 1 1;
#X obj 888 737 bp~ 1 1;
#X obj 955 738 bp~ 1 1;
#X obj 1025 738 bp~ 1 1;
#X obj 888 758 *~ 0.6;
#X obj 955 759 *~ 0.4;
#X obj 1025 759 *~ 0.4;
#X obj 907 910 *~ 3;
#X obj 327 59 t b b;
#X obj 363 60 t b b;
#X obj 401 60 t b b;
#X obj 696 157 t b b;
#X obj 452 59 t b b;
#X obj 541 671 *~;
#X obj 541 692 *~ 0.2;
#X obj 519 491 noise~;
#X obj 517 602 *~;
#X obj 722 452 sel 0 1 2;
#X msg 728 492 0;
#X msg 701 492 1;
#X floatatom 734 398 5 0 0 1 pattern_model - -;
#X floatatom 1089 802 5 0 0 1 volume_control - -;
#X obj 603 489 brown~;
#X obj 603 594 *~;
#X obj 536 574 line;
#X msg 535 555 \$1 10;
#X obj 620 572 line;
#X msg 620 552 \$1 10;
#X msg 739 517 1;
#X msg 767 517 0;
#X msg 766 566 1;
#X msg 794 566 0;
#X msg 772 583 0;
#X obj 603 521 >~ 0.9996;
#X obj 729 832 else/vu~;
#X obj 712 867 vu 15 120 empty empty -1 -8 0 10 -66577 -1 1 0;
#X obj 810 761 *~ 0.8;
#X obj 939 893 line;
#X floatatom 939 914 5 0 0 0 - - -;
#X msg 938 874 \$1 500;
#X text 992 871 comment;
#X msg 530 73 0;
#X obj 358 763 throw~ Reverb;
#X obj 53 132 unpack s s f;
#X floatatom 48 368 5 0 0 0 - - -;
#X msg 48 423 0.8;
#X obj 48 388 sel 1 2 3;
#X floatatom 551 455 8 0 0 0 - - -;
#X text 585 426 density control;
#X obj 834 131 gate 3;
#X floatatom 829 593 5 0 0 1 interval_size - -;
#X floatatom 49 589 5 0 0 0 - - -;
#X msg 107 423 0.08;
#X obj 902 803 *~ 500;
#X obj 518 520 >~ 0.9985;
#X text 96 404 direct sound loudness;
#X floatatom 1085 573 5 0 0 0 - - -;
#X floatatom 961 599 5 0 0 0 - - -;
#X floatatom 1032 603 5 0 0 0 - - -;
#X floatatom 1102 598 5 0 0 0 - - -;
#X floatatom 1167 603 5 0 0 0 - - -;
#X floatatom 642 451 8 0 0 0 - - -;
#X text 519 135 1 100 200 350 441 200 9;
#X obj 184 78 gate 4;
#X obj 171 -31 r \$0-L;
#X obj 185 -9 r \$0-B;
#X obj 216 -31 r \$0-R;
#X obj 233 -10 r \$0-T;
#X msg 171 15 1;
#X msg 185 39 2;
#X msg 205 15 3;
#X msg 215 37 4;
#X floatatom 184 59 5 0 0 0 - - -;
#X obj 445 363 s \$0-density;
#X msg 445 320 0.9985;
#X obj 596 363 r \$0-density;
#X floatatom 596 384 5 0 0 0 - - -;
#X obj 562 402 f;
#X obj 665 405 f;
#X obj 664 490 t f b;
#X obj 739 538 t f b;
#X msg 561 323 0.9998;
#X obj 592 627 noise~;
#X obj 592 648 *~ 0.6;
#X text 1215 439 frequency-distance;
#X text 420 114 all hydrygeons;
#X msg 215 98 0 880 1321 1947 2777 123 1.1;
#X msg 222 119 0 968 1453 2141.1 3055 123 1.1;
#X msg 241 140 0 1061 1595 2357 3361 123 1.1;
#X msg 260 160 0 1171 1753 2591.3 3697 123 1.1;
#X text 942 91 1 220 305 574 881 116 8.5;
#X text 948 112 1 244 333.1 629 971 116 8.5;
#X text 955 137 1 271 367 691.1 1067 116 8.5;
#X msg 510 224 1 220 331 489 694.1 395 31;
#X msg 337 226 1 110 165 244 347.1 294 55;
#X obj 721 676 hip~ 100;
#X msg 774 215 1 440 661 973 1389 147 8;
#X msg 788 172 1 484 727.1 1070 1528 147 8;
#X msg 793 192 1 532 799 1178 1681 147 8;
#X msg 497 322 0.99948;
#X msg 77 422 0.27;
#X obj 1023 519 * 1;
#X msg 1107 439 1;
#X msg 1138 440 2;
#X floatatom 1000 489 5 0 0 0 - - -;
#X floatatom 1119 514 5 0 0 0 - - -;
#X obj 128 154 s \$0-distance;
#X obj 32 344 r \$0-distance;
#X obj 1208 356 r \$0-distance;
#X obj 1175 419 sel 1 2 3;
#X msg 1130 474 1;
#X msg 1161 474 1.5;
#X obj 1070 512 * 1;
#X msg 618 324 0.99968;
#X obj 994 231 r \$0-element;
#X floatatom 1172 653 5 0 0 0 - - -;
#X floatatom 1208 655 5 0 0 0 - - -;
#X floatatom 1246 655 5 0 0 0 - - -;
#X floatatom 1282 657 5 0 0 0 - - -;
#X obj 1252 598 unpack f f f f;
#X obj 1253 533 loadbang;
#X msg 960 413 123;
#X floatatom 1065 479 5 0 0 0 - - -;
#X obj 329 13 sel H C N O -;
#X msg 1002 414 147;
#X msg 1059 413 395;
#X msg 1105 411 294;
#X symbolatom 1218 24 10 0 0 0 - - -;
#X symbolatom 1237 75 10 0 0 0 - - -;
#X obj 1212 73 bng 15 250 50 0 empty empty empty 17 7 0 10 -262144
-1 -1;
#X obj 815 102 r \$0-distance;
#X obj 1218 44 t b s s;
#X obj 933 296 t b b;
#X obj 974 298 t b b;
#X obj 1032 297 t b b;
#X obj 1086 279 t b b;
#X obj 870 456 unpack f f f;
#X msg 1250 566 880 1321 1947 2777;
#X msg 865 359 0 1 1.1;
#X msg 1149 362 0 0 0;
#X obj 827 654 * 880;
#X obj 905 653 * 1321;
#X obj 976 654 * 1947;
#X obj 1044 657 * 2777;
#X obj 994 252 sel H C NH2 O -;
#X msg 1080 362 1 0.3 15;
#X msg 941 362 1 0.67 2.9;
#X msg 1020 362 1 0.44 17;
#X obj 913 490 t b f;
#X obj 957 453 bng 15 250 50 0 empty empty empty 17 7 0 10 -262144
-1 -1;
#X obj 1072 547 f;
#X connect 0 0 38 0;
#X connect 1 0 172 0;
#X connect 2 0 92 0;
#X connect 3 0 28 0;
#X connect 3 1 29 0;
#X connect 3 2 30 0;
#X connect 3 3 31 0;
#X connect 4 0 3 0;
#X connect 5 0 26 0;
#X connect 6 0 40 0;
#X connect 7 0 22 0;
#X connect 8 0 41 0;
#X connect 9 0 21 0;
#X connect 10 0 42 0;
#X connect 11 0 23 0;
#X connect 12 0 43 0;
#X connect 13 0 24 0;
#X connect 14 0 15 0;
#X connect 15 0 7 0;
#X connect 15 1 9 0;
#X connect 15 2 11 0;
#X connect 15 3 13 0;
#X connect 16 0 15 0;
#X connect 17 0 6 1;
#X connect 18 0 8 1;
#X connect 19 0 10 1;
#X connect 20 0 12 1;
#X connect 21 0 18 0;
#X connect 22 0 17 0;
#X connect 23 0 19 0;
#X connect 24 0 20 0;
#X connect 25 0 47 0;
#X connect 25 0 91 0;
#X connect 27 0 1 0;
#X connect 32 0 14 0;
#X connect 33 0 44 0;
#X connect 34 0 16 0;
#X connect 35 0 45 0;
#X connect 37 0 0 0;
#X connect 37 2 90 0;
#X connect 39 1 0 0;
#X connect 44 0 15 0;
#X connect 45 0 15 0;
#X connect 47 0 6 0;
#X connect 47 0 8 0;
#X connect 47 0 10 0;
#X connect 47 0 12 0;
#X connect 48 0 56 0;
#X connect 49 0 85 0;
#X connect 50 0 53 0;
#X connect 51 0 54 0;
#X connect 52 0 55 0;
#X connect 53 0 102 0;
#X connect 54 0 102 0;
#X connect 55 0 102 0;
#X connect 56 0 46 0;
#X connect 56 0 83 0;
#X connect 57 0 112 1;
#X connect 58 0 143 0;
#X connect 60 0 98 1;
#X connect 61 0 142 0;
#X connect 61 1 162 0;
#X connect 62 0 63 0;
#X connect 63 0 144 0;
#X connect 64 0 103 0;
#X connect 65 0 62 0;
#X connect 66 0 68 0;
#X connect 66 0 67 0;
#X connect 66 1 77 0;
#X connect 66 1 78 0;
#X connect 66 2 79 0;
#X connect 66 2 80 0;
#X connect 66 3 81 0;
#X connect 67 0 76 0;
#X connect 68 0 128 0;
#X connect 69 0 66 0;
#X connect 70 0 88 0;
#X connect 71 0 82 0;
#X connect 72 0 62 0;
#X connect 73 0 65 1;
#X connect 74 0 73 0;
#X connect 75 0 72 1;
#X connect 76 0 75 0;
#X connect 77 0 129 0;
#X connect 78 0 74 0;
#X connect 80 0 76 0;
#X connect 80 0 74 0;
#X connect 81 0 74 0;
#X connect 81 0 76 0;
#X connect 82 0 72 0;
#X connect 83 0 84 0;
#X connect 85 0 102 0;
#X connect 86 0 56 1;
#X connect 86 0 87 0;
#X connect 88 0 86 0;
#X connect 92 0 5 0;
#X connect 92 1 4 0;
#X connect 92 2 155 0;
#X connect 93 0 95 0;
#X connect 94 0 100 0;
#X connect 95 0 94 0;
#X connect 95 1 149 0;
#X connect 95 2 101 0;
#X connect 96 0 103 1;
#X connect 98 0 145 0;
#X connect 98 1 147 0;
#X connect 99 0 189 0;
#X connect 99 0 190 0;
#X connect 99 0 191 0;
#X connect 99 0 192 0;
#X connect 100 0 47 1;
#X connect 101 0 100 0;
#X connect 102 0 48 0;
#X connect 103 0 65 0;
#X connect 105 0 106 0;
#X connect 105 0 109 0;
#X connect 105 0 108 0;
#X connect 105 0 107 0;
#X connect 106 0 49 2;
#X connect 107 0 50 2;
#X connect 108 0 51 2;
#X connect 109 0 52 2;
#X connect 110 0 82 1;
#X connect 112 0 135 0;
#X connect 112 1 136 0;
#X connect 112 2 137 0;
#X connect 112 3 138 0;
#X connect 113 0 117 0;
#X connect 114 0 118 0;
#X connect 115 0 119 0;
#X connect 116 0 120 0;
#X connect 117 0 121 0;
#X connect 118 0 121 0;
#X connect 119 0 121 0;
#X connect 120 0 121 0;
#X connect 121 0 112 0;
#X connect 123 0 122 0;
#X connect 123 0 96 0;
#X connect 124 0 125 0;
#X connect 125 0 126 1;
#X connect 125 0 127 1;
#X connect 128 0 74 0;
#X connect 128 1 126 0;
#X connect 129 0 76 0;
#X connect 129 1 127 0;
#X connect 130 0 122 0;
#X connect 130 0 110 0;
#X connect 131 0 132 0;
#X connect 132 0 62 1;
#X connect 135 0 39 0;
#X connect 136 0 39 0;
#X connect 137 0 39 0;
#X connect 138 0 39 0;
#X connect 142 0 39 0;
#X connect 143 0 39 0;
#X connect 144 0 49 0;
#X connect 144 0 50 0;
#X connect 144 0 51 0;
#X connect 144 0 52 0;
#X connect 145 0 39 0;
#X connect 146 0 39 0;
#X connect 147 0 39 0;
#X connect 148 0 110 0;
#X connect 149 0 100 0;
#X connect 150 0 199 1;
#X connect 151 0 150 1;
#X connect 152 0 150 1;
#X connect 153 0 150 0;
#X connect 154 0 199 1;
#X connect 156 0 93 0;
#X connect 157 0 158 0;
#X connect 158 0 151 0;
#X connect 158 0 159 0;
#X connect 158 1 152 0;
#X connect 158 1 160 0;
#X connect 159 0 161 1;
#X connect 160 0 161 1;
#X connect 161 0 199 1;
#X connect 162 0 122 0;
#X connect 162 0 110 0;
#X connect 163 0 193 0;
#X connect 164 0 189 1;
#X connect 165 0 190 1;
#X connect 166 0 191 1;
#X connect 167 0 192 1;
#X connect 168 0 164 0;
#X connect 168 1 165 0;
#X connect 168 2 166 0;
#X connect 168 3 167 0;
#X connect 169 0 186 0;
#X connect 170 0 153 0;
#X connect 171 0 161 0;
#X connect 172 0 57 0;
#X connect 172 1 60 0;
#X connect 172 2 59 0;
#X connect 172 3 61 0;
#X connect 172 4 37 0;
#X connect 173 0 171 0;
#X connect 174 0 154 0;
#X connect 175 0 154 0;
#X connect 176 0 180 0;
#X connect 179 0 98 0;
#X connect 180 0 178 0;
#X connect 180 1 177 0;
#X connect 181 0 187 0;
#X connect 181 1 170 0;
#X connect 181 1 123 0;
#X connect 182 0 195 0;
#X connect 182 1 173 0;
#X connect 182 1 148 0;
#X connect 183 0 196 0;
#X connect 183 1 174 0;
#X connect 183 1 162 0;
#X connect 184 0 194 0;
#X connect 184 1 175 0;
#X connect 184 1 130 0;
#X connect 185 0 69 0;
#X connect 185 1 99 0;
#X connect 185 2 197 0;
#X connect 186 0 168 0;
#X connect 187 0 185 0;
#X connect 188 0 185 0;
#X connect 189 0 49 1;
#X connect 190 0 50 1;
#X connect 191 0 51 1;
#X connect 192 0 52 1;
#X connect 193 0 181 0;
#X connect 193 1 182 0;
#X connect 193 2 183 0;
#X connect 193 3 184 0;
#X connect 193 4 188 0;
#X connect 194 0 185 0;
#X connect 195 0 185 0;
#X connect 196 0 185 0;
#X connect 197 0 199 0;
#X connect 197 1 70 0;
#X connect 199 0 105 0;
