#N canvas 298 23 1122 814 10;
#X obj 1009 98 inlet;
#X obj 1009 133 unpack s s;
#X obj 1009 227 sel L B R T;
#X obj 544 286 s2l;
#X msg 571 263 symbol;
#X obj 544 236 t s b;
#X obj 451 201 sel H O OH NH2 -;
#X obj 544 311 unpack s f;
#X floatatom 601 335 5 0 0 0 - - -, f 5;
#X obj 544 344 sel C;
#X symbolatom 1009 203 10 0 0 0 - - -, f 10;
#X symbolatom 1065 154 10 0 0 0 - - -, f 10;
#X obj 978 514 *~;
#X floatatom 993 406 5 0 0 0 - - -, f 5;
#X obj 1035 513 *~;
#X floatatom 1050 403 5 0 0 0 - - -, f 5;
#X obj 1102 512 *~;
#X floatatom 1117 401 5 0 0 0 - - -, f 5;
#X obj 1169 510 *~;
#X floatatom 1184 405 5 0 0 0 - - -, f 5;
#X msg 1009 323 1 0 0 0;
#X obj 1009 347 unpack f f f f;
#X msg 1040 277 0 0 1 0;
#X obj 993 451 line;
#X obj 1050 448 line;
#X obj 1117 446 line;
#X obj 1184 450 line;
#X obj 697 243 noise~;
#X obj 697 377 bp~ 200 10;
#X obj 725 338 unpack f f;
#X obj 865 502 *~ 0.5;
#X obj 747 201 sel H;
#X obj 697 442 *~ 0.5;
#X floatatom 1085 450 5 0 0 0 - - -, f 5;
#X msg 1050 425 \$1 100;
#X msg 993 428 \$1 100;
#X msg 1117 423 \$1 100;
#X msg 1184 427 \$1 100;
#X msg 177 43 \; pd dsp \$1;
#X obj 177 18 tgl 15 0 empty empty empty 17 7 0 10 -262144 -1 -1 0
1;
#X obj 1003 552 dac~ 1 2 2 1;
#X msg 1056 258 0 0.7 0 0.3;
#X msg 889 442 1 500;
#X msg 934 442 0 500;
#X obj 889 483 line;
#X obj 886 343 tgl 15 0 empty empty empty 17 7 0 10 -262144 -1 -1 1
1;
#X obj 887 323 loadbang;
#X obj 887 390 metro 2000;
#X obj 887 419 delay 1000;
#X floatatom 323 256 5 0 0 0 - - -, f 5;
#X obj 377 273 * -1;
#X obj 402 294 phasor~;
#X msg 409 272 0;
#X msg 441 271 0.5;
#X obj 409 223 bng 15 250 50 0 empty empty empty 17 7 0 10 -262144
-1 -1;
#X obj 323 333 +~;
#X obj 323 354 -~ 1;
#X obj 392 349 bng 15 250 50 0 empty empty empty 17 7 0 10 -262144
-1 -1;
#X obj 747 399 line;
#X msg 747 243 0.7 50;
#X msg 793 243 0 50;
#X obj 323 447 *~ 0.1;
#X obj 222 364 *~ 0.1;
#X msg 1024 299 0 0.3 0 0.7;
#X obj 323 294 phasor~ 100;
#X obj 356 424 line;
#X msg 356 405 0.1 50;
#X msg 383 387 0 50;
#X msg 868 274 400 10;
#X msg 782 273 500 5;
#X msg 821 273 300 45;
#X msg 722 275 350 20;
#X obj 356 201 sel O;
#X obj 578 449 bng 15 250 50 0 empty empty empty 17 7 0 10 -262144
-1 -1;
#X obj 527 425 readsf~;
#X msg 506 370 0;
#X obj 506 351 bng 15 250 50 0 empty empty empty 17 7 0 10 -262144
-1 -1;
#X obj 240 201 sel OH;
#X obj 122 201 sel NH2;
#X msg 241 308 0.1 50;
#X msg 273 281 0 50;
#X obj 241 329 line;
#X obj 356 223 t b b;
#X obj 527 450 *~ 0.9;
#X obj 559 565 spigot;
#X obj 544 372 t b b;
#X msg 598 495 1;
#X obj 590 541 tgl 15 0 empty empty empty 17 7 0 10 -262144 -1 -1 0
1;
#X msg 527 396 open lib/1.wav \, 1;
#X msg 849 364 0;
#X msg 814 361 1;
#X obj 889 464 spigot;
#X msg 843 421 1 50;
#X obj 886 364 t f f;
#X obj 527 483 bp~ 800 10;
#X obj 634 564 unpack f f;
#X msg 632 537 1300 8;
#X msg 732 541 1500 15;
#X msg 686 541 900 4;
#X obj 601 356 sel 0 1 2 3 4;
#X msg 641 511 1100 8;
#X msg 122 231 710 1100 2640;
#X obj 122 261 unpack f f f;
#X obj 138 355 bp~ 1 34;
#X obj 107 306 bp~ 1 34;
#X obj 121 332 bp~ 1 34;
#X obj 125 391 clip~ -1 1;
#X obj 22 218 sig~ 1;
#X obj 22 358 /~;
#X obj 38 239 sig~ 50;
#X obj 38 260 osc~;
#X obj 38 281 *~ 24;
#X obj 38 302 *~;
#X obj 38 327 +~ 1;
#X obj 22 379 -~ 0.5;
#X obj 67 447 tabwrite~ array1;
#X obj 392 369 tabwrite~ array2;
#X obj 53 426 bng 15 250 50 0 empty empty empty 17 7 0 10 -262144 -1
-1;
#X obj 125 415 *~ 0.5;
#X msg 160 244 0 0 0;
#X obj 222 237 phasor~ 200;
#X connect 0 0 1 0;
#X connect 1 0 10 0;
#X connect 1 1 11 0;
#X connect 2 0 20 0;
#X connect 2 0 71 0;
#X connect 2 1 63 0;
#X connect 2 1 69 0;
#X connect 2 2 22 0;
#X connect 2 2 70 0;
#X connect 2 3 41 0;
#X connect 2 3 68 0;
#X connect 3 0 7 0;
#X connect 4 0 3 1;
#X connect 5 0 3 0;
#X connect 5 1 4 0;
#X connect 6 0 76 0;
#X connect 6 1 76 0;
#X connect 6 2 76 0;
#X connect 6 3 76 0;
#X connect 6 4 76 0;
#X connect 6 5 5 0;
#X connect 7 0 9 0;
#X connect 7 1 8 0;
#X connect 8 0 99 0;
#X connect 9 0 85 0;
#X connect 10 0 2 0;
#X connect 11 0 6 0;
#X connect 11 0 31 0;
#X connect 11 0 72 0;
#X connect 11 0 78 0;
#X connect 11 0 77 0;
#X connect 12 0 40 0;
#X connect 13 0 35 0;
#X connect 14 0 40 1;
#X connect 15 0 34 0;
#X connect 16 0 40 2;
#X connect 17 0 36 0;
#X connect 18 0 40 3;
#X connect 19 0 37 0;
#X connect 20 0 21 0;
#X connect 21 0 13 0;
#X connect 21 1 15 0;
#X connect 21 2 17 0;
#X connect 21 3 19 0;
#X connect 22 0 21 0;
#X connect 23 0 12 1;
#X connect 24 0 14 1;
#X connect 24 0 33 0;
#X connect 25 0 16 1;
#X connect 26 0 18 1;
#X connect 27 0 28 0;
#X connect 28 0 32 0;
#X connect 29 0 28 1;
#X connect 29 1 28 2;
#X connect 30 0 12 0;
#X connect 30 0 14 0;
#X connect 30 0 16 0;
#X connect 30 0 18 0;
#X connect 31 0 59 0;
#X connect 31 1 60 0;
#X connect 32 0 30 0;
#X connect 34 0 24 0;
#X connect 35 0 23 0;
#X connect 36 0 25 0;
#X connect 37 0 26 0;
#X connect 39 0 38 0;
#X connect 41 0 21 0;
#X connect 42 0 91 0;
#X connect 43 0 91 0;
#X connect 44 0 30 1;
#X connect 45 0 93 0;
#X connect 46 0 45 0;
#X connect 47 0 42 0;
#X connect 47 0 48 0;
#X connect 48 0 43 0;
#X connect 49 0 50 0;
#X connect 49 0 64 0;
#X connect 50 0 51 0;
#X connect 51 0 55 1;
#X connect 52 0 64 1;
#X connect 53 0 51 1;
#X connect 54 0 52 0;
#X connect 54 0 53 0;
#X connect 55 0 56 0;
#X connect 56 0 61 0;
#X connect 56 0 116 0;
#X connect 57 0 116 0;
#X connect 58 0 32 1;
#X connect 59 0 58 0;
#X connect 60 0 58 0;
#X connect 61 0 30 0;
#X connect 62 0 30 0;
#X connect 63 0 21 0;
#X connect 64 0 55 0;
#X connect 65 0 61 1;
#X connect 66 0 65 0;
#X connect 67 0 65 0;
#X connect 68 0 29 0;
#X connect 69 0 29 0;
#X connect 70 0 29 0;
#X connect 71 0 29 0;
#X connect 72 0 82 0;
#X connect 72 1 67 0;
#X connect 73 0 84 0;
#X connect 74 0 83 0;
#X connect 74 1 73 0;
#X connect 75 0 74 0;
#X connect 75 0 87 0;
#X connect 75 0 90 0;
#X connect 76 0 75 0;
#X connect 77 0 79 0;
#X connect 77 1 80 0;
#X connect 78 0 101 0;
#X connect 78 1 119 0;
#X connect 79 0 81 0;
#X connect 80 0 81 0;
#X connect 81 0 62 1;
#X connect 82 0 66 0;
#X connect 82 1 54 0;
#X connect 83 0 94 0;
#X connect 84 0 88 0;
#X connect 85 0 88 0;
#X connect 85 1 86 0;
#X connect 85 1 89 0;
#X connect 86 0 87 0;
#X connect 87 0 84 1;
#X connect 88 0 74 0;
#X connect 89 0 45 0;
#X connect 89 0 92 0;
#X connect 90 0 45 0;
#X connect 91 0 44 0;
#X connect 92 0 44 0;
#X connect 93 0 47 0;
#X connect 93 1 91 1;
#X connect 94 0 30 0;
#X connect 95 0 94 1;
#X connect 95 1 94 2;
#X connect 96 0 95 0;
#X connect 97 0 95 0;
#X connect 98 0 95 0;
#X connect 99 0 96 0;
#X connect 99 1 98 0;
#X connect 99 2 98 0;
#X connect 99 3 97 0;
#X connect 99 4 100 0;
#X connect 100 0 95 0;
#X connect 101 0 102 0;
#X connect 102 0 104 1;
#X connect 102 1 105 1;
#X connect 102 2 103 1;
#X connect 103 0 106 0;
#X connect 104 0 106 0;
#X connect 105 0 106 0;
#X connect 106 0 115 0;
#X connect 106 0 118 0;
#X connect 107 0 108 0;
#X connect 108 0 114 0;
#X connect 109 0 110 0;
#X connect 110 0 111 0;
#X connect 111 0 112 0;
#X connect 111 0 112 1;
#X connect 112 0 113 0;
#X connect 113 0 108 1;
#X connect 114 0 104 0;
#X connect 114 0 105 0;
#X connect 114 0 103 0;
#X connect 117 0 115 0;
#X connect 118 0 30 0;
#X connect 119 0 102 0;
#X connect 120 0 62 0;
