#N canvas 395 274 675 480 10;
#X obj 113 61 unpack s s f f f;
#X obj 113 28 inlet;
#X floatatom 159 270 5 0 0 0 - - -, f 5;
#X floatatom 220 274 5 0 0 0 - - -, f 5;
#X text 152 399 note velocity channel;
#X obj 229 138 sel A B C H;
#X msg 229 212 1;
#X msg 244 194 2;
#X msg 260 176 3;
#X msg 276 158 4;
#X obj 291 228 t b f;
#X obj 159 245 f;
#X obj 113 89 sel H C N O S;
#X obj 159 345 noteout;
#X obj 159 297 makenote 100 2000;
#X floatatom 157 211 5 0 0 0 - - -, f 5;
#X obj 113 189 + 60;
#X msg 113 164 3;
#X msg 128 146 0;
#X msg 143 128 -2;
#X msg 158 110 -5;
#X obj 25 190 bng 15 250 50 0 empty empty empty 17 7 0 10 -262144 -1
-1;
#X msg 24 225 60;
#X msg 36 257 70;
#X obj 383 310 poly;
#X obj 469 160 osc~ 440;
#X obj 458 221 dac~ 1;
#X connect 0 0 12 0;
#X connect 0 1 5 0;
#X connect 1 0 0 0;
#X connect 2 0 14 0;
#X connect 3 0 13 2;
#X connect 5 0 6 0;
#X connect 5 1 7 0;
#X connect 5 2 8 0;
#X connect 5 3 9 0;
#X connect 6 0 10 0;
#X connect 7 0 10 0;
#X connect 8 0 10 0;
#X connect 9 0 10 0;
#X connect 10 0 11 0;
#X connect 10 1 3 0;
#X connect 11 0 2 0;
#X connect 12 0 17 0;
#X connect 12 1 18 0;
#X connect 12 2 19 0;
#X connect 12 3 20 0;
#X connect 14 0 13 0;
#X connect 14 1 13 1;
#X connect 15 0 11 1;
#X connect 16 0 15 0;
#X connect 17 0 16 0;
#X connect 18 0 16 0;
#X connect 19 0 16 0;
#X connect 20 0 16 0;
#X connect 21 0 22 0;
#X connect 21 0 23 0;
