#N canvas 554 27 934 814 10;
#X obj 259 179 bng 15 250 50 0 empty empty empty 17 7 0 10 -262144
-1 -1;
#X obj 251 375 sel 0;
#X obj 259 199 t b b;
#X floatatom 259 279 5 0 0 0 - - -;
#X obj 259 299 mod 4;
#X msg 259 230 1;
#X obj 258 258 +;
#X obj 287 231 f;
#X obj 257 115 tgl 15 0 empty empty empty 17 7 0 10 -262144 -1 -1 0
1;
#X floatatom 259 317 5 0 0 0 - - -;
#X msg 257 76 1;
#X msg 460 173 0;
#X symbolatom 330 49 10 0 0 0 - - -;
#X obj 234 518 *~;
#X obj 58 14 tgl 15 0 empty empty empty 17 7 0 10 -262144 -1 -1 0 1
;
#X msg 58 34 \; pd dsp \$1;
#X obj 53 97 inlet;
#X obj 53 132 unpack s s;
#X obj 53 254 sel L B R T;
#X symbolatom 53 214 10 0 0 0 - - -;
#X symbolatom 110 153 10 0 0 0 - - -;
#X obj 445 533 *~;
#X floatatom 460 426 5 0 0 0 - - -;
#X obj 496 534 *~;
#X floatatom 511 425 5 0 0 0 - - -;
#X obj 547 533 *~;
#X floatatom 562 424 5 0 0 0 - - -;
#X obj 597 531 *~;
#X floatatom 612 423 5 0 0 0 - - -;
#X msg 477 376 1 0 0 0;
#X obj 477 400 unpack f f f f;
#X msg 514 335 0 0 1 0;
#X obj 460 471 line;
#X obj 511 470 line;
#X obj 562 469 line;
#X obj 612 468 line;
#X msg 511 447 \$1 100;
#X msg 460 448 \$1 100;
#X msg 562 446 \$1 100;
#X msg 612 445 \$1 100;
#X obj 219 500 catch~ \$0-audio;
#X obj 112 210 s \$0-element;
#X obj 330 24 r \$0-element;
#X obj 109 172 symbol;
#X obj 53 234 t b s;
#X obj 53 338 s \$0-L;
#X obj 68 318 s \$0-B;
#X obj 84 299 s \$0-R;
#X obj 100 279 s \$0-T;
#X obj 296 290 r \$0-L;
#X obj 328 267 r \$0-B;
#X obj 359 289 r \$0-R;
#X obj 390 267 r \$0-T;
#X obj 329 73 sel H O OH NH2 -;
#X obj 477 287 r \$0-L;
#X obj 491 309 r \$0-B;
#X obj 522 287 r \$0-R;
#X obj 539 308 r \$0-T;
#X text 621 490 speaker control;
#X obj 1555 19 r \$0-element;
#X obj 1752 640 r \$0-element;
#X obj 1720 22 r \$0-element;
#X floatatom 1523 113 5 0 0 0 - - -;
#X obj 1577 130 * -1;
#X obj 1602 151 phasor~;
#X msg 1609 129 0;
#X msg 1641 128 0.5;
#X obj 1609 80 bng 15 250 50 0 empty empty empty 17 7 0 10 -262144
-1 -1;
#X obj 1523 190 +~;
#X obj 1523 211 -~ 1;
#X obj 1523 280 *~ 0.1;
#X obj 1556 257 line;
#X msg 1556 238 0.1 50;
#X obj 1556 58 sel O;
#X obj 1556 80 t b b;
#X obj 1523 151 phasor~ 200;
#X obj 1732 266 throw~ \$0-audio;
#X obj 1523 304 throw~ \$0-audio;
#X obj 1732 240 *~ 0.1;
#X obj 1750 77 sel OH;
#X msg 1751 184 0.1 50;
#X msg 1783 157 0 50;
#X obj 1751 205 line;
#X obj 1732 113 phasor~ 150;
#X obj 1752 678 sel NH2;
#X obj 1642 795 throw~ \$0-audio;
#X msg 1583 220 0 10;
#X msg 296 319 1;
#X msg 328 319 2;
#X msg 359 318 3;
#X msg 390 318 0;
#X text 325 494 rhythm control;
#X obj 1614 524 *~ 2;
#X obj 1662 670 +~;
#X obj 1593 631 *~;
#X obj 1715 567 *~;
#X obj 1643 746 cos~;
#X obj 1643 721 -~;
#X obj 1713 542 min~ 1;
#X obj 1592 566 max~ 1;
#X obj 1645 589 -~;
#X obj 1614 504 phasor~ 120;
#X floatatom 1720 460 5 0 0 0 - - -;
#X obj 1720 484 / 100;
#X obj 1800 581 *~;
#X floatatom 1800 399 5 0 0 0 - - -;
#X floatatom 1615 468 5 0 0 0 - - -;
#X obj 1800 461 *;
#X obj 1800 441 t b f;
#X obj 1800 481 phasor~;
#X obj 1800 501 *~ -1;
#X obj 1800 541 min~;
#X obj 1800 521 +~ 1;
#X obj 1800 561 *~ 4;
#X obj 1662 697 -~ 1;
#X obj 1646 566 sig~ 2;
#X obj 1800 601 +~ 1;
#X obj 1800 419 / 100;
#X msg 1751 420 200;
#X msg 1615 433 100;
#X msg 1720 433 50;
#X obj 1616 408 loadbang;
#X msg 1744 726 0;
#X msg 1798 725 0.2;
#X obj 1643 775 *~;
#X obj 251 473 vline~;
#X msg 347 393 0 10;
#X obj 251 413 list, f 7;
#X obj 251 394 bng 15 250 50 0 empty empty empty 17 7 0 10 -262144
-1 -1;
#X msg 251 432 \$1 \, 0 \$2 \$3;
#X msg 330 100 1 20 0;
#X msg 456 122 1 100 400;
#X msg 404 101 0 0 0, f 6;
#X msg 287 74 0;
#X obj 459 36 t b b b;
#X obj 460 194 t f f;
#X obj 331 145 t b b a b;
#X obj 407 608 throw~ K1;
#X obj 468 608 throw~ K2;
#X obj 531 609 throw~ K3;
#X obj 595 609 throw~ K4;
#X obj 259 156 metro 600;
#X msg 491 357 0 1 0 0;
#X msg 539 377 0 0 0 1;
#X msg 355 119 1 150 450;
#X obj 741 131 noise~;
#X obj 741 160 bp~ 1400 8;
#X obj 741 181 bp~ 1400 8;
#X obj 741 287 throw~ \$0-audio;
#X obj 831 132 unpack f f;
#X floatatom 831 161 5 0 0 0 - - -;
#X floatatom 888 161 5 0 0 0 - - -;
#X obj 741 262 *~;
#X obj 831 62 r \$0-L;
#X obj 891 61 r \$0-R;
#X obj 743 46 sel H;
#X obj 741 335 r \$0-element;
#X obj 834 457 s2l;
#X msg 861 434 symbol;
#X obj 834 407 t s b;
#X obj 741 372 sel H O OH NH2 -;
#X obj 834 484 unpack s f;
#X msg 796 541 0;
#X obj 796 522 bng 15 250 50 0 empty empty empty 17 7 0 10 -262144
-1 -1;
#X msg 789 88 0 10;
#X obj 784 238 line;
#X floatatom 891 506 5 0 0 0 - - -;
#X obj 868 620 bng 15 250 50 0 empty empty empty 17 7 0 10 -262144
-1 -1;
#X obj 904 651 unpack f f;
#X obj 891 527 sel 0 1 2 3 4;
#X obj 813 733 throw~ \$0-audio;
#X obj 834 532 sel C;
#X obj 817 596 noise~;
#X obj 816 708 *~;
#X msg 851 693 0 50;
#X obj 851 714 line~;
#X obj 1370 435 noise~;
#X obj 1394 603 throw~ \$0-audio;
#X obj 1394 578 *~;
#X obj 1396 337 r \$0-element;
#X msg 1442 404 0 10;
#X obj 1445 565 line;
#X obj 1396 362 sel NH2;
#X obj 816 668 bp~ 800 8;
#X msg 891 695 0.6;
#X obj 1370 483 bp~ 400 10;
#X msg 856 82 3000 8;
#X msg 831 107 3000 8;
#X msg 916 84 3000 8;
#X msg 890 108 3000 8;
#X text 1411 449 400 10;
#X obj 1438 479 bp~ 400 10;
#X obj 1464 455 unpack f f f f f;
#X obj 1511 485 bp~ 400 10;
#X obj 1370 514 *~ 0.8;
#X obj 1439 516 *~ 0.6;
#X obj 1510 515 *~ 0.4;
#X obj 1581 486 bp~ 400 10;
#X obj 1581 512 *~ 0.2;
#X obj 1523 391 loadbang;
#X msg 743 88 0.25;
#X obj 1068 445 noise~;
#X obj 1092 613 throw~ \$0-audio;
#X obj 1092 588 *~;
#X obj 1094 347 r \$0-element;
#X msg 1140 414 0 10;
#X obj 1143 575 line;
#X obj 1068 493 bp~ 400 10;
#X obj 1136 489 bp~ 400 10;
#X obj 1162 465 unpack f f f f f;
#X obj 1209 495 bp~ 400 10;
#X obj 1068 524 *~ 0.8;
#X obj 1137 526 *~ 0.6;
#X obj 1208 525 *~ 0.4;
#X obj 1279 496 bp~ 400 10;
#X obj 1279 522 *~ 0.2;
#X obj 1221 401 loadbang;
#X obj 1094 372 sel OH;
#X text 1108 459 200 10;
#X obj 1083 136 noise~;
#X obj 1107 304 throw~ \$0-audio;
#X obj 1107 279 *~;
#X msg 1155 105 0 10;
#X obj 1158 266 line;
#X obj 1083 184 bp~ 400 10;
#X obj 1151 180 bp~ 400 10;
#X obj 1177 156 unpack f f f f f;
#X obj 1224 186 bp~ 400 10;
#X obj 1083 215 *~ 0.8;
#X obj 1152 217 *~ 0.6;
#X obj 1223 216 *~ 0.4;
#X obj 1294 187 bp~ 400 10;
#X obj 1294 213 *~ 0.2;
#X obj 1236 92 loadbang;
#X obj 1109 63 sel O;
#X text 1123 150 240;
#X msg 1165 441 50 80 160 220.1 100;
#X msg 1180 133 50 100 200 280.1 100;
#X msg 1466 431 60 120 200 301 100;
#X obj 816 634 bp~ 800 12;
#X msg 889 597 617 12;
#X msg 919 569 600 12;
#X msg 959 598 634 12;
#X msg 928 625 652 12;
#X msg 1094 414 5;
#X msg 1395 404 5;
#X msg 1107 104 5;
#X connect 0 0 2 0;
#X connect 1 0 128 0;
#X connect 1 1 126 0;
#X connect 2 0 5 0;
#X connect 2 1 7 0;
#X connect 3 0 4 0;
#X connect 3 0 7 1;
#X connect 4 0 9 0;
#X connect 5 0 6 0;
#X connect 6 0 3 0;
#X connect 7 0 6 1;
#X connect 8 0 141 0;
#X connect 9 0 1 0;
#X connect 10 0 8 0;
#X connect 11 0 135 0;
#X connect 12 0 53 0;
#X connect 13 0 21 0;
#X connect 13 0 23 0;
#X connect 13 0 25 0;
#X connect 13 0 27 0;
#X connect 14 0 15 0;
#X connect 16 0 17 0;
#X connect 17 0 19 0;
#X connect 17 1 20 0;
#X connect 18 0 45 0;
#X connect 18 1 46 0;
#X connect 18 2 47 0;
#X connect 18 3 48 0;
#X connect 19 0 44 0;
#X connect 20 0 43 1;
#X connect 21 0 137 0;
#X connect 22 0 37 0;
#X connect 23 0 138 0;
#X connect 24 0 36 0;
#X connect 25 0 139 0;
#X connect 26 0 38 0;
#X connect 27 0 140 0;
#X connect 28 0 39 0;
#X connect 29 0 30 0;
#X connect 30 0 22 0;
#X connect 30 1 24 0;
#X connect 30 2 26 0;
#X connect 30 3 28 0;
#X connect 31 0 30 0;
#X connect 32 0 21 1;
#X connect 33 0 23 1;
#X connect 34 0 25 1;
#X connect 35 0 27 1;
#X connect 36 0 33 0;
#X connect 37 0 32 0;
#X connect 38 0 34 0;
#X connect 39 0 35 0;
#X connect 40 0 13 0;
#X connect 42 0 12 0;
#X connect 43 0 41 0;
#X connect 44 0 43 0;
#X connect 44 1 18 0;
#X connect 49 0 87 0;
#X connect 50 0 88 0;
#X connect 51 0 89 0;
#X connect 52 0 90 0;
#X connect 53 0 130 0;
#X connect 53 1 144 0;
#X connect 53 2 131 0;
#X connect 53 3 144 0;
#X connect 53 4 134 0;
#X connect 53 5 131 0;
#X connect 54 0 29 0;
#X connect 55 0 142 0;
#X connect 56 0 31 0;
#X connect 57 0 143 0;
#X connect 59 0 73 0;
#X connect 60 0 84 0;
#X connect 61 0 79 0;
#X connect 62 0 63 0;
#X connect 62 0 75 0;
#X connect 63 0 64 0;
#X connect 64 0 68 1;
#X connect 65 0 75 1;
#X connect 66 0 64 1;
#X connect 67 0 65 0;
#X connect 67 0 66 0;
#X connect 68 0 69 0;
#X connect 69 0 70 0;
#X connect 71 0 70 1;
#X connect 72 0 71 0;
#X connect 73 0 74 0;
#X connect 73 1 86 0;
#X connect 74 0 72 0;
#X connect 74 1 67 0;
#X connect 75 0 68 0;
#X connect 79 0 80 0;
#X connect 79 1 81 0;
#X connect 80 0 82 0;
#X connect 81 0 82 0;
#X connect 82 0 78 1;
#X connect 83 0 78 0;
#X connect 84 0 123 0;
#X connect 84 1 122 0;
#X connect 86 0 71 0;
#X connect 87 0 1 1;
#X connect 88 0 1 1;
#X connect 89 0 1 1;
#X connect 90 0 1 1;
#X connect 92 0 98 0;
#X connect 92 0 99 0;
#X connect 93 0 114 0;
#X connect 94 0 93 0;
#X connect 95 0 93 1;
#X connect 96 0 124 0;
#X connect 97 0 96 0;
#X connect 98 0 95 0;
#X connect 99 0 94 0;
#X connect 100 0 94 1;
#X connect 100 0 97 0;
#X connect 101 0 92 0;
#X connect 102 0 103 0;
#X connect 103 0 104 1;
#X connect 104 0 116 0;
#X connect 105 0 117 0;
#X connect 106 0 101 0;
#X connect 106 0 107 0;
#X connect 107 0 109 0;
#X connect 108 0 107 0;
#X connect 108 1 107 1;
#X connect 109 0 110 0;
#X connect 109 0 111 1;
#X connect 110 0 112 0;
#X connect 111 0 113 0;
#X connect 112 0 111 0;
#X connect 113 0 104 0;
#X connect 114 0 97 1;
#X connect 115 0 100 0;
#X connect 116 0 95 1;
#X connect 116 0 100 1;
#X connect 117 0 108 0;
#X connect 118 0 117 0;
#X connect 119 0 106 0;
#X connect 120 0 102 0;
#X connect 121 0 119 0;
#X connect 121 0 118 0;
#X connect 121 0 120 0;
#X connect 122 0 124 1;
#X connect 123 0 124 1;
#X connect 125 0 13 1;
#X connect 126 0 125 0;
#X connect 127 0 129 0;
#X connect 128 0 127 0;
#X connect 129 0 125 0;
#X connect 130 0 136 0;
#X connect 131 0 136 0;
#X connect 132 0 127 1;
#X connect 133 0 8 0;
#X connect 134 0 11 0;
#X connect 134 1 133 0;
#X connect 134 2 132 0;
#X connect 135 0 9 0;
#X connect 135 1 3 0;
#X connect 136 0 10 0;
#X connect 136 1 11 0;
#X connect 136 2 127 1;
#X connect 136 3 133 0;
#X connect 141 0 0 0;
#X connect 142 0 30 0;
#X connect 143 0 30 0;
#X connect 144 0 136 0;
#X connect 145 0 146 0;
#X connect 146 0 147 0;
#X connect 147 0 152 0;
#X connect 149 0 150 0;
#X connect 149 1 151 0;
#X connect 150 0 146 1;
#X connect 150 0 147 1;
#X connect 151 0 146 2;
#X connect 151 0 147 2;
#X connect 152 0 148 0;
#X connect 153 0 187 0;
#X connect 154 0 189 0;
#X connect 155 0 200 0;
#X connect 155 1 164 0;
#X connect 156 0 160 0;
#X connect 157 0 161 0;
#X connect 158 0 157 1;
#X connect 159 0 157 0;
#X connect 159 1 158 0;
#X connect 160 0 163 0;
#X connect 160 1 163 0;
#X connect 160 2 163 0;
#X connect 160 3 163 0;
#X connect 160 4 163 0;
#X connect 160 5 159 0;
#X connect 161 0 171 0;
#X connect 161 1 166 0;
#X connect 162 0 175 0;
#X connect 163 0 162 0;
#X connect 164 0 165 0;
#X connect 165 0 152 1;
#X connect 166 0 169 0;
#X connect 168 0 183 1;
#X connect 168 0 239 1;
#X connect 168 1 183 2;
#X connect 168 1 239 2;
#X connect 169 0 240 0;
#X connect 169 1 241 0;
#X connect 169 2 243 0;
#X connect 169 3 242 0;
#X connect 169 4 240 0;
#X connect 171 0 184 0;
#X connect 171 1 174 0;
#X connect 172 0 239 0;
#X connect 173 0 170 0;
#X connect 174 0 175 0;
#X connect 175 0 173 1;
#X connect 176 0 185 0;
#X connect 176 0 191 0;
#X connect 176 0 193 0;
#X connect 176 0 197 0;
#X connect 178 0 177 0;
#X connect 179 0 182 0;
#X connect 180 0 181 0;
#X connect 181 0 178 1;
#X connect 182 0 245 0;
#X connect 182 1 180 0;
#X connect 183 0 173 0;
#X connect 184 0 175 0;
#X connect 185 0 194 0;
#X connect 186 0 149 0;
#X connect 187 0 149 0;
#X connect 188 0 149 0;
#X connect 189 0 149 0;
#X connect 191 0 195 0;
#X connect 192 0 185 1;
#X connect 192 1 191 1;
#X connect 192 2 193 1;
#X connect 192 3 197 1;
#X connect 192 4 193 2;
#X connect 192 4 191 2;
#X connect 192 4 185 2;
#X connect 192 4 197 2;
#X connect 193 0 196 0;
#X connect 194 0 178 0;
#X connect 195 0 178 0;
#X connect 196 0 178 0;
#X connect 197 0 198 0;
#X connect 198 0 178 0;
#X connect 199 0 238 0;
#X connect 200 0 152 1;
#X connect 201 0 207 0;
#X connect 201 0 208 0;
#X connect 201 0 210 0;
#X connect 201 0 214 0;
#X connect 203 0 202 0;
#X connect 204 0 217 0;
#X connect 205 0 206 0;
#X connect 206 0 203 1;
#X connect 207 0 211 0;
#X connect 208 0 212 0;
#X connect 209 0 207 1;
#X connect 209 1 208 1;
#X connect 209 2 210 1;
#X connect 209 3 214 1;
#X connect 209 4 210 2;
#X connect 209 4 208 2;
#X connect 209 4 207 2;
#X connect 209 4 214 2;
#X connect 210 0 213 0;
#X connect 211 0 203 0;
#X connect 212 0 203 0;
#X connect 213 0 203 0;
#X connect 214 0 215 0;
#X connect 215 0 203 0;
#X connect 216 0 236 0;
#X connect 217 0 244 0;
#X connect 217 1 205 0;
#X connect 219 0 224 0;
#X connect 219 0 225 0;
#X connect 219 0 227 0;
#X connect 219 0 231 0;
#X connect 221 0 220 0;
#X connect 222 0 223 0;
#X connect 223 0 221 1;
#X connect 224 0 228 0;
#X connect 225 0 229 0;
#X connect 226 0 224 1;
#X connect 226 1 225 1;
#X connect 226 2 227 1;
#X connect 226 3 231 1;
#X connect 226 4 227 2;
#X connect 226 4 225 2;
#X connect 226 4 224 2;
#X connect 226 4 231 2;
#X connect 227 0 230 0;
#X connect 228 0 221 0;
#X connect 229 0 221 0;
#X connect 230 0 221 0;
#X connect 231 0 232 0;
#X connect 232 0 221 0;
#X connect 233 0 237 0;
#X connect 234 0 246 0;
#X connect 234 1 222 0;
#X connect 236 0 209 0;
#X connect 237 0 226 0;
#X connect 238 0 192 0;
#X connect 239 0 183 0;
#X connect 240 0 168 0;
#X connect 241 0 168 0;
#X connect 242 0 168 0;
#X connect 243 0 168 0;
#X connect 244 0 203 1;
#X connect 245 0 178 1;
#X connect 246 0 221 1;
