#N canvas 37 179 1119 762 10;
#X obj 263 226 bng 15 250 50 0 empty empty empty 17 7 0 10 -262144
-1 -1;
#X obj 372 473 sel 0;
#X obj 264 279 t b b;
#X floatatom 271 387 5 0 0 0 - - -;
#X msg 264 331 1;
#X obj 263 359 +;
#X obj 292 332 f;
#X obj 257 115 tgl 15 0 empty empty empty 17 7 0 10 -262144 -1 -1 1
1;
#X floatatom 270 438 5 0 0 0 - - -;
#X msg 251 83 1;
#X msg 415 257 0;
#X symbolatom 330 49 10 0 0 0 - - -;
#X obj 1247 639 noise~;
#X obj 1247 668 bp~ 1400 8;
#X obj 1247 689 bp~ 1400 8;
#X obj 58 14 tgl 15 0 empty empty empty 17 7 0 10 -262144 -1 -1 0 1
;
#X msg 58 34 \; pd dsp \$1;
#X obj 53 97 inlet;
#X obj 53 132 unpack s s;
#X obj 53 254 sel L B R T;
#X symbolatom 53 214 10 0 0 0 - - -;
#X symbolatom 110 153 10 0 0 0 - - -;
#X obj 105 697 *~;
#X floatatom 120 590 5 0 0 0 - - -;
#X obj 156 698 *~;
#X floatatom 171 589 5 0 0 0 - - -;
#X obj 207 697 *~;
#X floatatom 222 588 5 0 0 0 - - -;
#X obj 257 695 *~;
#X floatatom 272 587 5 0 0 0 - - -;
#X msg 137 540 1 0 0 0;
#X obj 137 564 unpack f f f f;
#X msg 174 499 0 0 1 0;
#X obj 120 635 line;
#X obj 171 634 line;
#X obj 222 633 line;
#X obj 272 632 line;
#X msg 171 611 \$1 100;
#X msg 120 612 \$1 100;
#X msg 222 610 \$1 100;
#X msg 272 609 \$1 100;
#X obj 17 614 catch~ \$0-audio;
#X obj 112 210 s \$0-element;
#X obj 330 24 r \$0-element;
#X obj 1337 640 unpack f f;
#X floatatom 1337 669 5 0 0 0 - - -;
#X floatatom 1394 669 5 0 0 0 - - -;
#X obj 109 172 symbol;
#X obj 53 234 t b s;
#X obj 53 338 s \$0-L;
#X obj 68 318 s \$0-B;
#X obj 84 299 s \$0-R;
#X obj 100 279 s \$0-T;
#X obj 377 408 r \$0-L;
#X obj 340 375 r \$0-B;
#X obj 440 407 r \$0-R;
#X obj 402 375 r \$0-T;
#X obj 329 73 sel H O OH NH2 -;
#X obj 137 451 r \$0-L;
#X obj 151 473 r \$0-B;
#X obj 182 451 r \$0-R;
#X obj 199 472 r \$0-T;
#X text 281 654 speaker control;
#X obj 1337 570 r \$0-L;
#X obj 1366 547 r \$0-B;
#X obj 1397 569 r \$0-R;
#X obj 1428 547 r \$0-T;
#X obj 1249 554 sel H;
#X obj 1249 529 r \$0-element;
#X obj 1257 37 r \$0-element;
#X obj 1350 159 s2l;
#X msg 1377 136 symbol;
#X obj 1350 109 t s b;
#X obj 1257 74 sel H O OH NH2 -;
#X obj 1350 186 unpack s f;
#X msg 1312 243 0;
#X obj 1312 224 bng 15 250 50 0 empty empty empty 17 7 0 10 -262144
-1 -1;
#X msg 1295 596 0 10;
#X msg 377 437 1;
#X msg 409 437 2;
#X msg 440 436 3;
#X msg 471 436 0;
#X floatatom 1407 208 5 0 0 0 - - -;
#X obj 1384 322 bng 15 250 50 0 empty empty empty 17 7 0 10 -262144
-1 -1;
#X obj 1332 336 bp~ 800 10;
#X obj 1420 353 unpack f f;
#X obj 1407 229 sel 0 1 2 3 4;
#X obj 1329 435 throw~ \$0-audio;
#X obj 1332 371 bp~ 800 10;
#X obj 1350 234 sel C;
#X obj 1265 292 noise~;
#X obj 1332 410 *~;
#X msg 1367 395 0 50;
#X obj 1367 416 line~;
#X msg 1407 397 0.8;
#X msg 1396 615 2300 8;
#X msg 1362 590 2250 8;
#X msg 1405 299 200 10;
#X msg 1435 272 210 10;
#X msg 1475 299 220 10;
#X msg 1444 328 230 10;
#X msg 1249 596 0.3;
#X msg 1337 615 2200 8;
#X msg 1422 592 2350 8;
#X msg 387 522 0 10;
#X obj 265 499 bng 15 250 50 0 empty empty empty 17 7 0 10 -262144
-1 -1;
#X msg 530 73 0 0 0, f 6;
#X msg 281 81 0;
#X obj 457 63 t b b b;
#X obj 459 250 t f f;
#X obj 337 291 t b b a b;
#X obj 67 772 throw~ K1;
#X obj 128 772 throw~ K2;
#X obj 191 773 throw~ K3;
#X obj 255 773 throw~ K4;
#X obj 263 203 metro 600;
#X msg 151 521 0 1 0 0;
#X msg 199 541 0 0 0 1;
#X obj 716 729 throw~ \$0-audio;
#X obj 265 519 s \$0-bang;
#X obj 59 652 *~ 0.8;
#X obj 644 426 hsl 128 15 40 80 0 0 empty empty empty -2 -8 0 10 -262144
-1 -1 0 1;
#X floatatom 641 480 5 0 0 0 - - -;
#X floatatom 752 483 5 0 0 0 - - -;
#X text 682 487 carrier;
#X obj 752 506 osc~;
#X obj 755 569 *~;
#X floatatom 774 543 5 0 0 0 - - -;
#X obj 641 610 +~;
#X obj 641 669 *~;
#X text 791 572 modulation amount (depth/deviation);
#X floatatom 641 553 5 0 0 0 - - -;
#X obj 641 503 mtof;
#X obj 641 573 sig~;
#X obj 641 638 osc~;
#X obj 844 623 bng 15 250 50 0 empty empty empty 17 7 0 10 -262144
-1 -1;
#X obj 844 655 adsr~ 50 800 0 50;
#X text 793 535 envelope;
#X obj 844 595 r \$0-bang;
#X obj 932 538 unpack f f f f;
#X obj 932 507 r \$0-asdr;
#X obj 735 287 r \$0-fmsound;
#X obj 784 426 unpack f f f f f f f;
#X obj 833 96 r \$0-element;
#X obj 926 218 s2l;
#X msg 953 195 symbol;
#X obj 926 168 t s b;
#X obj 832 126 sel H O OH NH2 -;
#X obj 926 245 unpack s f;
#X floatatom 983 267 5 0 0 0 - - -;
#X obj 983 288 sel 0 1 2 3 4;
#X obj 926 293 sel C;
#X msg 842 328 0;
#X obj 806 505 +;
#X floatatom 824 483 5 0 0 0 - - -;
#X msg 979 325 -250;
#X msg 991 349 -100;
#X msg 1016 322 0;
#X msg 1028 346 50;
#X msg 1060 349 150;
#X obj 330 97 t b b;
#X floatatom 301 177 5 0 0 0 - - -;
#X obj 353 142 t b b;
#X obj 368 97 t b b;
#X obj 405 97 t b b;
#X obj 453 91 t b b;
#X text 519 243 -O & -OH \, shorter \, longer sustain;
#X text 598 208 NH2 \, longer sustain;
#X obj 268 416 mod 8;
#X obj 270 458 < 3;
#X obj 270 479 sel 1;
#X msg 498 138 200 8 3;
#X obj 551 179 unpack f f f;
#X floatatom 382 346 5 0 0 0 - - -;
#X floatatom 457 353 5 0 0 0 - - -;
#X msg 591 140 800 4 1;
#X msg 648 142 600 6 2;
#X obj 641 690 *~ 0.7;
#X msg 331 127 850 100 50 5 50 0 300;
#X msg 409 206 200 106 136 80 800 0 100;
#X msg 353 160 120 100 100 5 500 0 100;
#X msg 369 181 120 100 100 100 800 0 50;
#X msg 473 228 340 30 20 20 600 0 100;
#X connect 0 0 2 0;
#X connect 1 1 104 0;
#X connect 2 0 4 0;
#X connect 2 1 6 0;
#X connect 3 0 6 1;
#X connect 3 0 168 0;
#X connect 4 0 5 0;
#X connect 5 0 3 0;
#X connect 6 0 5 1;
#X connect 7 0 115 0;
#X connect 8 0 169 0;
#X connect 9 0 7 0;
#X connect 10 0 109 0;
#X connect 11 0 57 0;
#X connect 12 0 13 0;
#X connect 13 0 14 0;
#X connect 15 0 16 0;
#X connect 17 0 18 0;
#X connect 18 0 20 0;
#X connect 18 1 21 0;
#X connect 19 0 49 0;
#X connect 19 1 50 0;
#X connect 19 2 51 0;
#X connect 19 3 52 0;
#X connect 20 0 48 0;
#X connect 21 0 47 1;
#X connect 22 0 111 0;
#X connect 23 0 38 0;
#X connect 24 0 112 0;
#X connect 25 0 37 0;
#X connect 26 0 113 0;
#X connect 27 0 39 0;
#X connect 28 0 114 0;
#X connect 29 0 40 0;
#X connect 30 0 31 0;
#X connect 31 0 23 0;
#X connect 31 1 25 0;
#X connect 31 2 27 0;
#X connect 31 3 29 0;
#X connect 32 0 31 0;
#X connect 33 0 22 1;
#X connect 34 0 24 1;
#X connect 35 0 26 1;
#X connect 36 0 28 1;
#X connect 37 0 34 0;
#X connect 38 0 33 0;
#X connect 39 0 35 0;
#X connect 40 0 36 0;
#X connect 41 0 120 0;
#X connect 43 0 11 0;
#X connect 44 0 45 0;
#X connect 44 1 46 0;
#X connect 45 0 13 1;
#X connect 45 0 14 1;
#X connect 46 0 13 2;
#X connect 46 0 14 2;
#X connect 47 0 42 0;
#X connect 48 0 47 0;
#X connect 48 1 19 0;
#X connect 53 0 78 0;
#X connect 54 0 79 0;
#X connect 55 0 80 0;
#X connect 56 0 81 0;
#X connect 57 0 160 0;
#X connect 57 1 162 0;
#X connect 57 2 163 0;
#X connect 57 3 164 0;
#X connect 57 4 108 0;
#X connect 57 5 165 0;
#X connect 58 0 30 0;
#X connect 59 0 116 0;
#X connect 60 0 32 0;
#X connect 61 0 117 0;
#X connect 63 0 102 0;
#X connect 64 0 96 0;
#X connect 65 0 95 0;
#X connect 66 0 103 0;
#X connect 67 0 101 0;
#X connect 67 1 77 0;
#X connect 68 0 67 0;
#X connect 69 0 73 0;
#X connect 70 0 74 0;
#X connect 71 0 70 1;
#X connect 72 0 70 0;
#X connect 72 1 71 0;
#X connect 73 0 76 0;
#X connect 73 1 76 0;
#X connect 73 2 76 0;
#X connect 73 3 76 0;
#X connect 73 4 76 0;
#X connect 73 5 72 0;
#X connect 74 0 89 0;
#X connect 74 1 82 0;
#X connect 75 0 93 0;
#X connect 76 0 75 0;
#X connect 78 0 1 1;
#X connect 79 0 1 1;
#X connect 80 0 1 1;
#X connect 81 0 1 1;
#X connect 82 0 86 0;
#X connect 84 0 88 0;
#X connect 85 0 84 1;
#X connect 85 0 88 1;
#X connect 85 1 84 2;
#X connect 85 1 88 2;
#X connect 86 0 97 0;
#X connect 86 1 98 0;
#X connect 86 2 100 0;
#X connect 86 3 99 0;
#X connect 86 4 97 0;
#X connect 88 0 91 0;
#X connect 89 0 94 0;
#X connect 89 1 92 0;
#X connect 91 0 87 0;
#X connect 92 0 93 0;
#X connect 93 0 91 1;
#X connect 94 0 93 0;
#X connect 95 0 44 0;
#X connect 96 0 44 0;
#X connect 97 0 85 0;
#X connect 98 0 85 0;
#X connect 99 0 85 0;
#X connect 100 0 85 0;
#X connect 102 0 44 0;
#X connect 103 0 44 0;
#X connect 105 0 119 0;
#X connect 107 0 7 0;
#X connect 108 0 10 0;
#X connect 108 1 107 0;
#X connect 108 2 106 0;
#X connect 109 0 8 0;
#X connect 109 1 3 0;
#X connect 110 0 9 0;
#X connect 110 1 10 0;
#X connect 110 2 142 0;
#X connect 110 3 107 0;
#X connect 115 0 0 0;
#X connect 116 0 31 0;
#X connect 117 0 31 0;
#X connect 120 0 22 0;
#X connect 120 0 24 0;
#X connect 120 0 26 0;
#X connect 120 0 28 0;
#X connect 121 0 122 0;
#X connect 122 0 132 0;
#X connect 123 0 125 0;
#X connect 125 0 126 0;
#X connect 126 0 128 1;
#X connect 127 0 126 1;
#X connect 128 0 134 0;
#X connect 129 0 177 0;
#X connect 131 0 133 0;
#X connect 132 0 131 0;
#X connect 133 0 128 0;
#X connect 134 0 129 0;
#X connect 135 0 136 0;
#X connect 136 0 129 1;
#X connect 138 0 135 0;
#X connect 139 0 136 1;
#X connect 139 1 136 2;
#X connect 139 2 136 3;
#X connect 139 3 136 4;
#X connect 142 0 131 0;
#X connect 142 1 123 0;
#X connect 142 2 153 0;
#X connect 142 2 127 0;
#X connect 142 3 136 1;
#X connect 142 4 136 2;
#X connect 142 5 136 3;
#X connect 142 6 136 4;
#X connect 143 0 147 0;
#X connect 144 0 148 0;
#X connect 145 0 144 1;
#X connect 146 0 144 0;
#X connect 146 1 145 0;
#X connect 147 0 152 0;
#X connect 147 1 152 0;
#X connect 147 2 152 0;
#X connect 147 3 152 0;
#X connect 147 4 152 0;
#X connect 147 5 146 0;
#X connect 148 0 151 0;
#X connect 148 1 149 0;
#X connect 149 0 150 0;
#X connect 150 0 155 0;
#X connect 150 1 156 0;
#X connect 150 2 157 0;
#X connect 150 3 158 0;
#X connect 150 4 159 0;
#X connect 152 0 154 0;
#X connect 154 0 153 1;
#X connect 155 0 154 0;
#X connect 156 0 154 0;
#X connect 157 0 154 0;
#X connect 158 0 154 0;
#X connect 159 0 154 0;
#X connect 160 0 178 0;
#X connect 160 1 171 0;
#X connect 161 0 115 1;
#X connect 162 0 180 0;
#X connect 162 1 175 0;
#X connect 163 0 181 0;
#X connect 163 1 175 0;
#X connect 164 0 179 0;
#X connect 164 1 175 0;
#X connect 165 0 182 0;
#X connect 165 1 176 0;
#X connect 168 0 8 0;
#X connect 169 0 170 0;
#X connect 170 0 105 0;
#X connect 171 0 172 0;
#X connect 172 0 161 0;
#X connect 172 1 173 0;
#X connect 172 2 174 0;
#X connect 173 0 168 1;
#X connect 174 0 169 1;
#X connect 175 0 172 0;
#X connect 176 0 172 0;
#X connect 177 0 118 0;
#X connect 178 0 110 0;
#X connect 179 0 110 0;
#X connect 180 0 110 0;
#X connect 181 0 110 0;
#X connect 182 0 110 0;
