#N canvas 1541 102 1108 771 10;
#X obj 259 179 bng 15 250 50 0 empty empty empty 17 7 0 10 -262144
-1 -1;
#X obj 260 369 sel 0;
#X obj 259 199 t b b;
#X floatatom 259 279 5 0 0 0 - - -;
#X msg 259 230 1;
#X obj 258 258 +;
#X obj 287 231 f;
#X obj 257 115 tgl 15 0 empty empty empty 17 7 0 10 -262144 -1 -1 1
1;
#X floatatom 259 317 5 0 0 0 - - -;
#X msg 257 76 1;
#X msg 416 201 0;
#X symbolatom 327 23 10 0 0 0 - - -;
#X obj 53 97 inlet;
#X obj 53 132 unpack s s;
#X obj 53 254 sel L B R T;
#X symbolatom 53 214 10 0 0 0 - - -;
#X symbolatom 110 153 10 0 0 0 - - -;
#X obj 105 697 *~;
#X floatatom 120 590 5 0 0 0 - - -;
#X obj 156 698 *~;
#X floatatom 171 589 5 0 0 0 - - -;
#X obj 207 697 *~;
#X floatatom 222 588 5 0 0 0 - - -;
#X obj 257 695 *~;
#X floatatom 272 587 5 0 0 0 - - -;
#X msg 137 540 1 0 0 0;
#X obj 137 564 unpack f f f f;
#X msg 174 499 0 0 1 0;
#X obj 120 635 line;
#X obj 171 634 line;
#X obj 222 633 line;
#X obj 272 632 line;
#X msg 171 611 \$1 100;
#X msg 120 612 \$1 100;
#X msg 222 610 \$1 100;
#X msg 272 609 \$1 100;
#X obj 17 614 catch~ \$0-audio;
#X obj 112 210 s \$0-element;
#X obj 327 -2 r \$0-element;
#X obj 109 172 symbol;
#X obj 53 234 t b s;
#X obj 53 338 s \$0-L;
#X obj 68 318 s \$0-B;
#X obj 84 299 s \$0-R;
#X obj 100 279 s \$0-T;
#X obj 296 290 r \$0-L;
#X obj 328 267 r \$0-B;
#X obj 359 289 r \$0-R;
#X obj 390 267 r \$0-T;
#X obj 324 46 sel H O OH NH2 -;
#X obj 137 451 r \$0-L;
#X obj 151 473 r \$0-B;
#X obj 182 451 r \$0-R;
#X obj 199 472 r \$0-T;
#X text 281 654 speaker control;
#X msg 296 319 1;
#X msg 328 319 2;
#X msg 359 318 3;
#X msg 390 318 0;
#X msg 356 387 0 10;
#X obj 260 398 bng 15 250 50 0 empty empty empty 17 7 0 10 -262144
-1 -1;
#X msg 287 74 0;
#X obj 454 43 t b b b;
#X obj 460 194 t f f;
#X obj 332 195 t b b a b;
#X obj 67 772 throw~ K1;
#X obj 128 772 throw~ K2;
#X obj 191 773 throw~ K3;
#X obj 255 773 throw~ K4;
#X msg 151 521 0 1 0 0;
#X msg 199 541 0 0 0 1;
#X text 797 312 1) smaller number with high frequency;
#X obj 740 705 throw~ \$0-audio;
#X obj 260 418 s \$0-bang;
#X obj 59 652 *~ 0.8;
#X obj 883 638 clip~ -0.6 0.6;
#X obj 795 565 bp~ 1 1;
#X obj 873 565 bp~ 1 1;
#X obj 940 566 bp~ 1 1;
#X obj 1010 566 bp~ 1 1;
#X obj 873 586 *~ 0.6;
#X obj 940 587 *~ 0.4;
#X obj 1010 587 *~ 0.4;
#X msg 958 196 60 100 200 600 40;
#X text 485 246 220 330 460 800 100;
#X obj 259 299 mod 8;
#X obj 873 677 *~ 3;
#X msg 460 319 0;
#X msg 489 320 1;
#X msg 520 321 2;
#X obj 466 353 s \$0-pattern;
#X obj 327 75 t b b;
#X obj 363 76 t b b;
#X obj 401 76 t b b;
#X obj 479 78 t b b;
#X obj 441 78 t b b;
#X obj 236 142 metro 4000;
#X obj 570 599 *~;
#X obj 585 574 pink~;
#X obj 570 620 *~ 0.2;
#X obj 570 418 noise~;
#X obj 570 448 >~ 0.998;
#X obj 570 522 *~;
#X obj 760 353 sel 0 1 2;
#X msg 772 433 0;
#X msg 738 391 1;
#X floatatom 902 385 5 0 0 0 - - -;
#X floatatom 918 674 5 0 0 0 - - -;
#X text 962 673 volume seperate control;
#X obj 632 417 brown~;
#X obj 696 418 pink~;
#X obj 632 522 *~;
#X obj 693 520 *~;
#X obj 875 706 dac~;
#X obj 438 543 gate 2;
#X obj 587 501 line;
#X msg 587 481 \$1 10;
#X obj 649 500 line;
#X msg 649 480 \$1 10;
#X obj 711 501 line;
#X msg 711 481 \$1 10;
#X msg 789 459 1;
#X msg 817 459 0;
#X msg 820 436 1;
#X msg 848 436 0;
#X obj 904 362 unpack f f f f f f f;
#X msg 860 413 0;
#X msg 530 73 0 0 0 0 0 0 0;
#X obj 696 447 >~ 0.5998;
#X obj 632 449 >~ 0.9996;
#X obj 700 649 else/vu~;
#X obj 683 684 vu 15 120 empty empty -1 -8 0 10 -66577 -1 1 0;
#X obj 795 589 *~ 0.8;
#X msg 330 100 0 352 877 1811 2941.1 123 1.1;
#X msg 568 216 1 244 333.1 629 971 116 8.5;
#X obj 790 497 hip~ 90;
#X obj 871 620 *~ 150;
#X msg 546 152 2 130 271 441 553 395 19;
#X msg 377 155 2 100 173 311 401 290 13;
#X msg 355 130 1 100 201 350 461 200 19;
#X connect 0 0 2 0;
#X connect 1 0 60 0;
#X connect 1 1 59 0;
#X connect 2 0 4 0;
#X connect 2 1 6 0;
#X connect 3 0 6 1;
#X connect 3 0 85 0;
#X connect 4 0 5 0;
#X connect 5 0 3 0;
#X connect 6 0 5 1;
#X connect 7 0 96 0;
#X connect 8 0 1 0;
#X connect 9 0 7 0;
#X connect 10 0 63 0;
#X connect 11 0 49 0;
#X connect 12 0 13 0;
#X connect 13 0 15 0;
#X connect 13 1 16 0;
#X connect 14 0 41 0;
#X connect 14 1 42 0;
#X connect 14 2 43 0;
#X connect 14 3 44 0;
#X connect 15 0 40 0;
#X connect 16 0 39 1;
#X connect 17 0 65 0;
#X connect 18 0 33 0;
#X connect 19 0 66 0;
#X connect 20 0 32 0;
#X connect 21 0 67 0;
#X connect 22 0 34 0;
#X connect 23 0 68 0;
#X connect 24 0 35 0;
#X connect 25 0 26 0;
#X connect 26 0 18 0;
#X connect 26 1 20 0;
#X connect 26 2 22 0;
#X connect 26 3 24 0;
#X connect 27 0 26 0;
#X connect 28 0 17 1;
#X connect 29 0 19 1;
#X connect 30 0 21 1;
#X connect 31 0 23 1;
#X connect 32 0 29 0;
#X connect 33 0 28 0;
#X connect 34 0 30 0;
#X connect 35 0 31 0;
#X connect 36 0 74 0;
#X connect 38 0 11 0;
#X connect 39 0 37 0;
#X connect 40 0 39 0;
#X connect 40 1 14 0;
#X connect 45 0 55 0;
#X connect 46 0 56 0;
#X connect 47 0 57 0;
#X connect 48 0 58 0;
#X connect 49 0 91 0;
#X connect 49 1 92 0;
#X connect 49 2 93 0;
#X connect 49 3 95 0;
#X connect 49 4 62 0;
#X connect 49 5 94 0;
#X connect 50 0 25 0;
#X connect 51 0 69 0;
#X connect 52 0 27 0;
#X connect 53 0 70 0;
#X connect 55 0 1 1;
#X connect 56 0 1 1;
#X connect 57 0 1 1;
#X connect 58 0 1 1;
#X connect 60 0 73 0;
#X connect 61 0 7 0;
#X connect 62 0 10 0;
#X connect 62 1 61 0;
#X connect 62 2 127 0;
#X connect 63 0 8 0;
#X connect 63 1 3 0;
#X connect 64 0 9 0;
#X connect 64 1 10 0;
#X connect 64 2 125 0;
#X connect 64 3 61 0;
#X connect 69 0 26 0;
#X connect 70 0 26 0;
#X connect 74 0 17 0;
#X connect 74 0 19 0;
#X connect 74 0 21 0;
#X connect 74 0 23 0;
#X connect 75 0 86 0;
#X connect 76 0 132 0;
#X connect 77 0 80 0;
#X connect 78 0 81 0;
#X connect 79 0 82 0;
#X connect 80 0 136 0;
#X connect 81 0 136 0;
#X connect 82 0 136 0;
#X connect 85 0 8 0;
#X connect 86 0 72 0;
#X connect 86 0 130 0;
#X connect 87 0 90 0;
#X connect 88 0 90 0;
#X connect 89 0 90 0;
#X connect 91 0 133 0;
#X connect 91 1 87 0;
#X connect 92 0 139 0;
#X connect 92 1 89 0;
#X connect 93 0 138 0;
#X connect 93 1 89 0;
#X connect 94 0 134 0;
#X connect 94 1 88 0;
#X connect 95 0 137 0;
#X connect 95 1 89 0;
#X connect 97 0 99 0;
#X connect 98 0 97 1;
#X connect 99 0 135 0;
#X connect 100 0 101 0;
#X connect 101 0 102 0;
#X connect 102 0 97 0;
#X connect 103 0 105 0;
#X connect 103 0 104 0;
#X connect 103 1 121 0;
#X connect 103 1 122 0;
#X connect 103 2 123 0;
#X connect 103 2 124 0;
#X connect 103 3 126 0;
#X connect 104 0 118 0;
#X connect 104 0 120 0;
#X connect 105 0 116 0;
#X connect 106 0 103 0;
#X connect 107 0 86 1;
#X connect 109 0 129 0;
#X connect 110 0 128 0;
#X connect 111 0 97 0;
#X connect 112 0 97 0;
#X connect 115 0 102 1;
#X connect 116 0 115 0;
#X connect 117 0 111 1;
#X connect 118 0 117 0;
#X connect 119 0 112 1;
#X connect 120 0 119 0;
#X connect 121 0 118 0;
#X connect 122 0 116 0;
#X connect 122 0 120 0;
#X connect 123 0 120 0;
#X connect 124 0 118 0;
#X connect 124 0 116 0;
#X connect 125 0 106 0;
#X connect 125 1 76 1;
#X connect 125 2 77 1;
#X connect 125 3 78 1;
#X connect 125 4 79 1;
#X connect 125 5 76 2;
#X connect 125 5 77 2;
#X connect 125 5 78 2;
#X connect 125 5 79 2;
#X connect 125 6 107 0;
#X connect 126 0 116 0;
#X connect 126 0 118 0;
#X connect 126 0 120 0;
#X connect 127 0 125 0;
#X connect 128 0 112 0;
#X connect 129 0 111 0;
#X connect 130 0 131 0;
#X connect 132 0 136 0;
#X connect 133 0 64 0;
#X connect 134 0 64 0;
#X connect 135 0 76 0;
#X connect 135 0 77 0;
#X connect 135 0 78 0;
#X connect 135 0 79 0;
#X connect 136 0 75 0;
#X connect 137 0 64 0;
#X connect 138 0 64 0;
#X connect 139 0 64 0;
