#N canvas 365 23 777 716 10;
#X obj 44 135 qlist;
#X msg 25 42 read alanine.txt cr;
#X msg 84 105 bang;
#X obj 23 558 print;
#X symbolatom 56 630 10 0 0 0 - - -, f 10;
#X floatatom 141 688 5 0 0 0 - - -, f 5;
#X floatatom 182 688 5 0 0 0 - - -, f 5;
#X obj 75 553 unpack s s f f f;
#X symbolatom 98 610 10 0 0 0 - - -, f 10;
#X msg 45 70 read alanine1.txt cr;
#X obj 23 199 r ATOM;
#X obj 23 233 unpack f s s;
#X obj 23 260 print 1;
#X symbolatom 83 770 10 0 0 0 - - -, f 10;
#X obj 57 334 s2l;
#X obj 143 351 print atom;
#X symbolatom 91 415 10 0 0 0 - - -, f 10;
#X floatatom 245 394 5 0 0 0 - - -, f 5;
#X symbolatom 288 379 10 0 0 0 - - -, f 10;
#X symbolatom 303 400 10 0 0 0 - - -, f 10;
#X symbolatom 328 418 10 0 0 0 - - -, f 10;
#X obj 245 318 s2l;
#X msg 271 297 symbol;
#X msg 237 214 symbol 1H;
#X msg 385 349 symbol;
#X obj 292 511 sel H;
#X obj 292 547 bng 15 250 50 0 empty empty empty 17 7 0 10 -262144
-1 -1;
#X msg 356 347 0;
#X obj 237 258 t s b b;
#X obj 56 682 s2l;
#X msg 86 668 symbol;
#X obj 56 650 t s b;
#X obj 23 515 r ATOM5;
#X msg 77 314 symbol;
#X obj 57 291 t s b;
#X symbolatom 57 457 10 0 0 0 - - -, f 10;
#X symbolatom 126 395 10 0 0 0 - - -, f 10;
#X msg 318 181 symbol CB;
#X obj 245 346 unpack s s s s;
#X symbolatom 246 420 10 0 0 0 - - -, f 10;
#X msg 318 225 symbol OCA;
#X obj 48 714 unpack f s s;
#X symbolatom 117 740 10 0 0 0 - - -, f 10;
#X obj 57 364 unpack f s s;
#X floatatom 57 434 5 0 0 0 - - -, f 5;
#X text 24 478 space as zero(f)/blank(s);
#X text 240 439 float as symbol?;
#X msg 648 219 vis 1 1;
#X msg 570 130 1 H A 3.5 -1 2;
#X msg 583 165 2 C A 3.5 -1 2;
#X obj 581 96 bng 15 250 50 0 empty empty empty 17 7 0 10 -262144 -1
-1;
#X obj 593 297 atomplayer;
#X obj 582 243 clone atomplayer 10;
#X obj 580 368 clone granular 10;
#X obj 581 424 granular;
#X connect 1 0 0 0;
#X connect 2 0 0 0;
#X connect 4 0 31 0;
#X connect 7 0 4 0;
#X connect 7 1 8 0;
#X connect 7 2 5 0;
#X connect 7 3 6 0;
#X connect 9 0 0 0;
#X connect 10 0 11 0;
#X connect 11 0 12 0;
#X connect 11 1 34 0;
#X connect 14 0 15 0;
#X connect 14 0 43 0;
#X connect 18 0 25 0;
#X connect 21 0 38 0;
#X connect 22 0 21 1;
#X connect 23 0 28 0;
#X connect 24 0 18 0;
#X connect 24 0 19 0;
#X connect 24 0 20 0;
#X connect 25 0 26 0;
#X connect 27 0 17 0;
#X connect 28 0 21 0;
#X connect 28 1 22 0;
#X connect 28 2 27 0;
#X connect 28 2 24 0;
#X connect 29 0 41 0;
#X connect 30 0 29 1;
#X connect 31 0 29 0;
#X connect 31 1 30 0;
#X connect 32 0 3 0;
#X connect 32 0 7 0;
#X connect 33 0 14 1;
#X connect 34 0 14 0;
#X connect 34 1 33 0;
#X connect 37 0 28 0;
#X connect 38 0 39 0;
#X connect 38 1 18 0;
#X connect 38 2 19 0;
#X connect 38 3 20 0;
#X connect 40 0 28 0;
#X connect 41 1 13 0;
#X connect 41 2 42 0;
#X connect 43 0 44 0;
#X connect 43 1 16 0;
#X connect 43 2 36 0;
#X connect 47 0 52 0;
#X connect 48 0 52 0;
#X connect 49 0 52 0;
#X connect 50 0 48 0;
#X connect 50 0 49 0;
